<mxfile host="app.diagrams.net" modified="2020-09-03T13:39:26.139Z" agent="5.0 (Windows NT 10.0; Win64; x64) AppleWebKit/537.36 (KHTML, like Gecko) Chrome/84.0.4147.135 Safari/537.36" etag="WWKlW-hBZbK4tGfyNnz3" version="13.6.5" type="github">
  <diagram id="fZnBgOjcjsLAM-tmU1mn" name="Page-1">
    <mxGraphModel dx="1483" dy="783" grid="1" gridSize="10" guides="1" tooltips="1" connect="1" arrows="1" fold="1" page="1" pageScale="1" pageWidth="850" pageHeight="1100" math="0" shadow="0" extFonts="Old Standard TT^https://fonts.googleapis.com/css?family=Old+Standard+TT">
      <root>
        <mxCell id="0" />
        <mxCell id="1" parent="0" />
        <mxCell id="M3BjKk8lu1IJlSjOZzsM-1" value="" style="shape=image;verticalLabelPosition=bottom;verticalAlign=top;imageAspect=0;aspect=fixed;image=data:image/png,iVBORw0KGgoAAAANSUhEUgAAB4AAAAOBCAYAAAAQsb1wAAAAAXNSR0IArs4c6QAAAARnQU1BAACxjwv8YQUAAAAJcEhZcwAAEnQAABJ0Ad5mH3gAAP+lSURBVHhe7P0FnFzV/f+P//5f+7R40EBCgru7OwVKKQ7FWii0SAsUKIViBYoWLa7BNSQkQSIQT9bdNatZd9e8//f1njmTs3fvzM5md5OV1yuP52N37j33+NzZ3Ne8z/n/hKIoaoyoevdDCCGEEEIIIYQQQgiZUFTZ7HGoVBr2PEwq9/JRoRwu5Ya9j5DyfY5UyvY5Qinf13ntp4wQQshGp8992Nyb/fdqvW/77+G4n+O+bu7xer/33/vxOWB/Lnh9bgAawBRFjRl53cQIIYQQQgghhBBCCBmv2MZvwPwNZvz6TV9j9qrhsN9RDkcra53flf2d3/2UEkIIGXHs+665F5t7s96nLVPYNoODGcHmMyGUCUwDmKKoMSOvmxghhBBCCCGEEEIIIeORUOZvwPi1TF/b8DVGr5oPBxwjpQceKyXgIB/Fzu82JQcdRwghZJjpf6/14/yO+7Leny1j2DaEbTO4jxEcpglMA5iiqDEj9w2MEEIIIYQQQgghhJDxiG3+qvEL9nRF/PYxfn3mgRq+MBkCZsNxUnLw8VIMDjleigyHnuDjsBP7UXgoIYSQDcXrvhq45/rvwbgf476M+7MxigOmsG0G20awmsB+I9hvAgeMYP9nhv05QgOYoqgxI/vmRQghhBBCCCGEEELIeMWYvwEDWI3f9VG/fYxff5RvwPS1zd7DTpTCw06SAudnweHOzyNO9nHkKcoa53dCCCEji7nnBu7BuB/7789qEPtNYb1/GzPYua/j/t7HCHZHAxsDGLg+R2gAUxQ1ZmTfvAghhBBCCCGEEEIIGY+YSK6A+euP/DX7/Kr5iyWe/RG/xvhFNBlMBESgqeHrNx3WOOQfdarkH32a5IFjHI49XXKP8XPsGYQQQkYK/70W9129/zr3YdyPcV/G/TlgDMMQRgQxzGDbCA5EBDv4TWBfNPD6SGBjANsmMA1giqLGjOw/hAkhhBBCCCGEEEIIGY94mb8m8rdco379+/vCHMBekjB+Dz3BF+l7hD/i7KhTfWYvjF4YEMefKTkO2Sec5XC2ZJ94tmQZTvpVgExCCCFDxr6vmnst7rt6/3Xuw7gf476M+7Maw879GvdtjRZ20Mhg577uWyLatzS0Lxr4KP0c6BMJ7DKBzWcJDWCKosaM7D+ECSGEEEIIIYQQQggZb5gILjWA8VDfMn8Dkb8B8/c4XTJUI34PP0mNA43y9Zu+OX6zV43dk8+RzFPOkYxTzpWM034t6aedJ+mnOz8d0gKcTwghZNjw3VvNvRb33YxTHZz7MO7HuC/j/oz7NO7XxgzGfVyNYOe+jvu7Lg3t3O9tE9heDlqXgnY+L9xRwDSAKYoaM3L/QUwIIYQQQgghhBBCyHgiYP4CNX99Sz97mb+63LOJ+kXEL4zf43xRvmr6wvA91Wf0pp3xG0k90+GsCyTl7N8qyeBXF0ryORcpSYQQQoYNc2/V+6z/vgtwH8b9GPdl3J9xn8b92mcGn6X3cdzPcV8PRAMHM4FNFDCAAew3gfF5QgOYoqgxI/cfxIQQQgghhBBCCCGEjBdM5JYd/YuH++X7HCll+x7p2/PXbf5if9+jTwtE/BrjF5FmavqedYEaDzAjEs91OO8SSfj1pZJw/qUSD35zmcRfcLnE/cYFjhFCCBkcrnsp7q96n3Xut7jv4v6L+zDux2oS+w1hNYOd+7Yxgk1EMO7vuM/3M4FhAGMpaOfzAZ8TXlHANIApihoz8vrDmBBCCCGEEEIIIYSQ8UDA/PUbwBr9G9j392gp3f9oKT7wWN+yz37zF/tGwiTAEqJYThTLO6vxe/ZvNfIs8dyLfWbvBZdLLLjwSokBF18l0eCSqyXqkqsk6lLnp81l1xBCCBks7nupc3/FfRb3W9x3cf/FfRj3Y9yXcX/GfRr3a9y3cf/GfRz3c9zXdVloywTG/R+fA/g8wOfC+v2AfQawHQVMA5iiqDEjrz+MCSGEEEIIIYQQQggZD/QxgPfy7/1ron/3P1pKYP4e7N/z17/fb8D8RdTv6b/WZUWx3CgMBUScwWSA4aBG72XXSORl10rkFddJxJW/l9Xgd3+QVeCq65WVhBBChoy5p+L+ivss7re47+L+i/sw7se4L6shDDPYGMHO/Rv3cdzPcV83JrBGAmM5aOwJ7HwO4PNAl4L2RwEH9gKmAUxR1FiU1x/GhBBCCCGEEEIIIYSMBwIGsIn+3cvs/Xu0lB5wjEZ9FR16ghQcfpLuDWmbv2mn/1o+//OF8peXLpIrPrhYLv6EEELIWAP3b9zHP//ThXpft01g3RPYuf/jc0CjgJ3PBXw+9NkL2FoGmgYwRVFjRl5/GBNCCCGEEEIIIYQQMtbpE/2rBvDhuqxnv+jfw06SNUecLHnHnu7b8/eUczVSbMZtF3qaCYQQQsYmuK/j/o77PO73uO/j/q9LQbujgHUZ6MP7LANNA5iiqDEjrz+OCSGEEEIIIYQQQggZ6wRd/nm/owJ7/2r0r1n6+bgzJeukX+lekVgu9NZXLvI0EAghhIxNcF/H/R33edzvcd83S0EHooBhADufE17LQNMApihqzMjrj2NCCCGEEEIIIYQQQsY69vLPeIDfZ/nnA4+VEv/evyb6N/uEsyTzlHMl7Qzfnr9XvU8DmBBCxhO4r+P+jvs87ve47weigJ3PA3wu4PPBXgZaDWD/MtA0gCmKGjPy+uOYEEIIIYQQQgghhJCxTr/9f/c+Qsqx/PN+RwWWfy447ETJ9+/9i2iw9NPOk5SzfyuJ53qbB4QQQsY2uL/jPo/7vUYBO/d/fA7g8yCwDDQigAPLQI9iA3hdW5t0Z2ZL2/sfSfO9D0jTDX+Wxiuvk8bLr9GfTX/4k7Tc/7C0v/+hdCcly7qODv+VG1/renqkt6tbejo7pcepB372OsfW9fb6U4ycUEZvV5evXIdep2zUZ53//Ehq3bp10tvttNtfdk+HU7bzGsfBSErL6FN2h6/sXpTtTzSC8o35+n7X8p1jG6PwdT3OmHdaY+7UA/Ngo425U15voN3OmDtzX8vfGB3vl9cfx4QQQgghhBBCCCGEjHVgAK/f/9dnAGNfx8Dyz4ccr8t+5h19mu4FmXnKOb7o33MukvjzL/U0DgghhIxtcH/Hfd4XBXyOby9gswy087kQWAbaZQDj82TUGMC9jY3SuSpCWp95XppuulXqT/uV1O5ziNTsvLtUbzdFqiftItXbTpGaybtJ7X6H6nmYw61PPCOdK1dLb12dP6eREcyvrpoaac3IlPply6Ti40+l5D8vSuGD/5I1d/9D8u+4R9bc+4AUP/msVLz/odQt/Ema4hOks6xcetvbh2QKw+DsrquXlpRUqVv0s1R+8pmUvvhfLTv/rnu17IJ/PCAlTzllz/hI6hYslGan7I61a6WntdWfy4YJ9e5pa5O2vDxpXB0hNXPmSflb70rRY0/Imnucdt/ptPue+6ToX/+Wta++IdXfzJaGFSulLTtHuhsah2QQ4rru5hZpy18jjZHRvrLffEeKH/23lqllO31f+PDjsvaV9WW3ouympiH1OQSzs6O8XJrR7z85/f7xZzrmBfc/pGXn3/l3/b30Py9I5UefSP2SZdJVXeMzhIcozJnOikppSU6Rup8XO2P+ua/s+/xl/+3vUuiUXeKUjTGvnT9fWhISpbOqWufqUIT6d7c4/e6MeVNMjNTMnaf9W/Two7657rR7zT33S9Ej/5bSl1+Tmu9/lMaoaCd9vjNezf5cRkZefxwTQgghhBBCCCGEEDLW6WsAW/v/HnCMlBx0nBQd5lv+OfcYLP98tmScep6knnWBRofFXnC5p3FACCFkbIP7O+7zuN/jvo/7Pz4H8HmAzwV8PuBzos8+wKPFAFaDcW2ZdPwwX5puu0Nqpu4p1b+cJDXb7iI1O01XA7hmlz2kZsqevp94veM0PV+9xfZSvf1Uabr5r9Ix7wfpKS7x5zo80qjH7m5pLyhUc6/83Q9kzb3/lIwrrpTkE0+ThAMPl7jd95WYXXaXmMm7SezUvSR+30Mk+YRTJOPiSyX35r9I6UuvSN38BdKanqEmbrjSsjs7pb2wSBpXrlaTD6Zf+qWXSfLJZ0jiwUdZZU+XmF2dsvc7VFKOP1UyLrpYcm/5q5S+8JLUzPteWjOzBm2IwnTuqqmVlsRkqZ45S4r+9bhk/+EGSTv3fEk6+gSJ2/tAiZmyh6/dzs/4vQ6QxMOPk9Szz5Hsa36v5nTVJ1+ocQtTFJHS4WpdV5d019ZJS0qaVH0xU4oefUJy/vgnX9lHnaBlxTjzIWbn3bQOcXs4ZR92rFP2uZJ17e+l4IFHpPLjT6UpNl46K6ukt6PTn/PAMv3etmaNmvhrX3ld8u68R9IvudTp99N1zGOn7+0r22l73PR9JOGAwyTpxFMl5+Zbtb0wb52MtA8DkdnO64GENDDsYXjXLVgkZU7Z+bffLRmXXS4pp5zhK3uaU7ZTLspHPRIOOFySnTFPu/BCyXPeP2VvvCP1i5dJW26e9Azyiwc65tXV0hyfKFVfOf3+yOOSc+NNknbebyTB6d+4PfZ35psz5mi78z6N29Pp90OPkbQLfis5N9zkjNO/pfrrb6QlKdk/5kMzor3k9ccxIYQQQgghhBBCCCFjGV3+2UEN4L18BrDn/r9HnrJ++efTfy3JZ/9WEs6/VGIuvNLTOCCEEDK2wf0d93nc73HfN8tA4/PAax9gNYARBbypDWAYY7319dL60qtSu/9hUrXZtmr61k7dKyzUFJ68m1T9YhupPew4aXnyWVnX0jLkyE9IoyAbG6U5OVWjH7OvvUGSjj5JoidPl1W/2EwifrG1RG29o0Rvt4vE7Lirjx2mStQ2kyVy80kS8cstJHLLHSTeaVfmpb9Tc6z2h/nSWV4h67pDR4gGyk5IlLLX35LcP94syUedKFHbT5VVm23h5L2NRDl522VHm7I3mySrf7m58/uOEr/vwZJ+wcVS9PhTGjmsZugAppwaoB0dGs1ZM+c7Kbj3AUk59Sw1HiO2RN5Ou7bYVqIn7eyUibKnOe12yt92Z6e922vZEVtMktipe0rKiWdI7p//ItUzv5W2nFzpCSM6FOZpe36B1DplF/7zYUk5xSl7+j4SufX2vj7dYjstC+1F2dFou9MPvrK31DrCpEw65iTJv+Nuqfria2lNS5ceZ14MJI3yrq1VA7T0xZcl8/KrJeGgIyVqhym+Mf+lf8y3nxLo9xjnd9Rp1f9sLrEHHypV38x22unMQacfYYKi3e1FRWquhpKOeX2DNKxcLaUv/FeyLr9GDV+0Tdu9Wf+yo7ebIlFb7SQRzpivcvo9ctJkNWSzrv6DlDz3ojRGRmnUejhjjv5pzcp2xmq2rLnrH5J66tnOmO/jH/Mt/f2+i9Pf6HfffMM4RPnHHHMCZnjamefJmr/fL9XffOv74oEzj4dTXn8gkxFiz8Ok7tQzpf7C30r9pRcFwDGc87xmtDEe2kAIIYQQQgghhJBxT2D/X78BXO4ygPvs/3v8mZJ5sm/55yQs/3zB5RJ9ydWexgEhhJCxDe7vuM/jfq/LQDv3f3wO2PsA2wYwPj9GhQHcU1QsLY8/JTW77SfVO+zqi+6dsqen2euFGsB+E7hmh2m6ZHTTbXdKb3W1v4QNF5Y9boyOlewb/ixxu++vZi7MLphf8c5rH/v52G3f9eD1HvtrdC4iY6O22lHNWkRNpp19vlR8/Jn0NIU2QmHGNcfGSu6fbpX4/Q918thBIjffViN94/z59yu3T9n7admRWzvXbbGdxO6yu6Seca4a0DA4QwnmOZaOLn3+RTXzYDhG/M+W+jMOUcZahgN+2nXwlw1gFkdvP1UiN9tW+y3pqJOk5NnndTnjgYRoa0Sxpp58lhqckb+cpCYoDOVAu+1yTdn+8uMQIbv9rhL5C+e6rSdrxHDRI49pBPZA6qqt0+jZnD/c5LRhT4lw6o/xw9j1HXOrbAct00mTfNLp2seI4kW8b1NMrKx97XUpe/1NXQ47lGCON0VGS9alV+n4od8it9heYp1841COabtVrmLa7YBo8EhnrmC+xDljlHnlNWr8dw2wPDrM5xanfwofelSjiaMmTXb6fVvfmDttW9/vKM/GV7aW74xPDIx4Z75FbjtZ8yn+1xNOm2L8pQyPvP5AJiND3Zln9zFN6y8BF/oM1NPO9LxmtDEe2kAIIYQQQgghhJDxTzADeO1+R0kJDGDs/3v4Sb79f2EAn3KOpJ75G0k8z7c8aNRl13gaB4QQQsY2uL/rMtDO/R73fd0H2Pkc0H2Anc8FfD7gcwKfF6PGAO6tqJT2jz+T2r0O9Jm/kwdn/vbBmMCIHnbya3vrPekpXesvafDq7eyS6q++keQTTpfoXXaX6J2mqYkKk0sNMRhv0/dZj23I+Y/FTd9XIyJhmuLaGCcPNRL3P0zWvvyqdBQV+0vrq676eqn57gdJPflMidttH71GTUB/2cjTs2zrGAxDpIsNlD1dYh2Sjj1FSl98VVrTvM1QGJfNSSmSe+udGkkas7P/2ql7aDv6lG3KtfGf03Y7dY11xkWXp3bywNLYuTfeLPU/L/GX1lcwIVvT03XJYy3buQbXwsgOlG3KcJdrHQ+U7cwLXSrZ6feEfQ+WnOtukIYVq6S3rd1fYl/BeMZyz2ln/VrLxHU65u6ylb5lw5xGJDJMT9sArl+6TLJvvlli9txbyt9+TzrXlvkKcwlzAXv8ppz6K1+foc+dstEGHfM+Zfvr4jpm2h2Yb/6+Sz7mJKl47wPpKCn1l9ZXMJ4bo6Ik45LfSZzz3kGEu29Zb2e+ebXdmZO+14a+5aMvMGfN8tjZ1/xB6hf97C9t6PL6A5mMDP2MU/3pM08RUet1zWhjPLSBEEIIIYQQQggh45+AAYx9G/0GcPm+R/oM4IOOlSIYwEecLHnHnCbZJ5wlGaec69v/97xLJPbCKyXysms9jQNCCCFjG9zfcZ/H/V73AXbu//gcwOcBPhfw+YDPCXxe4HMjYAA7nyebzADunL9IGs79rVRvucOgI3+DgXyqt5si9SeeIZ0/L5F1neHv/QrBtAPlb74jqWeeJ1HbT1FDDKYWzC0v400xx/ucW/+7GnMwxpy8sHRuwqFHSemL/5XWjEwt11b13HmSePqZPgPPb+IFyg7kbdGvXOuYgxpzTtmxk3dTIxuGYPGjT0hbVra/RJ96uzqlOSlJsm/4k8TteaDPBITxvOteffLzKqPPcet8wBT0G+Bxe+0nmddcK03x8brMtJHuuZu/RnJuukUjntV89Zet5qdXGQMch3nep+w99peMiy6XxoioPktRa8RzSakU//tpST7hNI2ihVmuhrvJz85fscpGWc4YBQzg730GMFS/bJlk3nCDrPjf/0cSjzhSKj74SDrLyvWcEaKty157U1JPP0fHJ2C+TvOXbbDL9zpmnUO9MWcxf5BnwrEnSNkHH2g/28LyzPVLlkrmpVfqlwW0fKf9fea6Vzl6zLt8e8w1gniP/STrymt0D21E1Q9VXn8gk5Ghr3l6oZ/1x7yuGW2MhzYQQgghhBBCCCFk/GMbwBW2Abz/0T4D+NATfAbwsadL9glnS8ap50kK9v/9tW//38grrvM0DgghhIxtcH/XfYCd+z3u+7j/43MAnwdqADufD2oAO58XxgDG58gmM4B7K6uk5dEnpHrz7aRmlz2GxfwFuhz0zrtL1f9sLa3PPK9LTIcr3963nVL74wI146KwzyyMQxhqtgmG136TS6MtYbRN2cOP8ztMS5wz6d3XOekit9xO99Vd+9IrfSKBaxYvlvTfXy+rt95Oo2/ViPNfG7geuMuGaYmfMC1Rvj+duc5ci8jMaCzPe8IpUvrSy9JZUamRt1BLeroUPvyo02bs7bqL5ueVR/+y/W3H6z5lG/zXOuejtt9FovfcW3Luvkuak5N9kbLd3dKWmydFznyI2XVPNQ3RHrvdgbIdsLx0v3YDu98DZfvyQHosSR213c6S95c7pCkmTvcaRtuxPHL5e+9L0vGnOOd3UbPYHjP89CzblI/X6NcdpvY3gJcvl6wbb5SV/7//IxGbbyUpF14ild/Mlu6GBjWeu+vrpeLTzyTt/N9q3dSodsrwajeOa0S3u+3Oax3zQNv91+o1GPPdZfU2O0jKJZdJ5dx5Wi9II39XrJL82/+me/li/2rNC3lY+ZiydcxNuw2oiz3mLnBOx3O6M+Y33ixNUTEDLn8+kLz+QCYjQx/z1EXdRRd4XjPa8Kq7Yay0gRBCCCGEEEIIIeOfUAZw8YHrDeDcY06X7BPPlvTTfAZw/PmXSszFV0nElb/3NA4IIYSMbXB/x30e93vc93H/x+cAPg+MAYzPiVFjALd/+oU0nH+xVE/a2dPIHQpqAiMK+OQzpf2Lr/0lDqze9g5pyciSxGNOlCjnepi/usepZWh5mmH4Xc05HzHOMaBmmtuUswy1yM23USO28oOP1DBsz18j8b86R1ZsvZ1n1Ksx2QIGoF32dAfnZ4zTfi3bIZgRHLPzdInadgdJOOpoqZ71rRqBMCJLX3hZorbfWSJ/saV1DX46eTi/a9lWu2HW+sr2G6PO6z5lO8f6tAN5OEQ75S/fYisp/Nej0padIx1ry6T8rXcl4n9tLlFb76Tt0/Sogx9th5btlGFM12nOa3+78bsp2/S7Xa6W7VyPvYRX/+9fSOEjj6np3O20vX7Vakk87jin7TtJzGTs79x3n10tG2U4+cZMQdlOGaiLcxzlxzhlR++8m5rHSceeLLXf/9jHAM6+8SZZ9X9/6aTdV5ZtNUlSL79Sl8Hu7epyzq+UlPPOl8gd8GUDp2yr3D5lO+XpvNJ2O68D7Tb1svrducadD/YuXrWd077jjtc+RyRwa0qqFPzjATWdYQAH+gzXo1yrbO1X9Lu2G+X7x9w935CH/3rFyQ/HsG925JbbS8G9/5TWtHRZ57R9Q+X1BzIZGfrtn2sxZvcAtuAewIQQQgghhBBCCBkt9DOA9z6irwF82IlScOQp+sA/Cwbw6b+WZBjAv7lMoi++SlbTACaEkHEJ7u+4z+N+j/s+7v/4HFAD2PlcwOdDHwPY+fzYpAZw0y13SM20fXx79lrm7XCgBvAue0j11jtKyxPP+EscWO15+ZJ/590SMxnL8E5fb6S5zSwspbztLhrZiOWKU04+Q9LPv1jSf3OppJ71a4nfz7eEsUZV7tg/otOAJYNhZmZe8jtpiouX9N9e4jPznGv6pPWXj/rAaIuZtIsvzb6H6J6xWZdcJVm/u9a5/jJJOv5UNeiittlJI1LVDPXXPdCO3feTaKeNUTvvKumXXCYda0ul+uvZknr+b2XFLzeX+L0PdtL501sGMCJ9o2GMI6Jzj/0k+aTTJf2iKyTzymslw/mpexY7x3E+xh/F6zaAgfahU7eoSZOl6vOvpPLjzyTpqBMl4v9u4dTV6itTXwfTLygfBiyWsc74zUWSdfnVknnp7yTt7F9Lwv6Hre93mPdWmQbUJ/IXW2s9scw3TPf8u+6RiK23dvpk6nrD374G5iuWUp60sy4HnnjY0ZJ2zgWSefk1knnFNbpUeNyeB6jBmXjIUVIz5zvpaWnROdXXAN5HYpy6I7I87dwL1HzOvfMuiZ6+p0b/uo1nLdvpK92D2ulPmNeYWylnnCdZl10tWU7Z6b+5WJKOOVniMKaYk04a9JU7H4AoZSwJnXz0idJRXCIV78yQ1NPPlaitdvSZve52O69hbCNP9DuW0Mb+yJmXXKllYzltzH20K8r/fsCY23kE8nLqhDySjjzBGfMvpbOyUvtnQ+T1B/JI0vT3h6Rj9rwh0fr6u555byzqzr5IejKysMyBvxfD0zpnHrc8/aTU/+6K/sap8+HhVdaow6knTGBE+27qNtQcdJw03nq3NN39QD8arr5pwPNeeRJCCCGEEEIIIWR84GUAl+17pJS6DeBjz5Csk37lM4B/daHEX3C5RF1ylaz+3R88jQNCCCFjG9zfcZ/H/R73fTWAnc8BfB7YBjA+L/C5sckMYCx721tXJw0XXi7V20xWo9bLxB0KagA7VG+xvTTdeod0Z+f4Sw+uruoaqf5mjiQdd6qahxrR6DLEcAzLCMMMTHbSFT70qFS8/6EuGd0YHSPNsfFSv3S5lDvHCu5/SNJ/fZGaxbq0rmd+iOTdUxIPPUZyb/izJBxylCCCGGaZpkF6/zVqmjr1grGbdsrZsuae+6TsnfelbuFP0pKSJq3pGdLklF8z93spefYFyb7+Jkk48DCtK5Z91rLd+cHo3mWarP3va5Jx4WUSu/u+zuvdXGX7jeedd5eoSTtrhGvuTbfK2lfekNof5ktzUrK0OGU3xydI3fyFzvHXJe+W2yXpyOM1L9QZpqttBGt+MAR32lUyL7tKzWOYizE7Tl3fR/7yfcbz7mpmw2zPvPxqKXnmeamZPUeaYmKlJS1dWpJSpGH5CqmY8ZGsueteST3zXI1K1ahWk58pG/nB1HTOwcQseuwJSTj4SKeeu643Tq1rtJ47OuecfoDJX/jQv6Tq08+kceVqaU3LkJbUNKlfvEzK3nhbcv54s2Rd/Qep+e576WlxRQD/n19qxCzKxxLb8QccIoXOHEk49GhfVLFTX1OmIWA87zhNlwvP++vfpPzt97U8tBvlN0bFOH0xV9a++IrkOeMSt/dBvqWknes0H38/mvy0jU4alA3jPOGAw51+31X7ye4rpEW5iITHstZ5f/6LlL/xjjQsdcpOTtGyfWO+QNa+/Krk3HCzM9+O0HHSMXfnh/mGft9puqy5+x/SFBk1aDPSyOsP5JGk/ctZ/pI3XD05eZ55byxgIK5r9n0pYUO0qesPYI62vvi6p8E+ELgO13vluzGBidtb7v3lh65VUQOe98qTEEIIIYQQQggh44NQBnDJQcf1M4DTYACfc5HE/cZnAK+iAUwIIeMS3N9xn8f9Hvd93P/dBjA+Jza9AdzdLV0JSVJ/xnlSvfVOUjtlePb+9aJ6m52l8dKrpPOH+f7SvQVTGiZqwYOPSpQxTKetj0RV03CqL/oVEZjZ11wvFe99oNd0ri2T7oZGXVIXbYPxhyWNm5NTpfqb2Wqcqcm2y+6+iFjbFHN+1yV1UdY+B/sMQmDS4KcDXkfvOFUNVRi1VR9/puZbR0mpdDc16d7Fun9xV5d01dXr0sYNK1dJyVPPalQuTD8Y0aZcgxra2+2shikiWPubhr6y0R9RW+8gGRdfIWWvv6X7xrYXFGm70Xew8dD27sZG53ihNEXH6nLSGRdcom1GvtomP/gdoF4wLOP2OtD3+zRr+WIrDSJQU048XQrue1Dq5i/S9nXV1Gp7nZZrHXpa/f3u9Evlp59L7p9uVTM9eoddtY9Nm03ZOI5xST7hVB2bOGe+BMq20+04RRKPPFby/nKn1M77QQ3fzooK3T9Y547T7zrmRSXSsGyF1Mz9TlrS0nQ+QG4DOH63/XQuxU7bUxIPPlKje7XtVtlaPuYF5qEzLpkX/06/VNAYGa1jjuhi7XMHlNNVW6eRzE2rI6X4yWcl+cTTdJltXVLaRDT724P5hf5IOuI4Sdj/UGdu+/rYXbZ+ccABJjHM7cZVqzVqGP2M/obWj3mBc94p+99PS9rZ5+t8URNY27u+P1Fu5NY7asR0xbsz9NoNkdcfyCNJ+0dfqHk6FLqTnPuBR94bi/FgALfN+NSpiG+/8kHLuQ7Xe+W7MaEBTAghhBBCCCGEkGAMZAAXHnqirMEewF4G8KVXy6qrrvc0DgghhIxtcH/Hfd7LAMbnAj4fRocB3NkpHXO+k7oTzpDqbXfxNG6Hi+ptp0j92b+R9vc+9Jfurd6ODqlbsEgyLvmdRGyxfR9DDuavGoE7TNUo1exrbpCab+dJZ1WVrPObET1tbdLlvO4sr5De7m6fObdunXQ1NEjDkmWSi+hILAsNI9QyIwPGmFOeRh17GIEA+9JGT5kuqWedI1VffSNdtbVathqATt071q5V4xXmL0xRCOex12vxE89IyilnqYGsBrPJ3/mJ301UqEYom7ohjT+dLvvs1C3hkCN06V6YgGp2w3R2yuosK/eVXVWthqARTNqyN9+R1DPOkagtt1tvbPvz1bIdYnbeXbFNWiw/rab7rntK1Pa7qFFZ9Oi/pSkq2unrdl/Zvb3SVVOj9UEdenEcZjT63TmO8YRRrxHbO1nLefvRdjtt1v1rnd8DdfOn00hdRMbuc4Dk33GXmrumDKjbGdv2omJFDVmnv3va2/W4mvL+dP0MYLTNKQNl6hLg7jH31yF28m5ah/TzLpSqL2dKB9roH1vsVY12dxT6TXh/v+uY5+Y7Y/6UJB57okRuN7lv29Au5ycizGHS6rjbc8J/HqY9rks941yp+uJrafePuZbhtKujrMxpd5Ga8KbP1/Wuk9a0TI1ExrLQWI7aHfWO32Hm432EKOC2nDzNc7Dy+gOZhGY8GMAaid3ZJV2RMSL+L2AMKCedpneuw/Ve+W5MaAATQgghhBBCCCEkGIMxgDPVAD5fkmAAYwloGsCEEDJuCRjAzv0e933c//E5MPoM4I4Oaf/oU6k75mSp3m6Kp3E7XNRsN1XqTz5b2l5+zV+6tzqrqqX8rfck8bBjJXLLHfpHLiJSdtLOknXltVI9e47PCITp5dBZUanGJPayrZjxsbRkZEpnZZX0tLZp3jDtGhYv1UhKzcsfDes2xgLHrOOGiK0mSdLJp0jlx59qnpCJ/GxOTHbq/q6UPPu81Mz7QVozs6WnqcmfStQoLH7mPxKz+166f22gDD9qcMMkVHOyb/lIq8so77G/lL7wX+mub9A8NfKzvl5a09Kl8v0PpPTZF6T6i6+lLTdXDVBjfsIoLH/7XYnebrJGLwf297XL8OM7vh4te/I0idxiki7r3JqZpXnCdIbB25qXJ1Vfz5TSl19xynhvfXRsW5uakYhUbYqNk8SDj/LtSbxz/whoNaX9Bqn2i9YBfeIj4v9tKdl/uFEaVq32le2MNwx3GP1Y7hpRzqBhxSot20QF2/IygAP9bhGoE8456VDn1NPP0ehbIx1zZ65iqfHSl1+V0udeUqO7bU2BmtBG2Mu68MGHdZ/mqG0m+9rpUYZitRuoKe70e/KxJ0vFR585c6lZ8zTRvm05OVL+7vva7upZ32rksT3m7WvWyNqXXnHK20/3bIbJbMZby3X6O3KLbSX91xdK/U9L9JrByusPZBKa8WQAt701Qxp+f4t0p2bgTemvoUvOcZxHOqSnAUwIIYQQQgghhJDRzpAM4MuukZU0gAkhZFyC+zvu8zSALcI1gFuTU6Xg3gd80ajupWt33UujFuP3OkDNzI7i4oD529vVI9lXXavLKOPaaIeISdtJ9vV/lPpFP2nevnRduuRt2pm/lqitd+prvBljzI8xy8xxpMfy0EWPPCad5eWaJ9SanilFDz8mMCrNvqtRkyZL6qln6164Rut6eqXu+/mSfvb5ErU5InH9ZfjpVzbwl49I0KhtsUT0eb4IX3/Ec0dpqfaFL4p1mu4hi32Okw47VkpfelUNQQimIKKDi/79lKzabjunf6ZJ/B779ymjjwFqDGDnd0RLR227iyQdcrRGE5uyYTgW3PMPWT11V1mxxRayYrPNHDaX5dtuK0nnny91y5ZLT3uH9nt3Y5Pumxu3+/4Sve2UQJkGu+3afhzH78746LLXk3aW6pmz1PSFYIJi3+GMiy532oL9bJ12o+0OuTfeKg0rfUaxrQ0xgGHUR++1j5S89FIfUxnLT2N/ZSxFjqjs6B2nS+SkXSTj4iulevZcfyqMeY/ULlgkmVddJ6v/zxaekbg2pt0A+cYfcLjTb3f7In/90cWIQF7rjPnqbSY5abA8tNM/2+8sCYccKmX/fT0w5r2dXfqlhOzr/+SLrnbmULz//aRt3X0/idhsS0k6/gSpcO4DGyKvP5BJaMaNAQw5c7Jz/k9Se/xZ0vLMS7KuutZ33C+8xnGcRzqkh2gAE0IIIYQQQgghZDRDA5gQQogXY8cAxhLQ386TuhNO30hLQJ8v7e994C/dW/WLl0jWtX+QiC0nqUGqphjMsWl7+yIid9ldcm/+q5p/xpDrbm6WhJtukui9D1ADUJfNdYApGLnHXpJ25VVSM+c7TQs1x8bJmr/fJ7HTnTyddAHjLQg4jz1sI34xSTIvuVJqEHns9N267h5pTU2XnFtvk7j9D9ZIUVM2Ijdjdt1dkk8/U6ORsRQx1FVRqVGbqzffcv2Sw27cdYBRt/V2knzaGVL5+ReyrqtbTVWYsSXPvyAJhx+p0cEwArX8ydM1yjf+0MOk9MX/SnthkZaN/XEbo2Ikbi9fP8FQ9ywP+A1g1A/GMozb/L/dqxG/EPZbrv7qG8m66veScfW1knn1dZJ19e+VzKv/IOmXXilrX3ldWpJTfSZ9d7fu05zxm0t0z18Ykp7lGlAvp90xU3eXVVtvKwX3PyStWTmaF6KqG1eslNSLLpSY3fbuO+bIe/e9JeuGm6Tm+/mB/XmhYAawZ9kOaHvk1jup6V4z61vNA33fuDpK84nde3+J2m6X9WO+03SJcuqTdP4Fuv+wiQRuLy7WfYPj9z7Q1++IxHWXaeGbb3vplwmwbHfFjA91SWu0HXsrF73+hkQeebTO71gs2Y2yYZI7fRV5uHMzcdJ3lpVpeizJXf7O+5Kw/+GaTsfclOX0b9Q2O0r8PgdJ4T8fDhj7g5HXH8gjCfcAHmUGsF/G6K2/+BrpWhnpTPp2/YnXXsYwDWBCCCGEEEIIIYSMZmgAE0II8WLsGMDd3dKdkCT1Z5wn1VvvJLVT9vQ0b4eD6m12lsbLrpbOHxb4S/dWzbzvJP2ii2XVLzZbH6EKMw4GMAys3faVta+8ocspQ7qs8pNPyfKdd5XIydP6mHdY+jZi+50levd9Je+WO9QoRiQslkyGCZt46DH9ooy90ChUp+zo7XeVwgf/Jc2JSVo2DOiy196U2P0PlNWbb+3bNxjp/URjv+Bdpkn6+ZdIS3JKwLBujIyS6Ol7aHQpjD6vMg0mr9WbbSkZV1wpLak+Q7W3u0ejNlPP/rVzzikbfYO2I73zM2bn6bpcdep5v5G6nxdLj9N2RJBir1iYsNhPGMsCu8tzo0ak00fJx54itd//qMs5QzCCm6JjdE/c+sVLpWH5SmlcvsrHspVSM2uONCxdLu2FhT4D2E/+X/6m7UG/e5UXQMcPfThNVm2xpdR8972OG/LQyOP77pOIHSZL1A5TJG5Xf1Srcw2M3cittpO4/Q6W/Hvul27sCexfEnlDDOCIX24tBf94UFrTMnxzp6FBSp55XuIOOEQit93JN36B9PtK5E5TJWLKNEm78KJAlDiWwsbS1Kmnna17DeOLDP3KtNB2OHMJXxDIvu6P0uhf9hoqf+9DSTrzXFk5aUcn7X6BsnFdjFOXldtPlqRTT5PG1b5rMO6NEZGSdtZ5vnxdZcfAMHfmTva110tvpy+6ejDy+gN5JHEbjxuiTW2gjkcDWOW8N81Sz0gTamno0WAAE0IIIYQQQgghhASDBjAhhBAvxo4B3NsrvbV10vDby6V668lSs8senubtUKiZsqdSvcX20nTzX6U7w7d/bDBhL9nUX/9GVv9i874G8K57+cyrfQ6Wyk+/0P1+IZhjUdvv5I9o9Ru5fkMM4BgiM1NP+5U0p6Ro5C4EgzL5uFM1ynJAAxgmqJN/glM29oENRNQ2NUvmZb+T6J2m6t66iKi0DTmYg1iOOn6PA6RmzjzpqvVFwbUkpUjqmecGoke1HKvONmrmTt1TIrfaXrKvu0Fas7LVBO1ubZP8u++TuL0O0uWRtWz7umkwbp0+2f9gKX7iad2ftikmTpoioiT72hsk1kmDttvXeKFR15OnS9p5F+py0/jSgM6bjg7pdtoPgzE0LRoJC2DAFz34L0k85CiJ2X7gstHvMTtOdcZ3su79C/MZ4wcDPeXU05z+23l9/1lgLqDO6edfLC3ZOboUMjRoA9j5fdX/bC4VH3+i0dMou31NoUY9x+3ulGP2Mvanx+8wgaOcfl+x9da6D7P2lVN+U3yi7j2N5aphvnuW60eNWmfexDnzbc29/5S2/DU65tjLOvu6m3RO9Wu3Kd9h5f/bzFdnp7+1zoWFaiQjAjnW1NkPXiNyPf38i6SnzWfuD0ZefyCPJE1/f0g6Zs8bEq2vv+uZ98Zi3BrARoj+jY7Xn8E0GgzgujMukLYZn3rOkZanXxzwvFeehBBCCCGEEEIIGR/QACaEEOLFmDGAjZpuus1n1E7ezdPEHQqa7y57SNUW20rL40/6Swyuig8/lpQzfiURv9iqj6mJZXMRFYmo3epvZktXdbWmb1i2TFb9v1+q2QrjrJ+xBhNx8nRJOvpEqfzkMzVtISzpm3zcKRK9fZgG8A5TJfHgI508Pg+Yz931DRK/3yG6/LKXEWkih7GUdcXHnwWua8vJldybb5OorXfUumn6IIagGsBOGiyZnH/H3Wo+w1TsrKmVvNvu0H1csQ+t13WxTv/DLEw+9mTJ+O2lkn319ZJ97R8l+fhTfedR5yDlGnx7MU/XvXZ1GWI1fzulo3StNCckOiTpPrPNSf1pCZCiS0G3pKTqXskpTr9jn2Kv8mziYD7D2N/rIGmOT5Le9g7t89ofFkjikcfqmMRO7R9Nq6a1c13y8adp2h5/1DIM4Kyb/hSmAeyU7/y+avPNpGaub09f5NMclyCpp5zpi/bGFxLc1+2xv0RN2V2Wbr21NKem6ZLRvQ4tqemS+6dbdZ6GZQA778X4A4+Qosef0mhr7B+NaHc173f1LYfe5zqt8z4656K22F6Kn/yPtDrzDOPVVV+vcyV+30PWzzc/yEf3qz7zXI2WHqy8/kAmoRn3BnAYGg0GMJeAJoQQQgghhBBCSDBoABNCCPFizBnA7R98Ig3n/FaqJ+3saeIOBTWAt58qdSecJu2ff+kvMbh0WeMzzgluAB92rFTP+ravAfx/fxHaAN55uiQdc6JUffLFkAzghIOcgfrkU+moqNA8sBxw/MFHSjQieV2RlXrdNKfsXXZTs7EKUcuVlgF8063hG8A7TpMYpx/z77xHOvwGMPaCzbv5No1ERQSn13VqJDpjgCWco7abopHCiDpG5Cra7NlfLpA2YAC3tvoMxcoqqfz4c8m4+EpJO/e3knnBpWow22ReeJmkn3eBpJx+liQcf6LDCZJ40smScOhRErfnATqWXuXZ+AzgabpncXNcoi6hjb2U6xb9LEnHniDRO04JbQCfdIbULfxZI2eh+iVLJOsP1/sN4PVLN7uv9x13ynd+X7nZL6V67hy9Xg3g+CSNJtf5FsIAXgIDOC1NI6Z7u7p0/+OcG2/xGcC4LkS/67hN3k0SDjxcih57Ujqra/z9XqmRvFjqud8eylpn35hHbradlP7nJWkvKPRdV1cnebfeLvH7HKJjaV+HukTTAN6o0ACmAUwIIYQQQgghhJDRDQ1gQgghXow5A7indK20PPJv3QcY0bowbb3M3MGi5u/Ou0vVL7aRln8/LT1r1vhLDC4sAZ12XpAloBE5uZ/z4fvZlwEztXF1hERPnqp7mSKNbW6pweUcgwEK0w4m3PoloP0GMK4LwwDWvYL3PkjWvv6WGmsQltjN/v2NEj1lui5TbNcX12kE7i67aZ1rf5yve9hCiIpNc+qjxrGJHPZf4waGns8ARgSwZQCXwQD+i5rkwaJpca2aic61GkWMfJx2xDrjom1GmUHKNei1O02X9HMv1AhUGJow0au+mikpZ5wtkdvvJHFOu+P2dNhjP9/PvQ5Q0xuvk089U7Ju+KNk3XiT5N5+pyQ5fa4maDgGsJNHzE67StQOk6Vh5WrfMsxdXdIUEyupZ50r0dtO7h95jYhotNNpb/oFl0hrdq5egyhcLMOdfuGlsvp/tvTNlXCXgP7wIx1rRPMi8jnnD3/Sc7qPMb6kYPUjonMjt58iq7bdwVoCulOa4hN0CWgY6gNFXuuYIXJ87wNlzd33Ofnk6RLQMMBz/3izzoUYRAjb1/nzwxLUq7AE9EdYArrFv2x1gWRde70zLkGWgN5himT85qJApPRg5PUH8khSf+FVaqAOhcY//sUz740F6jAkAzgzxzPfjQkNYBrAhBBCCCGEEELIeIYGMCGEEC9GtQHcU1klXRFR0v7RZ9L28mvS9uqb0jFztrQ++6LUn36u1Ow4bdhMYJi/1dtNkfqTz5TOxUtlXZdvL9ZQqpn3vaRfdIms+sVmLgN4b58pttu+Uvb629JRUqrpsSRy4cP/khU7TdG9V42xqebnbvvJ6h12kei99pf8v94lPW1tasghirRixoeSdPgxvgjTgQxg5zzKjtp+qhQ8+Ig0JyZq2dgHt/KzLyX+sCNk9S+38kXzmvpO20eidpwq0bvuLllXXiut6elq4EGNEZESPXW6LxJXjcjQZqCnAVxeLnk3/zWkAewF+k/x19MrjQ3MWo2mPeZkqZ37vZqw63p6dB/enD/9WVb8n/8jkZN2UpNdo4WdPsB+ySt/saUkHX2CFDr9VffTT1K3eLE0rI6UjEuu1Lb0M27doA+dn9E7T5PVW2whNXPmaiQr1FFULEWPPeGc29W3D7CTn+lzGMsRW26nkcZFjzyuew9rFGxtnZS++IokHHSURG2zk3+eoBxXuf6yNT+HiF9sLWv+fr9+ecDsw1v+9vuScMgRErn1DoGyNb2av7tIxC7TnDl8mXSW+yLFYazWL18hKaeerX2p17jLtFAD2EkTM3UPXfK5ceVqzQeq/nKmpFxwsSzfZgdtQ2AcHaKd9Mud90HapZdJU1ycpodxjS9JIMI3dnr/paMxd2Kn7C45192gS3sPVl5/II8kQzUeoU0dQdvHAO7skp7cfOnJzA6L7rhEabrrn575bkxoANMAJoQQQgghhBBCxjM0gEc/9/54r7y48kW5fd7tnufJ0Lhp1k3yVcpXklGZIQV1BZJUliQz4mbIVV9cFUjz9NKnZXHeYlmavzQoOI90H8V/5Hne5rvM7+S2Obf1qcdIgDmDuYM55HV+LIBxeHb5s/LEkic8z5ORY1QawDDtujOzpP3TL6Tp9rul/rhTpWb6vlKz54FS/6sLpOmmW6Xxuj9KzQ67qnGr0bsbaAKbyN+anaZLze77qcncU+wzbAdS/eKlkn3dHyRiy23U3DIGl8+EhXHoM0Kx96wxrLqbmyXmyislavd9JXbHaWouwuiK3nm6ROy5t6Rdc53U/bBQ00ItySlS+M+HdfnkWKeeWoZlirlRQ27XvSTif7ZSA7Nm9hyNrFQjtrRMl2aO3/dg3UsVZpqW7dQjevpeknL++VL95ddqxEFYurrigw9l5WZb9F2G2MZVtqcBXLFhBvBgiXXKh6ELMzb/r3/zL729TiOwq778ShJPOEGid4H5O13bjb6P3mlXid53fyl85F/SHOszIjH/2pz5l3HxFRI92UlrG8Ae7dbXaNvU3WX11pOk4P4HpTUzW9ve29YmralpkvG730nsHvtq/XTMnbHEctix++wneXfeJY0rI7RsqMVJn3PjzRKx+XZqEpt51adMu2wHpIFZnHLKmU5bv3ba0KvtaM3Kkbzb75C4fQ+UKOz/7G83IoKj9thHki68SCO+TURte3GxlM/4UOL2OUhiJk/T5cw9y/Vj5huWJ8dy6BUzPnLa7Nt/GVo7c6asPuoYX1udNmv5O+8mUc58W3X66dIQHR0wvrFUePm770v8/of69qPGFw5MWU7/Rm2zozN3D5LCBx6WXqdtg5XXH8gjybgygDs6pO2tGZ5pRjutL7+p9d8gOdfheq98NyY0gAkhhBBCCCGEEBIMGsAbziOLHpGa1hoprC8Meb61q1VeWf2KZ5rMqkxp7myW55Y/1+f4Yz8/JtnV2dLZ0zeQpb27XSKLIuW++ff1Sb+hJJcn+3MOruKGYk0Lk7S7t1t+yv2pXz4GnGvrapOXV72sr00fVLdW6+/u9HYaU85QCNaejp4O7c+HFj3UJ/1Lq17SsnvX9erPovoiHQ+8zqnJCZjunyZ+Kk0dTdo2L5B/V2+X9lFMSYxnGgPSoaxg/TEczEmfIw3tDbLO+WeEdn2f9X0fYxv9hTqZ8fIC42KPDdLiGrfQB/m1+fJaxGuBtGZs3UIflDaWyscJHwfS2qCO8zLmSV1bXZ82YFzKmsrkg7gPPK/zGn9cg3wW5CwItD1YvdwKNdcHwvSTnUew+tW31+sXA/BlBDuPTc2oM4BhWvVWVknjNTdI9U7TpXqzbXVf3pqddvOZtNtNkZptd/GZv34DtxpRwIOMBDamMa5D5G/N7vtL481/ld4q33694aglNV0K7n9YsExxLIxHKzoX5lX0tjtL/N4HqSnWWVbuv8qnzMuvlginbVFb7SiRW0+WFf/rf0veX2+XpqhofwqfKj/6VNLOucBJs+P6KEpjigUBabBXaqzzO+pnojuhrqZmKX/vQ4k/8HCn/ElOvjvJ6v+7pWRedIU0R8f4U/lU++1cSTn+VIncYoe+ZhzqYDDHHFDupjSAAYzDqO2nSMJBh0tHcZHTCt/NBdGwMOJTTzldonaYIhFb7iBRTtuxPHHZa+9IR8laTQdhOeLcG/6se/aiH/uU4dFug7Z/6p5Of24lVV/MDCzhrdG4za2S/6e/ankwdjGeUdvvIiVPPyft+X2XG6/6ZpYkn3mWP7L8gJBlGrRsRDXvvqeUvPCC9LT1NbxKnv6PRGKubekDXwDIvdmZb3G+CHGjuvkLJfOy38mq//XLsJa+NnXT/Xr3OVhy/vwXaV9T2CeCvmHpcln9//2PRGyxvURu48y3X24jScee1Cedb+npRMm6+vfi+/KEa+lpZ+6s3mwLSTrxRKn67DO9ZrDy+gOZhEYN4JraMWv+GmCQoi2DBdd55bexoQFMCCGEEEIIIYSQYNAAHhowcGG0PbnkyX7nPkn4RA1cGDw/Zv3Y77wxoYoaivqYcrPSZul1MI5XFKxQ8/jRnx+Vt6Le0uhUnEOZr0a82ie/DQF1gFFlgLkG7GMm8nIoBjBMvMSyxH7p7TTDZQDD7Hsv5r1A/dFvcaVx2m8o5/HFj2tamLtoa0tni6a384EZ17OuR/vfPh4MmL4o1+QdDBj3Fc0Vkl6Z7nne5o3INyS6JFpN6caORq07TGyYuKGiwTHXME6IZn4r+i255dtb5N2Yd6WksUTbhLaZtEMxgFcXrg70MViQvUDnJfoTfY60ZmwzqjL6pJ2dNlv7AWMyM3VmIG+APkLd8b7BlyvwPkJkNaKA52bM1S8ToB0YU/t9A7zGH9fjfYo+wfsH1wDkZ9J8kfSFfrnC3aahRE7jei8D2F0/RJsj+tyun53PpmTUGcA9uXnSfOudUjN1734RvsawVfzHaw89Rqqd36sn7SI1k3fzNHu90Lyc9FW/nCR1hx0rLY89qeYvDOhw1VldLeXvvC+Jhx8rUVtu39cAnu5bGjdqu10k5w83Su0P83UZZiPszduwYpVUfzNLKj/+TJqio6WjxHkDt/iWW8VesNhLNuvqP0jcngfocsXIE9hlBI7Zx8G0fSRiq20l6eTTpOLDT3Q/XBiRaF9XTa20pKRqBHPNt3OlcVWE7r1q76valp0rRY88JjHTdveX7W+bKRNlIDoVprQp1znuaQBjD+A/h94DOGz8bQ2023Ve67DzNInccpKs+du90pqR5Wu3Uw+YwG05udrvGI+6hT9Ja2q6dFXXSG+nz4jsbmx0+mWJJBx4uG/JYRiRVrlaBtrsj8wN1MH/O4j8xdaSddV1Ur90mebp63enH4pLpDEyWmp+XCg13/2ghnRnRWVgXmCMmhOTJe2iiyRq56lOP3qUbZVj+j1w3KkXIm1TT/+VlL32plOmb8whlNMcGy+1CxZJzfc/OvMtRuuDPjFqy8qWNffeLzHOWOPLC/Z8DrRv17187Xd+N8f1nNMfMIGTjjpRyt+d4fRjkz9XGOrN0hyfKHVLlknN/IVSv2yFM79yNCre1A8meOmL/9UvLSDqOs55j/Zps1Nu5FbbS/oFF0v9z0v0msHK6w9kEpqG62+Vlqde8DxHCCGEEEIIIYQQQjY9NICHBsw2mFgwR93nYN7BAIKRCwPKfR5LBePan/N+DhwzpjGMr2BRvoharW2r7WNmDhdus89mKAYwomdhsH2Z/GW/a4bbAEZeyNN9DuYh6m/6G/2POsG4dKeF8VfZUhk0utsGY4AIThiSXudtYO6jfzDOXucBomJhEpqoZbNkNH7CIIQZjDmyfM3yfmahqTeMbbdJbAxv1NXMm6EYwF7z4Jllz6gJjEhgvDZji3LcaU19UF9jtKI9uTW52j6YxO5rTJqIoggdS9vMBqHGf1XhKs0X4+4+F6pNG4pXnhtav03FqDKA17W2SsePC9Scrd5xmpq8tTB5vcxbsPMeuix0y0OPSfNf7pKaXfeW6s2280UJI1oYJrE/MjhgGuP4tlOkessdNMK46cZbpGPmLOnJy/fXInzBuIOJmHnZVRK55fZq+BpjTE0rBxhy8fsdIrl/vk3TYm9YYzLj+q7aWjXnzDHYYdj3F3uh5v31b5Jw0BFqwGKZ3YAZ588/1ukLmG7GjLTPg5jJu0rMrrtJ6jnnSuXnX0kXDO5ufzlOeTD/uuvr+0Sq9nZ1SmtauhQ/+oSknHyGRO84tZ/hh9cwec1PXabYOYc0MTtM0yjY/Lv/IR2la2Vd7zrpamjUfY3j9thfYtAfVh0HC8rQcp2xDOxL7E6z655Ov+8i8fscIkUPP+70ZaRG9Rr1tLerQWmWuoZgvnaWlUnNnHmSdcU1PvMXRuQ0n8EZMCOd8tBejIdZnlmNWH8avNZlnvfaX3L/eoeald1O+82SyOjr7qbmPsfwE8ZzU2ysZP/hJondw8ljJ6ffrTZp2dOxz7HTdmfMTf/b5wGWV0YdEDWOPZ/bi4rXG8zOmGMJcpSFLxjoMYx5Z5e0ZmZJ0aP/lsSjjpfIbSdrOcgn0G60De3eZXdfu+05oecxJrvpnEw98zypcuZbm/OeMl8qQDnY1xpzG/1vjmGvaSx5vfblVyX1lLMkertdAv26Pm+nP5zjcXsdIGv+fp+Tb55eP1h5/YFMCCGEEEIIIYQQQshYhgbw0EB0LgxemL32cezvCnMLRhjMXy/TB0YkDMh3Yt7R18YQg7k7kLGLCEJc62WsDYWRMoDTKtI0qtNrKWiTZqQNYGPImT6DkY76IrrUnRYmIyJmw6kTDGTMgbej3/Y8b0CemA9Y+thr/18s/xu/Nl6N35UFK4MuB4x88MUDjD+iqvHanMN+v6hLsHmBfnlhxQuBvJHOHi8v3HNiILMUprkZAzO2weqD+tvlw6TH8tAwt91pbdBmRBUj2hiR0uZ4qPHH+wx95lXvgdq0IXjlGap+iEJG25Ee0f0w+jFfNsZe0cEYVQZwT36+tD71H6n6xTYanQvj1m3+GowBjOWb295+XzoX/Sytz74oTX/+i9SfcZ7U7neob3nn7adqdHD1dlN9hvIBh0v96edK0423SuvTz0lXRJT01jf4azA4wbhrSUuXwkcel5hddrMMSb9p5gDDDOZVwsFHqglc/fU3Gv0IM1b3Pu3p0XzUDK6q0sjb2vkLZc3d/5DEQ47WJY2Rh9sQUwMOr/c/dP1rkwY//b/DSIzeeaqknX+RVH76hUZidhQVS1dtnZpvMAJh0qE+bTk50rhilRT/+ylJOeE0p9w91Gg15frydto0BZHNO0v6Ob/RvWJ1n1zUwSFmx+kS4/RB7s1/laboWI10xn64uTfe4jOAhxABbNqJesXve4gur41lmjUq1d/e9en2kqitJ0vyMadIwd/vl9ofF2j0b2dllfY7jNje9g7pbmjQ5Z+b4+J1ue2cP/xJ96qNwZLeOpZOnv62gWin/onOWKacfKZvbDzKjnXqGLX9zpJw2FFOP/xFambPVZMThjiMZy27s0vNUCwNjijk2u9+kDX/+Kf2nRrIVtlavvO7Gs9OuxIPO3a98W6VreU7ZWOZ6djd95P0314m5W+/J41R0TrmavY780zHvLlFupy+gEnbuHK1FD/xjCQdd7JvT+TJ05y89ltfNsD8cuqUfNQJkuC8h7Q+Th36lr2XflkBe0pnXHylrP3va9KwfKXTv6XSXeefb07bdb7V1EpHQZE0LFnuzLenJe3s87XP1XS32qT96ZSL5auRpmLGh9Lj9NuGyOsPZEIIIYQQQgghhBBCxjI0gIeGMXrdyzjDGIY5BaPOmHXuyD6YO3b0IwxWGEDhLjscavnpDcVt9tkMxQCG8YVlgbEPrXspaJMmHLN1IMIxAO2I62Bg6WSM30BjgfGHoYuxtMffCxjEMGe9Io5xLaJ7ESntXo46GN+kfqN9bUefP7DwAW1/MJPZDfrLHi8vBmsAoy/MGNjj75XWRMkjT/QB3kd2hHIozHiuLFwZOBbO+HvVe6A2bQheeYaqn1kRAOmxxzG+CFDeVD6kZaiHyqgygLtWRUjT72+U6q13UvPWy/i1UYP3l9tKy+NPS3dWjqxDhGFmlrS99Z40/eUuabz8Gmn49UXS8KvfSMN5F0njZVdJ8533SNub70pXUoqs6+i7AfuGCBG8iBpNPvFUidlpWp8oYIPPBJ6iZmrqab/SfV+rv54ljSsjpDUrW1qx7HVioh6DGZZ56e90+d/o7ad65wcj0CHx8OPUVE487Bg1Hd2mIX7HtTCmI7fYTpKPP1XynfaXvf6WGo4wPZvT0qUxIkqqZzplP/GMZGPJ6b0OUDNODW0tE3n589MI1GkSPXlXKX/7Xcm4+AqJcY5HO2m1bjCNnXogArXoX09I6UuvOu19Xs07NQ396TYENQOd/oDBmPm76yTjst9J3J4+UxkGpWdaf+Ro+m8v1b6t+nKm9ntzUrI0xydI3cKfnXbMkHxnvqipu9N0id7Wucb0IUB+Tvsxjtg7N+uq3+ueuojOhlmKsdBy/WlBLKKQnXrBqE0741wpuP9BKX//Q112u8UpW5fgXrJMKj/8RArvf1jSz7/Y6W+nbEQeO9dqv1t1gMEOMz/+oEOl4MFHJeGQo3Q+uU1YAKMWJjCiz5OOOUlyb71dyt54S+p+XODMsyQ1o2H0V3/1jZQ8+6LkXHuDlhe17WStA5bqDpTtzw9tTNjnICl88BHJvPwqNYG135002lembBjQzvxAP2Fe5vzxz1L+1rtS+/18Z74lSEtyijRGRjnvme+k7OXXJft3v5f4vQ7SPsd1Jp8++U2e7jBNCv7xgDTFxPrfeYOX1x/IhBBCCCGEEEIIIYSMZWgADx2YWDA2n1v+XOAYTD4YiDCCEZWJ83aUMExbmLe2MQYjCwaViQgeiFDLT28oI2kA4zUiO9FGewlkk2YkDeDHfn5MI3pxzstcRPQ1xgkmNcYJRi0ilt3LKLtBO9BeLO3sdd4GS0QHMzdhSmOOwHg2x7AUNPbJxX63MANhnCNKFPsHoz0wTGG2us1n7EeM/XOR7qFFDwWOe4H+ssfLi8EYwPYS0KiTe/xtTMR7VUuVLndu3hNey6V7YZa7tusWbPwBlljGFyy83i+jwQA2S0CHWh58YzOqDODOBT9Jw/kXS822u4RvAG+5gzTdcY90RUT7c9n4wv65iDLVyNHJu603xPqYaD4jC3urYlllmIcwgzMvvExN1PRzL/CZak4aRNdqNKQuw9vXEAMxMIan7inZV10nLanpkn3dDT6DcIepfc07P2q87rqXRE9yyt5+iqZNPOJ4jeBN/80lknLGOZJwyJESBeNum8kagRqIflXQBgcnb5QRNXmqZF59rXRWVkrdjwsl/bIrZMUvN5f4vQ/W+mIJaETHIjJYI0qdfL2iZQcL6gRDF/nDdK+eOVtSTjpTIv7P5v0MYAPK1H53rtN+d/o49dRfSfp5v5U0p/0wxWOnI2J3itPvMOmNQe1vsz+fuN33lcj/2VojjyvenaERtYWPPS4RkyY5+Vv97k+v18CUd/LTMceS1HsdJMknnCZpTtkZv77QqfsZGsWM/o5y0sQ6/RTYaxn4x0/3ToYh7/Rl1hVXawRt/j33SPT0PdS01bKtcgH6GeYzTNrISZN1zJOOPtGZZ7+V9PMvkpRTz/Ltc4w565Qds0PfiGc7r1gsOb3TbpJyylnSubZM96xOdfouAvteO2ndY6rzDWa5M0+xB3bMlD0l6aiTJO1X5zv9fqEa4kmHH+vMD/QNxsWZ6x5GNoh1ro1y0qCvMObddfX+d93g5fUHMiGEEEIIIYQQQgghYxkawEMHhhIMujnpcwLHYICZqGAT2Qizy0RlwsiDEWpfA3PIbSSHIhxDdrC4zT6b4TCAYfqhL2Bsmj2OTZpg5Q4GlAPzE32LegD8DhMVhi6MU6/rTNsg/IwujpZbvr3FM60NTFZjYHqdN8D0DbZPMM5hz18YgOYY9raFGZhWmaamNOYL+qiho0F/ItIX6fAlAFxrR4FjeWeUg3asc/7BVI0sjlRz1qQxoL/s8fLCPSeMsbm6cLX+bsDyzSgL9UZ9kdaMLZZrttPiPOaAPZ9wHPm6l1MPBeqF/I2h6mWwYs4tW7NM64U54BUZbcoezveSV56oH8YLUd6mLzC+GGf0Be4b4URubyxGlwG8bKU0/u73UrPN5PAN4M23l+b7H5auxGR/LhtfvW3tGtGZfPxpanohQtVtxKpRBkPQb46qGQqTa4/9dWnkOCd94NyU9csaq7kGnLSIQo2bsqdEbD5Jkk86XZcsxnLGrRmZknDm2bJyq23VaA4YaP5rTT6+PVz3UFMNEcMoU8uG0QajFGU7mLKx3LPizw/RoZE77CyJJ50sNd//EFjKt/S/r6oZGbH5llpHmI1oC9qB/BTkiTKRr6lfKLR8P85rXIdo2xVbbi0FDz4irdk5urRw2etvS8T/TJKorXfUMt35aLudsgN1QT1wHG3f3Wm3cx7t1rY71683klGuv2znmuhtJ0vE/95Mih97UtrzC5x+b5WmuHhJOedciZo8RU3M+N33919rlY0xR9lTnPzR784xLM+MsnE+0E/WmPfJAzh5rNhia0m9/ErdU3hdV5c0rl4tab+9WCInY771X1bblG3v24uy7XZjv17ffHCVbdUB5a+atKPEHH2sNCck6RLSiFoveuRxvR7LbAerM8pUExplTHPK3g1lOzjndb75223mhl6PvPz54ViM817CFxeKHnrMmedZTtt9H+IbIq8/kAkhhBBCCCGEEEIIGcvQAB46JnLRLG1sXttL0+J3RJUiIti8dpu9MIfGuwEMzPLKiFS10wQrdzCYPoSZChPVAGMNBmBsaWyfaFk3Tyx5QqO3MX6oE/YJ9koHsPdsOMtEgyX5S4LuE4zy7H2fTVQx6m2nw7Uws7HHrjmGMcFesaa/bWB8IjI5rzZPv6AAMxhLQ9t7HqO/7PHywj0nkBbXuAWTHfm/FvFaIK0ZW7dg0qPNiHJ25ztUA9hLmLdYYjuYUW/K3hgGsFsYF8yNUPs+bypGlQHcnZElLQ89KtW/mOTbr9cye9349gDeXar+71a65HNPdf9JuDGFvU1rZs2RlNPO1qhHjaKF6WUMLWW9MRcw/mDOKc7vzjE17fxpffiuxTGkj9pye0k59WwpfekVaS8s8pcuUjlvnqRdfqWs3no7XxRyIB8/MNfUVHPy2tW3pK+vfL8Jh9f+a/Q6NeN84LVvSeFdnPadKWvfeFO6qqt1/2KoNTNLiv79lMRM8y25DDNVy7ex8w0F0rhA3VB2zB57Sdatt0hTfIJv/+Tubt3Xt+jhx7XuiG7WsnGdKz8t30kDszHQ76bdfgNSr3NdC9NWo54d8u+4W5dQxh662Le5u6lZKj//UlLO/JUv0lnH3MnHRA6bcgHKduZtoGx/+Wq8mrJNuX5wXJfv3mpbSbnwYqmcNUu6Gxpl3bp10t3YKJVffi3pF14iUTs67d5xmqZ311/rgPzNmGO8TdnOa3xhwNQxUK5e41s6PGLSDpLy24ukfOZMHWsIxn9TZJSsuetep2/Qbl9EOozdQNmBfPxlw/zWsh38/W7arWW78I35VDWNc/90mzRFxUiP099DkdcfyIQQQgghhBBCCCGEjGVoAA8PMBhNhC9MOZiQ9lLO+B1mECI2TUSwiRA2aSbCEtAGeyno4TaAbUPQZmbqTC0znD2AYcbCoMytyQ1qGCPKFuOMpaO9zhtgOiJK2CyL7D4PQ9de9hjpvPbwNf1k76EcygC2QblmvmCemqWth2IAh2OWBht/L4ZrCWg7whaR3JiziE62r3UzmDaFi1eeoebnaGRUGcC99Q3S8dU3UrPdFKnZaXrIKGCN/t1hV6nd/zDpWPCTmoGjQWtfe0NSTjvLZ4Q6bYDxZYwu29ANCQw0Y77CsHXaq0sJ7zhNEg86QvfVbc3K8Ze4XlXffisJJ5+qZi3MOzX5YAraxpxXeTZWWjXnYBqi7J2mSfJxJ0vJU8/q8se2YEgiIjf35tslbs8DdMllmIxqbiIfk6e7rBAY8xD5IL+4PfeTzN9dJU0xUdLb3u4v2Sm7q0s6S0ol98ZbdHlm33LTuzllO/3uyjNctM4wLVE2xnCP/SXj0it1ue0+Zff2Sld1jZQ8/5Ikn3KmRkhr22FueuQbEtNHKBvt9vc7xjHxcOdN98mn0llV7S/ZJ5Rd/s57knrWudruWJQ91DH3l41ydU/eo4+T8o8+8pe4XjCBGyMiJfOKa3zmu/b7+ujxDR5z9PvOu6vpHrf7/pJ1xbXSsGKVRtkPVV5/IBNCCCGEEEIIIYQQMpahATw8wFQ0Eb4wBmFMwaAy541ZBXMLEb4wDu0IYQAzD3uUhhNRCpAXDDN7+d+h4jb7bD6K/0gNxFAmGdoUjgFs9n8FWJoYaYKVOxhCGWwwQbEPMAhm6trAaIWZ+OjPj/Y7Z5Z0xhLQ7nNuEIWLCFyvfYKRN8owfWpeu+eGOQdTemHOwsAxryWgQ4F8MYYYS7xGtG0oAxgmNMZoYxjAGBN8KSLYPslu8EUJGPp2X7nHH+Y7lpoONicMNIC9GVUGMNSdliENF1+p0b01O05ToxfRvgHj1x/5q+ecn8333C/dmdn+q0eHamZ9KynHn6KGLaJCsc+qMQUNXgaYQdNM29tvgO6hJiSI2+cQXfIYSx97qae9XeqXr5Lkk86UGKevYODBRLRNuQHL9puAWvYUlO3Uf8epknTsyVL+9nvSnr/GX1pfIQK6bU2B5N35d0k49Bg1QtU8RdnID3m7yuoHyvbXMWBCYt/efQ6WvJtvl8bVUf7S+gqRyG1OvfLvuEcSDjpSI1J1D2X0ub9sz/JcmDrq8sRO3RHdin17s39/k7Qmp0pvR6e/xL7qLK+Q8nfel7RzL1ATWPe0hRlqtXugOgTS7eo3vTF2Tv1Tjj9VKj/5XMvwEo7rfDvtLJ9Rv8NUq+zw2h4Yc6ts7M+bdOQJUv3VN9JdW+cvra9ghiP6O/PKa3VpZ43ANgZ4uP3uH281fjHmzvXod+x/nfP7G6Vx2Up/aUOX1x/IhBBCCCGEEEIIIYSMZWgADw8mwndR7iI1er32ejXmzw9ZP6hZbEw4gzFF7eWAg4EIR5hf4RhrgyGUAWyM61BlwpS2TdNQBqBpA/oKaUbaAAYoA+exhy6MQ3tZbjcwR9FeryW5sWwzTF1EMLvP2cDURERvsH2CYRIigtdEcYcyIlEW6mPPG7TXjiTHEtbZ1dl9TGKbeRnztN6mvIGiyE1UbkpFSuDYSBnAAJG6+BIEIsS9zhvQXuwrjCW4sRS3Oe41/t+kfqN5miXHvaAB7M2oM4ARydtTWip1hx0rNdtPDRi9agSDybtr5C9+1p98pvSsLfNfOXoEM7QlKVnybrldEg46QqK23Vkit9heo4LV7NrjAN37V/cJ3s0fKYnf/ejyuztNk8gtt5fIrXYULIObedEVagR21dZq5KmXEInb09wiTQmJkn/7XZJ4xPFqykVuvo3+9O0Bi3K9yvYdhxmoZTv1jdxyB4l1Xmf89lKp+2mxdNXUBJZ9dgtlY+w6Kypk7atvSMZvLtZI3NW/3EaittnJZ0qirBDtBoiYRn9FbLatLqWN5a7XvvyqtCSnBN3/VcuGCZydI+Vvvitp51wg0ZOnS8QvJ0n0NpO1bF/+/rJBn7J9x2FARm+7i0T8wukvZ46lOPOr+N9PS2tahrYN5XhJI4Fr66RhxWrJv/VOidvzQIly+g7ostBOWcH73QfmBczPyM18/ZV4yNEa1Vw3f6Fv2edgY46lqBsbpTE6VrJ/f6NGQUduvaMzfttJDJZQduaSGdv+ZfuOY09gfFkB10RNmiwJ+x8m2dfdKPWLl2q7Qs03LIfdXlAoJU8/J6mnn6MGdJSTT7STD75AoOUMNOYwrp02a/nO9alnnCsl/3lRmmLjNcJ7uOT1BzIhhBBCCCGEEEIIIWMZGsDDg4nwLaovUpPOy1BDBCgMx1CGIEw+GHJYFjjYfqXYlxYmMYykcCIlB0MoA9iYmWif19642NsX7bOjYgcyALFXL5boRZtH2gD+7+r/at1N/dDXMEOxN6wxUA12hLJ7KWa8xhLNXss0u8G+vTABg0V1uw1gY7K7v0CA+hTUFWheuAbHEDkNsx1mtEln+ttrfqGNKeUpmr9Ztho/8Rrj6rX/LIxYmKd29PJIGsCoI5bdxnyYnTY7aJqIogidN+59kr3G3+SJLxvgSwd2egMNYG9GnwHsNxJ7Skql5aHH1Aiu/p9tpPr/baX7/VZtvp3UHXOytD7zvJq/o2XpZ7ewRy32iy17/S3J+eOf1UyEARvxy61l9WZbSuSW20nUNpPVcIQxHDXJZxJHbOac33KSRqAmOm3PuuoPUvLUf6Ru/iLpDKO9MEK7m5ulOSFRyt5+T3JvvV1STjldYqft5eTrL3sLGKM7abkKyt7KV3bE5ltJzORpGkmbccnvpNjp53qYv9jzd6Cy/YZgW16+1Mz7QQoffFRSzzpP4vc5WI1FX/5bS9RWOzrt3tlXtvMzCoblZpO0blHb7iRxex0gqWecJ/l33iM1s+fqPr89TpsGUm9rm0Yo13z3oxQ9+qRT9vm+ZaF3mOIr26Fv2U6/b72TGuQRm23llL2jxO25v6SceIYU/OMBqfrqG132GWM5kNA33XX10pKQJGtffk2yr/q9JB15vMRM3cNftpO/M+YwRteP+WQ1PXEuwj/mSUcfL9nX3SBlr70pjRFRusxzMNPdSMe8oVEaV0fI2ldel+xrr5ekI45TAzZyC1/bMN9ghgfG3Pkdx7RsjPmU3SXp2JMk5/qbZO2Lr/jKrqkNb8w7OqQtN0+qv/lW1tz9D0k769eSsC/GfEcn/y0lwqkD+hnGPkx9/WmNOcYnYb9DNIK64L4HpWbOPGnLylFjezjl9QcyIYQQQgghhBBCCCFjGRrAwwfMnd51vUGXZTbRlFAoQwxmGwwwGHMwDl9Y8YLc8u0t8lrEa2oM4hzyeTXiVc/rh0IoAxi8FfWWRl3CtES05tNLn5Znlz8rS/KXqPkLc8s2pQcyAM0SvdBwGcAwRc0esIbFeYu1P1F3tAFpYQzC/O1Z16OmMPoXRuu7Me/qMtHoZ+wb7C7DGMe28RoMjJdtuLoxc8JE7BqzEn35RfIX+hpGLwxa9BPyej/2fTVrYeaubVyrdbbzhOEIcxRtgCmPPDBGSI+2uiNhYaLiOAzmGXEzNHr7jag3JK0yTfNxG+SDMUsHawADzAnUxdQJ/Y0vWCAvmMLoB5xD39r1AijHy2BFlDDGHvl5mfaDaVO4eOUZrH5u8N7GewzjPtCXDEaSUWcA2+rOzZPOpculY+ZsaXt3hrTP+Eg6vvlWOleskp6CQn+q0at1Pb3SUVwiDctWSMUHH0vh/Q9JxkWXScqZZ0vikcdK/H6H6p65Gh2690GSePBRknzKGZJx+RWSd9udUvbKG1K/6GeNbO1pbPLnOrCMid5RUqL7tFZ+9IkU3PtPSb/4Ukk540xJOvo4SdCy95e4PfaT+H2csg87WpJPPUPSL7xI8v76Nyl98RU1UmHsYb/XYFGgXoIh2QUzNCVNqr/+RoqeeEZy/nCjpJ/3G0k+8RQ1l+P3PFCXDY7f6wBJOPBwNR9TzzlPsn9/gxQ+8phUffG1NMfFS3d9/YAmpK113T4zFEsTY/niYqfs3D/dKmm/vkCST3DKPvAIp0yn7D2ctjs/Ew44TJKdstNQ9nXXS9HDj0nlx5+qeY+I597OQUSgot+dtrcXFkndwp/VxIUhmnHhxZJy+pmSeMSxkrDvIdpubfs+h+ixlNPOdMbmMsm79U5dShqRt8gDxmq4MkYsroNhjy8eoOzMSy93xvwsX9n7HOxrt0OCv+zkU0+X9AsulPw77tYvDDQ47zeY6IhiR57hCmkRnd4clyBVX86U4sef0rFMO/fXknT8SRpVDGMf883X786YH+P0+/m/ccbnFh2nKud9jkjv7vqGQY15uPL6A5kQQgghhBBCCCGEkLEMDeDhY076HDWmsAyy13kAQwdpkNbrvOGxnx/TpXxhQtpCFGNkUWTQ6OChMpABDBD9i0hnmN1GaBOMS9TbThuOAWiinofLAPYS8kf93Ms5w0D8Put7NVbXOf8g/IQp6zVGSI+lh8PZpxbGLfIJtU8w8sMSzvacQb6ILjb1Qd2jiqPUBIWBCVMWUblIE6wOXyZ/qWWbPCCYyjB73aYpQFvd6XV/3YKV/SKDR9oABqgjlquGmW/XCXMOUdkfxH3geV0og9VEm+OLC+5zo80ARvvwJYPypvI+e4lvbEa1AWwEM6i3vkF6m5pGxBgaaRlTEmZqw+KlUj1rtpS++roUPvqEFPzjQSn4+/1S+OC/pPT5l6Xysy+lfvlyaUlK0QhMRNQORbpEcFOztGVlq7EIQ7bsjbel6LEnNcpVy37IKfuF/0rl519K3c8/q3HbWVk1KAPSSygb+8S2l5RKU3SM1H7/o1R8+LEUP/28FN7/sBTc45R9/0NS8tSzUv7uDKmZ9500RkbpXsIwnYciNUSdsrFfcnN8otT+sEAqP/xElyou/OcjTrv/KQVO2VjiucIpu9ZfdjvKbmkZlOHtJYxbZ3WttGZkSf3Pi6Xqq5my9r+vSdEjj2ufg6KHH9eI3aovv5b6n5ZIszPm3Y1N0uvMl8GYr271dnVKV51TdmaWNCxdpmO+9r+va3m+sv+p9UDZlZ9/JXULfpLW1DQ17VH2UIR+62lz+r2oWJqioqX2ux+k/L0PnH5+Svtb+/2fD0vxk86Yv/O+1M2f74xPgnQUl+oe1iMprz+QCSGEEEIIIYQQQggZy9AAHv3ALEIEqTvS0w2MOkQLw3gKRTh5hQNMOkSWYt9Zr/NDYWO3ZVOCfXhhzrqXJ0a7vAxezIdwTUHkgT4ayHA0mPSb0nR0Y+bCSMyzcEH/ec0/N5uyjiPBmDCAx6Ng8MEsg6EdYAim32CkZfdYZff0DNnwDFeBdqNMU/7GLhsGqwGvN2W/b9SyrT7fFGVvgjG35fUHMiGEEEIIIYQQQgghYxkawOMHGFCIOBxIiIL02qN4NDGe2jIQWOIXkb2IQg62Ry3ZtASLLHdrOKLYRxM0gCmKmhDy+gOZEEIIIYQQQgghhJCxDA1gQjY9iLzFkt9YShsmIva6NVGl2A922ZpluhfvptwPlkw8aABTFDUh5PUHMiGEEEIIIYQQQgghYxkawISMHt6IfEP3A0Y0MPb+xV6/WB4apvD3md977t9LyEhBA5iiqAkhrz+QCSGEEEIIIYQQQggZy9AAJoQQ4gUNYIqiJoS8/kAmhBBCCCGEEEIIIWQsQwOYEEKIFzSAKYqaEPL6A5kQQgghhBBCCCGEkLEMDWBCCCFe0ACmKGpCyOsPZEIIIYQQQgghhBBCxjI0gAkhhHhBA5iiqAkhrz+QCSGEEEIIIYQQQggZy9AAJoQQ4gUNYIqiJoS8/kAmhBBCCCGEEEIIIWQsQwOYEEKIFzSAKYqaEPL6A5kQQgghhBBCCCGEkLEMDWBCCCFe0ACmKGpCyOsPZEIIIYQQQgghhBBCxjIT1QC+6/u7PI8TQgjxQQOYoqgJIa8/kAkhhBBCCCGEEEIIGctMNAP4mi+vkTV1a/R53+K8xZ5pCCGE0ACmKGqCyOsPZEIIIYQQQgghhBBCxjITyQC2zV8jmsCEEOINDWCKoiaEvP5AJoQQQgghhBBCCCFkLDNRDGAv89eIJjAhhPSHBjBFURNCXn8gE0IIIYQQQgghhBAylpkIBnAo89fI6zoyOnhhxQtS11YnP2b96Hl+U5Jbk6t4nRspZsTNkPbudimoK5Db5tzmmYaMbWJKYqS0sVQeWPiA5/mNBQ1giqImhLz+QCaEEEIIIYQQQgghZCwz3g3gcMzf7zK/87x2IO6bf59UtVRJRXOF/u6VJq40Tjp7OuWThE88z48Gfs77Wev4RdIXQc+vc/4llyd7nn8n5h01JKNLoj3PD5WXV70sbV1t8lPuT57nNyXFDcWK17mRggbwxmdhzkLJrs6WJ5Y84Xl+uMF7raa1Rh5Z9Ijn+Y0FDWCKoiaEvP5AJoQQQgghhBBCCCFkLDOeDeBwzN8l+Us8rw0XRKV293Z7Rqe+uPJFae5sloyqDLnqi6v6nR8tGAN3ZeHKfudQ7/zafO2rypZKuffHe/ulgUHc1dslX6V81e/ccEADmGxqYMhiDmIuep0fbmgAUxRFbUR5/YFMCCGEEEIIIYQQQshYZrwawBvD/AW3z7tdyprKPKOAEf0LY/W9mPf6HN8U/HPBP+WmWTd5noOpC3O3qKGon1H93PLn1MSGGYW2wCy2zwMYxMNtVqEeZvnbjWkA/+27v+mYep3zYiQMYIwTxsvr3HgDbcUcG0yfD5bh6E8awDSAKYoaxyqtrpe1NQ1SVtuolNc1KRX1zVLZ0KJUNbYq1U1tAWqa2wPUtnT0o661c8TwKo8QQgghhBBCCCGEEIN5boXnWHiuhWdcFXVNUlbTIKXVdVJcUSMFayslr3itZK8pkozcNZKSkS0JKWkSk5Akq6JiPI2DoXLX93dJVHGUPL3sac/zodhY5q9hbsZcXULZjgI20b8wcuy0AIbUsjXL9DyWVoZ61vVIYX2hvBbxWp+0A5mfMIhgFNnlmGsQmbt8zXLp6OkY0LzC9agPzDj7+Jz0OYHyYQAjT/u8KT+zKrPPcRi48zLm6d69po2963rVaP444eM+aQHyRznvx76ve+oirTFWvfoAhiGWQEa/2WM5mL61+w51xTWI5rYjmWHqGyPfCP2JY6hDMAMYbURb0Q4IdUH+32d9389kN2YflnbGlwlCLbcNvMYceS7NXyqtXa1aHmTX074+GKatuM5oY7TVXIO5guN2egPGDmOIsTTSqPWClTrmdtqB+tPMEbuvMO5Y4vmhRQ8Frkc/m7nnlvv95DVPUFfM5cd+fiyQzuA1T4PVwX3txiQyMlLi4uIkKSlJ0tLSJDs7W/Ly8qSgoEBKSkpk7dq1UlFRIVVVVVJdXS21tbVSV1cn9fX1NIApiho7GisGsFcZhBBCCCGEEEIIIYR4MRoNYJi/LZ0t/qdyIq+sfsUznRcb2/wF2Ie1tLG0TxQwzCC04Y3IN/qktY3LtMo0eSvqLTWSFmQvkIb2BjWSZ6bODKT3Mj9tvMxAcw3qBAMvrSJN9zB1RyjbwOhFWvcyzsgX5h72PsVPRPva5z+K/0hNL9v8humXVJakhiDaCiMOdZqdNlv7CG2HWWnng/ahfOyp3NjRKJHFkfJN6jd6zt0HJn93PoPtW9N3qBPagLYtzlssTy/1feng8cWPq4Hozg+GP/JDWehjtymK+QUzD/liX2Vcgz6AGYi8UHfbGEUfwwhEntWt1boUN/rVztPGa8xhzKPMlPIUeTXiVQVzEMcSyxL7XO8F2oq+32ht7WiQ9Mp0NXZRNuadGaMvk7/sU8bXKV/rcZxHfVAG6oe2omzUzTa5Q/WnmSPuuYm6ow1IDxPWmK8wal9Y8YIu4445YtqIY8Z4Nn2HOmLeou+RBnMJ9cB9APU19UMdcmpywq6DuW5TQAOYoqgJodFsAHvlSwghhBBCCCGEEELIQIw2A9ht/hqFYwJvCvPXAAMLBhCMUBP9CwPOnS6mJKafEWmAQQuDDdfCYMIxGEMbagC7jadQmKWeo0uiA8dQHxhbJm+0B2nsKGGYa4iktMfH7IvsNnkBTDMY0uiDTxI+CRxH+yC3mQfsPrDNX0Q32+biYPvW9F2wa9DuUPkZI9E2RWH4o99hgLrbAdAnyHNW2qzAMZSDKFC3WRoM95ibJbxLGkv6XQ+T1T1mXoyGtmJcUFcY8eacaSuMUUTG2ukB6osyVhSsCBwLVYYxrIPNTZjKyM9tviJPzEHMRfsacw5fXvg86fN+52AOIy+Y5/iiCI6FUwf0tbsOmwIawBRFTQiNRgPYK7+hYNeVEEIIIYQQQgghhIx/zDOsgPlb3yzltY2ytrpeSqpqpai8WgpKKyS3qFSy8oskPSdfkjOyJD45TaLjE4fdALaXZXUrlAm8Kc1fAKMJxhWMKhhPttFoeHLJkxqViOg+tzFlgCkKAwrGKl4PxQC2jw0E6oM9gBHxaowqRE3C4DNRwfgJowvRwuY6LMtrX4OfeF3eVO5pCgJjkNvLRqN9MMXcEcjA7gOYZkgHM9ruww3pW9N3ofY+DpUf9nZGVKhtisJAx7G3o9/uk9ZgTHU7khrj5DbRQ+Eec9PnyBf522lhDtvRql5s7LbiGkTJ2mkNKRUpOo4YT7zGlwm6erv6mMg2qC/yhwGOtuJYsP40RnmoufnMsme0fLf5ijy9DGDTdzDa7eM2iEBHm/F+GkodNgU0gCmKmhAaTQawVz7hYteHEEIIIYQQQgghhExsRpsBDMMolLxMsk1t/hpgMMIgRfQeolHd57HEKwxILMfsPmcw5h6MVbweigEc7JpgmGheGLTmtW3GGZPVlGVe21HDuBZ5DLTsMIxE1PuBhQ/oa9TVy2ADpj0wamEGekV2bkjfevWdIZz8jJlnm6LI2zYjvTBtN+YeyrdfD4RXvbEENKKi8QWETxM/DWn4uhlNbcX71J4HmEcwWENFMCNP+5pgZYQ7N2Eou693l2EwfWcvge4GX2rAlxYwx4dSh00BDWCKoiaERosB7JVHKOzyCSGEEEIIIYQQQgixGW0GMJaAhkESSrYJPFrMXwBTElGU2N/02eXP9jsPIwgmkleUqw1MM2O0GfNzYxjAiFDEdYjwRVtguNpRugCvjenn1Z5wy3abdOEYwBBMRy9zc0P61qvvDBuSn3kdjuy2BzMsgxGs3h8nfKxjgy8gwAzGssPYRzlYVK9hNLXVPQ+QPhy5r/EqY0Pnpjlml2FAn8HcDUcodyh12BTQAKYoakJoNBjAXtd7YZc5HNjtIYQQQgghhBBCCCHjB/M8K2D+1q3f/7ekskYKy6pkTWm55BaWSGZ+oaRl50lSepbEJadKVFyirIxcH/05XIRrAo8m89cQyriBWTRQtCCuw/WbIgLYzguRik0dTf3qitfI+52YdzTy144QBqZsOyrYC5iHKGswEcAwNGFsInrSbWpuSN969Z0B+SHaOFRUrFl62W2K2ktih8Ngzb5Q9QZYWhhLJqMu6K+MyoyQJvBoaqt7HiC9e44NRLAyzDwaKPoWX3JwX488veYn+s69LHoohlKHTQENYIqiJoQ2pQHsdZ0XdlnhYNeTEEIIIYQQQgghhEw8RqMBDMIxgRHtGEob2/wFoQyucPYLfT/2fTWUjIFqrsHeqO60AHupYn9RlGuOGZNpsAYwMBG+i3IXqQEMI9g+D+Md47I4b7GUNJb02d8VmKWCYdYGMwYRHY0oafvacAxgpDF7AEcURfQxNTekbzFGGCu77wwmv1D74mLvW699cXGdu98MMGd/yPpBvkpeH20bas54EareblYVrlJjHNHdXufBaGqrex7A0MeYYXl1d1qA+s5Omy1zM+YGIsODlWHmZqj9dx9f/LjUt9f3ux55es1P03fYk9o+bvNW1FvaLuQ9lDpsCmgAUxQ1IbSpDGCva9zYZQTDrhMhhBBCCCGEEEIIIWC0GsAgHBM4mDaF+QsGMrhwHobczNSZ/c7BECqoK1BDCcYujsFEhZmKKMhnlj3T7xrsNbzO+Yd8zbGhGMAw3Fo6W9TcxRLQbkPQ1AeRn40djbIge0Gf8wB9D5MWZq37HPLDHr7ogy+TvwwcD9cANtcjstWd/2D7FmOEsbL7zgZm8kD5Ybll2xR9I/IN7b+U8hRPMxVGJaJt7X4baM64cdc7lIGL8UQbsFetfdzNaGmrex6YtmIuehmm78W8p8a0bcCGKmNFwQrPuQPM3EI73dcjz2DzE+dwn3or+q1+51BnvFewt/l98+/TYxtah00BDWCKoiaERqsBjHwbWjuk1aGNEEIIIYQQQgghhJBB0NrSrrQ0t0lzU6s0NbZIQ32T1NU2SE1NnVRV1kh5WaWUlKyVwoIiyctbI1mZ2ZKamiaJCUkSHT28ewC72RATeFOZv2AggwvRfTCDYLZFFkdqNCxMos+TPtfIQBiniL61r4Eph/Q4/2nipxrpiOtgvKFvAMo16YdiAJsIXxhQKwtXeqbBcQjp7P2YDcYwRFvSKtPkv6v/K7d8e4u8G/OuHof5BcPONg3DNYDx2phkbhNtsH1rzEW772yQH8575VfRXBFYAtk2RYExwNFWmIKoL8paXbhaDVEcRz4m/UBzxo1XvbGkMPojfm281htlfpb0mZr0qKsxH4MxWtrqNQ++Tvlao4BRDzP/EUkLYxlpMeaov0kfqgzUxcxBr7lZ21YrOTU5/a6HkY5rEtYm6BcIXljxQiDi2Mw7vB/QH6gbzs2Im6F1Rp+iDUOtw6bAbQDfdNNNNIApihp/2hQGsFd6g8mzwfkD3euPd0IIIYQQQgghhBBCBmK0G8BgMCbwpjR/QThmHsw4EwVrhChemEgfJ3zsec3MlJka5WmE9MYQRnm2GTgUA9js9YqoSuzz65UGywmj7kgXbJlnGGArC1ZqPkaoMyKZ52XM62P+gsEYwMCYaG5TdzB9izFy952bhxY9pJG1KMcIv6MMlAVD1G2KApRV11anZRvBxESfGOPQEM6csfGqt+lvlGGEsjFGL616qc/1wRgNbQ02D16LeE3bYpdh181OO1AZmDv4AoLdV/jCA5Ykf+znxzyvxzUw2U3fuOto5p3dd6b/UXeTzrAhddgU2AbwzTffrAbw9ddfTwOYoqjxpY1tAHulNdh5trZ5//FOCCGEEEIIIYQQQshAjAUDGIRjAm9q83dDeGLJE32iCQcChhCMJ0QZep0fjaDO2CcWppfX+ZFisH0bChjWiIoFbvM6FGgz2r4xjbyh9newtgYzgA0bo60YS4wpxtbr/GAZzjliGGyeI1GH4cIYwH/5y1/6GMDXXXcdDWCKosaPNqYB7JXOYOcHvP5wJ4QQQgghhBBCCCEkHMaKAQxCmcBj0fwlZLTwVfJX8l3md0EjumHqIiIVEape58n4BAbwnXfe6WkAX3311TSAKYoaHxoNBrCdl8HrD3dCCCGEEEIIIYQQQsJhLBnAwMsEpvlLyNDAfrpYNvub1G88z8/NmKt7+iKd13kyPrn77rtDGsBXXXUVDWCKosa+NpYB7JXGYOdl8PrDnRBCCCGEEEIIIYSQcBhrBjCACYw9XSFELXqlIYSED/awxX61MIEX5CwILEeMnz9m/ah73mLP5Y29jDfZtNh7AKelpUl2drbzGZDHPYApihpf2tQGsJ2PAfl7/eFOCCGEEEIIIYQQQkg4jEUD2PDn2X/2PE4IGTwPLXpIcmtypXddr6xz/rV3twd+x9LPOO91HRm/0ACmKGpCaGMYwF7ngZ2HweTv9Yc7IYQQQgghhBBCCCHhMJYNYELI8HPvj/fKJwmfyNL8pTIzdaa+9kpHxj80gCmKmhAaTQawnb/XH+6EEEIIIYQQQgghhIQDDWBCCCFe0ACmKGpCaKQNYK9zwL7eYOfv9Yc7IYQQQgghhBBCCCHhQAOYEEKIFzSAKYqaEBotBrCdN/D6w50QQgghhBBCCCGEkHCgAUwIIcQLGsAURU0IbQoD2L4W2PkClOX1hzshhBBCCCGEEEIIIeFAA5gQQogXNIApipoQGkkD2Os4sK8Fdr6mLK8/3AkhhBBCCCGEEEIICQcawIQQQrygAUxR1ITQpjaA7TwBDWBCCCGEEEIIIYQQMlRoABNCCPGCBjBFURNCG9sAtq8Ddp6mHBrAhBBCCCGEEEIIIWQo0AAmhBDiBQ1giqImhGgAE0IIIYQQQgghhJDxBg1gQgghXtAApihqQmikDOBg2NfZ+dnmL8r0+sOdEEIIIYQQQgghhJBwoAFMNoTHFz8ut8+73fMcIWR8QAOYoqgJoY1pANvXADs/GsCEEEIIIYQQQgghZLigAUzCBYZvYlmidPd2K1+lfOWZbiAeWPiAlDaWSkzJ+rnzY9aPUtdWJy+seKFPWkLIpoMGMEVRE0I0gAkhhBBCCCGEEELIeIMGMAmXFQUrpGddj0SXRMsjix7xTBMOuLamtUaSy5MDx37K/Unautrk5VUv90lLCNl00ACmKGpCaDQYwG7zlwZwcGpq6mXGl7PlrY+/luKSMs80o4lGZyxnfrdQXnn/U8nMXuOZhhBCCCGEEEIIIWS4oQFMwqWwvlAqWyrl3h/v9TwfLjSACRkb0ACmKGpCaFMZwHZem8IArnPa+PnsH0Iak/hPwvc/L9c0385frP9Z8EqXlpWnaZAf8vVKM1ysLauSG+5+UC7989+0XK80o4m6ukb551MvydlX3ySrYhI902wKME4/LY+QB555Wa6/+wHl9oefkg+++lYKitZ6XkPWU+r8B3l5RKykZOR4nieEEEIIIYQQQjY1NIBJuBQ3FCte5wYDDWBCxgY0gCmKmhCaqAYw/gPw4jsfqTH51bwFnmkqK2vl1gf+rWn++PeH1PTySgfTEGne/Pgrz/PDCQ3goYFxX7o6Rq645W6tkxfnXPMneea1d50P+DrPPEiHjiX66vm3P/Q8TwghhBBCCCGEbGpoAA+dl1a9JEX1RdK7rlefI65z/lW1VMmMuBl90g1koMIQhTHqXl7544SPNfLWzr+5s1mW5i+Vq764qk9a8FrEaxqti+Wajdq722VlwUq5adZNfdLieuTT2tXqTynS0dMhcaVxuucv0mCvX+z5a8veA3iw7RrIAH47+m2tb3pleuC8G5xDH7y48kXP84SQoUMDmKKoCaGJagCDn5ZHqon16Iuv61LF7vNJqZny2z/+RdP8+g+3SExiar80xuDE+aj4lH7nhxsawBsO/tP39bwFavCee93N8toHn2u0b4tzHOdh+P+4eEXAHL7twX9LcWl5v3wIDWBCCCGEEEIIIaMfGsBDA2ZmdWu1NHY0qiEKA/OLpC+ktq1WDcpXI14NpN0QA3hR7iLp6u2SiuYKzRf5w1jOrclVgzepLKmPCfx1ytfS2dMpDe0NMjdjrqZ/K+otSSlPUdO2oK4gYOyCn/N+1uM4j7oCmL84lliWqGmQHkZrWVOZgjzx2uQz3AYw2pNfm69teHLJk4E0hscXPy717fUhDWJCyNChAUxR1ITQxjKA7fTAzstt/m4sAzhvTbFc9Zd75Q93PeAZ3YvIYJhcN937sP5EpK87jckjVIRwSWm5LFkVrRHCcxcuVeO2Kchy0sjPXloX13730zI1JvE6lAEMA3NFdLxen56V3+ccwLLH0fGp8vE38xT8jj2F3elAQ0OzRMYmy8roBI2ERX3jktLkk1nzPPceLiuvlmWrYwJtzC8o1f9khWMAVzr5r4iKl/e/mK31ik/O8DTkwUD9Ewq05TfX3yZX3HqPJKdle6YBMIVvvu9RrTOixION1XDUG0uHw5Q2/eW+zsYeP5SJ8Qk2fmaJZtQJ/8lFXbHk9ewffu5XRxjgqB/GDeOHccR44hzGHv2GsjAnzLx4/8vZ2j/3PfmClgNMGjtvMJLzjhBCCCGEEEIICQYN4KHxY9aParjOTJnZ57iJYo0uiQ4cG6xR+kbkG9LS2dLPtDWsKlylRu2stFn62hirMIsfWvRQv/QzU2dqXVcUrNDX2MsXkcUljSX9IolNhO1zy58LHAtW/8G2ayADGK/RJhjfC7IXBNIYcAxRyp8kfNLvHCFk+KABTFHUhNBIGMDBjtm4zd9NYQDb0bvu6F6YZIgMhrkLow6RwEiLa+x0MKoQUfrUK+/qfybsc6VrK+SJV97W8zDLbBBliqWI3aafMZ2ff+sD+eb7RRqpqq/9kZbBDGAYatjPFmndkasw1WAyXnjj7YHyDcgfpp9772K7HJh7yBPp3eXiOlxv6mnz9yeek+zcwqAGcKhrL/nznTJn4dJAdK5hoP4JBvrnnsf/o2MBI9QrjQ0MYpjAWALcvUf0UOr97Ovv6V7RXtdi/MrKq/pcB2CCzvxuoef4wdCGGes2Xk2ELvp+wdJVgWvdcxjG812PPtsnT4D6vf/5LElKy9Ixx1zAnDDzwp0emDQm75Gcd4QQQgghhBBCyEDQAB4ac9LnqAnrNiphqD67/NmA6QkGa5TCPIaJDDPZnRY8seQJya7O1iWc8RpmNExTYwi7MZG1lS2Vav7eNuc2jejFctX3zb+vT1qcf2HFC32WjA5W/8G2KxwDGPVBvUobS7WeJh3aUNRQ1O84IWT4oQFMUdSE0EQ2gIHZv9cd3VtYvFauvfM+NcyKisvUCIQZjEhJOx1MLFwPk9g+DgPWRJHe8chTajriGIxmmJcwwABMTNsENkYhDC+Yezf94xF56b2PQ0YAwyBEJCmuQ5m2+Wufg+kM8zEnr0jB72a540eef61PVKYpB+b45bfcpXV5/OU35a2Pvw5EYsJIfPA/r+j1MPnQF+68r73jPrnuzvs1jW0A24Y12rhkZbRGra4pLNUoUeQHsxYG4mD6JxhYnhttgQkcLPo0HIZa7/OcMceXCd786EvtJ4wVIm/NODz20pt9zFz3+CEtrnFfhzRIa64zBvAlf7pDy7v69n+oSQ4j2UQAZ2TnazQ00mGsMYfdc/SWfz6u1xtz10ToDhQBPJLzjhBCCCGEEEIICQcawEMDZiaWgEZkbWRxpC5P7JUODNYoxT6+eP3Awgf6pfUCSza7o3bdoAzbaMUS0FhKGlHDnyZ+2m+PYJtg9R9su8IxgAEildGvdqQvzHDsV+wVGUwIGV5oAFMUNSE0Gg1glO31h/tIALMLZpN7H2AT2QvjDv9ZwFLAMKywb7BJU+303d8efaZfdCLMr2dee1fTv/zeJ/2iM8GyyDg1t6766z8kJ78ocNwYhVr23Pn9IkndBjDKwl62SA/zF8sX2+lhPAc7B2D44RzS2Ca2KQd1CXYt0uM6LJHtNsaByRt5ANsANtf+85mXdalf+zqQmpmr5qS7bwfqn2AEM/oHy1DrjbmGyG/7GmCuw3k7Gj0mIVXnyUDjh+uWO3PKHDcGMPCag3gNsxnnn3vrg36RuMDMUaQxBrA5Z/IPFnk9kvOOEEIIIYQQQggJBxrAQwfRqtg3F9G665x/MGFhxj7282N90g3WKB0ovRtcH47cRuvHCR9rVHDvul41gxFd+03qN/2WhQ5Wn4HquaEGMPYZRl/ae/2in7H/byijnRAyPNAApihqQmhTGMB2PpvaAEb0JvbvRbQvon5xDP85eOPDLzXyMSk1U48ZQxhGMM7jGExPRAW7l9WF8QcDEHsLI3rYHLcxZcDosk1JYxTCWIbBbF8D3AYwIk1Rr+vvfsBjqWLfEtc4j0hV+5yNiY61y7SNONv0NiBqM5wllU3eyMcYwOZa9G98cnq/awzY93Ww/RMMGJW4zjYbDWZ/3mCYfXSHo97uuWKw5wPS4hjK/M8b7+sxLOPsvsaAscU42MuQG4PWntc2KenZctFNt2t0djCT1a7TYAzgkZx3hBBCCCGEEEJIuOD/tYAG8PAA0xJLNyNKFcyImxE4N1ijFGnNcs3utF7g+ob2BnlyyZOe5wcC+wxj+WiUCyM4ozKjjwkcrP7Bjhs21AAGMH+N4WuWhbYNYULIyEEDmKKoCaGJbgAbkw1mFZawxbHKylpd8hngdxwzS0Lbx2BQwahyR5XCZMTx596cof/RsM/ZmOhj2xQ0RmGwyErbAMYerYjQROQoIkjdaY1BDSMaRrf7vMG0145adRvN7mvCzdtESaNNxgA21yJyuKy8ut81BmMy2tHZA/VPMIwBbEfJGkyewTDjM9L1dqcx43L5zXdLZk5Bv/QG84UDe26aOgQznMOdo/gChL0EtDkeygAeyXlHCCGEEEIIIYSECw3gkeGZZc+oGYs9d80x/F7XVieP/vxon7QARmtJY0kfo3SgPYCRDmbosjXL9DX2AO7o6eizZLINypidNlvmZswNudQzWFW4Spdf/ij+o8CxYEbvYNs1GAMYbUGbsOQzzGmkCdY+QsjwQgOYoqgJoYluAAO3kWtML+xpa9LAyIOhZ4wp/AcC0cAwcO0le4Ex8r6Y82Of426McWcbigMZhXaEJMD1SWlZnmlN/v944nnnQ6q/CWiwIzaNCT6QETfYvFFXYwCba00bBmIwBnkwzF7NXmOCvNFeNwuXru5T/kjX250GdbDHeiBsk3YgA3iwc9TOG4QygAc7NwYz7wghhBBCCCGEkHChATw0YNLCoHw/9v0+xxG1i+hd7ONrjmFP2+7ebjVg7bQApiYMV9sohfELAzilPKXfcsxg+Zrlmh+MX7w2xmpRQ5FG87rTvxfznuaHZZTxGnsFY4nl7OrsfvkjT9Tni6QvAseCGcCDbddgDODb5tymS1KDgroC/YljdhpCyMhAA5iiqAkhGsDrIxaNWQZzDKYUln220xnTDNGTJrIVy0e7oxxNOttA9sIYZfYSuG4T0I0xyFC/8667WX8G2wvX5G9HhnphjDh7yeuBjLjB5o02uQ1gRC6/8M6H8sr7n4Zk5ncLhxwBbEx+917PocAXAuxxHOl6u9OYMcC4PPv6e55l2Mz4crYuU41rwzWAw52jG2IAj8S8I4QQQgghhBBCwoUG8NB4NeJVNVERAftp4qcaWfvQoofUtLXNWYBljGF8wuhckr9ETWKA6NaWzhbNwzZKwdL8pbocM6Jssby0ySeqOEq6erv0uG2Ifp3ytRrSFc0VgfqYMlAullC298/FXsXIP35tvB6HEfxZ0mfS2NGoeWDZZZM2mAE82HYNxgAGyAd1RHvxu/s8IWRkoAFMUdSE0GgxgE1Zm8IANkYUlnjOzS9Wk9DL2DX7pmKv1ZSMHDWpsHw0/hNhp8MywzDHBjIbvUzJcA1glI39aW++71E1gbEXMP5TY6dF/bEML8xtmNz2ORuzvLWdbiAjzuQNMzQnr6jfeQPSoS/RJmMAm2sHWiLYiw01gLEXM8rD+CX6zcZQICL7lvsf0yW2YxJ8Ed4jXW93GkTPIor2kj/fOWgzdCAD2MzRh59/VRoagr/fzN7XgzGATT+NxLwjhBBCCCGEEELChQbw0Hkt4jUpayqTdc4/I5iwiNB1R9Y+vfRpjWK108L4XJizUE1jtwEM5qTP0eWk3fmvLFjpuZSzV31gRieVJfUxdAGuRz7IzwjX4fqXVr3UJ20wAxgMpl2DNYBhMGMfYLMXsPs8IWRkoAFMUdSEEA1gH4j2hNH1zXeL1JSCyes2du2o3w+/nqMGGExcOw0Ix2xEpOZ9T76gZf64eEXg+GAMYBhk2PsXJuy5190s33y/qI8JjPrDoEZ+H82c288gBjiGCGKk+fd/3woY0QMZcXbeb3/ytWfeAHVCG5HOGMDmWhz/aXlEv2sATMnn3vpArr/7AVm8MipwfEMNYGDqAtO8uLTcMw1ocuqHiFqU88xr7+prHB/penul+WTWPD0Wavwwd1HeZ7O/DxwfyAA2c9Q2uN3gugf/84rmMxgDeCTnHSGEEEIIIYQQEi74vyegATx0YKa+sOIFeWLJE57nbbBEMyJ6w0lrQFQtDFK3QRyMwdQHIF/UyWv56HDZkHYNBPJDlLVZupoQsnGgAUxR1IQQDWAf2McX+/leedvf1eDDMs9e6bBkLtJdfstdQSMcbXML+/tm5Rb0OV/j9Pdzb87Q83c9+qxUVtUFzg3WAMYxRHNeeOPtauYtXR3Tx3Azkco4B6PZXioav+MYzrnN6nCMOKTHdbh+9vzF/fKev3il1gvtAcYAtq+Fee3eQxnXov8wDn/+x7+kxDJrh2IAw3R/5PnX9Pqb/vGIGp92nUHp2gp54pW3gxrFI1lvrzQFRWvlujvv1z5esHRVn7HF7xhvnHOP00AGMK6FOYs0MI/dY4w5inqgLUjjNoDN++WOR572XOZ5JOcdIYQQQgghhBASDvi/L6ABTEYr2GMY+whjP2Gv84SQkYEGMEVRE0I0gH1g2VqzVHGopWvNkrihzDVQ5/QhIkGRDtG5iBxGVOnjL7+pxheOwxx2l7MhBjBYFhmn+QL8bo7jPzowDk2Zv//b/Zo3uPr2f+gxnHObi+EYcUg/Z+HSQN4wRZ957T3NG+XgGF7f8/h/9HfbALavRX/e8chT2j8vvfexmrNIj7JXxyT1KXMoBjDAuLz4zkeBMYSRDwMUoD/McYxXcUlZv+tHst7B0iAv5IlzKANloUyUjTqgLqiTPX4DGcAAhvjTr76r6ZAPDG/k/e+X3wp8oeD9z2dp2W4DuLyiRm578N96relDLFeN4ziPuozUvCOEEEIIIYQQQsIB/98ENIDJaARLVmPfYiwvbe91TAgZeWgAUxQ1IUQD2Af+I4Blnwcyzcy+pUiHpXe90hgQ6YhlgI3hZcCeru9/OVujLN3XbKgBjP/QYB9gGHleBiT2Nr7n3/8JGJwAxjQiYnHOTgvCNeJQblxSmu6Xa/IFaPMPPy9XkxH9iWO2AWxA3sHqlV9Q2i/9UA1ggDojQhV7LxuDEhgTdMmq6MCyz8EYiXqHSoNIYEQmowxTHspGBHlSWla/9OEYwABLVs/8bqHOSTtftA3zAu30MoAB2ollzE2dvNKM1LwjhBBCCCGEEEIGggYwGc3MSpslXb1dsiB7ged5QsjIQQOYoqgJIRrAGwcYoTC3sFwu/vPhlWZjgL1WUY+y8uoBTc7BAqNxQ9s4kvUaCIwNIlfdy0GHw8auN8pAWSjT7Js7HGC8MG7IN5RhvKFsyvElhBBCCCGEEDIxoQFMRjOZVZlS314vjy9+3PM8IWTkoAFMUdSEEA1gQgghhBBCCCGEEDLeoAFMRitXfXGVPLv8WXliyROe5wkhIwsNYIqiJoRoABNCCCGEEEIIIYSQ8QYNYEIIIV7QAKYoakKIBjAhhBBCCCGEEEIIGW/QACaEEOIFDWCKoiaEaAATQgghhBBCCCGEkPEGDWBCCCFejDkDuKu7RwrLKmRJTKLMXRohn37/s3z+w2L5bnmkRCZnSHl1razzp6UoijKiAUwIIYQQQgghhBBCxhtDNYBjYmI9jQNCCCFjm6ioqLFhADe3tsmCVbHy3qwf5e2Z34fko7mLJDYtW3p7e/1XUxQ10UUDmBBCCCGEEEIIIYSMNwZjABcVFkte7hrJzsqhAUwIIeMc2wBOT09XAzg/P3/0GMCI5o1Jy5L3Z8/vZ/TO+HaBfDhnoeJlDH/2w2IpqajyZURR1IQWDWBCCCGEEEIIIYQQMt4YyACurqqRivIqKS0towFMCCETCHsJaNsALiwsdD4TSqWsrGzTGcBY7nn+ypg+pu5XC5ZJ5ppiPedWU2ubRCSly4dzFwbSwxhOysrzp6AoaqKKBjAhhBBCCCGEEEIIGW8M1gDOzytQAzgtNV0N4NjYOE/jgBBCyNjGRAAnJyePLgMYkb/Y59cYuYjyTXM+nMLZ37e9s0uWRCfKO9/8oNciejinqNR/lqKoiSgawIQQQgghhBBCCCFkvOFlADc2NEt9XeOABnBSYjINYEIIGafAAI6Pjx/QAIb5W1NTs/EM4Lj0nICB+8WPS6SmvlGPwwBGlC8igQtKy/UYlJKzRr75aYWsdT7QjFJzCwJLR388b5GUOx94w6G2jk6pa2yWzq5u/xGKoka7aAATQgghhBBCCCGEkPHGYAzg4qISNYBzsnPVAE5OSpG42HhP44AQQsjYJjo6WhISEtQAzsjIUAN4zZo1m9YArnA+mD6at8jTuG1qadW9fXEOUb5QbUOTk+4nPfbDiig9ZmQbyXOXRkh3T/+lowejnp5eefnT2XL9w8/J1wuX+49uuGAmP/HuZwp+H2uKTc/WvsBPihrNogFMCCGEEEIIIYQQQsYboQzg2pp6NYArK6plbWm5GsBr8gvVAE5Py5CkpBSJj0vwNA4IIYSMbWJiYjQCOCUlRQ3gnJwcNYCLiopk7dq1agBXVlZuXAN4UUScGrYwbhHZawsRwDB1v1seKZW19XosJjVL0wP8bgvpf1gRrefenfWjZBWU+E5soIrKKuUvT72qpucjb3wkLW3t/jMbJhrAFLVxRAOYEEIIIYQQQgghhIw3bAMYhGUA5+RJRnqmJCen0gAmhJBxCgxgRACnpqZKZmZmUAMYewAbAxjm74gZwPVNzfLJd75o3lk/r5Su7tARu9jv9+uFyzQ9ooARDexWaWW1fDBngaZxRwgPVvNXxagB/OkPi+WmR1+UxKw8/5n1WuN8mH44d1HAoLZln4N5/LHT1tufeV158+vv5J1ZP2gaI0Qsw1xF1PHfX3hHXvtirsRl5Ehvb9/dkBdHJ8rnPy7RpakXrI6VB1/9QIFR3tbeoWnwE69x/NE3P5afIuOls6tLz9lC3igDZd730rtaX/Qh6ozfEzJzNR1+PvP+l2oA4yfqPndZRJ+lsXEdrkE+KPOHldGB+lDUxhQNYEIIIYQQQgghhBAy3hjIAK6prg0YwCXFpVKwplByc/MlMyNLUlLSJDEhydM4IIQQMraJi4uTxMRENYCzsrKce3+uFBQUBAzg8vLyjWsAZ6wpknf9SzabaN7ViWnyjvN6SUyiRvTaQkQvInuRHpHDUGt7uy7P/MG3CzRiFybqt4tXaRosH93Y0qrpBisTrfvsjK+k3PngvOf5t2XGnAWyzlUpGLa3PvFfyS8p8x9ZL/tcQ3OLPPbWJ2okg7uee1Pufu4tSfZHPdc0NGqU8Q2PPKcGKszfv/3nTTVcYc62WkbqG1/N03zvffEdTYPXvmuflwdenSGZa4rlH04eOP+W0w8PvfaB5vvUe1/0yQe/P/vBV1qGnc+fH39JPv3+Zy1jztLVmhb9/denX9O0+Im6v/L5HDXl0Scwm1G+KfOFj2ZqO5HONrkpamOIBjAhhBBCCCGEEEIIGW8EM4Ab6pukrrYhYACXra2QkpK1UlhQJHl5ayQrM1v3AU5KTPY0DgghhIxtsPwz9v9NS0vT/X/z8vLUAC4uLtY9gGEAw/y1l4AeUQN4VUKaGrUwb9dW1egxRO3i2MyFy6Wj0xexCs8VS0F/OHehnnt/9nwpcD7EIJi+M76dr6Zxam6BHotKydR0OI7zG6LswhL58+Mvy6LIeDU4Yf7CBHZHHYdrAEPBloCGaf3fz77VaGN72WqUuzoxXY1U7JNszGcYtTBiEYVr73McmZyhaVHvbxevDkQO4zrsiQwTGFHN5hjyRPqlMUmBvCHUwSx9bQxgCO3BMfy0lZydL3967CU14u36wDiHEY1oYNt4pqiRFg1gQgghhBBCCCGEEDLecBvA2AfYNoBra+qkqrJGyssq1QAuKiyW/LwCyc7KCewD7GUcEEIIGduY/X/T09PVAM7Pz1cDuKSkRCOAKyoq+hjAZv/fETOAF66O7Rep29zaJknZ+VJd36ivISw/jD2CkRbAuKxwPswg+JYwWBFN3Nvbq8dMZDHA7xsimJl3PvtGoBws/wyzFKa1reEwgHEe6VCmWz09vfLq53M0YrjCv8w0DODbn35NSiqq9LURllv+99ufalpEFNtC//7zv+9rZDHMXhjZMLSRN8pwC0ZxOAYw8sJy1ve9/J7UN7X4j67XivgUufFfL4iJdKaojSEawIQQQgghhBBCCCFkPOI2gBEFHIgArqnTfYBhAJeWlvXbBxjLQHsZB4QQQsY2Zvlne//fwsJCNYCx/69tACP6d8QN4DlLVquh++X8pbqUczCZqGCbxMz++/Ea5Ravlff8S0WHShdMxiy1zVGvY9BwGMBIF8okdZuoMIDvfv4t3QPYLZxz5w+5yzamMyKcvYQ+vMU5P5ABbPLFUs8w6RGVbPPix99o3YOVQ1EjIRrAhBBCCCGEEEIIIWQ8Eo4BXFFe1W8fYEQBYxloL+OAEELI2AbLPyP6173/L5Z/HtUG8JLoxD7mL/YBtpdKdmuoBnCwaN8vnHq6I2+HwwBelZimZivq7SXkg+WbEQkNDYcBbJa4xnLZXjIG8UAGMJZ2xhLP2DcYJnAwTN0pamOIBjAhhBBCCCGEEEIIGY/Yy0AbAxjLQNfXNUptTX2/fYDNMtA52bkaBexlHBBCCBnbIPo3IyOjz/LP9v6/lZWVagCb/X+NAdzQ0DAyBrAxdrG3r73ks1s498WPSwIG8IJVsdLVvX6vWbdg+iIdTOBgpmowYUlj7PcLozMYZh9dCGZoMPMW5mk4BjAiexEli0hfL8F4vu3JVwL7Hg+HAQwTG2Y28vZSTJrPdB7IAO7s6pbnPvzas0yK2lSiAUwIIYQQQgghhBBCxiO2AQyMAey1DzCigLEMNKKA8/LWaBSwl3FACCFkbGP2/kX0L5Z/RvRvsP1/YQCb6N8RM4ARFQqjNpy9erHXb31TszT59woOJbO3MIzlqroG/9HwhH12sYculjOGwWqztqpGHnnjI3l2xlfS2dWl6U0k7ZcLlql5bGQM13AM4IbmFl1e+t/vfKYRtbYqnfr8/YV35PmPZgbKHA4DGHkhz7/95w0pr671p/IJdXjqvS/U7B3IAIYWRcSpCZ6R33cMu3t6dH/gO599XUorq/1HKWrkRQOYEEIIIYQQQgghhIxH3AZwsGWg3VHAZi/g22bd5mkeEEIIGZvgvm72/rWjf2H+DrT884gZwEVllTLj2/lq1sJEHA41tbbJ5z8s1jxn/bRSTcjBCMs+Y/lnLAPtJXdUrzFScc1H8xapSYzlqREViwhbOy309jc/6LHvlkdKZHKG1DY06XH8jjz+9cZHarCWOx/UC1bHyl+eelXJLVofYTwcBjCEPE3+KAtlRiSly0OvfSD3v/ye/Omxl/oYwIhARiQy2oZlq9PyCnU/ZGMYo12IjobpjrF9yxmDP/7reZm7NKKPOU5RI63RagBTFEVRFEVRFEVRFEVR1FC0bt06pbe3V+np6ZHu7m7p7OyUjo4OaWtrk5aWFmlqatKH+3jYjwf/WAIUS4F+Hvm5p4FACCFkbPLh8g81+jcvLy+w96+J/jXLP8P83agGMMzZbxevUrP2gzkLgkaJ4oMMRimWggahooCxpy3yAzGpWf6j4Qn1efHjbzQatzFIGTA2YZh+vXC5/4hIc2ubvPr5HLnhkec1QhY/P5i7UFYmpPYzgGsaGjXSF8sru6NpYaje9/J7etzk8+wHX8nayhp/Cp+GywCGisur5LG3PgnUxxjZqAvqbhvAMHEX+qN9kdbOq629Q9uM603973jmde2D3l66v9TGFQ1giqIoiqIoiqIoiqIoarzKNoGNAdzV1aUmcHt7u7S2tkpzc7M0Njbqg34s+QkDAJFgMAW+jf1W7vj2Drnisys8zQRCCCGjG9y//zrrr/JVxFd9ln4uLCwMGv3rtf/viBnAUErOGl1uGYbtvGWRgb19YRlieeWZC5cHztu8P3u+/Lgyus/ewYhg/XjeIj3/yXc/BaJrN5ZgIGM558FGHbsFU7W+aej5DEYoE3UfqlmL65FPS1u7/whFbXzRAKYoiqIoiqIoiqIoiqLGqwYTBYyH+3jYj4f/xgRGJDAixBAphogxLBualZUlGRkZuo9kWlqapKSkKMnJyZKUlKQkJiYGSEhIIISQcc2KiKg+rIyM7seqqJiQrI6ODUlETFyAyNh4JSo2QaLiEpWYhCSJTUyWuKQUiU9J03tyamqq3qux7LNt/pqln3GPDzf6d0QNYBi+c5esDhi7S2ISpbquQb75aUXgWCiwf/DSmCSpa2ySrxYs1WPvOMSkDS76l6Ko8SMawBRFURRFURRFURRFUdR4VTAD2B0FbJvAePBvTGCYAjAHEA1sG8EwEYwZDGMBhrAxhY0xTAghEwWfIZsQICrO4DNnQXT8emDWDgUYvcbsVZJT1fRNTM2QpLRMSU7P6mP84n6Ne7cxf3E/t83fUNG/G8UAhuzIXTVwPSJ+BwJGsPndjiSmKGriiQYwRVEURVEURVEURVEUNV5lDGDbBIYBbEcBu5eCxkN+sxw0DAEYAyYa2DaCYSTk5+cHDGFjChtgOhBCyEQgRg3ZlABxSak+ktcTn5wWICHFg9T0sIDJa4DZawzf5IxsScnMkdSsXEnPyQ/UDfdm3Ktx3zbLPuN+Duyln40BDPMXuM3fETeAIeyT++GchX1M3Q1h1s8rpam1zZ8rRVETUTSAKYqiKIqiKIqiKIqiqPGsgaKA3SawiQTGg387GtgYwYgYM2YwjAQYwjAVAAwGG5jEhBAy3kmAIZu2HmPMJqVnBUjOWE8KzFo3mTkDAnPXJi07T4Hhm5HrkLdGMvMKJCu/MGD8on64H+Nejfu2ifx17/s7UPQvviA04gYwVFpZrXv3ehm74fDdskhp7+zy50ZR1EQVDWCKoiiKoiiKoiiKoihqPMsrCjiUCWyWg8bDfjz8hxFgjGAYBcYMxrKhxhA2prABJgMhhEwU3OasMWZtYNIaMnLX9CcvDPxpYfIaYPaC7DVFklNQLLmFJZJbVBr4Ig6MX3xZB/U092v3ss8Dmb8b1QCGYOBiH2B7SeeB+GjuIklzOmSdPw+Koia2aABTFEVRFEVRFEVRFEVR411eBvBAJrCJBjZGMIA5YMxg2xA2wFBwA6OBEELGM25TN2DQ5hcGyMovCgCz1g3M21CoseumqDRAXvFaXUEZFJRWBCJ+beMXX9pBfXFvDmb+Bov+3agGsFFDc4ssi00KGhEMg/jrhcskMTOP+/1SFNVHNIApiqIoiqIoiqIoiqKo8a5QUcBeJnBbW5unEQxgBsAYMEaBMYUBTAQvjMlACCHjkSyYuAXFAXIKSpRQZq0bY956saa03BMYvYbCtZVS4FBYViVF5dWBlRncxi++rAPz1xjAuEebe3io6N9NYgDbQmRvfVOzVNc3Kq3OhxVFUVQw0QCmKIqiKIqiKIqiKIqiJoKCmcDuSGAvI9g2g92GsDGFDcY8IISQiYLb1PUybm2zFkatGxi3gwEmr6G4Yj0llTVSWlXbx/S1jV/buDbmb7DIX2Df6zepAUxRFDUY0QCmKIqiKIqiKIqiKIqiJoK8DGC3CRzMCHabwcYQtk3hUMAwJoSQ8YqavGsrAniZun0N25p+wLgNBgzdAamuU9bWwPOo7xfta5u/7qhf2/ylAUxR1LgQDWCKoiiKoiiKoiiKoihqosg2gb2MYGMCu41gYwbbhrAxhQ22OUwIIROJYAZvHyO3qjaAMWttjHE7WMrgb/gph8fhB0ZvsIhf2/wNZvy6zV8awBRFjSnRAKYoiqIoiqIoiqIoiqImkgYygd0RwcYMdhvCtilsYxvEhBAyESjC8suVNQG8jN618CL82Katl3kbDhXwMVxUwtfwYwxfL9N3oKhfL/OXBjBFUWNKNIApiqIoiqIoiqIoiqKoiaZQJrDbDLaNYLchbOM2hwkhZKJQUollmOsCeBm9A5m38AU2BNtbMMBzsE1f2/i1Td/BmL+ABjBFUWNGNIApiqIoiqIoiqIoiqKoiSq3ETyQGRzKFCaEkImK8RkMbr/BeA4DmbbDBbyHYJG+wUzfUMavgQYwRVFjRjSAKYqiKIqiKIqiKIqiqImucI1gL9zmMCGETDRsj8HtM3iZvsYXsLF9gw3B9iCAl+kLNsT4NdAApihqzIgGMEVRFEVRFEVRFEVRFEX55GUE23gZwIQQMtGxvQXb+LWf+xsvwO01GGwPYTgIZvbaeJm8oaABTFHUmBENYIqiKIqiKIqiKIqiKIrylpcJTAghpC+26evlLYTyFwxuT2GoDIfh64YGMEVRY0Y0gCmKoiiKoiiKoiiKoihqw+RlhBBCyERjtBjAda2dAYxpu3z58iFDA5iiqDEnGsAURVEURVEURVEURVEURVEURW2obD8BDNZTALZ5OxzQAKYoakKLBjBFURRFURRFURRFURRFURRFURsqGsAURVGjTDSAKYqiKIqiKIqiKIqiKIqiKIraUNEApiiKGmWiAUxRFEVRFEVRFEVRFEVRFEVR1IaKBjBFUdQoEw1giqIoiqIoiqIoiqIoiqIoiqI2VDSAKYqiRploAFMURVEURVEURVEURVEURVEUtaGiAUxRFDXKRAOYoiiKoiiKoiiKoiiKoiiKoqgNFQ1giqKoUSYawBRFURRFURRFURRFURRFURRFbahoAFMURY0y0QAOXz09vdLZ2S0d7V3S3t4pba0dfcAxnEMapKUoiqIoiqIoiqIoiqIoiqKo8S4awBRFUaNMNIBDa13vOuns6Opn9oYLrkUeFEVRFEVRFEVRFEVRFEVRFDUeRQOYoihqlIkGsLfWrVunkbxepu6GgLyQJ0VRFEVRFEVRFEVRFEVRFEWNJ9EApiiKGmWiAdxfWL7Zy8QdDnp7uTQ0RVEURVEURVEURVEURVEUNX5EA5iiKGqUiQZwX3V393gat8MJyqAoiqIoiqIoiqIoiqIoiqKo8SAawBRFUaNMNIDXa2OYvwaawBRFURRFURRFURRFURRFUdR4EA1giqKoUSYawD6N5LLPweBy0BRFURRFURRFURRFURRFUdRYFw1giqKoUSYawCLr1q3zNGg3BiiboiiKoiiKoiiKoiiKoiiKosaqaABTFEWNMtEAFuns7PI0Z4NRVVkj2dm5kpKSJknJKQp+xzGc87omGCiboiiKoiiKoiiKoiiKoiiKosaqaABTFEWNMk10A3hdb/jRv9VVtZKeniEJiUmSnpEpa9YUSnl5pYLfcUzPOWmQ1isPLxgFTFEURVEURVEURVEURVEURY1V0QCmKIoaZZroBnBnR3jRv2vXlktySqqau1VVwaN8cQ5pkBbXeKVxgzpQFEVRFEVRFEVRFEVRFEVR1FgUDWCKoqhRpoluAHsZsm4qK6vV0M3JyZOW5jbPNDZIg7S4Btd6pXFDTUz19vZKS1u7/9X4UUdnlzLWhFh8jAdj8ikvYU7XNjRJV3ePvm7r6Aj8viEaz/MN9zb0VWv72L2/DXV8h0OYG/VNzdLU0qqvx+tnBkVRFEVRFEVRFDX2RQOYoihqlGkiG8A9Pb2eZqxNU2OLLu2ckZmlv9vn6uoaJC0tXcHv9jmkxTW41n2dF6iLl/DwGQ/Rq+sbA+A1HgLbyi1eKx/OWag/qbGjZbHJ8v7sHyW/pMx/xFtjaXxhmny1YKmC30ez3P2alJ0vb8/8Xn9OdCVm5smX85duVAMPZX44d6He50aTYMLhvfruNz/Ix/MWScHacr0PfzR3kcxdGqFp0E/oryXRiZ6vvbSx5tvGvn/kFpXKB0557836UVYlpPqPhi/3PNgU88I9vptC5TV18un3P+u8+3FltB4L9zPDS3OWrFbCkZm/6HuKoiiKoiiKoiiKCkc0gCmKokaZJrIB3Nk58PLPJaVrJSUlTaoq+y/7jL1/k5JTFPzuPo9rcC3ycJ9zg7p4CQ/s8bB3xrcL9AE+eH/2fH2wHpWcEYgc29gP+EeDYKyMpEG1MUyHgtJy+TkqQZpa2/Q1ykKZ7ofuQx3fcMyo4RLmZFRKpjLaIxvd/VpZWy+LIuL050hqY47HhgpzcKTeX8HeWxvjPbchKiqr1Hql5RX4j/i+nAMzLjXXd8w9puGM8XDPt5G6fwxGiJKeuXC5LFgd2++LSuHKPQ82xbxwj++m0A8romTWTyul3fr7wP2ZMRjRAKYoiqIoiqIoiqJGUjSAKYqiRpkmsgHc0d7pacbaZGblSHZ2juc5UFVdq3idA7gWeXids0FdvBTswX1WQbF88O0CSclZo6835gP+0aLxYAC7NVIGTjhm1ETUpnrfjIXxwBwcqfdXsPfWpnjPhSNE6A5UL/eYbooxHqn7x2BkImfddRiM3PNgtM6LkZRZSWE45w8NYIqiKIqiKIqiKGokRQOYoihqlGkiG8DtAxjA9XWNkpqWLsVFpZ7nC4uKdZnn4hLv8wDXIg/k5XXegLp4KdSDe0QHmeUpg6Vrbm2T1YlpMm9ZpLI8LlmPeamipk5+jozXdN8tj5SkrDyN4IL5gTyMENWJiLj5q2I0LX4Wl1f5TlpCOtTHpEN9swtLwooKRbkwuXENrkW97If/qM9n3/8sM76dL3OXrNY09jKq7utNHRGdtjQmKbB8pnmNaxGFh3Q/OWXh9VcLlsm7s36Ubxev0jzsPrCF4wmZuf5X64VjeHhvR29B6DuUgXFAPRAph/0dy6trZZ4znigTZaNMcy4wvs58Qh/iIf4n3/3ktC/as+9t4XosH4q+Qp8hX72uokoj3LzqDqGeKB+Gjl1PjIPXPLGFPrH7y7xGmzEHP/9hsZob0SmZ/foHCnf8QknnrlM31NHkgTbZ88/9vsEYoJ34aSuc95Hpo4bmFi0XkXtYvhURnvbcDTYe7jLdMn1n1wFleQnH7bSm771k54u+ikvP1jGB8eNlAKMty2KTAnkHG8NgCvXeMkYf3ouh+tBWOPUZ7Pyzhevs+pqxsu8d0IYYwO75Zl6XOT8H+z7HtcN5/8D7B9Gv7vdgKOE9gD6y62Dfl92fHcgbZbjvH+EawAPNc/QJ7rXu9wleL1gVKzlOf9jq7unR/PDFKvf42q9RD8xJzE3MUa97IIQoYtTd3IPM5xjGBPUy4+4WjuMa+x5h3iP2vdhWOO8DLwMYY4I5YcYZ7SqtrPY0gN33ZffnMkVRFEVRFEVRFDWxRQOYoihqlGkiG8BeRqxNdXWtLuG8trTc8zwM4GTnfE5Onud5gGuRB/LyOm/jJbdBZWtxVELgYa5XuqyCEo0S/nrh8sCSvPgdx3DOCA+AI5MzdFnpWT+vDKTFA3ykx8Nm+6Gxbw/C+foAG2YRHgbj2rj0HH8K0QfP3y2L1LKwXCXS4Sde43go0wUP4b9fHqV7SOJhfExqlpoKKNM8sMcDaxzDfpyoK/KHsQC1tneoKYz0eMiPc8gHUWl4uP3Fj0sCD7XNQ+6Zi3z9gp940K7mp3Mt8sBr5IEyveTr12V92gSzAMug4gG+qZcRDCHUD/1uGxswJSKS0vvUG2YD8sW4oj9m/bRCPnfqjzLRLxgX7A9p971buB7n0VfoM+SbkJGr5a2IT1EzzGs5UfQV0mM8TD1XxKVoPewxxfLkmCd2Hm6jAb+jHBgmC535ZMYEecKIs68NNn6oP+a8PX7BhPxQJ4w5rkUeZjznr4xRYwZyv2+G8j5CnUxfYB5hfJAW7yOUa+ZuqPEIJt1T1VUHvFeRL8wnW3iN4+a9jPmLOY662UsYQ6g/juM80pk5hbHC3MBxYwBjvsamZTt5/6hpkBbXfOak/eS7n9U0Ckeh3lumD9F/3zhzPVgfQoOpz2Dmn1uom11fM1YDGb7u117ymn94f32zyHmfO/VF282YDPQ+H877B/JCn9vvH5jF6OslMYmeZidUVdegfWTXwdz/8J7De88+h/ezGYMay0i074ter6Fw5nljS6u2N9kyoSGYzu/M/F4/u2yh/pgj6K9g44m5+ZHz3sXnINqAeyDqAUPU3FcgtAftQr3RTpMWr1c5dTXleAn9j/Gx7xH2e8Tui8G+D4AR5gY+j+0xCXavDedzmaIoiqIoiqIoiprYogFMURQ1ykQDODgDGcAA5u+mMIDx4BamI0w6yJ0OEXR4+Bud2ncfVvyOYzhn9p3MKylTc8ltAiAtHvbjAa95aIwH6niwjAfutmAW4WE3lq2EEImEh8duUwuvcRzng2ltVY0aDxlrivxHfHXBw2cT8QzhwTweyOPBvC3k/fG8n6S8ps5/xCdjCsLwMA+1zUN9lOc2sLxMBy/B4EA0nW304ncYD2jrqoT1kbBqDC9aHoi6dZeBn3ht6meEcTUGvW0ymDFC+fVNwd83wcwoRBqi7W6DBFG/mCPmOOrz9szv1RTyGlPkDYPIzDW30YDfERWYkb9+TCGMEcwGu48GM35eglEBUwP9DDPZFowKe6673zdDeR+ZPlrovCfttBgvmEP4QgDGHwo2Hl7y1eEnWRmf2q8OGHv0H6L3ocKyCq1/sPeyndbki+N2vhCuN8aweX/hPoG5krmmWF8bwQyEsYW54X4vBpN73hsNpg8HU5/BzD8vedXXPYYDvfaS1/wbyvt8OO4f5v2DPsPnjC3cI5E22KoBULA6rEpIDfq+xmcH7u0oG3L3t/v1YOY5TF630YvXiNzFZ5ndnzCGzbwJNp4fzFnQ77PC3FfMfsGmD72+XID2w/zF56oZdy8Fmz/uvhjs+8C+Lw/mXhvu5zJFURRFURRFURQ1cUUDmKIoapSJBnBw6mrrJTU1PeQSzwMZwLgWeSAvr/M2XsIDYkTcYElKPPAFeMgMc8t+cIt0tpEAQwMPj82DX1tuExcPw02kp1vGaDYPjVva2tXURASQbdDAlKmua9A88EA9lEmAclE+6uElGFN40JzoimxEW2BMmugzPBh3t9GUjegkLxWsrdAH7+ahtnnIjqhAt9wP2oPJRPvapjj6Hw/GsQwnxsqYVniIjsg+GK+Quwz8xGtTPyOMK+ptDAZbyBNt3hAzwTzAB/Z4YuxgYBvzAvVBxJzbKDbCcdQbdYHcRgN+t807W+h7k3aw4+clmO+oix2da4Q2IvoOEe+Q+33jfj2Y9xHq5BXxDcE0QbvMOAcbDy+hDpgzbiMJgvmOCP2C0nJ9jb4M9l42ZeLLGlCofM28sNuO+4SJXHfLyxwKJfe8NxpMHw6mPuHOv2Dyqq97DAd67SWv+TeU9/lw3D/Q94hwDVYO+gvmqdccg7zqYN4rwd7XKAvjhfc35O5v9+vBzHO0Gfcy83mDe8wX85fo3MBnmd0nyNd8qSrYeLrNZAj1QJ+YtKHuQRDulxiPUGMZbP64+2Kw74MNvdeG+7lMURRFURRFURRFTVzRAKYoihpl4h7A3masISMjK6TBO5ABjHPIw+ucTag9gLG0I6LxYBQAmDYwYO29DpHONhIQkYOHwnhI7AUiwfBgGRG7iFIKZVLYS01DiLpCNBmOYVlKO6IMwh6FeFCcnlfoWTbMbERO4ncv4UE2IpNQBh5u42G618Nl1BkPyPEA2ghl4+F4sAfrxsA2D7WDPWSH3A/aQwlmg3kIDzMA5gQe8sPoxXjhQTwEYxV9b4wLdxn4idemfkbu8bUV7BpbodoJkwJfJjCmtKm/MVCggfoCx2EaGTPFNhog92tb9jgOdvy8hGVvQ9XVlrtf3a/DfR9BofrInW+o8XALdQjWd7bCeS/bZudA+eJ9bsbF5I17gbsPACIiYbKFGhdbwfoq3D4cbH3CnX/B5FUv9xgO9NpL7nnhfm0LZaMOofo4WJrB5Iv3D97LMABxzg2+PBGqv5DGXYeB3tfGIDbX4CfSIy/368HOc5iTmAumbJihWF4cX26C2Yu0ENqDqFdjlg52PO05NtA9yBd9H3wJaChYeV59sSHvg8Hea8P9XKYoiqIoiqIoiqImrmgAUxRFjTJNZAO4IwwDeM2aQklJTZfamjrP86EMYFyDa5GH13kb1MVLeDgb7MG9LXc6POTFA2YsmxoMPKQ2D5kRDRhMeABtHhob4eGyWWoTy0TCTDJ7OKIOWA5z9s+rPMsFiFpsChIBbISH19iXEBHQeOiMa+wlfVEvtxGBsmFeeEUQQqa95qF2qIf69oP2gYRy8bAcUVUwe7HsJowHY6ba0dZ2pLC7DPzEa1M/I/f42gp2ja1Q7TRR3sbwhfGDJUqNIQwN1BfuOthGA+R+bcsex8GOn5dwDpFtGIuB5O5X92vUOZz3ERSqj9z5hhoPt1AHr6hDt0ye4b6XB8oX7THjYvIGXn1ggKkUjoL1Vbh9ONj6oK2m3W7Z8y+YvOpl6mDGcKDXXnLPC/drW+73mJeCpRlMvviJyE/0l1efgqUxSZ7R1JBXHVDuYN7X+Gn3t/3apA13nsO4xJc4THoYvuZehy+/IC8Y0KgbDGATKTzY8bTnGOob6h6EdoTaAxgKVp5XXwCvcTJ4vQ8GOyZGA30uUxRFURRFURRFURNXNIApiqJGmSayAdzZ2eVpxtrU1TWoiZuTm9/vXEZmtiQkJin43X0e1+Ba5OE+5wZ18VKoB/e23OkQEQTj0WtZSFs4j3QmCsot8/DcPDT2EpahRR5Y6hhmotlbFPsiDpdgRsJgtfeZxYNxPKDGg2ojlA1T2kRxuVXljIVtToR6qG8/aB9IyMdEj8HgNdHAEJbYRKQo8kFZ9gN3dxn4adfPKNQ8CHaNrVDthFBHRIphOWCkwXiaKGUIeQdbmheCaQwzIZjh5n5tyx7HwY6flzDvkIeJunYLXzwwXz5w96v7dbjvI8g9lrbc+Q40HrZQh2BL7iICD180gBkXznsZ543pGypfyB4Xcy2uGQ4F66tw+3Cw9Ql3/gWTV73cYzjQay+554X7ta1w3ufB0gwmX7x/cP/Ge3FD5FWHgd7XOI9VI8wKAu7+tl8Pdp5DZuWFusYm/XKO6Qfc7zBGqBcMYvuawY6nPccGugeFGg+jYOV59cWGvA+G417r9blMURRFURRFURRFTVzRAKYoihplmsgGcE9Pr6cZ6wb7+CYlp0hhYXGf4/V1jVJdXavgd/sc0uKaUPsH26AuXgrnQTHkTudb1neRRuu4BbMOD3bN/oQw/2DelVsRn0aFZRVq/JmHxhU1dRrx436wjXIR0YSH0ibqdWFEXL+HwniNvUVxPpjxhP1MUQaMZVt4EI0H4ngwDsFotV9DpmwYsO6lqaFVCany9szvAw+1Qz3Ux4NxGCHGhBhIZjlRlG/vf2wekmPpVJgQduSc/TAfci+FahRqHuDagR7Uo1/sPSrdgomISNe49Gytq3uvX+SNfgs2pjhuj4VtNEDu17ZQJ3PtYMfPSzB1YGYjrVtmvM0+n+5+db8ezPvIPZa23PkONB62kD/MMbwX3UJ+H8xZENZ7Oa+kTCPzsQQ7hGtwLZZxd8s3H37qM6b6JQFnbrrflxDmC+poR42HUrD31mD6cDD1CXf+BZNXvcxcMmM40Gsvudvkfm0rnPf5cNw/zPvHXqnAyKwWYN4/XvKq50DvaywtjPsP5h3k7m/368HMc8jcg9Em7AVtj7V937b3Ax7seNpzTPvQGYfFTlqv+yUMU0TPeo2HUbDyvPpiQ94Hg73Xhvu5TFEURVEURVEURU1c0QCmKIoaZZrIBjDkZcZ6saagUBKTkiU/v0Bamts80wCcQxqkxTVeabwIplAP7m250+HhLoxWmLJ4cGseQsPIgkGAZSHNQ188uEVUlJ0WZBUU60Nz7JdoHhrDAECkLx4cmz2IcQxLQJsIYAiRoFgiEg/AzfKQKG9ZbLI+nA8VHWzMSDyYN/nhoTMeMtuRRnhYjzLyXH0DAwBLmH63PDLwsBr5rIxP1TzQTvNQO9RDfUS74kF7QkZuoMxQgqmFh+3IH9FTRuZB+2fOcXtfXcj9MB/mMAwKtNO0HQo1D7wMFy8hug1523tH20J/oz8x5jAwbCFv7EON63+KjA+MKX5ijNHftnliGw2Q+7Ut9L1tIAxm/IIJBjy+uBCdkhnYpxLtRp52dKO7X92vB/M+co+lLXe+0EDjYYQ6fOeUgzrYEdj4HcdwDmkg1AV1suuL9mfk++amXV+TL+oFs8z0U3F5ld4PMF72uOAnotzxPjeGEvKHgYx2Y0l4vMbch2nu/hKBrWDvrcH0Ybj1gQYz/7zkVS+kt+8dA732krtN7te2wnmfD9f9A7/jPg3DdP3nRIfmi/3Cy2vq9JiXgtUT1+Ba+32NPLGfPcxQ7Dlt5O5v9+vBzHMIcx1fvsG8dI8HvgiBzxvc94wBDQ12PN1zDPcgtMv+DMR7HSYq5izuQ17jYRSsPHdfIN2Gvg8Gc68N53O5YG25bv2wodHjFEVRFEVRFEVR1NgWDWCKoqhRpoluAHd2DLwMtKG4uFSSU1IlJSVN1hQU9dkXGL/jGM4hDdLa14YCdQimUA/ubXmlwwNwGI4w7t755gfdqxcPpLF/o20OQObhPtIh6gfA4IJRgwfQ9kNj7PWLh+lI8/7sH+Ud5ycenrsf+pZUVOmDaaRDufiJyDLbxAomXIu0dhkwUW1jEu3Dw3RTZ/tBuX29AYYbzCk8sDYPtUM91McD7ZUJqYG6233gJRN9Zy//bAQjBfm4x9H9MB+CeQ6jBGWac6HmAc4jnWlTMGF8ME7I16sueI3jbpMaMvVE5Df2f7TnCeqanl/oT+mT22hwv7aFvscYYCyMwh2/UEKdTD9iDuEn5q3Zqxpy96v7NRTu+8hrLI288h1oPGyhDoiSRDqUb+qAY7bRBaFOqBvOm75D3dEGd1o7X5MWbcC+xjCw3OOC+wTec6Ye6A/kHZ263mjHFwEwdmYvVS8Fe28Ntg/DqQ802Pnnlle93PeOgV57yd0mrzYahfs+H677R+aaYr2fIR8zTnj/DGTuhaonrjWfHQaUgbJsufvbq/8HM8+hYPfgYPftwY6n1xyz70EAcxSGLO6jMFe9xsMoWHlefTGU94HXvXbe0ghd7QPl2+M40OcyopFRfnpe388DiqIoiqIoiqIoamKIBjBFUdQo00Q3gNf1rvM0ZYPR2NAsa/ILJCU1LbD/rwHHcA5pvK4Nxrp1brtw+IU9T+ubmvsZk27hYTEifexlioMp3LR4GB9unm6Za70e6IcjlInr7YfglLcQCQezwkSR2XKbDphHmE8bMqaDkXv8jClimxIDaTjnQLjvo5GUvYdxKJkxGkxa9G84CpU3ltMNtUTwSGgwbaUGJ/P+2dB7sJeG8png1lgYe7yvUEfUFcJ9dCADeEM0lL4YzH1yqJ/LFEVRFEVRFEVR1PgUDWCKoqhRpoluAEOdneFHAbupq21QvM6FA8qmqE0tGAdY6hgYk8KWV9TZSCk2LVtWJaZ51sMsL2wvN02NHsHomvXTCt0fmaImqnp6ezUS2d4L3haMX+xhHM5qGBRFURRFURRFURQ1VkQDmKIoapSJBrBoBK6XObsx2BjRvxT1/2fvP7zcOPM1z/Mv2rOnz7oza6bPzO6c6dnu7bl9fVfdurf8LV+SqqQqVZUoW3IkRVESvadEUqToKXrvvffee5/J9CTfxfMCv8w3I1+4ADIZmfh+Tj0lJhAIBALIADIevBHlaNSvilWdxzhmIAtgnY9W5x/VOahD+k3R+TRnL1/f5xzFyAaNCtx5+ET3OYmBRrXtwFF/RAWdLzykUbM63LQOnczvCQAAAABgKKEABoCMoQDOe/r0WbSg7c9wWGJkhUarlSpWB7IAVtGr89LqXJI6X6XOK6nzd85dtcmf1/Ls5Wv5CQEgo1T0Ltu005+XV+fX33f8tNt+8Jg/9POXy9a6m/ceFKYEAAAAAGBooAAGgIyhAO7R1fU0WtT2R3RfQBZ0dHW5TXsPFz1cqZy/esOt2r53QM+zeeveA7du5363dNNOH5UnzYz8BTBI6MssOszzym17/DZs2eadvghu49QPAAAAAIAhiAK4BtrxqZ0HG/cccu3sOABQJxTAvQ1ECUz5CwAAAAAAAAAYKiiAa6DDIE745lv39cqNrqWtrXApANSGAriv/jwcNId9BgAAAAAAAAAMJRTANaAABtAfKIDjnj9/7jo6OqMlbppoXponAAAAAAAAAABDCQVwDSiAS+t6+tRdvXXH/xdA5SiAS/NFcHv6Ili3pfgFAAAAAAAAAAxVFMA1qLYAvnj9pvty2To3ffHq7ixct821trcXpqi/1vbcSn3c7Do6uwqX9J+xc5e6V0aM9/cnC9Ztdd9/Y7hbtnmX/xlAZSiAK6dDQ2skb3tbh2vLJVn26jJdp2k0LQAAAAAAAAAAQx0FcA2qLYDPXrnuJi9Y4W9j6c/Rwyo7Pv1qoS9h563eXLi0/yQL4MOnz7s/fz7N/9cs3rjd/fy90e781RuFSwAkUQADAAAAAAAAAIC0KIBrkPUC+PKN2+6X73/uC+BhY2e4J639cz8mWQDHUAAD5VEAAwAAAAAAAACAtCiAa5D1Anjltj2+AP5q+Xr347c+cQdPnStc0+PCtZtu+pI17vb9h4VLehS7TgXv3NWb/Oje9yfPcVv2H3UdnZ19CmDdfuKC5f6/sn73QTdszHT3ozdHuk9mzvfX6TIAvVEAAwAAAAAAAACAtCiAa5DlAljn/n1v0iz30dS57ubd++53Iya4qYtXuefPCxMU7D1+uuiI3Nh1u46cdD99Z5QvlN+fPNt9NmuRL5lVBA+fPq9XAazba/Sx/iszl611v/jrZ+4Hw4a733w4xr0yfLy/DEBvFMAAAAAAAAAAACAtCuAaxArgFVt3u+mLV/fK0bMX/XUDWQCfvnTV/fSdT92anft96avyVyXw/UdNhSnyqimAr9y843794Rj37sRZ7mFTTxmk0b8T5i/3ZW+pAlg4BDRQHgUwAAAAAAAAAABIiwK4BrEC2C4Lc/Bk/tDLA1kAz1u92f32o7Hu1r0H/mcd/lmjdrcdOOZ/NtUUwCpvVSqrXE562PTE/eHTyRTAQB1QAAMAAAAAAAAAgLQogGuQ1QL48ZMW9/roKe7z2Yvd06fPil4m1RTAOsev5qF5JWmU8RdzllAAA3VAAQwAAAAAAAAAANKiAK5BVgvgYqN95+Tu69cffOGu3rpTuKTyAvjZs+f+fL/vTvjKtba1F6boTQUxBTBQOwpgAAAAAAAAAACQFgVwDbJYANv5flW8FsvKbXsKU+dL2p+9N9ovW1KyrJ22ZHWvw0qHWts73HuTZlEAA3VAAQwAAAAAAAAAANKiAK5BvQvgFVt3u+mLV/fK0bMX/XWVunX/oXt5+Dg3cf5yX8SGuX7nnhs2dob7aOpc19HZ6afX+Xx1Xt+vV23y5bGxQjcsaw+fPu9HFienlZ2HT/jrKICB2lEAAwAAAAAAAACAtCiAa1DvArjUbSulwz6riNVhoGOSBayK4BEzvvG3mbF0jS+JT1286oZPn+cPFx1O2/X0qZu4YLn7wbDhbmTuNpru8o3bfmSwSuffjZhQtgA+cPKs++GbI9z43GNTaXzm8rXCNQAMBTAAAAAAAAAAAEiLArgGWSuAVdB+MnO+e330FPf4SUvh0t5U2P7y/c/dvNWbC5c419zS6j6fvdj9YNgIX9jqvyp1tx442me0rgrjJZt2+MNGa1rlD59OdsfOXaroHMBaxtkrNvjCWdfpNgB6owAGAAAAAAAAAABpUQDXIGsFcK1Uzj5qfuL/W86zZ8/9tDpUNID6ogAGAAAAAAAAAABpUQDXYKgVwACygQIYAAAAAAAAAACkRQFcAwpgAP2BAhgAAAAAAAAAAKRFAVwDK2ynLlrpluT+vXTTTjdjyeo+Je7cVZv8dfPXbnETE9eVuy0FMNB4KIABAAAAAAAAAEBaFMA1iI3YrXcogIHGQwEMAAAAAAAAAADSogCuAQUwgP5AAQwAAAAAAAAAANKiAAaAjKEABgAAAAAAAAAAaVEAA0DGUAADAAAAAAAAAIC0KIABIGMogAEAAAAAAAAAQFoUwACQMRTAAAAAAAAAAAAgLQpgAMgYCmAAAAAAAAAAAJAWBTAAZAwFMAAAAAAAAAAASIsCGAAyhgIYAAAAAAAAAACkRQEMABlDAQwAAAAAAAAAANKiAAaAjKEABgAAAAAAAAAAaVEAA0DGUAADAAAAAAAAAIC0KIABIGMogAEAAAAAAAAAQFoUwACQMRTAAAAAAAAAAAAgLQpgAMgYCmAAAAAAAAAAAJAWBTAAZAwFMAAAAAAAAAAASIsCGAAyhgIYAAAAAAAAAACkRQEMABlDAQwAAAAAAAAAANKiAAaAjKEABgAAAAAAAAAAaVEAA0DGUAADAAAAAAAAAIC0KIABIGMogAEAAAAAAAAAQFoUwACQMRTAAAAAAAAAAAAgLQpgAMgYCmAAAAAAAAAAAJAWBTAAZAwFcF8dnZ3u4aPH7tmzZ4VL0Mja2jvc1LkL3efTvvKvi1rp9bViwxa3Zde+wiUA0Fe9tz3lNLe0uAXL17hDx08VLgEAZIHeA/ReoPcEvTdgYPCZHQAAoDoUwACQMRTAeU9aWt385avde6PHuzeGf9adD76Y5NZs2e7aOwZ+Z8u8ZavcyInT3cWr1wqX4EVobWtzY6bPdh+OmeTuP3xUuLR6eo2pYNHOpAlfzXXL12/2lzc/aXFdT5/6fwOoH/3OjZ7ypd+O37xzt3Bp3OLV692w3DZ/+96DhUtevHpte8p53NScu6929yj33xETprl9h4+557nL9TMAZJm2jdpGhp/dY7HPXIOVPU69J+i9oRb9XSbrPST2HIR559Ox7uzFy4VbZA+f2QEAANKhAAaAjKEAdu7IyTPur59N8Dv/h4+f6ovX9dt3uenzFnUXwiMnTHO37t4r3GJgzPhmceZ3kDSCepQwKlMWrVznX2caXTd93mK3Y99BP6pAr7HjZ87lJwRQVyp2tQ3ftmd/4ZK+qimKB9JAFMBdXU/dlK8XuBG5976TZ8+7ibPm+ffE2YuX+/Vx/dadwpQAkD125IKvFi7zmTT7G/fmiM/dR2Mnd1+mHDh6onCLwameBXA95xVz/vLVXut+1KQZ/n143Mw53ZfNXbrC3bozsH9XVYrP7AAAAOlRAANAxjR6AXzmwiX/x7xy8PhJ/0d/SCN/VQirHP508kz3uLl+y6adVhp5lbxPU2kBrNtrPppfNTR9qUNdl1u+pGqnF408UAFRKe2oKrXMSZpO01ezg0uPI1yXlZQwldyPRtht3rXXFy3vfjrOvTNqrBv/5de+dOFw40D/uHTtut++awSPRvLEnDhzzr31yRg3Z/Hyotuvarc9Uu1t0mx70m7/tS5sfeh9TTu2Pxoz2b/nKHr/uXz9RlXbcwB40fSZ2bZhlUi7bX+Qu02xz69p5ql56TbF5llJaavbarmKvdeZagrgSudZikbPqgDWyOD+YO+D5R5LSO+Zpf5m4TM7AABAOhTAAJAxjVwAq9zVaKe3R40p+W1u7fzQCCntvNBoMqMdGqUK2tgOD81r5catfkeCrlP0b+18t8NM284ru96SLAHu3n/gvlyw1L058ovuaTQvHcpaI9pC4Q6xY6fP+h0adhvdfu7SlX5nh3aE6Fvu+tZ7OM9w+UK6H91f+Hg0Py2Xli8UW4ZS689ona3dsqPXMqmQ/2LaLF9QxOhy7ajRdHYb3b7Y4bx1mX2z36a3x/3wcVPREqaa+9EOI42s0xcJNL1ed1oXV2/cLEwBoN6001rlr363VQYnaZun4lcjxg6f6H3uW/0O63c5ue3R73xy21NuG/v1khV9tsuSdttTzfY/3Nmv5dRoZz0Oe2/SNlbb/Y/HTvGXa2f3N9+u6nOfAJB14ba4mGq27cW2n3Yb/X3w4FF+W1nptj/8+0D3l5xn7PNtuBzJolPT6jbhPPRZ8/ylK92HY7ZDGNt9JxOuL70vHs89Fvu8atPoPWLn/kNVF6Cxv4dE7z02YvvgsZOFS3tLfkErfH61XrV+w/dBHbli+94D0WWs5m8WPrMDAACkQwEMABnTyAWw7VSYNndhxedz0g4B+7a4dmiUKjCTOzx0OxWtukyHQ9u0Y4+PHRpN12kaHRJNh0bT4eu0U0Q7R3S4NB3izkZ56T6140o7JcbOmOPns27rTn+oas0rechq22GiEV663ZQ5C/whUb9dt8nvUNJtdB/6trt2htjhzpau2di9g2zWom97rSftjLKdVtohpWXQPK0Q1Y6iazdvF6buWQbtHNM8VTKUO8exdg5puewx6TFqubQTRsup0kSjuEO7Dx5xb+eeV10/9eu+j1PLF+6MC+9Dy6SdQ7oPXab5fDb1K/fJxBn+9mEhohHjejyaRtPqNms2b/ePW/PSMloJrNfNvGUr/bSaRocX37xzr59Gr8H9R4/76QDUn87rq22S7QAPaWSTtknaloXbBe1gty/+FNv2aGe/se2btm36r21jw+2yttX12PZUu/234kDbJu0c17z1swpvbaMmfDXP3792muvfuw4c9vPVY+Qc9AAGE9sWa1sdU+223bafH3wx0b3/+cTuz7vJbfu+I8f9dlSHOda2P/w8qMvC0tb+PtDnet2fLYfmq/lr267HoM+ZxpYjWQDbkYzCz+K2bNrW63Hpvuz9T4fC1mdQFZp6H5k5f4l/z9HtzLptO/26sPclvSfY3wO6H/27mvPgJv8eCtn7s5bD/r4y+lnFr5b11LkL/jJ7fvVepfUee+/U/HRZ2r9Z+MwOAACQHgUwAGRMIxfAqzZt9TsktAMgDe3Q0E4I7YyISe7wUNGgHQwqfHXYMaPDb+ob5ipn7z14WLi0+CGgbXrtnNFOmZB2Wqjs1M4MfaPddn7YDhMVytrJH+5kUSFhIwe0syM5TxUJw8dN9TuYbASdldm6jUaqJXfaaB5aPo2wthLUlkG30TJqWctZv22Xn147dVSWhPYfOe53CoXFjc5XqZ10WtZkMazl0DoJd4SJ3Yd2CDU1Pylcmqf56bHrNmEJo8P0aeda7H6s1NE8NW+jESIaOaDnZPKc+X4ZtN50++RjA1A/Oq+vis9kySt7c9tn/a6GR3eQUtse2+GubYC2BVJqG6ttj37nNT/t7DZptj1ptv9WHGheuty2yebG7Tt+9FPzkxY/b71n6THrcSa37QCQZbYtLlYAV7ttD7efKj7Dz666vYpLXadtcvLzsN5vVFImR7ja3wdajuTnYd1eZabmF1uOsAC2z6KaVrcJ7zt8P9B9hZ97Y/Myl6/d8EWv3n/CLxJJ9+PJ3Z/OjVup5N9DIfsSVuwc/PberZI2+beE5lfqvTNcRq2Xav9m4TM7AABAOhTAAJAxjVwA2ze5NRI4De0M0E4I7YyISe7wsAJ4+PipvYpe0cheXR/uVChWAFthUex8ldqZo50iYWFrO0y0c187+ZNUgmtZw50sIR2CWddbWV6qUBHbYRIuf7llSNJ8NX+NuEjuFBLdh76ZPzu3HuyQbLbOtbwxd+7ddx+Pm+J3Nml9232E6ypJO+208y4sYWzEQrI0MlpeGymS3Lmm8x5PnbvQLV2zoXAJgP6k7WRyFJFoG6IjQCR//227ENshbRauWOu3AdoeS7ntm0bbajuiAlbSbnvSbP9tZ3+xbalRmfD5tK98gQ0Ag5Fti2MFcJpte7ntpx1NyD5XJtl2XPM19lm12Gdue8/SctiXhmKlrX0WLfZ+oHnrPnRfuk8Tm5fR59rwfpPs8cZG7BaT/HsoSfcZ++zuH19u3YXLYs9vJe+ddoQnPW/V/s1i+MwOAABQHQpgAMiYRi+AdR4ofZs7De3QiO0sMMkdHtpRom+ea8eKdrys374rurPIFCuAbeeUDuNWzLK1G3vdt+0w0WHMYjtstA60LmI7zETzCXcghTuAtCMplkUr11W1DEnaYaMdbhptoB0w5dgOHB0O7sLlq4VLe9P96v5tvVZyH1bc6znT4xL/HIz43I+4SD5uRSMQtKMpvA2AF8cKWJ0v0Njvv84RrHMFG7tcO8f17+Tvt7Jl975e28Ry2ze73raxNW17qtz+67aah8rdltbeO/sBYChJbmtDabbtuqzU9lNHT1C5GCtTJbY89veBjkRUjLbx2tbbe5YtR3g/lbwf2NGO7PFIbF4Sfo4+eups9zoJo8/XpR5vjD1ee09KUpGrQjcsxK28Thbrtj4ree8cMWGae9TUnOpvFgAAAKRDAQwAGdPIBbDtkNA5Y9PQ7bUTQjsjYmI7PHRItp37D/kdE7pO0Y6UNVu29xkFUKwALnZ5yO5b/5XYDqhQuev1GML52c+VxB5/uftIqnZ67YjSDqmwLInR/Gy5KrmP2HxtHuVSblkADAwb+RXuTNaXcLTzPDnSybYLsd/pZNJuY2vZ9uh2un0xye2/bhvb2Q8AQ02pbatdl9yOx1Lp9rPc9bHlsW10+PdBUvJ2sfup5P0g+fldii2z/q3LwvVQLMUeb0y5x2tH4wiP0mGlcPJIO6WeX2OPQ49Rj9XWQSUp9ZwAAACgPApgAMiYRi6A7RvhdoiwammHhm6v+cTom/mldiaohNi0Y48/J7BKiHEz5/TamVJsx04tI4CL7TApd73tPLEdSLbudNg57VwpFRtZV8lOm1AlI+RCtYwALrUjS6MHNIrAdiSJnoO3Rn7h9hw60ufxhtEhVcNzuwF4cbT90rZTh/a00UXJc6+LbRfGfznXHzY+9rttse1GtdvYWrY91W7/ddvYzn4AGGpKbYvTbNv171Lbz3LXx5bHCtF6jAAu9XeG6ItO4ed3KbbM9jn6r5+N90WspiuWx7n3p0qO5iP2eEstpx222Q5nreI3edoGsfWZZgRwNX+zAAAAIB0KYADImEYugLXTQzs/tIPheJESV3Re3ilfL/A7L3SIMNvhYYdVs/PihmwnSrjDQ/PRTgmd7zekgnDWomV9DketnUXayaGdHSE7B+T85aujO1/scWkHzpXr+XPjltohJuWuTxbAKkxUnBQ7f5kevw4fp9vZ+bbK3UdSuXO16T6KnQN48669/uek7nMAF3YK2bpKex7OYucabmp+4vYcOupfVxTAQDbYiCJ96ef0+Yt+exQ7d6JtF4qd01F0ex094sGj/Dah2m1srduearb/um2pggIAhopS2+I02/Zy289y18eWxz6rFvsMrW273pu0rbcjVMTux94PYu9jYl90Cj+/S6ll1nR639H7T4w+/+86cNidu3SlcEl59nhLFcDhUTr0nqjP6bH1Y+uzkvdO+4Jvmr9ZAAAAkA4FMABkTCMXwKLCVTsR/vrZBHfo+Kk+O1C0o2DxqnV+B8vICdP8iE6jb6WrPNZ5wVT4hfYfOe6vC3d4aGe8dsp/Onmme9zc8xhtR0+0AI6co1jLoGXRcuu8liGVjd+u2+SX98sFS/1ODam2nEhKFsBa5rlLV/r70XmNk+tNO4feHPlFr50t5e4jZv22/CFav1q4zBfoIStwtMPIdthcvnbDP5f65r+VH0bLoXWS3BFm96EdYcnnUefyHT5uqr+NdpZpp5mEz0Hy+dFyanl1m2IFMYCBp+2hvpijL5Vox3CpIziU2vbY+0ZYIqTZxta67al0+1+uoACAoaLctrjabXu57We562PLY4WolkPb7PCLgvo8vWPfQf8ZOvy7I3Y/9n6gaXWb8LN4+H6Q/Nxr84qd19g+R+v959bde4VL8/RZWyNvSxXEMZUUwKLPzFreqbn3Zz2m5OkZxNan5lfqvVO31991kuZvFgAAAKRDAQwAGdPoBbAcOXnG7+zQjgEdjlk7B7QjZe7SFf5y7WTQDhbtVAiFRZ92pGhHi26nnTwqbkdOnN5rh4d2xs9a9K2/TPejwz9r+unzFvv7Th4CWjtC7L51PwuWr+kePWw7qXS7KXMW+FHI67bu9NPqNiqZ795/4KeVNOVEKFkAi+0IsmXXMoSPR+tO8zXl7iNG92GjF2ydaUeNDon39idjogWs7cjR9VpvWiY9N3qONB+tr/Ab/uHzqMNHa2SdbmOjsrWDSfet22unmbHnQPej5dH92iG9NS8td3g/AF487VDW9km/o+GXR5LC7UJs26OE549Ps42tddtT6fa/XEEBAENFuW1xtdv2ctvPctfHlscKUV2m+9O2W9twLYt9rtZtDh7vKVmL3U/4fqDrNA/NS49NX0TVfei+ws/vKjn1GVW3mfDVPL8+dDtjn6P1vrR0zUb/s464o/vXbfS3jNZjpSotgHW0H31BS9MWG6Vt61Pl9Se5v7Ni751aRl1mX4KSav9mAQAAQDoUwACQMRTAedoxoJ0F2omiHQ8W7YhYs2V70W+E63IVxtrhYLfRTgTtVIjt8NAOk5Ubt/aaXjsedIhpO9ycaW1rd/OWrfQ7hzSddryEJcC1m7e6d+DYvDRfPY5kqVFuh1i562MFsOh+9K16W0ZFyzNx1jx3607vkQPl7qOY2DrWfai8uXz9RmGq3k6cOe9LkHDd6Hkp9lzG7kM7v/TY9Lxop1py/Yvu/4tps/o8B0tWry/6mgHw4miHsnYs63e13Ah92y6E7wv6Xde25Xzi8Jdpt7Fptz3VbP/LFRQAMFRU8lmzmm17ue1nuetjyxP+faD7sy8O2nLEPt+Wuh9Nq9uE7wd6n1M5XOzzu95Dws+v4fJphKy+HKtiOpynPkdv3L676lObVFoA6351RCRNq3MAx4TrU6N/VV4nl3H73gPRZazmbxYAAACkQwEMABlDAdxXR2enP6xaNTs4tNPicVNzn/P7FmPTa4eO7q8WKpVVamh+ycOaDRStK60zLUc1owKqkWadaTpNX+nzYo+j2uff7udFPgcA+kc9t9fFpN32ZGH7DwCD0UBs22NihahKXS1HLV/Sqcc8kmyelX6OroWKeX2xScV8sfP7xgr1at8HB+JvFgAAgEZFAQwAGUMBDAAAAAD9r9IRsY3m1LkL/rDVOkd/ePjmUCUjvAEAAPDiUAADQMZQAAMAAABA/6MAjlu4Yq17c8Tn7uCxnnMfJ1EAAwAAZBsFMABkDAUwAAAAAPQ/CuC+dDhmnbdY5zJOnsc+RAEMAACQbRTAAJAxFMAAAAAA0P8ogPvavvegG5ZbJ2u37ChcEkcBDAAAkG0UwACQMRTAAAAAAND/Wttyfyc9fOQ6OjsLl6C5pcWPAu7qip/71+h6TafpAQAAkD0UwACQMRTAAAAAAAAAAAAgLQpgAMgYCmAAAAAAAAAAAJAWBTAAZAwFsHNt7R3u4tWb7sip8+7AsTOEEEJKRNtKbTPbc9vOwYBtPCGEVBe284QQMrQz2LbzAIDBgQIYADKm0Qvg1rZ2d+z0Rdf0pMV1dnYVLgUAFKNtZXNum3n09AXX1pbtnUYqBdjGA0B1BtN2ns/yAFC9wbSdBwAMHhTAAJAxjVwA54uBC4WfAADV0ja0vSObO43aOzrZxgNAjbK8neezPADULsvbeQDA4EIBDAAZ08gFsA55pG+9AgDSaWpucZeu3ir8lC2Xrt3KbePbCj8BANLI8naez/IAULssb+cBAIMLBXAdNLe0uoMnz7l9x08XzelLV/20bR2d7tDp89FpLCcuXHbPnj3z0wNoPI1cAOu8NxwqDgDS0zZU29Is0nJ1dT0t/AQASCPr23k+ywNAbbK8nQcADC4UwDW6ff+hm7l0rZvwzbcls3jDdj/93YeP3fQlq6PThFm2aafresoOMqARNXIBfODYmcK/AABpZXVbyjYeAOqD7TwADG1sTwEA9UABXCON/I0VuMlUWwBrGk0LoPFQAAMAakExAABDG9t5ABja2J4CAOqBArhGFMAA6o0CGABQC4oBABja2M4DwNDG9hQAUA8UwDXKegHc2t7hzl6+7nYePuEu37jtOupwPp69x0+7778x3P9Xzl+94X7+3mi3eGP+MQKoDQUwAKAWFAMAMLSxnQeAoY3tKQCgHiiAa5TVAvhe7rajZy1yPxg2wpe1lh+/9YmbsXSNa2vvKExZvRdVAD943OxeGTHejZ27tHAJMDRRAAMAakExAABDG9t5ABja2J4CAOqBArhGWSyAL1y76V4ZPt798v3P3frdB13Tkxb3/Llz9x83uWmLV/tS+P3Jc1xLW3vhFtWhAAb6FwUwAKAWFAMAMLSxnQeAoY3tKQCgHiiAa5S1AliHfP5wytfutVGT3J0HjwqX9lARvGTjDveDYcP9SGD9bJ49e+5OXbzixs1b5n4/cqIbOXO+27L/qOvo7CxMkVdpAazb6fYqmzU/zffM5Wu97tOE0/4ht+yTFqzoNe3t+w/dxPnL3U/f+TQ3rwlu4oLluXW0xl8ODDUUwACAWlAMAMDQxnYeAIY2tqcAgHqgAK5R1grgg6fO+cM8bztwrHBJXypbD5w866ft7MqfE1ijgT/9aqEvdl/6eJz7Ys4SX8SqKB42doa796hnWSopgFU+vz56il+WkTO+ceNzj+nVTyb6+X357TrX9fRpYcrKpr1047b746eT/ejln74zyo9w/tNnU/3lwFBDAQwAqAXFAAAMbWznAWBoY3sKAKgHCuAaZa0Anpa73cvDx/UqbMvRKNuvV23yBez2g8d7jdA9dfGqP5T0iBnfdI8ELlcAazpNr1G/V2/d8ZeJRhgvWr/d/fDNEd0FtU2rQztfudl72vlrt7ofvTnS7Tpy0l/GIaDRKCiAAQC1aJRi4HnuQ+udu/fc3v0H3a49+9zxk6ddZ+HzamjxshXuJ7982T142PfoOKgfrV+tZ61vAP2rUbbzXV1P3fmLl/w2Xrl2/YbfVxBqa2t3b7zzgft83KTCJUOHHv+jR4+j721ZU+t7QEtLq2tqavbv7QDYNwIAqA8K4BpVWwDrfLyrtu91SzftLBlNo2mroc/JGrn77oSvXGsV5/e9/6jJ/W7EBPf57MXu6dNnhUt7zFu92R96+fSlq/7ncgWw/bxy2x7/c+hJa5sfUTx8+jzX0dlVctrm3B8Ae46e8tMIBTAaBQUwAKAWjVAM3Lh5y73257fc//Y3/+T+5Yc/cz/82W/cf/m777i/+8733dLlq/xOc0MBPDAogIGBM9S38yoBd+ze677z/Z/6bbu28drWa5v/89/83n/hxwzlAljl9z9978du34FDhUuyq9b3AD1/eh71fAJg3wgAoD4ogGtUbQHc31SOqmBV0VopK2HX7NxfuKS3Excuu5+8Par7+nIFsC7XKF+N7NW5epPROXx1yOfHT1r8tJq37qMcCmA0CgpgAEAthnoxcO78BffdH/zMvfXeR+72nbuFS53r6Oh03yxc6suCiVNnuqeFU45QAA8MCmBg4Azl7bzK3yXfrnT/9R/+xc1buMS1t/cUgvfuP/Db/r/5x+/5oz8IBXA2UAAD9cW+EQBAPVAA1yhrBfCclRvdbz8a627de1C4pDyN7NUIXzvUcpIVvMs27/I/lyuAtx085s/f+5sPx/hz9cai8w23tnf4aXVbG+VbCgUwGgUFMACgFkO5GFDJ+8HwT91f3n7fHy4yScXB198sdH//3R+4k6fy92cFsEaM/XHYu+4//+0/++jfGkkc0vw1glgFs0aaqUx+76OR/rCjSbpMy6FpNO2//eSXbuWa9X4eRv9WgfGP3/uRn0YjlKd/OadXoaHDmW7bsduPcNM0Wrbfvvond+zEyaKHwjx05Jif15FjJwqX9Fi1dr37wb//2t2+kz+9Sktrq5v25Ww/veav4uSTz8b5IsWoXFDJsP/gYTfys7Hdj+lXr/yx10g7SS6vze/CxUt9dv5r+fU49Hj0uDS9Ru9pZF94GNfkc/Tvv3qFwh6Dwqlzl6s6cpeOuNXU3OLOX75euCSdobydv3rtuvvXH//CLcptF2LbwObmJ/4IEIr+bQXwZ2Mn+m2LtsW2bdK2L9zeSqXb+Uq3X/21nbfyV9NbrOSOLZvmrfsotW3VtHq8w9790J9CQcuodaR1pXlo3enx2TKFpa7mofcETad56P0vXGexAjj5uHU7vcck3y/0uHS9RY9bj1/SrDugXl7UNl7YNwIAqAcK4Bpl7RzAVuZaGRvT1NLqZi1f78+x29be4c/T++sPvvDlccyW/Ud8oXvg5Fn/c7kC+PCZC/58wnuO9d5ZFKNpw/P8lkIBjEZBAZze+YuX3d4Dh6M5fOykP++4dk4cOHzUPWnp+4ecLtN1ttNZ/9Vt7eeQRpadPH3O32caWhYtU7iMmp921Cd15e5r3eZt7o2/jnC/fm2Ye/WNv7qvFyx1rW35oz08bmp2Iz6f4P7y3vBo5i5c5q5eu+HeG/5Z9Hpl49Ydfl4ABr+hXAycOXve72S3kV+V0A5m7dz+8S9ecus2bnb3Hzxwu/fu9z9rZ7Z+FpUIf/3oE7/jWSXq3Xv3fNGqkkFFgUYeGxWm2sn/149HudNnzvkiee78xf6y8ZOndx+CWvet+W3eut3fj+5fP2uHu3ZcKxrp9rf//G++uNZ8rly95sZMmOIv25VbzhidE1LLPnn6V712gKsU/+Mb77hRX4z371P6WaPl9Fi379ztl0GP6Xd/fMP98uXX/GMUPR6NttPOfxUZulwFuqbTY794Kf9eZ8v7//v77/j7uHT5il/ecZOm+UO1aj2HO/+Xr1rr56vHo+lsWl2m+diy6zYq7bWDf8ToMW7PvgO9inQgq7buPuyOn77o7j0o/7e7iqzbdx+4wyfOuaOnzhcuTWcob+fnLVic/xLIg4eFS0qzAljbVm3/tO3SNkzbMm2TwiNCVLOdr2b71R/b+eYnT9y3K9f4ab76+ht/DuSz5/LLp9vocls2zVPz1mXJZSv2/qf3gI9GfuY+GDHab8sV/VvzsPdYK3VfH/au+/5Pf+VWr93gbt2+499PVIaH68ymtfcAe9yVvF/ocalQ/tXLf3Bbtu3096/Hn3bdAfVi2/gHj5oKlxSnbfyNW/fqso2XrG7nAQCDCwVwjbJWAKsk0GGWf/n+507lapJdr0J32ead/jKVEDpc8+9HTnS37/f+I6sl9wfSuxNn+UM2P2p+4i8rVwBrOk0/etYif3+hM5ev+WlnLlvrf37Y9MT94dPJ/v61HKGDp875ctjOD0wBjEZBAZyeik4rNFWSqiz987sf+59VkKooPXjkuPv9G++5i5fz5zUP6TJdp2lE//3Vq2+40eOm9DkcmX7+ZMwkN/WruYVLqvPw0WNf6Go5bZlf/tM7fpknTp/tWguH8teOD5W9um7B0pXu+Kkzbu3Gre61Ye+7MZNm+G2nSuP5S1a4mV8v6JVps+a5P771oZsxe767e+++mzN/SZ9pJs+c417JzXv1+s3+/gAMfkO5GNi6faf73o9+ER2RW4x2MGvEkHYqh1Qmq3Rcu2GT/1k7tFUu28hhoxJVO6bf/XCkLyWtZNUopvBcw6KRUyqBVShI7JCWX89f5EZ9Ps6PvLp+46bfqZ4c6ab5fjF+sr+f2EhniZUkekz//d9+2n3/GzZt9T9baWA08utnv/m9n4eoANbIKu1gD5dDh9hWUTB1xiz/sy3vlBlf9RplptvoMWgetkPfbpucp02r4kA78sWeozXr419IBbLq2KkLbse+Y+7IiXPufokS+OmzZ+7G7fvu4LGzbtf+4+7qjfwI/bSG8nZ+xKdj/JdrOhP7B4qxAlhfIFE5GdI2LnzPqHQ7X832qz+387FDQGvU88uv/dnfNnwPsmXTctvpEYq9/+k9QkW2PV5j72+2/q3U1TIk30dUnqtEti8cJQvgat4vJLYea1l3QD3YNl7/rWQbf+DI6bps4yWr23kAwOBCAVyjrBXAotL2o2lz3Q+GjXBj5i71I3c1ynfj3kPuL19M8+Xv5IUre5WzZy9f96Xxq59M9NPdvPfAbTtwzP+s0bw7D/ccXq5cASyaXrcbPn2eO3Xxqrv36LGfnw7//NqoSe7Og57RdOG0F6/f8tOu333QL88bY6Z3F89tuT9M3p88x89j7c79bs/RU66ZD/sYgiiA62PF2o2+YFXRGkpTAKuUTY6QrVcBrOU02rFx5PhJvwyLl6/2l2kn/Z/e+ciPAA7t2nvAvfbm++7y1eKHl7p6/YZ7PXfbI8dPFS7pS9dpGk0LYGgYysWAdhZrB3PsyAzF6Dax0ripqdn95vev++u1/R09ZkKfnc9GJbHN49yFi+6f/+0n0VHINk8rTJetWO1HKWkkmkbtJmkklgpaHVpTjymMylvtdLfDYCapfNAyqdAwul/bIW6PSYf6VBmQnP/Hn+Q+axcer40ATh5SWgWAigA77KiWt9gy6ZDTOvS07dAvNa3Wo5bdynfdRutBI8SAwaSzs8uPDtu254g7fPyca839PoVFlagYePi42e05eMJt33vUXbhc+2euobyd13bJtjmV0DZMt4mVxtqm/csPf+a3Q9Vs56vZfvXndl6X6/qwANZ7kEbQ7ti1p8/8Dh4+6r/YZNMXe//TtHovXbjk28IlPWbPW9C9jmw6lfI2ijqk26tw1shim7aS94Dk+4XECuBa1h1QD9Vu41UW12MbL1ndzgMABhcK4BplsQAWjQhTifrSx+N8Wauo+H1z7AxfCCc+r3jXb99zb4//0k8XTn/yQu8dMZUUwJr/0bMX/ejenvsf4UcF30s8rlLTPmzqXTpduHazezrdZyXnDgYGGwrg+qhXAayfVfKqJL12/aa/XLRzot4FsCTnqy/rPHrc1GeH1ulzF/wyxR6HUYn88ehx3aOJk7QjZ9KM2T6xnToABqehXAxoZ7BGb2kHeKW0gzlWGmt7q53Nut7+Xax00M5029Ec/jspOR+NUtJhRu2clBqhFp4nWPety4ul1M5tbbe1U952zNthoW1Ury1LbL4W29le6jHpsdjjKbYuRZeFO//rNS2QdZ253/Nzl667tZv3ur2HTvYaUamRj/qC9sbtB9yWXYfcpas9nyVrMZS38ypp//zWX7tPdVJOqe23tmkqKPXfarbz1Wy/+nM7r8t1vRW6on/H5hPGpi/2OJKPIaTL7L3BposVxRKus+Q8i923xO5fz4vdr9H1scdnKbXugHrRNv7UuSsVbeOv1WHkr8nqdh4AMLhQANcoqwVwSB9InrS2RUvfmI7OLn+4Zf23HlrbO/yhnpOHg46pZlpgqKIAro96FsAqW3W4ZTvksmjnRH8UwCp73/7oUzd30bLCJX3pUNZaltihqY3m8+7Ho92O3fsKl/SlUb9ahtNnaz9HEYDsGMrFgI280s72YmyntW0fi+2E1vXa2azrbWSYzperQ3YmhYeethHAGmmVpHPJv/qnN7tHABvNX/evcxlq5Jadk1KFdmx0VqU0+le312hgHdJTh8q0w5LaY6rkUKrhTvyksACuZkSXjdyKjeq1acMRwMWKAiDr9Hf2k5Y2d/7yDbd+6z539OR519Tckvs7/Jl78KjZHw5Uo8d0SNC23N+79TCUt/PaLoSHWE7Stk1HW9CXXlS+2ra8XAFczXa+mu2X6Y/tvJY7WQDrPUjrJ3nEhphi21b9nCxgjS5LFsBab3p8SQMxAriW90igHvTSb45s4zXyN7mND8vhWmV1Ow8AGFwogGs0GApgAIMLBXB91LMA1uUa/asRt3YoaO2cqEcBrHPw7j1w2GfDlu3u3eGj3fDPxvfZUSM6x/Ef3vzA/eYPb7opX37tS95itJwqgItNo504OrfwZ+OndpfaAIaGoVwMaNs17cvZfuf3ufO9z0coOvSxdu6H54IstgM8LIBFO/O1szp5nkPNMzw3pB3mOXn+RQnPAazSdenyVW7dhs29dpyHy6Od2v/641/0OfetSoMZs77299n8JH86lBgb9fvtyjX+PIx2Lkajx6T5X73W+3QB2lmvxz5/0VL/c6UFsJZXO+Nj58VU6aFzTdr6tGmT527Uv3VZ8hzAsecIGCz0ulZBcPLsZT8K7PS5K+7ClRvuyInz/ueLV27WrfyVobyd12fX3776J78tj53fVdt+bT/sPOyVFsBS6Xa+0u1Xf2/nVUCriFYRauw9SO+F4X2KRh7//vU3y77/6WddbtvrkC5LFsCx9xGdi/i1P7/lPhr5mV8PyXlW834hYydO7TPyu5Z1B9STBtb02cZf7r9tvGR1Ow8AGFwogGtEAQyg3iiA66PeBbCoVLVDQderAH71jb+6v7w33OfP737sXv7TO+6bxd/m/oDsOzLh/MXLbsee/W7i9Fnu1WF/9YVxcseP6JDPOvSznUc45s7d+/4+dS5hAEPLUC4GRDvq3/topC9a585f7G7cvOULzZ279/rSQJeHO8uL7QBPFsBWHqss0O01vUoD7eBOFs67ctfrnI/jJ0/vvn+VArpvXaZSQttn7aBX2bB56/bu+WnH/QfDP/Ulg+0I/4d/+aG/veZz9949N+vr+f6cvMmd3jE65LNG/qokSJ6X2B7Tz3/ze19KaxlUKOhxhzv0Ky2AbXm1bBrdpseu5dW5L7Wj/2/+8Xvd69OmtXNjajplyoyv/O11nb2HFXuOgMFEL+f23O/14RPn3I69R92mHQfd1t2H3bmL1/whROtpqG/ntS3SNkrbLh3pQNtGbW804lTbKm3rtT2RagrgSrfzlW6/lP7czutLPj/LrYOPR33uH7+WX/QepPcbLY/mpXnqyBi6LCyGi21b9XNY1oZ0WbIAfunVP7tfvvxa9zo7eeqM+90f3+i1zpLztMddyfuF6ItMWo96vm10dy3rDqg3/VqF23gd9rm/tvGS1e08AGBwoQCuEQUwgHqjAK6PtAWwitXDx076n5PTakeIDrs8Ydos1/ykpV8OAX3rzl331oej/Ohc23kTcyi3bFrWcxf67qw/cvyUL6p1iOdi1m3e5g81XWoUMYDBaagXA6Kd6hs2b/Ujfe1cgNqZrPPhXr/R+xybxXaAJwtg0UiiCVOm+3lpnhqhpGLg4qXLhSnytH3WIaBVTtj969zE2rGtZTM6zKh2xofz0yizO3fzxYVoJ/eyFav97W1eOpekRhOXeh8wZ86ed3//3R/4kcDaaZ708NEjP1Luv/zdd7qX4Y/D3vU7402lBbAkl9fmd/zk6T6FgkbMrNu4ufvcmPbYdJmuM8WeI2Cw0e+sTqW09/Apt2HbfnfidOXnK69GI2zntT2YPP0rX2ra9kOF44LFy1xLa8/I4GoKYKl0O1/p9qu/t/Nbd+zyj1u3Cb+Mo9uGy6Z56z50X6bYtjVZ1oZ0WbIAVvmavD+952i7b2LzjL1faN2cPnOuz7SPm5rc+8NH+feq8P2o1vdIoJ7CbbwK4P7axktWt/MAgMGFArhGpy5edZMWrIiWuGGqLYBnL1/vmgrf7gTQWCiA66NYAazz+b725vv+v0kqfl8d9tfuwjdWFl+6cs0fhnn95u39UgDLt6vWuTffH+nLWe1MOXT0RJ8RwXZ7G61sdA51FdSTZszudRjQkMrrDz8dW3KEMIDBqxGKgf6mnfvaBpc7d65oJ7kOyVlqR3Sl89PoLhvhVW/VPKZK6PHqcVc6v/58bECjYTtfu2q2iZVsv17Udr6S96C0YqWull33WY1q3y+Kqfe6A7JsMG1PAQDZRQFcI33E3nrgqJtcpgSupgCeuXStO3+1+KgtAEMbBXB9FCuA7dDHi5at6rWjRP/WZbqNdnZIsdHCq9Zv9pf/8a0P6l4AaznmL1neXQCrqNZ97Tt4pDBFnkb36v5ttLLRiGCV2BoFXIwO+6zblhohDGDwohgAgKGN7TwGQqwABjAw2J4CAOqBAhgAMoYCuD6KFcAqWFfmrnv59bfdkhVr3N17OpfUA/9vXaZy1xQrgPWtdx0K+levvlFzAazSWf9WbDle+uNb3QV1R2enGzNphntt2Ptux+59fjotz/sjv/CHcLayWjT9rG8W+/P/6jzAMZrfZ+OnlhwhDGBwoxgAgKGN7TwGAgUw8OKwPQUA1AMFMABkDAVwfRQrgEWHSdY5cF9/+0Nf4ir69869B9yzZ88KU5U+X/D5i5f9oaRrLYDt/i1/fvdjv2xaRqPDP3+9cKl7+U/v+Gl+/dow9/Ho8e7mrduFKfJ0/mC7fTGnz54vO0IYwOBGMQAAQxvbeQwECmDgxWF7CgCoBwpgAMgYCuCBpXNR1Xo+KqOdJHsPHC6ZcMQuAPQHigEAGNrYzmMg2HmNqz3nL4DasT0FANQDBTAAZAwF8OClEcPJEb3JaBoA6E8UAwAwtLGdB4Chje0pAKAeKIABIGMogAEAtaAYAIChje08AAxtbE8BAPVAAQwAGUMBDACoBcUAAAxtbOcBYGhjewoAqAcKYADIGApgAEAtKAYAYGhjOw8AQxvbUwBAPVAAA0DGUAADAGpBMQAAQxvbeQAY2tieAgDqgQIYADKGAhgAUAuKAQAY2tjOA8DQxvYUAFAPFMAAkDEUwACAWmR1W3rk1HnX1fW08BMAII3Ozi6/Pc0iLZeWDwCQXpa38wCAwYUCGAAyhgIYAFCLrG5LL1275Z60tBV+AgCk8bi5Jbc9vVn4KVu0XE255QMApJfl7TwAYHChAAaAjKEABgDUIqvb0vaOTnfs9IXCTwCANI6eOu+3p1nU3t7Bdh4AapTl7TwAYHChAAaAjKEABgDUIsvb0tb2dnfs9EU/QozDhAJAZbS9bGp+4o6euuDa2jsKl2ZTa1u7X0628wBQucG0nQcADB4UwACQMRTAAIBaZH1b2t7R4S5dvenPbaZlJYQQUjraXupwoINlRBjbeUIIqS6DbTsPABgcKIABIGMogAEAtWBbCgAAAAAA0NgogAEgYxq5ANa3XjlUHACkp22otqUAAAAAAABoXBTAAJAxjVwA65BHOl8YACCdx7ltqLalAAAAAAAAaFwUwACQMY1cALe3d7hjpy8UfgIAVOvoqfOcOwwAAAAAAKDBUQADQMY0cgEsrW3t7uipC34kMIeDBoDytK1san7it51t7R2FSwEAAAAAANCoKIABIGMavQCW9o4Od+nqTX8eywPHzhBCCCkRbSt12GdG/gIAAAAAAEAogAEgYyiAAQAAAAAAAABAWhTAAJAxFMAAAAAAAAAAACAtCmAAyBgKYAAAAAAAAAAAkBYFMABkDAUwAAAAAAAAAABIiwIYADKGAhgAAAAAAAAAAKRFAQwAGUMBDAAAAAAAAAAA0qIABoCMoQAGAAAAAAAAAABpUQADQMZQAAMAAAAAAAAAgLQogAEgYyiAAQAAAAAAAABAWhTAAJAxFMAAAAAAAAAAACAtCmAAyBgKYAAAAAAAAAAAkBYFMABkDAUwAAAAAAAAAABIiwIYADKGAhgAAAAAAAAAAKRFAQwAGUMBDAAAAAAAAAAA0qIABoCMoQAGAAAAAAAAAABpUQADQMZQAAMAAAAAAAAAgLQogAEgYyiAAQAAAAAAAABAWhTAAJAxFMAAAAAAAAAAACAtCmAAyBgKYAAAAAAAAAAAkBYFMABkDAUwAAAAAAAAAABIiwIYADKGAhgAAAAAAAAAAKRFAQwAGUMBDAAAAAAAAAAA0qIABoCMoQAGAAAAAAAAAABpUQADQMZQAAMAAAAAAAAAgLQogAEgYyiAAQAAAAAAAABAWhTAAJAxFMAAAAAAAAAAACAtCmAAyBgKYAAAAAAAAAAAkBYFcD+7euuOm718vZu+eHWvLNu007V1dBamAoAeFMAAAAAAAAAAACAtCuB+tu/4GTfhm2/7ZNri1e72/YeFqQCgBwUwAAAAAAAAAABIiwK4n23YfTBaAE9esMKdvXK9MBUA9KAABgAAAAAAAAAAaVEA97PFG7ZHC2Dl4MlzhakAoAcFMAAAAAAAAAAASIsCuA5a2trc3FWb3Kzl632p29n11DW3tLrlW3a5ifOXR8tfZeqiVW730ZPu2bNn7lHzE7dhz0E3LXfZpr2HCnMeOrqePnVXbt5xZy5f6/5Z50fWf4eCofZ48GJRAAMAAAAAAAAAgLQogOtg15GTvYrdSfOX+0M8h5eVypSFK3v9PG3xKnft9t3C3GvT2t7hzl6+7nYePuEu37jtOjq7CtcMnHNXrrtffzjGff+N4W7s3KX+sgXrtvqfl23e5X8e7Iba48GLRQEMAAAAAAAAAADSogCu0a17D9yMpWt6Fbj1yJKNO2oaTXrv4WM3etYi94NhI3wxafnxW5/45W1r7yhM2b+ePn3mPp+92L308VhfQJvDp8+7P38+zf93MFm8cbv7+Xuj3fmrNwqX5A3Wx4NsogAGAAAAAAAAAABpUQDX4Hkuq3fsixa4tWbSghXuxPnL+Tuq0oVrN90rw8e7X77/uVu/+6BretLinucW9v7jJjdt8WpfCr8/eY5raWsv3KL/aATye5NmuU+/WujL4MGuWAEM1BMFMAAAAAAAAAAASIsCuAbnrt7oc/jmWHQ46GWbdro9R0+57QeP+fMFx6ZL5uuVG/35hauhwvXDKV+710ZNcncePCpc2kNFsEYX/2DYcD8SWD+bZ8+eu1MXr7hx85a534+c6EbOnO+27D/qOjo7C1PkqWCeuGC5L0GPn7/ky11Nr9vpPL/m9v2Hbsqilf7wz78fOcHfZsmmHf4w1DYP/Tf04HGzm7t6kx9Nq5La7l9F9uwVG9yT1vz60O2mL1nj7yMpeZ3+q58PnDzrl++z2Yvdmh37/HWix73vxBn/OP6QW2+aVofgDm8nWoZhY6a7H7050n2SWzdafl0mxR5Pk84FvXW3e2vcTP+YZi5b2+fw3lofWi+KzgU9f+0WP61us3bn/j7rH0MfBTAAAAAAAAAAAEiLArgGN+89cF8uWxstby1zVmzwh2NOOnr2YtnyWEVtW0d15d/BU+f8YZ63HThWuKQvFYoqNTVtZ1f+nMAaDawCVIeJfunjce6LOUt8GaqieNjYGe7eo57HsPf4aT+dytCfvvOpL4o/m7XI/ey90f6+db5huXTjtnt99BR/2U/fGeVHJat81WOyeei/RudS1nSa/v3Js/08NYpZRfDw6fPcKyPG+4JYdLtiI3GT1+m/+vmdCV/5+StWAOtxfzRtbvfj1jmK9Xg1zVffrvO306hfUXn7i79+5tfJbz4c4x+PLpPY41GprNvb49F6sse3ctue7vLdRknrMNm//WisX+/jc8//X76Y5u9roEZrIzsogAEAAAAAAAAAQFoUwDXSiM0Fa7dEC9xpi1f1Ge0ZUuEZu93E+cvd5n2H3bNn1R8yedqS1e7l4eN6FbblqIj8etUmX0xuP3i816jgUxev+hJ2xIxvukeiWtmZHGWs+9TI1T98Otk9bHriL7NyU8VqKFmYamSuRgq/O3FW7rY9RZPuc0JufWjaWgtgPQ6V3vb49F+Ngtbj3rjnUPRx636tAJZih4BOPp6bd+/7QlfFb3NLq79M7PHoPu18wbaOVPaq9A+Xb9X2vf5yFcZoHBTAAAAAAAAAAAAgLQrgOujseuqWb9nVp8hdsmG7P09wMSpPpy9Z3es2k+YvdwdO5A85XC0Vhhq5++6Er1xrFSNG7z9qcr8bMcF9Pntx9Dy981Zvdhrpe/rSVf+zlZ1rdu73P4d0mUYCn71y3f9caQGsYjW8j5DKZJXKtRbAUxev6lXylnvcKl3TFsClHs+t+w99SW/3a+tIo6UfP2kpTJWnn3W5ntdw2TG0UQADAAAAAAAAAIC0KIDrZMPug72KXEWXlaLz++o8v+FtdL5gK0/TsEMY27lyK2EFaazQlRMXLrufvD2q+/pk2RlKXldpAazrYwWoWLFdawEcFrlS7nHreVCZnaYALvV4VPrqcNt2va0jRf8OlboOQxcFMAAAAAAAAACg3p4/f04GMC8SBXCdxArg1dv3Fq6NU0mrcwSHt6m1AJ6zcqM/j+ytew8Kl5SnUaoarapDUsdYUbps8y7/c7LsDCWvq6QAfvbsuT/fb6mRy7p9vQvgSh93tQVwpY/n9yMn+tHNFMBIogAGAAAAAAAAUKl82ZQfTEUGa3L/V2exEtIuIwOTUOyy/kQBXAdnLl9z0xf3PpSzotG9GuVbzMXrt9yUhSv73E7nFNa5hdOwUjNZdoaaWlrdrOXr3fy1W11be4e7euuO+/UHX/jyOGbL/iP+PLQHTuYPTR2WnUnJ6yopgEXnLi5WXNs8kgVweKjpULKkLVYAl3vce46d9o+72gJYSj0eFf8apf3+5DmuraOzZMlb6joMXRTAAAAAAAAAAIpRh9Qd/UyGTnL/Z0krLBrt3yQbCZ+T/kYBXINnz565zfsOu4nzl/cpcS0b9hz0v7RJKv4WrN0avY2iQlnFcrW6nj51Excsd798/3N3+MyFwqU97HoVm8s27/SXdXR2uhEzvvEjUm/ff+gvMy1t7e7difnz01opnSw7Q8nrrMAsVwAfPn3e/fitT9zXqzblXvj+om47D5/w14UFsBXdyent/iopgO1xv/TxWHfz7v3CpXl63CpotYxpCmB7PIvWb+/zeLYfPO6vW7Njn/+5VMlb6joMXRTAAAAAAAAAAJK0r9kn9+9nuf9Tnj5LRJeRwZPE82fPa+5/3c93NZIlYxh1WmTgE3su7DnqTxTANVDJFytvk1m1fa9rbmkt3Mq5KzfvuG9Wb45OG2bm0jXu/qOmwq0qp/Lyo2lz3Q+GjXBj5i71I3c12nXj3kPuL19M8+Xv5IUrfRlszl6+7kvjVz+Z6Ke7ee+B23bgmP9ZZaVKWJMsO0PJ66zALFcAh8X0yBnfuFMXr7rLN277kbQvDx/nfjdiQq8C2MpbLduM3Hq6fueev83w6fP8qN5KCmCxx63oedLj3nHouF9Pf/x0sj/3cXg7rcsfvjnCjc89P1onVtIXfzwj/BcEdD96PPq3LlO5rOdJKICRRAEMAAAAAAAAIKSuSHVRd+mb+29X7r9duQvy/yWDP/nn0orhsAiuRFgsWsIi8unTp+QFJHwOwufGnqv+QgFcAx3eWYd5jpW3sehwz5NKjBZOZv3u+OjhSqgg1e1f+nicLyYVlatvjp3hS8zYa+r67Xvu7fFf+unC6U9euFKYIi9ZdoaS11VaAIuWecmmHf7QzrpO+cOnk/1hnnX7sAAWleqfz17sC1VNq/+qMN564GjFBbCokA8ft5XKx85d6nM7FbuzV2zw02hae1yxx6NpNco6fDz6t26vQ28bCmAkUQADAAAAAAAAMNqfr136Vvxef9Lmpp664n6/85j72ZZDZAhFz+n001fdjZb27iJYz325njAsFBUrHB83Nbn9h4+6VRs2uyWr1pIXEK37A4ePuabm5j5FsD1n/YECuEZHzlwoeQjotPly2dpUo39jnj177s87W+lrqKOzyxet+u+LoOXV4abDwjNWABsVrZpe/62F7k/z0f3Xk9Z705MWn376PcYQQwEMAAAAAAAAQLRPWbuVVQRqhOiVJ+3u1V3H3a+2HYkWiGTwR8/t73ced9dyz7We80pKYCsUFRWMGnn66HGTW7dlm7v34KFra88fkRQDT+v+3oMHbu3mbe5xU3P3qODwOesPFMA16ux66pZs2B4tcdNmYi57jp0q3ENj0LmHpy9Z446fv1S4pIeNgtVhk3XuZGCoowAGAAAAAAAAIKqGNGZJo0GvNrf58jdWGpKhl9/tOOZuPMmPBNZrQK+FGCsQrUxUufjo8WNfOCJb1mza6kdlD8QoYArgOrh045abumilL29nLFnjzyG7cc+hig73rOkPnTrnVmzd7SYvWOEv+2bN5oYrOnU+3LfGzXS/HznRn6/YaDTuovXb/Xl31+zYV7gUGNoogAEAAAAAAACoE1ItpBGgnblMPHHJ/Xrb0WhZSIZe9FxPOXXFP/elRgFbkWjp6upyew8dcXfvPShMgay4c+++23/kqH+Oks9bvVEA14GellMXr/jiMifBxV0AAP/0SURBVHyKdDjhuas29Sl9LZv2HvYjiI3+feL8ZXezQX8pz1257n794Rh/Lt/XR09xX8xZ4s9hrHPzTl64suZDPAODBQUwAAAAAAAAAHVCGvnZ9fS563jq3Cuc87fh8rvcc67nXq8BPwo4LKECViKqWOzs7PTnneWwz9mj52TVxs3+OQpL4P5AAdzPlm/ZFS1/dZjno2cvFqaCaWvvcJv3HXGfzVrkho2Z7qYsWuXOXL5WdKMGDEUUwAAAAAAAAAC0W9xG/7Z0Po8WhGTopyX3AghHAceoRLRz/7a3t7slq9YWrkHW6LnRcxSeC7g/UAD3M43yjRXAUxaucOev3ihMBQA9KIABAAAAAACAxqZOqHcB7KLlIBn60XNf7DDQNoLUolGlHR0dFMAZpudGz1F/HwaaArifHTp9PloA69y/9x81FaYCgB4UwAAAAAAAAEBjUxfkC+Dc/7U/da6ZEcANmyed+deAXgt6TYQ9YVgeajSpSsW2tjYK4AyzEcB6rmwEsKWeKID7mZ48Fb13Hz7ulaYnLYUpAKA3CmAAAAAAAACgsakLepb7v54CmBHAjRo991YA6zUR9oRh+WsFcGtrKwVwhum50XNkBXBYAtcTBTAAZAwFMAAAAAAAANDY1AU9y4UCmPQugOMjgMMCmBHA2abnRs8RBXBtoQAGMOhQAAMAAAAAAACNTV0QBTBRqimAOzs7KYAzzgpgPVcUwOlDAQxg0KEABgAAAAAAABqbuiCVfV25/6MAbuxYAazXQqkC+OnTpxTAg0BYAOs5owBOFwpgAIMOBTAAAAAAAADQ2NQFUQAThQJ4aKEApgAG0KAogAEAAAAAAIDGpi6IApgoFMBDCwUwBTCABkUBDAAAAAAAADQ2dUEUwEShAB5aKIApgAE0KApgAAAAAAAAoLGpC6IAJgoF8NBCAUwBDKBBUQADAAAAAAAAjU1dEAUwUSiAhxYKYApgAA2KAhgAAAAAAABobOqCKICJkqUCWHf9uKnZtebuo1FcvHrNjZw43c1btqpwSW0ogCmAATQoCmAAAAAAAACgsakL6u8CeNqpy+5iU4vrePascK/5gu9RR6fbevOe++Pu49HbNUq0bpo7u9ziizej1w9UXnQBrLs7fvqsGz3lSzds+GfujULeHPmFm/DVXHf5+o38hEPU2YuX3TufjnUzvllcuKQ2FMAUwAAaFAUwAAAAAAAA0NjUBfVXAfzb7UfcrlsP3FOVTrn7etLV5a4/aXNXm1vdg/aO3P3mi6hbre3u86Pno/NohFxvafPrf/nlW9HrByovsgBubWt3M+cv8cXv25+McZNmfePWbd3pFq9a5z6dPNNfrqzcuNW/loYiCuD6hQIYQEOjAAYAAAAAAAAam7qg/iqAd9564Evetq5nbuWVW74QDq+feeaKL4LlZkube3vfqV7Xh/ni2AU34cTFPvMolVFHzrnJJy9VPMK42umVEYfORpdby6nl1XInr0um0gJYy6Xl03LGrq81L6oA7up66r5auMyP9p0+b5F70tJauKbHmQuX3IdjJvkSeOue/YVL+9K8Hjx67Dpyy1cNPVQdcrq5pSV/QQU0rW4TrKaSdDjrh7ll0zqMoQCuXyiAATQ0CmAAAAAAAACgsakL6o8CWEVlc1eXP+zzyhLF5rjjF11TR5dfhh23HvS67rOj5935pid+2YwKZY0iVnkcTqvyVNOpTF137Y4fbWx0m8vNLX5+4W2UDw+ecUfuP8499t6Hp77X1uEWXrjRa9rYfejnsLjVfeiQzhr1bDTvg/ceuZmnr/gy/EF7py9xbX5JmkaHzbZ5ajm0POGUmqeWW8tv09WaF1UAHzp+yh/mecrXC3yBW8zxM+fc26PGuA++mORu3rlbuDRPh4f+Ytqs7kNH678aOXz+0hW37/Axf9ny9ZsLUzv/b12268BhP6r4nVFj/c/KXz+b4LbvPRAtajVSecHyNb2m17JPzS373fsPClP1aO/ocGu2bPfztOm1bOO//LrPIa0pgOsXCmAADY0CGAAAAAAAAGhs6oJU9qn0q2cBvOf2A19YnnnUHL0+lmF7T3b/WwXo444uPw8VpgfvPnJ77zzsLkJbup66eeevd09vZaqKUf1Xh5XW9IfvPfZFtGi0cXioaZWwmk40jabdnVtuFbwqjVVeq+hN3seTQrHdmUt47l7N20Y0q8Q99bDZL4PuQ+v4Tm7ZtXxWAM8+e9VdampxrbnH4q/PTafDY6v0tpHDm27c8/epQlnXafmO3m/yj1+0rPUqgV9EAdyVm9fkOfN9sXvq3IXCpaVpscJyVqOD3xs93herY6bPdpt27PGHjx45YZo/nLQKVRWvsQL447FT3LufjnPzl6/2ZbD+q581rxUbtvQq3TUyeeyMOb3uZ9ue/b7M1WXDx011t+7eK0ydH/GrUlv3o2XRMu3Yd9Avj0pjLfOx02cLU1MA1zMUwAAaGgUwAAAAAAAA0NjUBansy5en9SuArz1p86Xlmqs9BWql0eGTNYpWNdWJB019Dvtsh5a+29bRXX5aOavHsufOg1630TS3W9v9/FRM2+UqfHWZitXkYZw1alklr4phjWbWZXYfuo3K3fBQ0bbMoseeLGVXXb3t5ydWANt1xQ4BXWoUtZZXy61l0eMIr0ubF1EA63DNKmE1Wrf5SeWHXzY6pLLKVRWqKleDRfbL+u26Tb6cLVUAX791u3Bp3pXrN90HX0zsNdJY8527dGW0GNa/Ve7qumlzF/pSW9Zv2+Uv0+GtkyObrbTWsusxCAVw/UIBDKChUQADAAAAAAAAjU1dkMq+ehbAKjdVcmq069dnr/W6bsvNe764jMVGvmpkbFvuthoBHI7YtWiksArdsDS1claHkx4TOe/uxut3/eNUOaufNV/NX/ej+0tOr5x7/MSXe9tu3vc/l7oPW+YnXV1uSnD45jA6ZLNUWgCXG0WtdRuOKI5NU01eRAFspadGAVtxWo3tew/6knXO4uW9SlmjQzBrhG6xAnjhivjyf71khZ/vgaMn/M8qglUIFyuqNdp3yer17ptvV/tSW6OFR0/5Mnq4aqP71n3sPXzM/0wBXL9QAANoaBTAAAAAAAAAQGNTF6SyT6VfvQtgFaI672143cmHTYV77svOfatRwxo9rHP96udYzj564m+z9eY9P18rZ2+2tPUZMRxer7JVP4flqcrb2H3su/PQ34eWOZxH7D5sma1gjmXppZv+sNGVFsAqoHMX+8M+x5Zv7rlr7lFHbj0nzhmcNi+yAJ4+b1G0wC3HSlQramNWbdpatADeffBI4ZLe7HqdP1hOnDnn3vpkjPtywVL/czkqfd//fKI/VLT+ff/hoz7Zsntfr+WiAK5fKIABNDQKYAAAAAAAAKCxqQtS2afSr14FsKJSs9JDQKu8VImpwx1PPHHRl7qVShbAVvAmk7zefq5EsgCO3Ycts00biz3OSgtgXV6JwVwAqwj9cMwk9/m0r1xLa2WPN6SyVKWpytNiVOIWK4Ct4E1KXh+bRylW5uo25UIBTAEMAHVFAQwAAAAAAAA0NnVBKvtU+tWzAN5bGD1b7PDFYTbfuOeXQSNrdXhnG017ubnFF5ul8kHiHMCVFsA2AljnEf7yTHwEsMXK2lL30T1qucj9Kwsu3PDn861mBLDmuf3W/ehyWXSu4PB8xGnzIgpgHfZZh39+e9QYd+rchcKlldMIYJWoxYpcWb99V6+iVaotgNOOAB7/5Vx35979PqN/w+jw0UIBXL9QAANoaBTAAAAAAAAAQGNTF6SyT6VfPQtglZIa0avCc2Wi2Ayjc/E+aO/ILcNzf55eXTb99BXX2vXU3WvrcB8WCt4wKonXX7vjR93aOYKrLYDtMNVPSpyzd+WVW27HrQduauH6Uvdhy/ykjucA1rmHVdXpduHllrHHL/pyeO3VO4O2ABYdhvnNEZ+7KV8vcF25dVjM8TPnfFH8wRcT3fVbd/xlOn9uLecArrQAtnMA67y+Or9vUvIcwPpZh38eMX6q/znm9PmL/rE/ePTI/0wBXL9QAANoaBTAAAAAAAAAQGNTF6SyT6VfPQtgZeetB77Y1SGKV0RK4M+OnvejfuVqc6svdnW5zq97sanFF3onHjT1Od+uzTcsiKstgJXD9x77+9B9v73vVK/pVVqrvH4SFLql7sOWWXQe4GRxverqbT8/KVYAJ9dRqRJdy6vllmIFcbV5UQWwSt+vFi7zRa7Kz1jBevHKNffx2Cl+mvXbdhUude7ho8du5IRp7s2RX7gd+w72KoG1rN+u2+RvU2sBrPnOXbrSz2vFhi19ymbdt0rsaXMX+lHNouXU9HpsyWL7zIVL7r3R43sVxBTA9QsFMICGRgEMAAAAAAAANDZ1QSr7VPrVuwBWKbrvzkN/GGNVTk2dXb60VO60dXRfrp+ThamNDNb193PT6pDSu28/cDda2vxlKkXDEbNpCuCwRNWyHbz7yJfLOvS0lk3RCOBS8whjyywqvU89bPbLfaul3c9Lj1mHnU4WwDYyWGWvlud80xP3xbEL/joronV7LZeWT8up5RWV4DYKuta8qAJYWtva3cz5S3xh+s6ofAm6bc9+t27rTj+SVpdb+aplCFmZqus17aYde/ztRk2a4UcMa161FsBy6+49XzbrfsbNnOOXT8Xv9HmL/WXDx0310xgrtjUfLYuWa9eBw+7rJSvc25+M8dEIYEMBXL9QAANoaBTAAAAAAAAAQGNTF6Syrz8KYMvMM1f8qFiVmEb/etTR6dZdu9NnhK9FI4Q1qjZ5O523d/bZq72mTVMAKyqeNcrYRueK7qOpo8sty90mnLbcfShaZhW1GqFsdBuVvDNPX/HFcLIA/uTwuV6PU9Po3L52/cILN9zD3LrqmWN+njq/cuwQ2WnzIgtg0d0dP33WH2ZZhaqKU0Wjeyd8Ndddvn4jP2GErkveTqNrVQ6rxNXPtRbAotHJKnC1THY/uk8dvvru/QeFqXroENQqrVVQh9N/OnmmO3/pSmGqPArg+oUCGEBDowAGAAAAAAAAGpu6IJV9Kv36qwAOo+JzwomLRUvfWHR+Wx0OWYdiTh6quV7R8mi5VLx+UIdSVcup5a32sZaKlkvLV895hnnRBXBId/24qdmfS7camv7+w0dV365aWg86/LQO31zqvMXGHo+WrSO37gYCBTAFMIAGRQEMAAAAAAAANDZ1QQNZAJPsJksFMGpHAUwBDKBBUQADAAAAAAAAjU1dEAUwUSiAhxYKYApgAA2KAhgAAAAAAABobOqCKICJQgE8tFAAUwADaFAUwAAAAAAAAEBjUxdEAUwUCuChhQKYAhhAg6IABgAAAAAAABqbuiAKYKJQAA8tFMAUwAAaFAUwAAAAAAAA0NjUBVEAE4UCeGihAKYABtCgKIABAAAAAACAxqYuiAKYKBTAQwsFMAUwgAZFAQwAAAAAAAA0NnVBFMBEoQAeWiiAKYABNCgKYAAAAAAAAKCxqQuiACYKBfDQQgFMAQygQVEAAwAAAAAAAI1NXZDKvqe5UAA3dqwA1muhVAGsUABnX1gA2/NGAVx9KIABDDoUwAAAAAAAAEBjUxdEAUyUagrgrq4uCuCMswJYzxUFcPpQAAMYdCiAAQAAAAAAgMamLkh1EAUwCQtgvSbCntCKQyuBKYCzL1kAh89hPVEAA0DGUAADAAAAAAAAjU1dkOqgp8+ca+967po7nruXdxyNFoRk6OaVncf8c6/XgF4LlRbAKzdscm3t7YWpkBV6TlZt2EwBHCl0qw0FMIBBhwIYAAAAAAAAgBXAHYURwGOPX46WhGToZlzuOddzr9eAFcAhKw2TBfDeg4fd3fsP/HXIjjv37vvnJlkACwVwdaEABjDoUAADAAAAAAAAyBfAz13nM+eedD53Zx+2u5d3HI8WhWTo5aXtR935Rx3+uddrQK+FYhWhFcBPnz517e3t7s7de27Npq2Fa5EVqzZudvfu3/fPkZ6rsACuNwpgAMgYCmAAAAAAAAAA6oWe5dL1zLnWLucetj13x+62uZd3HHO/3HYkWhqSwR89ty/lnuPj99v9c67nXq8BvRZiXaEKxLAA7uzsdE+ePHHXrt/wheOde/c4HPQLpHWv52B17rm4ceOGf270HIUFcH+UwBTAAJAxFMAAAAAAAAAA1AmpFtKhf9u6nGtqf+7utj53h++2u08PX3a/3XEsWiCSwRs9p6OPXHFHcs+xnuvmDj338fP/GisQFSuAW1tbXVNTk7t69ZrbvnuvW7l+k1uyai15AdG613Nw9do1/5zo8M9WAIfPXb1RAANAxlAAAwAAAAAAABD1Qs+eOdf51LmWrufuUdtzd7vFubMPnrmTd5+6E8q9Z2QoJPdc6jk9+yD/HD9qzz/neu71GijXEVoBrHR0dPiRpirINOr06tWrPleuXCEDGFvveg70XLS0tPjnxp6n/ih+DQUwAGQMBTAAAAAAAAAA8aMDc//V4X87nj53LZ3OPdZI4Lbn7lbzM3e96bm73uzctebnZBBHz6GeSz2nem71HOu51nPuD/1ceC0U418nQbq6unzRqJHAzc3N7tGjR+7+/fvkBUTrXs+Bngs9J3puks9Xf6AABoCMoQAGAAAAAAAAYNQPqSLSYYA7c2l/mj8nsA4P/LhdI0Wf+3PF+ujfZPCk8LzpOdRzqedUz62eYz3XpQ79nBQWijbCVIcaVumoww5r9KlGBeu/Fv1M6pfkutV/te71HNhhn23kr6W/UAADQMZQAAMAAAAAAAAIqSey+CL4qXPtXc98UahzxOocwYp+JoMn9rzpOfSX5Z5TPbe++O1+znP/V6GwWHz27JmPCkeNOrUyWP8m/R8rffVvPQf2fITPUX+iAO5HnV1P3dnL19yGPQfd4g3b3cyla9zcVRvdss073a4jJ939R02FKQGgBwUwAAAAAAAAgBh1Rt3J/ayikAyd6DkNn+M0rFi0ktFKx7CEtNiIVFKfxNZv+Bwo9tz0NwrgftDc0upWbdvrJi9Y4SZ8823JzFiyxu09dto/+QAgFMAAAAAAAAAAylGHRIZe6iUsGa18JC8mJvx3f6MAriM9bXuOnXJTFq6Mlr2lMmv5enf11p38jAA0NApgAAAAAAAAAEA9FCsj0b9e9HqnAK4THe555dY90XK30qg4Pnr2YmGOABpVVgpgxe6PAhgAAAAAAAAAgMEh1icoYRcQdgTJ/kCJlbi1ZNAVwOrtdZ7fWKmraHTv+as3/GGe2zs6/fl/i40S1uVnLl/LzxhAQ6IABgAAAAAAAAAAaVEA18G+42fcxPnLo4Xu3FUbXVNLa2HKHip5i5XAM5eucTfvPShMWZ2up0/dw6YnrrW9o3BJcZpG0+o2jUwj75uetLgnrW2FS3rr6OxyDx43+/8CA4ECGAAAAAAAAAAApEUBXKNb9x64GUvXRItc5cDJs4Upe9Oo4SUbtkdvoyzZuCNVMauRxj9/b7R7b9KskiVwR2enGzHjGz+tbtPItJ60vsbOXVq4pLe9x0+7778x3P8XGAgUwAAAAAAAAAAAIC0K4Bqt2bEvWuAqkxescGevXC9M2deG3cUPGz0pd9tTF68WpqycFcA/enOkO3jqXOHSvk5fuup++s6nFMA5FMDImhdRACs2n/DNwO5PAQAAAAAAAAAA2Rfu2w/3+cf6BCXZHyixEreWDJoC+GFTs/ty2dpogatMmr/cnbhwuTB1X6u3743ezqLrq2UFsArLz2cvdk+fPitc00OHPJ66eJWfJlYA63DHc1dvcn/+fJp7f/Ict2X/UT9ieP3ug272ig3dh0q+ff+hm75kjR/lfOXmHTdu3jL3+5ET3adfLXTHz1/y95NU6bxNtdNfu33XL9MfRk1yb42b6ZZv3e1a29oL18alKYA1T81b96Flm792S/R+tKxaZi271o3WkQ7/Ha6b5Hr8LPe86YsFouk0fSXrFkMHBTAAAAAAAAAAAEgr3Lcf7vOP9QlKsj9QYiVuLRk0BbDKXZW8sfLWsnrHPn+456RHzU/crOXro7ex6PrHT1oKt6iMFcBvjp3hfvHXz/xI3ySVjL/9aIz75MsFfQrgXUdOup++M8r9+K1P3PuTZ7vPZi1yv3z/c19gDp8+z70yYrwvZcXu60+fTXU/y/1X06tE/c2HY9wPhg33h7EOi8pq5i3VTK/7WbZ5Z+5+R7hXP5noxufW38gZ3/jbvjJ8vLtw7aafLqbaAvjeo8fuD59O9o9Zy6RSVsv52qhJ7s6DR34a0b9fHz3FL4OWRcukZdO6+fLbdd2H+Lb1+M6Er/x8FCuA9Zh++OYI95cvprmJC5b7+cXWLYaW/iiAYwmnV8J52fzDNwkAAAAAAAAAAJB94b79cn2CkuwPYgVurRk0BfC2A8eixW2YifOXuz3HTvUqgds6On2BF5s+zNRFK93lG7cLt6qMlYkaHavRqRrpmywK563e7AvMtTv39yqAVQz/+sMx7t2Js/zoZqNRrBNyj0MlaKwAVil79nLPoa7b2jt8QavLbfmrnXe10x8+fd795O1R/rGF506+efe+L2a1LlqKjASutgBek1tvuq+jZy/6n0WjdLUudP+i5dQ5ljVq9+qtO/4yefbsuVu0frsvdfX6kXA96rDd9nyp/Ffh+8nM+d2PSf/VaOCXh49zt+4/9Jdh6BmoAlgJbxPOy+YfvkkAAAAAAAAAAIDsC/ftp+kTYgVurRk0BXC5QziH+erbdW7ppp1u8YbtbuqiVdFpkil3COkYKxMXb9zuR5GqKFQJah42PfHlr65XoRkWwLpM5wWOjRq228UK4GlLVvufQ4fPXPDnIdYoXql23tVMr8JUpagu03VJW/Yf8cuiZYpJUwBrfvuOn/E/i4pdjeq2Q1Lbulm5bY//OaRpho2d4Uvyjs6u7mmTZb0VwB9O+dovo9G/9TjDohtDS5YKYMXuEwAAAAAAAAAAZF+yS1DCDiDsBmLdQazArTWDpgBWmRsrbuuZgyfPFe6tMmEBbEWpjUoVFZI2ejRZAKsAVeEYO+y0iskv5iyJFsC6r6TkddXOu5rprcDVoZ414lqHSg6jEbQqbFXcxlRbAOs+3xw30x9u+oMpc9yOQ8f7jC7WtBrlq1HAyeVRfj9yQvfjK7UedQhxHUJah9XWIcE1mlhlM4Y2CmAAAAAAAAAAAJBWsktQwg4g7AZi3UGswK01Q7YAnrZ4lZuycGX0umKppQAWO9yzymCVlOFhocMCWKWizmf77oSvXGuRQyWrIE1TAFc772qnt8elc+eqBC6WAyfPFm7dmxXAKpXDEbgmWQCLDvG8Zf9RP5JXRbCiQ1Pr8Ney7eAxf65eFbexZVF07mDdd6n1KNdu33WTF67wh4jWcrz08bheh5/G0EMBDAAAAAAAAAAA0kp2CUrYAYTdQKw7iBW4tWbQFMAbdh+MlraWuas2ub3HTrvwHLby7Nkzd/3OPbdhz0E3Y8ma6G2VyQtWuLNXes6tW4lkmajDP2vErw4HrfPL/uqDL/w0EhbAokM5//ajse7WvQf+51D3KNsUBbBUO+9qptdhlHU4ZV2m66plty9WOOsw1qUOIa3bb9x7yB+y2kZba1qN3N2Te/7LKbUeQyqn9Xx+PG0e5wAe4l5UAayE87P7sPsEAAAAAAAAAADZV2mXoMS6g1iBW2sGTQGsEaWx4nbuqo3uRnDe3VI04PTYuYtu+uLVfeYzfclqd+fBo/yEFUqWiSoNNeJXhxseNma6+3z2Yvf06TN/XbIAPnz6vC8tv161qc9I2J2HT/jr0hbA1c672ulVcP8sd38nzvc+Z7LOk6vzA//2ozF+JG0xKm5V4MZuP3rWol7nF9ahmHUI6PC5UXGsAlnTPn32zOl8wFrn+jl5rt4zl6/5dTNz2Vr/c7H1eOXmHffnz6f1uVyFtJb11MW+50fG0JC1AlihAAYAAAAAAAAAYHAIewQl3Pef7AVi3UGswK01g6YA1ijeaYtW9SptVf42tbQWpqicSsHk4aG/Wb3ZtXd0FqaoTKxMPH3pqi8MNYpVo4BNsgBWUanz0+rQxSNnfOMLxss3bvvRuBpx+rsRE1IXwNXOu9rpdRjo9yfP8fep8xyrnNX043PrUefiXbJxR58iOXTv0WNf8uowy/PXbnUXr9/y6+fDKV/726tgNlZOa9SwptN9fbNms/vJ26Pcss07C1P1FNWaTsuv+9h24Jg//PNroyZ1F8jF1qMOM61zCOu6tbsO+NuroP7LF9P8supnDE0DWQAr4e3C+YVvDrrPZ6V+iQAAAAAAAAAAwAunffmVFsCxzkCJFbi1ZtAUwCopF63f1qu03XHoeOHa6nR2PXXz127pNa89R08Vrq1crEzUcmokavIQyckCWFQ6Ltm0w4+m1flmFZWNx85dSn0OYFPNvKXY9Dosdmx6jcJVQazS1abXOXi3Hjjqzytcjg7VrXMPh7d/9ZOJvsgNey/9W6O/df82nW4ze8UGv66NptO5erXMNp3OFazn4t7DnvK21Hpsbml1E+erCB/RPQ/N78K1m4UpMBT1VwGsDWzs8vB2SjjP8A2iI7edAgAAAAAAAAAA2aV9+eG+/XCff7IPiHUGyeK2Xhk0BbAcOXPBF3RW2s5cusbdjJy3tpx9x8/0ms+Xy9a6+4+aCtcOPBWmOoxxmnPqllPtvGPTxwpgY9M/aW0rXFIdFbdNT1r8uX3L0TLpvsoVzJpOh5AOC+Jq9OfzgezJagH88Em63ykAAAAAAAAAADAwtC8/3Lcf7vNP9gGxziBZ3NYrg6oA1sjdJRu2dxe3ypwVG3qN8CxHo0TDwz9PzGXPsepH/w4lt+8/dNOXrHHHz18qXNJDJahGM+uQz21VHiIbGAyyWgArLe38zgEAAAAAAAAAkEVP2jv77NcP9/kn+4BYZ5AsbuuVQVUAi0b8auRvWAKr0N199KR79uxZYaq+dHjf5Vt29bqdsnTTTl8sNzKd0/etcTPd70dOdFdv3Slcmh8Ju2j99j7n5QWGkoEugJXwtko43/CNQvd9v7nVtXZ0uqdlRr4DAAAAAAAAAID+pX312mevffdhf6CE+/qTPUCsK1CSxW29MugKYNF5XKcvXt2nzJ26aJVbtW2vP1S0RrVevXXXn9t34bqtvQ75bFmQu7yppbUw18Z27sp19+sPx/jz374+eor7Ys4S99LH43I/D3eTF65MfThlIOv6swBWYteFt1XC+SrhG4Ytg0XLFcaWN4w9FkIIIYQQQgghhBBCCCGElE9sX3tyf3xyf324Lz+5nz/ZA8S6grCwrXcGZQEs127f9efuTZa6lWbZpp0c0jihrb3Dbd53xH02a5EbNma6m7JolTtz+Zo/Ty8wVGWhAFbCeYdvGkr4hqIk33TCN6RYwjcxQgghhBBCCCGEEEIIIaTRE9uXHia5Hz65nz65Hz/cxx/rAGJdQVjY1juDtgAWFbgb9hx0kyKje4tlxpI17ti5i45OE4C8iAJYCW+vhPNWwjcOJXxjUZJvPkr45lRpwjc8QgghhBBCCCGEEEIIIWSoJLZPvFxi+96T++eT+++T+/eT+/9jHYESFrb1zqAugM2j5idu095DRUcEqyCet3qTO3jyXMOf7xdAb/1dACux68PbW8L5K+EbiBK+wViSb0SW8A2LEEIIIYQQQgghhBBCCCHxxPaxK7F98sn99sn9+rF9/7GOIOwQ+iNDogAOaWTvw6Zmd/fhY5+Wtrb8FQAQ8aIKYCWchyW8DyV8I1HCN5owyTemWMI3NEIIIYQQQgghhBBCCCGk0RLbd55MbB+8ktxfn9yfH9vnH+sGlLBD6I8MuQIYAKrxIgtgJZyPEt6HJXxDsYRvOmGSb1SEEEIIIYQQQgghhBBCCCmf2D53JbaPPrYvP7m/P9YJWMIOoT9CAQygoQ1EAazEplHC+VjC+7GEbyxhwjehWJJvYIQQQgghhBBCCCGEEEIIKV74WmL75JXYPvzYvv5YJ6Ak+4P+CAUwgIY2UAWwEptOCedlCe8rTPgmEyZ8UyKEEEIIIYQQQgghhBBCSLrE9sErsX32Smwff6wLUGLdQX+EAhhAQ8tCAayE8wsT3qclfMOJJXyjIoQQQgghhBBCCCGEEEJI6cT2tYeJ7auP7dNXYh2AJdYd9EcogAE0tIEsgJXYtJZwnmHC+w0TvvlUmvANjRBCCCGEEEIIIYQQQghplMT2mZdLbN+8EtuXr8T2/VtinUF/hQIYQEPLUgGshPNNJrz/ZMI3JEIIIYQQQgghhBBCCCGEpEtsH7wltu/eEtvnHybWGfRXKIABNLSBLoCV2PRhwnnHEi5HqYRvWIQQQgghhBBCCCGEEEII6Z3YvvVYYvvqw8T29YeJdQX9GQpgAA3tRRTASuw2YcL5F0u4PIQQQgghhBBCCCGEEEIIqW9i++aTie3jDxPrCPo7FMAAGtqLKoCV2O2SCe+nVMJlI4QQQgghhBBCCCGEEEJIusT2wccS26efTKwbGIhQAANoaC+yAFZit40lvL9qEi4zIYQQQgghhBBCCCGEEELyie1TrySxffixxDqBgQoFMICG9qILYCV2+1IJ75sQQgghhBBCCCGEEEIIIf2b2L76Uol1AQMZCmAADS0LBbAlNp9yCZeDEEIIIYQQQgghhBBCCCH1SWyffLnE9v2/iFAAA2hoWSqAldi8qk24bIQQQgghhBBCCCGEEEIIKZ3YvvZqE9vn/6JCAQygoWWtALbE5kkIIYQQQgghhBBCCCGEkGwlto//RYcCGEBDy2oBbInNmxBCCCGEEEIIIYQQQgghLzaxffpZCQUwgIaW9QI4TOx+CCGEEEIIIYQQQgghhBAyMIntu89iKIABNLTBVAAnE7tfQgghhBBCCCGEEEIIIYTUJ7F984MhFMAAGtpgLoBjiS0LIYQQQgghhBBCCCGEEEJKJ7bPfbCGAhhAQxtqBTAhhBBCCCGEEEIIIYQQQho7FMAAGhoFMCGEEEIIIYQQQgghhBBChlIogAE0NApgQgghhBBCCCGEEEIIIYQMpVAAA2hoFMCEEEIIIYQQQgghhBBCCBlKoQAG0NAogAkhhBBCCCGEEEIIIYQQMpRCAQygoVEAE0IIIYQQQgghhBBCCCFkKIUCGEBDowAmhBBCCCGEEEIIIYQQQshQCgUwgIZGAUwIIYQQQgghhBBCCCGEkKEUCmAADY0CmBBCCCGEEEIIIYQQQgghQykUwAAaGgUwIYQQQgghhBBCCCGEEEKGUiiAATQ0CmBCCCGEEEIIIYQQQgghhAylUAADaGgUwIQQQgghhBBCCCGEEEIIGUqhAAbQ0CiACSGEEEIIIYQQQgghhBAylEIBDKChUQATQgghhBBCCCGEEEIIIWQohQIYQEPLegF8+8Fjd/nqNXfx0iV38eJFQgghhBBCCCGEEEIIIYS8qFy65PfZa999bJ9+VkIBDKChZbUA1jxu3L7rbt++7drb292zZ88KSwwAAAAAAAAAAF4E7avXPnvtu9c+/Hr0Af0RCmAADS2rBfCdh03+DQQAAAAAAAAAAGSP9uHffpjNkcAUwAAaWlYL4KvXb/hvEQEAAAAAAAAAgOzRPnzty4/t43/RoQAG0NCyWgBfunTZPX/+vLCUAAAAAAAAAAAgS3Q4aO3Lj+3jf9GhAAbQ0LJaAOtk8gAAAAAAAAAAILu0Lz+2j/9FhwIYQEOjAAYAAAAAAAAAAGlQAANABlEAAwAAAAAAAACANCiAASCDKIABAAAAAAAAAEAaFMAAkEEUwAAAAAAAAAAAIA0KYADIIApgAAAAAAAAAACQBgUwAGQQBTAAAAAAAAAAAEiDAhgAMogCGAAAAAAAAAAApEEBDAAZRAEMAAAAAAAAAADSoAAGgAyiAAYAAAAAAAAAAGlQAANABlEAAwAAAAAAAACANCiAASCDKIABAAAAAAAAAEAaFMAAkEEUwAAAAAAAAAAAIA0KYADIIApgAAAAAAAAAACQBgUwAGQQBTAAAAAAAAAAAEiDAhgAMogCGAAAAAAAAAAApEEBDAAZRAEMAAAAAAAAAADSoAAGgAyiAAYAAAAAAAAAAGlQAANABlEAAwAAAAAAAACANCiAASCDKIABAAAAAAAAAEAaFMAAkEEUwAAAAAAAAAAAIA0KYADIIApgAAAAAAAAAACQBgUwAGQQBTAAAAAAAAAAAEiDAhgAMogCGAAAAAAAAAAApEEBDAAZRAEMAAAAAAAAAADSoAAGgAyiAB4cnj1/7to7Ogo/AQAAAAAAAADw4lEAA0AGUQBnX1t7uxs28gv3n773727t1h2FSwe3i1euubEz5rjFq9e7zs6uwqWVaWltdV8uWOomz1ng7ty7X7gUAAAAAAAAADDQKIABIIMogJ07cPSELyNjmTRnvjt17qIfgfuiXLt5y33nV6+6/+U7P/bL0x+skC2XepWuew8f84/nzx+N9gV3NR48eux++Lu/uL/76Uvu3KUrhUsBAAAAAAAAAAONAhgAMogC2LmFq9b5MrJUXnt/pLv/8FHhFgPr+fPnbvehI27q3IX9tgxWyJZLvUpXCmAAAAAAAAAAGPwogAEggyiAewrgT6d8WbgkT6N+NTL2pbc+8NePnDjdPX36tHDt0KZiVQWrilYVrvVGAQwAAAAAAAAAgx8FMABkEAVw8QLYXLl+0/3TL37nD8OswzEnqSjW5Ss3bvWHaN6x76B7+LjJX9f8pMXtOXTUH2a6o7PTXxbSdJpet9PtVWgmDzet0vnY6XNu5/5DRUcAt7V3uEPHT7k5S1b46N86V25a1RbAyceh9aHHUWzZkwWwRjlfv3Wnex1u23vA3b3/oDB1b5UUwE259b774BE3Y/4Svz60DNWeaxgAAAAAAAAAUBoFMABkEAVw+QK4VOGo0vJ373zsbx/mP33v392Mbxa7k+cuRIvUrqdP3cwFS/10ydsmDzetglRFqa5TcRrSfBavXu/+9x/9us98bBlixXM5lRbAKp5V2BZ7HJev3Ygue1gA37h9x70x/LNet1X+1+/+xA0fP9WX6KFSz0ep5fnbn/7Wrdi49YWezxkAAAAAAAAAhhIKYADIIArgykcA/+jVN3oVsxeuXPWX67YqJFdv3u7u3H/gDp887T6dPNOXkL/487vuv/7wl32K1CVrNviC8yd/eNPtOnDYX3fi7PnuMnnYyC988SvFCmCNrp046xs/n3/8+St+9KzuX9G/dZluM3bGHF8UV6OSAljLpeXUfaiAVvGqdaV88+1qf//f++0f3b++9HqfZbcC+Gevv+1++Zf3/LS6jd1+9uLlvrDVNCqHw9HMxQpgTWNFstbrtj0H/POlglmjgLWMWleLcs+3RhwDAAAAAAAAAGpDAQwAGUQBXLoAvn33vnv9w1G+OFRpazSq9r3PJvjbjZo80488Tdp54LD7L9//hZ8mLFI1rYpKFcPHTp/1lxkdSvnnf3rHl59WbhYrgA+fOO3n/5PXhrmbt+8WLu1x9uJlX1BrGk1bjUoK4NWbt+VL7Nz9xw6NrSJaBa+WO7nsVgArmubmnb7Lr8vs9nqOTLEC2JbnL7l1mxw1LLY+YiOHAQAAAAAAAADVowAGgAyiAO4pgIvlu795zW3ds7/XoYNPn7/o/ubHv/ajW2PlpWiUqUboah6xAvj/+28/cwePn/SXGd3m1LmLvc6ZGyuANfp35MTp/jId1rgYjYLVCGCdn7ca5QpgjbZ99b0RvnDdvGtv4dK+9Pj0OMNlFyuAY+sgpNHRmuaVdz5yT1ryo4BjBbAtT6xUD329dIW/368WLitcAgAAAAAAAABIiwIYADKIArinANYhgn/wuz/3ii7ToZxVtoajSnW4Z93mk0kzSh5O+OTZ89FDQNtoVZWYC1eu9SN/i4kVwE3NT/yhk8ORwvVUrgDWiN/v/OpV9/1X/tzrsNhJKm1V3obLLlYA6zHosRSjeevQ2//ws1fcxavX/WWxAtiWR6ORS61Lu993R49znZ1dhUsBAAAAAAAAAGlQAANABlEAlz4EtM6du2ztJn8Y5fC8vHab+SvW+J+LKVakar6LV6/3BbPmo/zby6+7WYu+dXfvPyhMlRcrgK0ELVfAplWuALbr//jBJ661Lb9OYoodvtqKWF1n6zTGbh8W3bEC2JbH1mW5lLtfAAAAAAAAAEB5FMAAkEEUwKULYFFZ+/4XE3sdrthuM2nOfP9zMeWKVB0OWodn/mjslO4yWCOOdb5hG1lcqgDWqNfY+XdrVW657fpyI3hrLYBVLqtkDsveUgWwzvE7euqX/rDXpaLynRHAAAAAAAAAAFAbCmAAyCAK4PIFsNg0+q/o3LT6+a1RY1xHZ6e/LGbPoaP+UM/FitSQzjF84OgJX2Lq/MI6z7DESlQrRlVKHz552l9WT+UKYI061uhjLeuV6zcLl/Zlh3AOl12sAP7eS390t+7eK1zalx3aOZwuVgDb8vTXiGgAAAAAAAAAQF8UwACQQRTA5QtgjcT9bOpXfpqlazf6y27fve/LRh0a+vCJeAGr4laHjdbtwiJV56id8c1iN3PBUtcUnFfY6DrdRucZlmKjaL9eusJfNnHWN9HzED99+tSfu1jTaNpqlCuAw3lP+XpB0fMgaySzCvDkslsBrOgcyLHb67LZi5f7acJz9sYKYFse3dfmXXv9ZUkq6kdNnunP7bx1z/7CpQAAAAAAAACAtCiAASCDKIBLF8AqIbfvO+iL3nC0a1hOqlC0ItK0tLb5+Vn5GRapLa2t7tX3RvjrFuXuOyw/dd3rH47y12k0sBQrgK/cuOm+8+vX/LJt2LG713z0b12m6/71pdfdzTt3C9dUplwBLCfOnvcjlXUf367f7EcwG/17/bZdvc5xXKwA1u3XbdvZ5/aap65TwpI9VgCLLY+ep+SoaM1PRbPW67//8a0+51kGAAAAAAAAAFSPAhgAMogCuKcA/vGrw3qdJ/b9zye6f/7l7/11yfPyisraj8dN8derWPzZ62+7z6fP8rdT8aniUqN5Y0WqClBNo9u99NYH/v50W02n+b0x/DM/fylWAIsORW3zsftX9G9dpus0TbUqKYC1LlZs3Oofp5ZNxevw8dN88f1vL7/uL9PPKruTy24FsK7TNPq3bqPbKt/9zWv+sth6L1YAh8uTXK8/+cObfn66zb4jxwu3AAAAAAAAAADUggIYADKIArinAI5FBeq7o8e7Mxcu9SohjQ4rvHj1eve3P/1t921UPr761xHu6o1bJYtUXa/pNL3dVuXlpDnz/QhiU6oAFs3n7VFjfVkaW4Y0KimARevk6Kkz7ud/eqf7vhUVuDrMskrs2LJbAazrNM3arTu6S1+L5ql5J9d7sQLY6LLketW60Tq6futOYSoAAAAAAAAAQK0ogAEggyiA60MlZVPzE19OqrCths5tq9vp3MBdT58WLq2ezUex8+UOJD1u3bfWQ6wsL6eWdRhTr/UKAAAAAAAAAIijAAaADKIABgAAAAAAAAAAaVAAA0AGUQADAAAAAAAAAIA0KIABIIMogAEAAAAAAAAAQBoUwACQQRTAAAAAAAAAAAAgDQpgAMggCmAAAAAAAAAAAJAGBTAAZBAFMAAAAAAAAAAASIMCGAAyiAIYAAAAAAAAAACkQQEMABlEAQwAAAAAAAAAANKgAAaADKIABgAAAAAAAAAAaVAAA0AGUQADAAAAAAAAAIA0KIABIIMogAEAAAAAAAAAQBoUwACQQRTAAAAAAAAAAAAgDQpgAMggCmAAAAAAAAAAAJAGBTAAZBAFcFxn11N3/1GTa+/oLFwCAAAAAAAAAABCFMAAkEEUwD2aW1rdhj0H3bTFq92Eb77tzpSFK92qbXvdo+YnhSkxUFTAq4hXIS+t7e3d/wYAAAAAAAAAvFgUwACQQRTAecfOXXRTF63sLn2/3bzL7Tt+2q3dud9NLFw2ecEKd+DkWfe8cJsYGzlcrKS0QvPZs2eFSxCjdbxp72E3af5yN3PpGnfx+k2/3mYsWeOWbNyRn6iO7j587L76dp07e+V64ZLaHTx5zk1fstrPO/ZzNWq5bTVa2trcw6bm6Gs8WcaHSr3uddmlG7f879Pxc5dc05OWwjV40TbsPugWb9he+KkvvQ70etDrLkw9n8Pka8d+Du9PP5fbZsZuF6bY6xoAAAAAAAC1oQAGgAyiAHZu3/Ezvmi08ldR4SYqBFX82uUTc9Np+mI0/fTFq4sWiQNV5A12l2/c9utJxbxRwaNS+OjZ+r829HxkoQAuNs1AvW70BYcvl631ZVmSykJ9GSK2/nWZyvkbd+8XLrHn65D//dEoev1eaHS9ftdmr9jgrt66U5gSMQPxnJcrgPWFgK9XbvTPoZ4/ew61HZy1fH1dnsPkNlP/nbJwhZu6aFX3fer1o2XYdfhE0RJXXxL5ctm67tvodRYu98J12/wRBAAAAAAAAFBfFMAAkEGNXgDfvHvfF1dh+atsPXDUFy8qYZLlsEYKa0RjTLLMSBqoIm+wO3T6/ICuJ90PBbBz1+/c878PJy5cLlyS19bR6eat3ux/F1Zv31u4tIcuW7B2q+t62jOKc+mmnW7m0rXu/NUbvUq7lrZ2P7Jev0dnLl8rXIqkgXjOKy2ANV1IrweNxNd1mqYWyW1msW3oqYtX3LRFq9yRMxcKl5Smx5VcbgAAAAAAANQfBTAAZFCjF8BrduzrVe5WGh0iOjYSrVh5YYqVOjr/8PaDx3xppmzed9hfFlKRtmp7/lzEGoWsgkOj3owOkaqRmMu37PLzWLltj7tys/QIvYvXbnbPM0llnpZj77HThUvy96EiJrwPPdbkutBjUYkbo8t1fTG6bu6qTW7SghVu0fptufva7Yt6HYJ4455D3fMNf9b61HOpEldF5KFT56KHjNVlum7Z5vx61ghV3VaptAC+de+BW7dzv7+95mP3lXxcyee6XKGn24ePW/O3+dltb99/6O9Pj1HLq8dcbH66XI9P81F2Hznpi7tStE6/Wb3Zj7QOaUS23V+y9LPbbDvQ89i3HTjqy9+buXUVo9eLzrc9e/n66GsvqdJ1Lpq3nke9NjW9XqunL12NvkYV/Z7pda5lmbtqY9H1lGa+63cd8NOFI08reSylXgummudX09p9anm0ndB9pi2AReW9XpPaLlW7HQlpnVZSAIuWvdJDwJcrgKtZf5W+/sLn3l5Tye2RrtO8ym2rAAAAAAAABgsKYADIoEYugB8/afGHMQ2L3WRBp5IjPAS0RaMkdb7JpFLlhcRKwFMXr/qRbRphuevISR/9W5fpOqPb6rCo81Zv8vevElrFqKh4UWGky1U86HyrKk51KFUVbcUKBj0GHfJ3z9FThUt66HC+KvFsGZpaWt2CdVv98qvY0n2s2rbXH551yYbtfmSnKVW+lCudVKrZfFWmHDhx1j++ZBllP3+zZrObsXSNLy21TOtyy6bbqqzRSFRj6yhcfk2rn7fl7qdcAayib+fhE/71oPVgz5XmqedLBVj4uKotgFWyho9by6d1Ifbc67HOX7vFP19235o+HEmr5VTZpudey6NpNT+91nWI3Gu37+YnLELrNxzNK7ovXaaiT68XLavRqGFdZutOh48u9poKlXrtmVLrXD8n17kKvGW5512/O3pu7TnWz7o8LPh0OxV0et41glnT6ndHz5GKYL3eTZr56rHp9akvKagkr+b1U+q1UM3za9NWuv6SyhXA2t5oWavZjiQlt5nJn0P6vS21vCFNF1vuatdfNb/z+nfyNaXtkm2PNG/dj0bAJ68Lt1UAAAAAAACDCQUwAGRQIxfAKi50GNqw2E0WdCohtPM/nEbRZbGColR5IckSUCM6VTrsPnrSlw1G/9Zluk7TiG6r+1bxFBa6KupUQql8SI5gU+GgYkbndi1GozpVKidvu2X/ke7LtTwqlJPFmGiU58yla3qVLcXKF9HlYWkSEytLixXA0xav6lNqqpxSOWfnq7V1VGz5VdioiCn2vMm5qzf8PJPngNa6Ucmu24ePK/kYYo8pqdg09tyvzj1X4evEDrWsEbgqGUXLqWLu5IUr/mej14xeOyqvtO6K0eGf9Zq58+CR/1n3p4JfI3z1WtBrQiWY0WtLpZa+UCFa93o9qBgup9yIzmrXuUZ0zlmxwZf9If2sy3W90e00wvbE+d6Hu7bXcziiudr5avuQXP+1vn5MNc9vtfeZVKwA1ihWjUzW75R9UaCS7UhMcptZbBtqrz3dTyX0uGLboP5cf/p37DWlUwbo3Mn6vbIi3+hnzSd2bm0AAAAAAIDBgAIYADKokQtgFQyxcleFou2MLzaNcvh030Mca3qNLNNoTZUYyWhHf1jqqGRSwRIr5GyEspVtKoRURiSLNRXZGgGbLExM8vysSRev3/KFl/5rrPixEX3+3LC5aYqN4lMJqHLDRkUXK1+k3gWwSsQkPVY9ZptW60jzK7b8ei713BRbh6L7UekVW49WToWPK/kYihV6oWLT6HJ9WUGPI8kKW7uNL1Vzy6GSKqnYOX5DGsGrQtx+B/ScquS014fWaTh/vb7C56CSx2k0L5Xy4SGSQ9Wscxt5XOzLDvo9Cotq3S4szkN6TLXMN/b7Vuvrx1Tz/FZ7n0n2O6ZtoG3DVGTqZxWxmoepZDsSo985zdd+9/Rf3YfO9avHrui1qNHvpQ4rnqTHZb//of5cf/p37DWl+9J8Ytdp3uG2CgAAAAAAYLChAAaADGrkAljnrlRZGyt3Vb6IyohYAazLYmVhrLwIo8OJhqWORj+qjEhOZ9FhR60YKFYI6TyUKmdVvCRvr+g+VcKojIlRAaFyIhxZp6JUpZYVurqPUqWeihOVZLZOipUvostLlU4Se6zFCuBi96P7sPspt/w2Ejv2nIoKShWVxe5LkoenTT6GYs9fqNg0pW6rZbYCzZZTy6Jpk9FI6dkrNvj5FaOySq9Je6wq38JRkeEIYXsOwnK0ksdpdB/FSthq17l+n1XeHT93qc/jVvQ7qedY/5bw9ZGk+7TfmXrMtx6vH6nm+U1zn0n2/GrkeXg/GhGrslcjn61IrWQ7EhO+fu3n5JdodFhlHZ5bI48rpceVfOz9vf7072Lrs9x1pe4HAAAAAAAgyyiAASCDGrkAtpF9yXJXsYJMZUSsAFYxY4fIDSXLjKRkqaMd/yqPdBjfYlF5KbFCSHS5HYo0dnvFzkNajEbAajlU1KjQ0fmFwyJH96F1pXUWo2UKz6FbqtDQ5cWKEBN7rMnCN/lzku7D7qfa5U+y+woPC5yUfFzJxxB7TEnFpil12/A1Z8upxF4HFpWapWhUqxWzGg2rGK1DGyGsEcn6t74AYDRvlYOx0cohGxWpUZYx1a5zPX6NkF+4blv0MSs6Z2tTMFI3fL5Cmq/uW8tQj/nW4/Uj1Ty/ae4zyeah6ZJUlup5DkfVl9uOxISv39jPaelxJZe7v9ef/l1sfZa7LraOAQAAAAAABgMKYADIoEYugK2gCItdlb1b9h3pLnd1jk+VYSpiwumKHRa0XHmRLHU0gkzzslF0pRQrAXXOVZWbdq7gNHReXI1806Fa9dhV4oTFTrnzuup6jZK00k+Fhh5bjAq/YkWIKVV+WVFSqpySsHApt/zlnjcrK8MiNKTrNWo2fFzJx1Ds+QsVm6bUbcNlt+Ustu4rZcXuhWs33bzVm/scMlrPodZFWBQbOzRuuUJLBaIeU+xQ6lLtOs+P4l7rn+tKhK+PJC27Xlt6jdVjvvV4/Ug1z2+a+0wq9TsWK0jLbUdikr97yZ/T0uNKLnd/rz/9u9j6LHddud8XAAAAAACArKIABoAMauQCWC7duOXPrWrFbqxks6LDpil2+GcpV14kSx2VIyomVYYl6ZDOmtYKlGIloJUuKuOSrIwrNwpPtuw/4su8HYeO+9IvPL+nv4/l69363Qd98RFSEb5s005/jk67jcoM3W84D1GhrkPCFitCTOyxJsuoUuWUhIVLqeXXz8u37C75vIpKLR1q++bd+4VLetjrKHxcycdQ7PkL2eGVk9OUum3yNafl1GPVuk5S2aqi/kbkMYS0bnXYZxVlOv9vcuS0DvmsdV+suNJhkTVqtlhpqteFDn8evmZiqlnndghiHa449hzryx663r64Eb4+kvSY9Pi0Huo132pfP8VeC9U8v9XeZ1Kp3zGN8tXy2REKTKntSEzy9Zv8OS09rthy9+f607+Lrc9y1xXbjgEAAAAAAGQdBTAAZFCjF8Ci81lOnL/cl7s676RKK5Uulis37/jRkFYAb9jTt0Q05cqLZJGn0kgFkuZ/8drN7vmqEFZRqsORdnbli6VSJaCuU+GmEtimb2lr98XmzKVr3c17D/xlpaj00LSaj4qPJK0XXacSVfMWlSgrt+3xh6AOyz4tv86FrNLMptX5OzViTvdRrAgxscdaSwEsKi1V8obLr2XS4XtVRKrMKlU6WSkaPlfKqYtXfEk6f+2WXveXfAylnj+jkbea5sCJs71eY6Vum3zNaTlVvOkxWZGleZ2+dNXPo9TrN6SRj1pfen0mp9dIas1Lz3tydLBoehWBKsi2HzzmC3h59uyZP7yuXttKuVHr1a5zzVuvu/A51u/Dpr2H+xTSyddHSK8pK4ClHvOt9rEUey1U8/xWe59Jun3yd0y31++37l/nyLXn1pTbjiQlX7/Jn9PS44ptG/pz/enfxdZnueuKbccAAAAAAACyjgIYADKIAji/Q3/n4RNuUqEELhaVxJv3HfYlVjHlyotYkaciKV+WrfL3oeVQ8abz9oaj58oViCcvXPGlmpZVt9d/F6zbWvGhobUerKDV6L4YlVIabRyuF5UpV2/dKUzRQ6WY5mXTaZn0ODWqtFgRYmKPNVlGxcqpUKxwOX7+Uq9l0rrW6GgVmip5ypVOKv9UqtsXBhStc60XLUd4f8nHUO75Ez0HWw8c7X7+bH6lbht7zWk5VWxrPnqMWl69vnYfPVny9RvSOX51OxXnSfriwoK1W31pXuy8yqL1oteHrStFy6HDrJcbGWqqWeei16Ldp61HvWY1fSj2+jCab1gASz3mW81jKfZakGqe39h96rV+7uqN6PoL2e+Y3c6i+9U89QWKpEq2I6Hk6zf2ek5Dj0uPL6bW9VfsOdO/i63PctcVW1YAAAAAAICsowAGgAyiAO6honThuq29dvRbVPwki57+0PSkxRdqKlHS0vlYVbzYSOBK2aFuKzlcdDX3oRJJ01ZaPA4ELVMt61mPRY8pPPdtFunx6XHqdfUi2XLUsr5i67xUganXZn88R/WYb71eP9U8vwP1mq1mO/KiZXH9AQAAAAAADDYUwACQQRTAfVnBo9GWSqPs8Nc5h3U+Yv0XyAIdfl2HEY+dr1XlnUaaLt+yK38BMoHtCAAAAAAAQGOhAAaADKIAhtGIPR3WVyP4gCzQFzG+XLbOn3tXIzBDOmfrtMWr3KmLVwuXIAvYjgAAAAAAADQWCmAAyCAKYEi+aFvr9hw9VbgEyIazl6/587PqvKvbDx5z+46f9qN+df7WTXsP+ZHAyAa2IwAAAAAAAI2HAhgAMogCGHLx2k23avve6KF2gRetpa3d7Tpy0i3dtNNHo0yv3b5buBZZwXYEAAAAAACg8VAAA0AGUQADAAAAAAAAAIA0KIABIIMogAEAAAAAAAAAQBoUwACQQRTAAAAAAAAAAAAgDQpgAMggCmAAAAAAAAAAAJAGBTAAZBAFMAAAAAAAAAAASIMCGAAyiAIYAAAAAAAAAACkQQEMABlEAQwAAAAAAAAAANKgAAaADKIABgAAAAAAAAAAaVAAA0AGUQADAAAAAAAAAIA0KIABIIMogAEAAAAAAAAAQBoUwACQQRTAAAAAAAAAAAAgDQpgAMggCmAAAAAAAAAAAJAGBTAAZBAFMAAAAAAAAAAASIMCGAAyiAIYAAAAAAAAAACkQQEMABlEAQwAAAAAAAAAANKgAAaADKIABgAAAAAAAAAAaVAAA0AGUQADAAAAAAAAAIA0KIABIIMogAEAAAAAAAAAQBoUwACQQY1eALe2tBNCCCGEEEIIIYQQQgghQyoDhQIYADKIAjj+5kgIIYQQQgghhBBCCCGEDNYMFApgAMggCuD4myMhhBBCCCGEEEIIIYQQMlgzUCiAASCDKIDjb46EEEIIIYQQQgghhBBCyGDNQKEABoAMogCOvzkSQgghhBBCCCGEEEIIIYM1A4UCGAAyiAI4/uZICCGEEEIIIYQQQgghhAzWDBQKYADIIArg+JsjIYQQQgghhBBCCCGEEDJYM1AogAEggyiA42+OhBBCCCGEEEIIIYQQQshgzUChAAaADKIAjr85EkIIIYQQQgghhBBCCCGDNQOFAhgAMogCOP7mSAghhBBCCCGEEEIIIYQM1gwUCmAAyCAK4PibIyGEEEIIIYQQQgghhBAyWDNQKIABIIMogONvjoQQQgghhBBCCCGEEELIYM1AoQAGgAyiAI6/ORJCCCGEEEIIIYQQQgghgzUDhQIYADKIAjj+5kgIIYQQQgghhBBCCCGEDNYMFApgAMggCuD4myMhhBBCCCGEEEIIIYQQMlgzUCiAASCDKIDjb46EEEIIIYQQQgghhBBCyGDNQKEABoAMogCOvzkSQgghhBBCCCGEEEIIIYM1A4UCGAAyiAI4/uZICCGEEEIIIYQQQgghhAzWDBQKYADIIArg+JsjIYQQQgghhBBCCCGEEDJYM1AogAEggyiA42+OhBBCCCGEEEIIIYQQQshgzUChAAaADKIAjr85EkIIIYQQQgghhBBCCCGDNQOFAhgAMogCOP7mSAghhJCUOXvVte4+6lqbW+PXE0IIIYQQ13rnoWvdvD//39j1hBBSSR40udYdh1zrlVvx60lDZ6BQAANABlEAx98ch0yOnXet//xqPvp3bJoXmW0HXOt/+YVrff1T13rvcXwaQggh2UzsPWbfcdf6f/+ua/0//DfXOmdl39uQ0rF1+qNhrvXanfg0hPA6IbVk5Mz852/9N3Y9IWRgcvuBa/3BX/KfmX79Qb7AiU2XpfD+Q0j28rjFtf5pdH5b8vevuNart+PTkYbNQKEABoAMogCOvzmWzZM21/rW2PwHrNdG5T9wJaeZujh//f/pH/NFZ/L6k5dc6//7x/nr9a3f5PX1yKHTrvX/9a/56N+xaV5k1u/Or6Ofvu1ac6/D6DT9EX0r8r/8Mn/fY+bkn8/kNFoeLZem0XOZvJ4QQoZSNFp3w17X+sO/uNb/8Pf5bZ/yv/7UtX4yM/5t8th7TFgAD/S2M1ZIV5o0j78/YutU71F8g79/ovf8D6fkn99yO9w1kv3/9t+z9zmK10n9Y59Jy0XTxW4/mDJsTP6x6L+x66tJf5fJtqylwu8ByXL0JWd92Vm/J/NW974uLIAH+u/htKnn+08tn9sIyWrCfYX13tdnAyiSX8AIC+D/+qvc7+bN3rcjDZ+BQgEMABlEARx/c6woSzcV/4CVW3+tL32Uv175fHbv65VSt69X7A+0rO24tGShAFZRoR28yWkogAkhjRJ9S/zn7+a3d8Wi9xEVpOHtYu8x2umhw48t25zf6RlO399J+56X9vH3R+wxUGj0b7QDTTvl/qcfutbjJXY6fzwt//xnbWQWr5P6hwI4Xeo5r1gogMlgT7m/KS9ed61fr8r/N3ldFlPP95+0n9sIyXLOX3Wt//nnPe9R+tJhbMBBmthnldjv3417rnXBOtd6+GzvywnJZaBQAANABlEAx98cK4qN4NXIkGSBeC73oe8//XvPhz7tWE7uCLedisVGEGs0kr7Vpw92KpST1xeL/si0MrWWP6o0D923PkhW+oFVy6zpY+d91GNIzq+SAljfjNbt9N/Y9bGE6yAWzU8fmu35+dc/u9abueUKp9HtyxXAj5/kiwM9T7HHXCq2fos9LnvcpR5HmDTriRBCtM2w8vM//iD/5SR7z9F2be9x1/rdP+av/7/8k2vdGhzRIu17jG07Ff07Nk0y9p5Y6jZplqeWx5+Mbdcrfd+MvYfYYyi1Y7Xa+yF9o+fdRl0Ve4/Xc6PD6GkavS5i0/TXazlM2teJfe6q9jOK1k01nzuHaqopNu051fquZt1pXes2sc96+t3W73i184y9XpIp99gqmYel0vWUdh2F0W3t83t/FfG2nJX+ftbjcZF0sddppc+Voulu3o+/d1b73qrnu5LpNd9avlQcbgti24piqeb3uFhi86jk/afUti1MNZ/bqn1+CHlRWb7Ftf4f/y7/O69UOuCjkm1aqQK4kqT5ParmfTHt9or0ewYKBTAAZBAFcPzNsaLoA02xP+ZsZMn/+Z/yh5JUGaxS2K6/lfuj6F//lL9t8lBQdx661uHTXev/UDiEpqIPkDos5YmLvafVByvbEbJko2v9y+f5+7PlKfJHVcvqHfkd2bnbtfzsnfwfwrpOH9i2H3Kt//T73h9a/5/fc63Tl/Qd/aL70fVaDyu3udb/5ad9P4xeuuFa/ziq9yE1Nd23uQ/G63b13D78gJhbDr+M/+03PbcJbxf+EVtuHcQS3kbPk/47ZVHvD8Glnl89RyrwC+vQR8/XtNx0e471/aM4vD8936+O7L1+tYN55+H8tAdP9exwVjTdT95yrReu9V4GpZr1RAghyWibp8Pga7vxN7ntyJkr8ek0KuVvX8pPp9JMO/Z0eew9JtzeJXfQa8fBO+N6bzu1vdZ7hN4rwmnt/UXbv/lr8+Ws3Ua31/tk+MUqmz6Z5PtLmFofv6J5VPO+qcTeQ2z62HuIRdfpC0uV3g8pHXvNJJ9Tiw7Zp88IGsWh0Rzhdf35WrakfZ3os6LuK/zcpXloXppnOG34O6zPZLqdXl/9Va4NplRSbOp5+2xW/nmxda31F/vMHq5rfaFAv8vJ25y+nN+mbNiT/yxn1+u51KEd7fN6bJ76HKnXUuz1ktw+FHts1Xy+Dbf1yYSvn2rWUbmUen/RY9RIfV2nozDFylj7ndbfZWdzv9PB/Pzn6RlLey9nsd8bpZ6Pi1QXbX+Tf1sW2/7aa/2NL1zr3NzfYHq+kp8Lqn1vjf1tq+167G9b+x216Sy6zD43Fft91H1rGXSkivC2+jtRnzu0rQint/nocNO6XbgvQY9Hr+9y5Y0lzfuPfR4K/45VtG71O2HLZ39XV/q5jc8+ZDBFAzs0wEOvU+3z0e+DXrsqhWPTK5Vu0+x3KBnbdtjvVPJ3qNq/VdJ8btV+p2/W9J7W3hP12SaclryQDBQKYADIIArg+JtjxdGhnfXhJrmjwS7/9KvcHyx/yn/4WRfsqDhy1rX+j9/PjyDWSOLC5S2Xb+antw9N//OP8jsp7MNg7gOX30Fh8wl3hGhedjv7wyrcMWR/ZB442fOHpEY92U5PfTCcs7LnDz39Vzs9/2NuOW2+4fSKfTj8f+Q+PGoktP4d/jEY7jRX9Hg0T81b6+S/Fa4LP6RqObSjyT6c6jY6z4n+q591+fuTev6ALbcOYglvM/br/PrQOtqfWzc2jZZHy5Wclx6/jRZTtH60fIU/slv+IfchX+siXA/h/Sl6DNqxFz63WoZZK/L/1WW6TtPYetB6DA8NVu16IoSQZPRtdH0rXdsMbf9j0ySjbU9yFEj4HhNu78Id9OH7gb2/2PuBLvv//KRnHoq9v1i0jdU2LnxPem9CzzZOX66xbaZtYzW9doTGyjWl1sef5n2zzHuIXx4VFOF7SC7hF7e6bxO+R/zmg973Q8pHh37We65OBaFzV4fX6bm187fpv/rZruvv17KS8nXiD1Ou30dNY58l7HOBkvwsYb/Dmle4PBTAPTtabcdqMuFzZOs6fI703zU7e6a3dW3ruNhnPe2M1WvJXlvh85fcnsSeP3t92XIov/2w987g2GMr85rr8/lWo4F0DsLw8Wp6RV+ETc6zknVULsXeXyw26kq/18lDu2unvJ0f0Q7HGc7P/oaw9R7+Pvz31/J/o9m86v24SOUpt/3933/du2yw17p+T2ya4O/Oqt9bw/tX9Ptp96/bfO/13veh89qqdEneR3jO22K/j38olEh2u/Bx6r70d2D43mTzCW8Tvi5jt4mlzLagos8pye2bfift85b9XV3B5zY++5BBl+RRAvVFCr1W9f6j96Hk9NVs03SufftMEL732Dn47fNmct9a2n18Fv3u637C2yQ/t+oLJsnfZdtm/P0rvd9DyQvJQKEABoAMogCOvzlWHBvpqz9o7LAu+rClD13JD336r93Ozv8bfjjTB8J3xucv1wcmjQS16fWNf32DUNdpx+KJC/nLwx0X+oA1ZVH+w5XN03YMKfp3+AFT/43tBNSHNn2ItG8C6kOjymtdp9vpG3/2h2P44VDfzNU87BBR+kCoby3qOv3Rp2/d2+30rWKN1LXbhutB60w7Y/XhVOcwCXe0a5SxLlfsMJzl1kEsyR1I9oFV33K0D7/2PGoa+0NVy2CjxZLLp/U1bm7PH6ThH8Xh/emDelg0awRCuCNByxB+01OHH9X603Xjc/O3y6tdT4QQkoy9h2m7FB6lotIk32N0WXL7qsvC94PkNi73/uaPRKHrXv64570nfH/5OPe+Y5drW6cjNmhbq2W3okGJLU+p1OvxV/q+mfY9RO8TWkZdp2nsfhR7j9B1ySOKkNLJfdb1X+DT+tYX98Lr7Pxten3o84tdPhCv5bSvE32msy/W6TNjOFpUnyn12VLXhctmr2FdrlEb+nyq+Wnd2G0bNbFSxhI+Rzp6wNFzPddp3drneRU/+lysy8N1/Z0/9D6yS/hZT9FnZBt1qvuyz3V63sNRROE8k68VvVa//LbnduH2IfnY0r7mYvOypFlH5RJ7fwmjUVQ2+tA+u1vsdzr8wkc4Pz2+cPuqx792Z+nteL0eF6ks4fY3+TsU/j0VFi32+tTzq+2iyhk79Gm1761p/7aN/U0ZJvY7ZO8bev3p84Tdj5ZRnze0XPpdDf/Os/no/WTmst6/w/a6THz5vE/C13c12wJbl7o8+d6o3xH9rug6JVwHtg1T9G+7XOGzDxmMUdmq17kdXabU3xpptml679NlyfdixbYb4fbHfsf0u5JmH18ln1vv5u5LXwjT9Lre5qPHY7/7/J6+8AwUCmAAyCAK4PibY8Wx0UPhByD71t8/5v7w1x+Y+mClD0n2QUwfiGxUSVjo2e00r9i3xsOdGna7cMfF6K96PmxZwj+qth3s+TZvsvxVrKgOPzCGsQ+z2nlih0K0D4f6ll/y0Jnhh83YufN0zl07/F1s3ejDsD4Uh7fR9frWvq63D8Ll1kEs4W30IVr3/cu/5n+2D626LPnHejhaTH8cJ+8r/BAffigP7y/8o9diXwjQcx/uaLbYiHI9f/pGdJr1FF5PCCGKbXv0x7neY2LTlEpsx11y+xpOpx3vyXPmK7GRmPb+En7ByhKeRiHcpsaWp1RqffzVvm+mfQ+xdaH3zOT56pXkzqbk9aR4bMSgfWZLXq7XmV5vdvlAvJbTvk60c02XqQROfsZT7PC34bLZ49HtFm3oe5tGTqyUsdhzVOwzrn1m1/VW2Nq61mX62yB5G/usp9dPbPSqHVJSRY5dHj5/4c7b8HZW/ITbh+RjS/uaU4qtpzTrqFxi7y/J6G8kXZ/cHtp2UoeJtp3Z4fzCL0aEsd/f5Ha8no+LVBZ7vRf7e0l/S6/a7lo37ut5Lu31+S+v997GK9W+t4a/w7HnPva3rS6P/U0ZJvk7pOXUe1Kx6fXY7HDnsbI79plExZMVtMV+d5S02wJbl7oPFVfhbRT74rKmCR+TrVNF/w5vU+3zk7yekIFO+Ltp++tKnfotzTat2gK4ln182hZomxBOH/vcGhbAn8/q+dKIooEPegylvnhCBiQDhQIYADKIAjj+5lhxwh0ykxfmL7Mdyjbi1/7gsm/c2ocmGyFs87IPc7kPX0UPkWIf4OyQ0+V2hNiHytx9+UO3abrkoQmV8A9TexzJhAW1ld2xD5mWSh6P7iu8fbgcOoSWDi2TjB1aSx8y9WGzkp1BycRuY4fG1vrSB9VwWezDra1PnS8lHKEdRuW9bhN+KK/0eSr2rWybZy3rKTlPQgixwqi/C2B7P9DOP42QSW6vdJntGLQvQJV6f1FsR6dtn5XY8pRKLY8/3A5X+r5py1fte4g9Vh0GLrnuFPsCU6n3WxKP7ewOd76Fn+1sB55lIF7Ltb5OtAzJnfZKWCrYTshqf2caKbY+9d/kdbbe9Lr5/Yi+rwN9SU+ft3V72z6UW9f22kp+GcFin5nD5bF5Jv+mCBMbfZR8bDafal9zSrH1lGYdlUu5z9OKfQkjXCe2vU6WsuH8YoWeYttxm19/PC5SWex3JPkaLJVir8/wukrfW+3+q/nbVpeFnxfCzyyW5DJW8vton1/C7UWpxxouQ7HfHSXttsDuu9j7T1gQVfq5zebJZx8yWFLs9Wxf8Aq/gKSk2aaVuk3y82b4e1/s/ajafXyK/W6Gv8t2RD1d/t9yf1fpcPMaARzbHpAXkoFCAQwAGUQBHH9zrCpW+KqU1Qc6/eGvDz/27X4VtXaIQf3BZB8Mkzt47MPcD0t8izX5YSzccRH7Y87uS9cr/+Ef4qMOwg+HOsxc8noldl+lPhzadTqcTexbu4r9ARl7POVi66/cOogldht9OLVz6v7krfwfkrZO7MOtPUexEc8W/bGsP5o1f92PLiu3jPY8hbcJY/dby3pKzpMQQvSNcm3zYoclqySxHR2x7Z29H1QSK6ZKvb8osZ0PseUplVoef5r3zTTvIeH9lEuxLxGR4tF7vx0xw84LajvDYq+jgXgtp3md6DKbz/h5fadXwteS3Ve1vzONFFuf+m/yOnuOKol9IbTcurZ5Fnud2OsoXJ5Knr/YNMnHlvY1pxRbT2nWUbnE3l+SCf/ust9pjXjXFzM0Mjf8sk8l80tO0x+Pi1QW+x0o9bdyMsVen2neW+3+q/nbVpfFtr1hkstov7P/28/iR3NQ7HUYew9IPlYlXIZir3XF5pv2c8qor+K30e+hymFNE66DYtuwNM+P3ZaQFxU7AkWy6LX3oOQRPtJs02K/+xabn21/wt+jeu3jU2xbE/4ua9Tvt1vy2w5dZ9HPum9tA8J5kAHPQKEABoAMogCOvzlWFdtR+J9/7loPn8kXbsmdyfYhSjsC7Bu7KorDD0L2Ya7Ut1gbaQSw/kjU4WKKZefh/CidcusglmK30QdvO0z2Z7Py5zDSv+3Dra1P/dGrP37tdmFi34qu9HkKbxPG1mUt6yk5T0IIsXMiqgQtNvqpVGzbFe64i23vbBumHR/frIlvqyx2qLE0Ox9iy1MqtTz+cDtc6fumLV+17yH2WPWeFFtnlvAQcaTyaFSfRvfZoe5ih4q1DMRrudbXCSOA6xNbn/pv8jpbb3rd6HmLPf8WKybKrevkZ73k9fY6CpcnXI5iI4Dtiy7h5/HkY7P5VPuaU4qtpzTrqFxi7y+x2CHcVfjqNvYlj+SI/nB+xd4Djpx1rf/j93vWTX88LlJZ7Hck+RoslWKvz/C6St9b7f6r+dtWl4WfF2w7Hya5jJX8PjbSCGA++5DBEO1H0uHI9Zr9H76b+/34RU+0b/A//H3f13+abVqp22jeus62P+HvfX+PALbo918jfzWwQiOBNZ3OJx4bhEIGNAOFAhgAMogCOP7mWFXsg5U+NH0xJ79DQIcODEs327mo8w+pvNVOieSHoPDDl/6wCq9T9A1gndct/LAV7riI/TEX/lFV6zmA7YNgeC6QUh8O7fEU27EeO0+SPjDaTprYuW31zcJrd/KP274lWW4dxFLqNnYoaD0P+vCuaWx9hztP054DuNTzFN4mjH3Qr2U9EUJIMtqWaFumbUnsfcGi7ck/FbZ94bnYYjvuYtu78LyosZJC2zXdTiOzbHtW6v1Fie18iC1PqdT6+Kt930z7HmKFZOw8eJqH5qtp9d/kPEn52E47fV5ZsK7n/G2xzy4D8VpO+zqxQqDYOYD12VKfbcLfj2p/Zxop9rzov8nr9PzaeV5jrxP7kqaif+uycus6+Vkveb29jsLlsXnq8ug5gHOvFX3hNDnf5GNL+5pTiq2nNOuoXDRt8v0llvC+Zy7L/1u/t8lzK4fzi50DWOthyqL89bYd74/HRSqLbX+1Hav2HMDJ16dS7Xtrmr9tdbn+q591efiZxZJcxvD3MTZ9OL/wC+WlHmt4m1K/O7W+/6joqtc5gPnsQwZTbH+fXrOlEp6zOs02zT4rJN+LFfucEG5/6r2PT7Ftjf0u6/FoubSsNg9F+6Ten5SfNrZdIgOagUIBDAAZRAEcf3OsOnZeD314039tZIXF/pjSH4w6DHPscJMqjN8Zn7+9vikYfuv20g3X+srw/HXhH1b60FdqR0jyjyrtENRObk2f3Nlt02oZR87s+ZCpD27LNuev0+3CPwZLfTgMH49uq8LbbnfnYc9hoJK3t0Pk6FuS+uag7l+X67aLNuS/QahsLXxDsdw6iKXUbXQ/dihoWz77cKvYY84tQ8us5T3Lp/U1bm7P7cIP5ZU+T+Ftwug2um0t64kQQmJRuakvJ/ntVu69R9uMcHty9Jxr/e4fu7d7vb68lHyP0WWx7Z3eD/40On+ZitRw56B2ptvRFsId8NXufFBspJZ2wOw41Hv6YqnH40/zvlnNe0g4Ulk7Uux+FH1bXzuPdF3yswepPLajWetZ7636r9Z7crqBei2neZ3oM519UfDVka715v385Xrtbc/9Puj1revCL47FfodJPva8FNtpqdGkul5H1tFnMrv83mPX8kbhM65eI9rG6PJy6zr2WS+MvSbC5bF56nJtn778tue5DV8rSlhYxR5bmtecYp/1dT5cu29LteuoXGLvL8Vi9/1/zb0faNn1e6vf33CacH6aRiV6btn8dXr8+kKI1quuD7fj9X5cpLKE5aP+jg23v/q3/Y2r16Q916V+j6t9b037t61eU/Yl7NFf9dzGUur3MXY/H0zOL1fyi0ilHquWRcuk68v97tT6/vOvf8qPALT56XPU3xRGAiqav11X6nMbn33IYIoVrb94L//7oN+NMHrN6vdZv7f2vpFmm2ZH9Ygdpt1+d8Ptj31O0G3qsY9PsW2N/S6HXxzRstp96PHZl9B0eTgPMuAZKBTAAJBBFMDxN8eqow90Vv7qQ1Ryx44+TNmHH8UO4RxOk4s/nJT+aLLp/ucf9T5kjEakhqOD9WGy1I6Q2M4mG+Gau03Lz97pvYNQO0BtR4f+qz+6/mPujzL9rPzmg94jSst9OAwLZ0XzssejD6HfK+x0D2+v5ZixtOcx6zbaaal1oZ91u1Ff5j9Qavpy6yCWcrfRY7SduEr4h6qusz/iFT0nWk+F9eYPta0/YsM/iit9nsLbhNFtdNta1hMhhBSJf+/50Rv5bYei7Yq21XYUBEX/Tp7DKfYeU2x7p/cD7RAP5x9sO/326/DZnumr3fmgaPtsh1+zFLt9kNSPP837Zpr3EEXv/bY8+q/Wl3b+aFuvy/4wqvf9kOpiozDseUmepiPMQL2W07xONuzN/z7qNrZs9rlA0XJr+W362O8wyadUmaLoOdLvt6bR76F+H/Xc2++p1qmeD5u+3LqOfdYLY6+jcHlsnvobRCMTdb1tH2w5lPcm9P48GHtsaV9zdrhlu51i2/5q11G5FHt/iSX8nS42uiqcn35XtIyx7bjWS7h9rffjIpUn/NvStnGK/q3LdF24jSv3e1zte2t4/0olf9sq9qUBS7gdKPb7qPu26XU/4fuM7k9/B4bvU6Ueq5ZFy6Try/3u6L5TbAtaVu/oWT77vbD3H/0uaoSh/l3N5zY++5DBEDsyhF6Txb6QoFLUjjCjwSN2ebXbNPtihK6z2O987PNmmr9VUnxu7fX7r3nrd9XuQ5czKOGFZ6BQAANABlEAx98cq44OdWJ/1BT7oKRv3ut6RR/Cktdb9M1efQPd/thR9AFQH8xOXOw9bbkdIcV2NpUqgTVKRDsI7Q8rRX9ozV7R+5u3SrkPh4o+EGtHqn2ItflpR7q+0Ry7vS2HfZAOb/ftlp5vIivV7AyyVHKb/bl1pPWmacI/VBV9k1vf4A6fI50rSX+I6xudul34R3Glz1N4mzC6jW5by3oihJBSUTmwYqtr/buXe2//tZ17d0L+SBTJ28TeY0pt7/T+pm/I2w4CRe8N+vZ7cv4pdj74nL6c/wKPveeUen8Kk+bxK9W+byrVvodY9Bngh4VDFYe3m74kfj+k8mhkhY3sLVYWhRmI13Itr5Pwd8Bup3lpucNpi31OJD3Pi+1YjUW/d/r90/q1da3fT/2eJj+zl1vXxT7rWex1FC5POM89x/Kj85Kvl9j2odhjS/Oa07ZT14dfoAi3/dWso3Ip9f6SjH6ndUoeTRsecjNMOL91u/Ln9f6PP+hZTv1+6/c8+Xuj1PNxkeqivy3fGdd7+6t/6zJdF05bye9xte+taf621e/WiBk9v1vhdqDYMtprLPzd0jLqkMi7juQ/f4TTl3qsWhYtk64v97ujpH3/0XbIjpqi2O+EPpvZ8lX7ua3a54eQgY4+M+qzo4rb5FH+wtjRZrTvJtxWVbNNU3Ye7v13h/3OF/u8We99fLHf5WL7pfSzLk9ur8iAZ6BQAANABlEAx98cMxGVdzp0mD70vYhRnPqwpz/q6vWtWj0GPZZqz9NT7+WoZ+w5ysK5h7K8ngghgyu2bYscqaIuedHvb+WS9vFXux22+1H079g0sWi5dD+c9+7FZyBey7xOsh+tX61nre/+2m7GEiuV075ewtg86vnaGeh1pO2wjSws9sVbLUuyULblrPR3+kU996Tnb8taXuthqt1m2v33999eL/I1lnZ7Yp+H6rm81T4/hAy21HubFstA7DNiv1QmM1AogAEggyiA42+OhBBCCCGEEJLZxApgko+NyNKhLmPn81a0g7rSEcWEEEIIIYM0A4UCGAAyiAI4/uZICCGEEEIIIZkNBXA8ub9buw/p/uGU4qMFKYAJIYQQ0gAZKBTAAJBBFMDxN0fy/2/vzr/tuOo77/8t+YGVxUp4CItmQXegCSGdkNChk0CTJg1hCENohgQIYyCEOcwzAWOmgLHDDAaD8YSxMZ6wsazBtmTNsmxJlgfZGmzZ9dx36X7Fvlu7hjPcq6p736+19pLuOXWq9qlT4/7UrrJYLBaLxWKxWCyDLQbA5bLh1hPPTf1v//fE80pLw1AMgC0Wi8VisayBslIMgCVpgAyAyztHi8VisVgsFovFYhlsMQAul8/+54lQ91Xvqw4vnNcWh6EYAFssFovFYlkDZaUYAEvSABkAl3eOFovFYrFYLBaLxTLYcs991eFdd5wo/L80zFor3O75tgMnwt2Fc9ziMFEOHa4O7953YtiFc9/iMBaLxWKxWCwjLyvFAFiSBsgAuLxztFgsFovFYrFYLBaLxWKxWCwWi2WsZaUYAEvSABkAl3eOFovFYrFYLBaLxWKxWCwWi8VisYy1rBQDYEkaIAPg8s7RYrFYLBaLxWKxWCwWi8VisVgslrGWlWIALEkDZABc3jlaLBaLxWKxWCwWi8VisVgsFovFMtayUgyAJWmADIDLO0eLxWKxWCwWi8VisVgsFovFYrFYxlpWigGwJA2QAXB552ixWCwWi8VisVgsFovFYrFYLBbLWMtKMQCWpAEyAC7vHC0Wi8VisVgsFovFYrFYLBaLxWIZa1kpBsCSNEAGwOWdo8VisVgsFovFYrFYLBaLxWKxWCxjLSvFAFiSBsgAuLxztFgsFovFYrFYLBaLxWKxWCwWi2WsZaUYAEvSABkAl3eOFovFYrFYLBaLxWKxWCwWi8VisYy1rBQDYEkaIAPg8s7RYrFYLBaLxWKxWCwWi8VisVgslrGWlWIALEkDZABc3jlaLBaLxWKxWCwWi8VisVgsFovFMtayUgyAJWmADIDLO0eLxWKxWCwWi8VisVgsFovFYrFYxlpWytAD4HkWA2BJo2EAXN45WiwWi8VisVgsFovFYrFYLBaLxTLWslIMgCVpgAyAyztHi8VisVgsFovFYrFYLBaLxWKxWMZaVooBsCQNkAFweedosVgsFovFYrFYLBaLxWKxWCwWy1jLSjEAlqQBMgAu7xwtFovFYrFYLBaLxWKxWCwWi8ViGWtZKQbAkjRAaz0AliRJkiRJksZo687bFv8nSaePAbAkDZABsCRJkiRJkjQ+BsCShsAAWJIGyABYkiRJkiRJGh8DYElDYAAsSQNkACxJkiRJkiSNjwGwpCEwAJakATIAliRJkiRJksbHAFjSEBgAS9IAGQBLkiRJkiRJ42MALGkIDIAlaYAMgCVJkiRJkqTxMQCWNAQGwJI0QAbAkiRJkiRJ0vgYAEsaAgNgSRogA2BJkiRJkiRpfNZSAPzwww9Xxx98qDp29IHq6JEHqiNHjlWH7z96svA3r/M+wzH86WadtVYYAEvSABkAS5IkSZIkSeOzFgJgQsY8hOxb+ByfX2nWWWuNAbAkDZABsCRJkiRJkjQ+qzkArgPJw9MFknlhPCsRUFpng+C1ygBYkgbIAFiSJEmSJEkan9UYAHNL4Wl7onYVxrsctyy2zkvLctVZw2UALEkDZAAsSZIkSZIkjc9qC4AffujhYqA478J05sU6N5d51lnDZgAsSQNkACxJkiRJkiSNz2oKgI8/eLwYIi5XYXqzss7dZR511vAZAEvSABkAS5IkSZIkSeOzWgLgleqRmpdZeqha5/5lljprHAyAJWmADIAlSZIkSZKk8VkNATDPii2FhitVpnlWrXWevExTZ42HAbAkDZABsCRJkiRJkjQ+qyEAPnLkWDEwXKnC9CdlnScv09RZ42EALEkDZAAsSZIkSZIkjc/YA+CVfh5tU5nkObXWefoySZ01LgbAkjRABsCSJEmSJEnS+Iw9AD5yeP69Uu87dLjatm1Hte7GDdX69Ruqnbt2F4dLC/Xoa9o679q1p1q3bn316xvWnSwbNmyqDuw/WBy+q6xEnbvKbXtur3bu7J6/USap8yy43fTWrduqK355ZbVv3/7FV7WcDIAlaYAMgCVJkiRJkqTxGXMAvBy9Uu+5+1C1cdPN1fW/vqHasHFTtX7Dxuq6639dbd6ytTh8Wvr0Tp22znffdW914/oN1cYNm+pwmkJAecO6G6vNm28tfqZPWc469ynbt++s5/XWbduL75dKnzrPgvD3G9/6dvWIRz6q+q1HPLJ69GMfX13+iysW39VyMQCWpAEyAJYkSZIkSZLGZ8wB8LyfSVuHvxtvqgPfDQv/Hjx4T/361q3b6962e/feccpn0tLnGbXT1vmuhbrceOOG6pZbtrS+NmlZzjr3LYS/hMCE2qX389KnzrO46667q2f99d/U4W+U177+jdXRo0cXh9ByMACWpAEyAJYkSZIkSZLGZ6wBML00S+HgtCXCX4LeWzZvqdbduL7uXXvb3juq/fvvrF/fvmNn8bNpoV5NJqkzvXs3brrpN2WxbjesW9/+2mLZvfu24nhLZV51nqYw3/ctzN/NW26dKARuq/OsDIBPDwNgSRogA+Bhe+ihh+oDl8OHDy++onnjWSA/+vFPqo987BPV57/wpfrg+8EHH1x8t6qOHTtWXX3NtdVll1/RWg7ceWd176FD1S+vvKr4fhTeZ7jltlqWHerP9+D76IR0mf3KV89aODHc0/vkieE4WHWeSiewHmzesqVel1inuFVYvk5Nsm2/6eZbiu+nhWG0uhx74IF6u5oeP0hjRgPpu97zvupH5/148RVpOCY5FuZ13j/3h+fVw/Nv2/D5ccFPzr+guvfeexffPRXbfW7pyvCf+sxnF/bzv2gdfhJHjhypz0M5R6Xwf15rwntXXnV1XY8+dZ/EpHVhvnBezbDUhd/LZ3Aun7EGwPO8LXEa/u7Zs7d+7a6D99a3W2Yd5TbFvLdrYf3PP5uXttsTT1JnAmCmTShKPfKAt1RODr/wXXi2bmm8pTKvOvctt+/dV2266Za6rvS2TgvzmfdLn0tLW51nxTbeW0CvPANgSRogA+Dp/ec3v1VfUUaDXwnvc7DBSVgJzyF54pOfunDA9OvFV07gpPPnl11ePee5zz95sEJ53H99UvXJT/97defBg4tDzoZ6xbibyj+85p/qAI5p/sWz/rr+Tk04Uf6LZz67/jcw/B/+j6dVW7bcuvjKqRiGcc/6vZq+z5Oe8kfVhz/68ergwbsWhzyBk9Kzzj6n+t3fe2w9rz/0kY9Vr3ndG+oDw5f8/Suq/QcO1MPx+77yH15bf7dSefoz/qr67d95dD39bdu3V3/7whcXh6M87enPqJ78h3+8ZB7NGw0ab3zzW+s6xTxgupf87NIlgR91YPlrWj7Be+lvw7LAMpHOXwrzmEbCHTt31sMFftt8WObvy/7fq+qD76YAcv/+/fVvxjIfn2NdeN4L/q4OWUqfK/3+zAM+c+HFlyxplC/VKy//9oEPLQ49uZhP6frSVj8aorjQoAsnMT8490fVf3n87y9ZZh/zuCdUH/jQR1obYQL14DeYxzqn8ZtkXZhmmxH7jo9/8tONwVgMk64v02jaPsV6xjYnb+xlv8CV4KwTrEusU6xbj3zUY6ozPv+Fk3WeZNv+2TPOLA4The3aLNsXzQ/L3CzHKPfff3915he/XI8jXeb+/C+eWZ3/0wuK2/VY3kvr0Z7bbqv++m+eV+//+GxpX5K744599T71/R/8cB1CazazLhOrSZ/lT1ppkx4Lsx9nf855xFP/5M/q/TD/8ne6nw/33Xd/9a/ves8pxwVPeOKTqwsvuviU4wjOFzlv5FiDc8LYz3O8dNXV1ywONZ1bb91aj4+6POMvn1WX+hh+4TXey92yeXP1x3/65/U27J3vft/JujOvmGd53ScxaV127txV/c3zXlDPi7f+yzvq4x72jXxm1rqobKwB8LGjD5wSCk5TSuFvlNv33lG/TjBJwHrvPfcteb9UqFeTSeu8c9fuuhcyPZBL7+eFHsrr1q2vDt55V/H9pjJrnXft2lMMcyk337z55Hzbt+9AtWHxmcrUc+u2HfV3431uY804du/q13O5rc7zwLaGEJ4LcDnO1vIzAJakATIAnh4BLidY/Juj4e4Nb/rnuiGQK3BLaFD5q//9f+qeo4HeQ69/41vqk6X6auY9e+oTUUJIgq8XveRlczmhBA2FNF5F+fJXvlq9/JWvrg+M4jV2ahw08f+uBnoavjkJTMNNhmce/NMb31w3JJXMqyGNxlROLDnAi/pzUv6zS39ePfs5z60bVWkoDRdd/LP6hPjSn1+25CSUYRj23e/9t8bAIsWBL+O//fY7Fl9pRi+KV7zqH+vftE169TbhxAtf/LLqox//ZF3ntqu4Odn+s2f8ZfWmf35bHVgcP368Xr6+8KWv1EE3V0DGd50lAGZZiXlM2bRwIvXPb/vXukHl5ls218OC3zZfplimWbZpSEnrA/7PVfMs/y99+Sura391Xb3sM7/4HMEK79Ewk8/D0u/PZ773g3OrP3jqn9RXnsfvyfeIYSiMj5K+dui+++php1FqNC3Vj2WNRpC8fk0YB79Zvswyz9kWta2fYHo0xrz4pS9fE43X6jbJujBLAEyDX9PnYpiu5bdL0/Zp+44ddaCWbwNZ397xrvfW2/u8QYCwmP0D+48++m7b2Z49/0Uv6T1eLS+WuWmPUdjv0dDO/p/fk30tgTDbWZYztuvpxWQhlvd8fYhjDy7giuWotC/JcVzAd2AfwLKu2cyyTKw2fZY/aaVNeizM9jk/3+Nf/s738xwXcMFaflzA8GzX84t4GZ7zxXx42gE47iAk7XN+WMJ+4O9f8ao6hE7vHMX/eY330mMO9jUc48cFRCG+K/urtO6TmLQunKtyHpcPH/Pxvz3pKfU+VPM11gD46ByeS0vwSLBbCn8pBMAEsBs2bqoOHrz7lPdLhXo1mbTOe3bvPVG3hX9L7+eFEJVnAvNs4NL7TWXWOjNd5hFhblruPHDw5DA7d+6uvwvBL7fVXvL5zSfC3z49rKO01VnjZAAsSQNkADw9NvjPe8GLig0jBHE0DnFCRANgHiYRvhLScaVynIxysvaWt7292BgdONH8j699/ZSgbR74HjT0lBq8osGyrRGIk8pSAMzV0ISS3/7O9xZfXYph5tGQlgcPKeYn9Yj6x/ynR3XM/xS3qGrr3R3ixL9pPKk4eSbwa0LjMaEvJ8ZcuU3D7q+uu77+btzC6+3veFcdgDJMqbcnr3PCnYfE1I1QJG2ImCbMaWsMjDCF+Rq9kBiuaZniu9EYwboSCNNpjDnnG99q7B3M8Pw2eWDa9vtzGyUabfLe9oGr0ufZI680n2apH2KZbbowgd+enuosQyWxfWGbQ7g1j3VOq0/bujDNNoN/+ZuLDthf5mEYYpjSdmUSbdun2AamF12xLWG/wIUmuVjfaEjt0mfbHmhoZj507Vu0MlhWpjlGIWhl/5U3tKfoXf6qf3xtfRFX2jAey3u6HjUN27ZMg2lzsSG9q+jlNes6pJU9bs1xy+WmYx+2SW0XpnW9P42u5U9aaZMeC8c2snSext+8np63cFzAtr10kVac9599zjcWXzmxL/jT//m/iscR7OcJZDmnnAbjZNylC3tiuul5A+dVTYEz84r9FfNnGpPWhf83DR/z8Tvf/f7iK5qXsQbARyYMU/PSFf4SUk4a/lKoV5NJ60yIyrOI+z7PlyCW3syl99rKrHXumu627TsW1u8bFob7TW/gKLdu2Va/t3PH7iWvd5W2Os8L23i2yaX9hubPAFiSBsgAeHqcOBKmpCeOgZMwTm4IWjgByq+4pQGahmiGC/yfEKjr2YAcuBC0NQVr06KBp2mcfRromwJgxvnTCy6sG9NKt9SbV0NaW8AWjVgRbPB7Eaym4WOqb0DGiS3D9bmKmZNngsumK8EJ9J/57OfUJ+dNIR64PTKNxGkvIdBwyOtN4U1+4DvvABiczKfDty1T9IRleY/px9XirFNdB+cRmPI7hbbfn0ZRLsRoqndb6DWN0nxqqx+/C8tGU/0Qw6TbjBSfbRo/2yquuKchil5mbXXR2ta2LswSAHMbdrZPpVtBxzBty38fXdsn6kb9Yx9F6MZrae+UwDrz3n/7QK/tQte2PURDNBdxaRhYVlhmJjlGiWMwAtt0H1ySX3yGWN5jPWIcrBuML39URdcyHQ3vLIMcO+S9sDS5aZaJwLFbfktw7vzx/XN/eMqFAulyQO88biMf40x/dxqM2XfH+LhAkGCa5ZDtFA3eTe/nCJd5xAy91tPhuUsMFxXGd49jtq7lT1ppkx4L77399nobzLNqS3id9xmu9Hcq1of0uIB6UB/qVULo+vZ3vrvzvKbki1/+Sr1v4PwuF+d8DBPYB5TaJALnTG0XiraZtC7s+5iXpQukmD71cLsyf2MNgEuhYN/SN/zl2bs8Czh/v6s0KQ3bVg4cOLiwP79x4bhtZ/H9vBDC8mzd0ntdpUlp2Ly0BcDc0rkOfzdvKb5/xx37F9b9/s8rTstyYttHBwqOeZpuWa/5MgCWpAEyAJ4NJ375bZwjGOZEjJ0CQXB+9S9XxnKCGQFknFT2ve1w2+2np5U3/KSioartZK0tACbco8dm6ZZ6+cn6tPLgIdUVAKaY//x+fX4LGvJp0C+d4KYYT1tPYcJfrtrm9sel93M08NJYnH8fGhr6NgAvRwDMcp4OH79/aZli2f+jpz395PT5t+8twZifNKikjSqz/P5todc0SvOprX6xnWiqXx/0SGhq2CEwp3GZf9FWF61tbevCLAEwr7OdI1DJPx/DzLL8o2v7VNpfNyHM5W4cpV5Aqa5te4ptG9+z1CNGpwfLyqTHKKwHXIDUtWwEGsXTO8Gk6wT7am65zrLGxTm5rmWaYxD2HexDWL7Yp87zuHAtmmaZQNzCm3CVxkbe47V4zAMBSXpsFsvBu97zvjrEP+vsc04GJvG7v/mt/1L93Uv/vh4fF6oQMjFtGjI/89kzqit+eWU9zfR97qDCnVQ+9/kzl2yT2FZxAQ63wudfHpFBHbgYj0d4vO4Nb6qDYKYb37dr+ZOGJj8WZntYuhA78DrnX33uqhXBZdoDmO17us7kWHemCV3jPKft3IT3uFAt1nP+bgub2efwXUt3YmkzTV3acKE7bSDeAnr+1loAvNzhL6VJadi2wq2cuaXzllu3Fd9PC88yXr9hQx3Glt7vKk1Kw+alKQCu679+Q+/nJ+/YsWuiMHi5RBtLXPRG6dvequkZAEvSABkAzyZuIZne9ogGGA40ONHiRCi/vRTyE0auNKZhvOmK5hw7m1kDoxzjajqJjYaqtulxEt0UADPOaFDnWYkphskb0qbB/C6Nh8Y0njkbvR9z/EbMTz5HLxoa+3hGY2nYVPzOfRqB23oKcyLO9OgBEmgooBcJjRY09HGgSmPd175+drV12/Z6GOrK59KrzuMWypyI57eBzvE7zTMA5kCaXlFpIN62TLGs01gdYUjeSN4lD5ubfn9wwkK43PRdmV9tDRuTKs2nrvoRKPCbToP53XSLO5Zjlv302adtddHa1rYuTLPN4F/+5nWWP8KJ573g75Zst2KY0nZlEm3bJ7abBDPpepBi+0WdWF/YthAUl3or5/reBYJpsn7a6DAs6T6q7zEK+y6O10o9xEo4PuSxHXFsFMs7oR0BY1P4i7ZlmjCRC76iR3n8Pe0tPnXCNMsE+2AesZCHvIHecPQSJLSN7U8sB6XfP353LvQsBVPU5wlPfHJ9DFi6oIT6cXyV3uWG5Y3P8G+OnsFsmwmq47ujbfmThqZ0LNx1vBvrYdtxTWBdizsuhK7zh67pN+mz7qXbKnAXprbzKC5GSe+C0tc0dUnR/sH35zz2nP/8Zr1t4i4FpWMxzWYtBcArEf5SmpSGbSuH7r2/2rBxY69QN8JiLtAqvd9VmpSGzUtTALx16/Z6Xt++d98p7+Wlvt31uvW9n3dMWS6xjU8D4KZtlebHAFiSBsgAeDZxUpTe9ojGPhp0opcRJ3/p7aRKt0riZIwGwjRIbhPTnWdo1XbyFgdPbSd/fIe2ABiEnNwOL22wYphpTo5zzOff/p1H1/OaekQhQH3b29+5cDC6f3HIpWJexkHhBz/80Xpn3mWSZzm29RTmPYLTCAUisKNHBgf+/E2vDJ7vRyjBa6CO3DI57e3DyfRVV19T9/Z8xCMfVX+GwGPfvlO/O7/TtAEwz9LktSjRg4TGxXR8/LYvf+Wr68bPGJbv89Wzvl4PSyNNfG+W5bZbl+WYTtqQkdcVNGoSrtLwWurFE7oacCYV8yldX6gfyz7zKuYF4T/PdqbR9U1veWtj/bqwXhEg5yEU85be7DRMp8teaV5JaFsXptlm8C9/x2cIR7h7QSkIadu/9BHr3ZOe8kdL9gFsDwlSCO6anq8Z3419ANum835yfnX8+PHFd5v1vQsEQRLboWkv8tDymOYYhb/Z9/c5TkC+3sTyTojMPr3tVnSlfUngeDHf7tPAz/FDn+MSlU2zTMRdeWgcbcJvk1440Lbdi9+9qTdfXDTa1OMu3o9ljuMqjq84Fm66ACUew5F+97blTxqa0rFwfkySi/Uw1pUmcTyd32Wp6/whnX5MK84385KOp8+6l2+r2EYRrpYudOPci7sJxMVIMf5SPSiTbgfyuqSYBzFeAnTOUw1/l8daeQZwV/jLa7xHkElv2vz9vqXt2bST1plCfZpur5wWAlTq3/d20WmZtc6lALjukbx+Q3XzzZuXvN5UJg2A2+o8K7bdtLPFNoj2MS5A0fIyAJakATIAnh1BbvpcHP5OG21oiCGUjJNL/uYEMA17ORlbCwFwnECngRTDxMnxLJi/NMDRcH/Z5VecLNxWjxNietQ2NXyBBjJOnrmNMg1nbQ15Mf+j500bwlcuCCj1FKaRlga3aKxgnjBv6BWU1pX/03Msfc5U1KHUaEHIQc8PlkV6vXGwS+hCCBHyRukS3kt/m5hmHERHefRjH1+9+jWvq3bs3FkPF/ht82GpC43el/zs0iVhDMvyrAFwPi0Kdet6rnJXA86kYj6l60tT/WgM+ea3v9MZIDWhUYfli1A+bVDh/+lzf1P57yqFtnVhmm1G7DvSz3D7vz/+0z+v71iAGKZt/9JHrHeEIuk+gOCXC0BYT7qe+0TPGUJatsvs1/Nnsqbatu05vpvPZx0efheWGZYd9DlG4e95BMAcl3DMNE0AzPadC6jSuiMCgLZ1VO2mWSboedf2HFCwHBBOxbNIS9vG0PS7h67HWuTbVOpF/ahnG46V0u/eVQ9pKJqOhfNjklzbepii5zznmPEoldB1/pBOn3Me1kX+Xyppz90+6x7vpesr35tg4/97zOOq973/Q9Uvrvhl9avrrq/PgznXYP3/2xe+uN4WMSz7sFI9KLwX83GauuQYF9+d4yV+J7apPHdc8zXWAPjoBGHqSoW/FOrVZJI6R6nD1Q2biu+lZd++A9W6GyfrQRtl1jqXAuDoTd23PpMGwG11nge2NWwHuWCXdsK29kDNhwGwJA2QAfDsCG05uSPYjZOk9FbOHGQQCMdt+TgZpCEmfQ5hXK2ffq4NO5ux3QI65LfUY5i2k/O+2k7yaRggCOtzxR8nqaXblKYICDiZTnuENGnrkUNDIEFDnPSzLLFspEFtYD6lFxrEstbVaAFuf0odmFbcGjpvlC7J52lMs205SJV+/yaE1bPeAjrtYcu85bbPfdaprgacSZXmU9vyOa1o8OIZknmw1PS8VSxHXbQ6tK0L02wz+Je/08/k29gYpu92pUnb9olpckEE+80+z78r9VTO9e1tyfsMx/AaltI+qusYhX0K21aO2/pgv166BfSFF19SvfHNb62nxV0ySpqWaY4fuZAqX6aip6e3Gp/eNMtE6TO5fFuY/51q25ah6/0Yd7zfNq1U/j26piMNQduxMOcCXHCW3g49VXqUU47wl2Mftrf58QAXDbddvMq5yiQXDIW4W1jbLf15L5829SOkJuhgv0PhWeK3bN5c74P+79++sPe+K0xblyb59lTzM9YA+NjRB4rBYF4i/L3+1zdUO3ftPuX9eYa/FOrVpG+d07J58631rZ25xXPp/SgEpwSuBK+l99vKrHUuBcA7d+yutyt3Hji45PWmMmkA3FZnjZMBsCQNkAHw7GiII7SjYYVAkIbe/ESTE8AItzhJym/rFo0sfRvt4nZz6e1/Z5U3/KTYuXUFztSFULQrAAYNqM/4y2fVjZ4MkzakTYv53zaes8/5RvXKf3hta0/QQIjIuErPXuP34Xfq81vREJE+oy9HndKwhb+bbvnHezQ0BH4TAt2+ywDD0YARjRwso109hfid0nk6aWNg2zKVox4Etl3P0gTzh/mUzqv896cRhPCGRobSLbBTYwyAWXf4bgQIeYMXIT/PBuSCDJYZepSnhd6Qj//9/173lPz0v3+ueMGB1qa2dWGabQb/8nf+mbjdKL112IcyTN/tSpOu7RPBL/ud0jMwS+gt07TP6Nq2p+jxwrroejY8TfuotmMUjnHoydmn5zfyi5vSdYLliIZ1tuX5nRrQtEwzbZ73z/MU097ulI994lMTBdRaapplgr+7Qp5YbubRA7jr/Rh3vB9/d/UAZllNv3vXdKTTre1YGKx3rLel8znwOutGPF4nxXkEt5XmUUJNz6xl3Wg7t+TcLb14dxIcizXd5p3XeC89L+zC+d+LXvKy1u1Uk3nXhWGbxqfpjTUAPv7g8WIwmBcCRcLfKDu27zr53u7dt801/KVQryZ965wWbum87sYbqwMdQSqBKwEwQWrp/bYya52bngE8SZk0AG6rs8bJAFiSBsgAeHYRRhHsEvSWngfICSgNwByYcqLIcDkal2gc4vaYbZgez7IoNVDNgpPYpnFGrxJu2dR0shaNY2nvqqZxxnegcEuWtCFtWl0BG3WJW/TRMJreljvXdkU4IT9Bd59nOXb1FOaEOm1YawpfWJ5YrtLlhmWKE/noSc5vxK2EeaZsCY0kPAszvjMHLF2hPo2BacPGpI2BTb9/SQRCLGMR6jbhKlTWlTTIKf3+BC785m29+NA036dVmk9dy+ck6garhe3Je9//weIt1AgaeG50HvxGefFLX24ArKK2dWGabUYED6VtLesx26Q6IF0Ypu92pUnX9inqEiEI+yx6UaZ340i19dzpexeI2HZzu14bOoenaR/VdowS79FDvBQ4pNjvciyRLpP5OnHvoUPVa173hjokznunl5Zpps8x5zOf/Zzi9p1bf0ZvNU1ummWCY0WOSdouYPvpBRfWF9DEBaJt28aubVnfbV28H8fwbc8Ajota0u/eNR3pdOo6FkYct5TOu8F2srSf53bN3/3+D+ptKetu0/6bdZ9tfH7hN2L/39Zztk3bMUjcWST9XuxvOP5qCrtZj5suMu4yaV3yi0lyk/QYVn9jDYBZv0rBYF42b9la96A9ePDu6pbNW+pHyRCWngx/F/bB9BIufXaa0qZvndNCr+U+we6JoLi7p3CptOlT59MRAC83HrXCNuq3f+fR9TFc2+N9NB8GwJI0QAbA88FJzyte9Y/V697wpmJDSTSs0AjMAUip0ZgTRZ4xxpXMnMSVcNJGjyNu6dR0gjct6t12ssZJMrfRKl0lzfejMTTvFds2Tr4jgTGNmGlD2rTaAjamT6/HqF/Ma67KLjXgEgxwQl/qQcP87/MsR6bT1VOYoCVdXjghLl1AQNDJs2yjoZADeHrOpaEC/xKesnyVbknKVexpYMHwfJ4T+tKBcISnaQ+3SRsDu5apHCdyda+mb3xryfOBUzSyUC8autP52vT7c4sxehbnz+1KjSUA5je78KKL6+9DA3TTctWFes1jndPq07YuTLPNYBljWSuFHIyP7RghMBck9N2uNOnaPl119TVLQpq4mIdbQ1OXFOsWjQSlxlL+7tq2B6bF9+tzZwOtvLZ9VNsxCssOx0P0Ysr314F1hOOi/DijtE7Q+5dbohMEEwiH0jLNtAkSm3ogsyxzLFA6llC3aZaJ+J2ajinjFrUf/+SnT24z2raNXduyrvdj3On70Wu8dAcElhm2gxxnpt+9azrS6cDy2vdYmGE5bkkfgRPiwtPPff7MxVdOIExmG8q+m1CpTYSf+bOHwXkHd+si8JlGbOs5J83FeequXbsXX/lN4Fy66JVtEPXse+eK3KR14XyO8Ly0vYn5Tkis+RprAIwjHc+npVfv+g0bqptv3nzytU033VKvo/QGnnf4S326dNU5Lydv7Vx4dnFa+t4qOi/zqPNKB8B96jwLjslot/utRzzyZEnbz7Q8DIAlaYAMgOcjbu3GyWjTLXk50eGgI21cydHw9/o3vqUeD43oNDZxYkuPPnocccLECRUN2fPW1ugFDqBo3OJqa07o2OFRX05wqVfpFoZd4ySce8QjH3VK4+o0aERLnwEbhfrRqMpJeBqa839e4wpkPsNVyHwngu4nPPHJxVAgTvT79KyJcKGtpzDLRHrLrDhhPu8n59e/O4UTa+YhvTa5Ch2ECdziN79QgO9Bo/SrX/O6atv27XWIyrynoYTx5o0C0ShJT2LmE78n84Df99nPee4pjZmTNgZ2/f456nbZ5b+o5//LX/nqet6x7DMf+K5f+epZ9a3YSs/5agpYo85cANBUjzEEwDTsfPaMM+sGXC44oddiupxH6XM1PfWaxzqn1adrXZh0m8EyxrJWCjnANpXgi31j3+1Kk1jvaIhN1wnqzLjZBqYXjrC9YTvPOvXVs75e7d+/v37vtr17q/e87/2NF1r12baD8dPIYBA3XF37qLZjFPbD7G+jUZ1l+fjx4/VyxDHCHzz1T4q9epvWiVi30nWotC9h3ISQbXduYNns6pGqsmmXCZ6xyfLA8TDbRvbFjINtI8fN+bLQtByg9Lunut6Pcafvs21j+8cxFNs7jiFYXtneEUxzscIZn//Cku/eNR1ppU1zLMz5AwEl6ybbRt7nX45j8nNXtqusqxzPsP3Mx0thW59epMp52u/+3mPr8zmODxgf2+n8mGNSHENwPMM6y/nP7j176sJrfP/SeSrnkQzPBcXUg/qyPeK7Nl2g0sekdYntTZzTMs/4TThP5Ry11Gag2Y05AO66PfEdt++rw9Ndu/fUf++740B91zyW+XmHv5Q+tyXuc0vltNTB6I3r6x7LpfejTBvCzqPOKx0A96nzLNgGcjyUBsBtx3iaDwNgSRogA+D5IKTihJESz3nLcZsoThC7rnjlpPLnl11ePee5z68bmeJghZMuGpM5kFkOXY1e4Kpobi1LQB31osfAO9/9vrrRM9c1Tk7k6YmbN6RNg0a0qFNamG9cyU0jV446U3e+QwzPFd+cuJdO2DnJpyGv65a5caLc1VOYOtMgEcsMnzv3h+fVdaYu3KqGBgVCFhoRme+EEpw4czubEurGPOWzfb4TvZQ+9JGPLZkHTJ+wOH+m1aSNgX2WqRJ+F753zAcK6wJB0S+vvKrYO5h52bQc0fjBvCtduY4xBMBcZEJDSsyPplJqTM5Rr3msc1p9+qwLk2wzWMZY1tqWSxpvGFff7UqTWO/S9YHCtoP96YUXX3LKNpBtLr0H2LbE/pZ/2S5v2HjqxVx9t+2I3oLT9rjR8uvaR3Udo7C8n/nFL9cXk6XLHBejnf/TC4rBf9s6EXe4iIuc8n1J/N3Ve4EGCXrqp73x1c8sy0TpmJJjD5aRSbaN+e+e63o/xp2/z/aPY0GOCaN+1JWwiPrl371rOtJKm/ZYePfuPfUFv7Fu8i9/83qKZT0fV17ydZ9tMedo6Xk7+wTOl5tuTd1XrLPsU2L6/L/pnA4ETOkxTdPx2aQmrQvnapf87NIlw3NuyvOa8/mu+RhzAIwjh8shIYWLBzheJ/QlCObcgb+5LfS8w1/q0VdbnfOyf9/Buu7c4rn0fhQCWHo3l95rKvOqMwHwho2b6hB32kIPZ7ZDXQHwJHWeVhzHxDaIUrpLgubLAFiSBsgAeNg4oeKq2WiMacJBDDsgTki7Sp8egn0QWjLNeR9AnY7vcrrw29KTNw8mmQfM3zzoZHnoe/U2n2X8TRck5GK+9x1+pVCf/Gr7lcQyVlr28rIc64I0ZMu5zXC909hwnMa+qqlRXmvHpMdfp8PpPraSJM3X2APgtt6phKKEvgSoW27dVoeppeHmUSbpldrVozYtJ25jvbH+Hl3l1i3biuNoKvOqM+F0qT6TFnoA79t3oDiNKJPUeRZccMKd5R7zuCfUz4yf9k4I6s8AWJIGyAB4dShd3dZU+vQQPJ1W03fpg+/ArSK59bFBxvDw+5SWvbykvWYkzcb1TpIkSepn7AEwmp5Ry/NwJ30m7jRlmmfSNtW5VOitTHhd6jkb5c4Dk4Xby13n5SjT1FnjYQAsSQNkACydfldfc219uzBuO0oQzHPioocbz6DilqP5cwQlSZIkSdLathoCYC6GLwWGK1WmYZ0nL1rdDIAlaYAMgKVh4DlR3AqaZ0s+/Rl/VT+ziedHvvb1b6yfJTjrc6QkSZIkSdLqshoCYDz80OkJJ5nutKxz/zJLnTUOBsCSNEAGwJIkSZIkSdL4rJYAGJM8W3ceZR7Po7XO3WUeddbwGQBL0gAZAEuSJEmSJEnjs5oCYKxUD9V59ki1zs1lnnXWsBkAS9IAGQBLkiRJkiRJ47PaAmDwrNojR44VA8VZC+NdDtZ5aVmuOmu4DIAlaYAMgCVJkiRJkqTxWY0BcODWwUcOlwPGSQvjWYlbEVtnb/m8VhkAS9IAGQBLkiRJkiRJ47OaA+BQB5RT9lTlc6cjkLTOWmsMgCVpgAyAJUmSJEmSpPFZCwFw4JbFhIzHjj5QHT1y7JSwkr95nfcZjuFPN+ustcIAWJIGyABYkiRJkiRJGp+1FABLGi4DYEkaIANgSZIkSZIkaXwMgCUNgQGwJA2QAbAkSZIkSZI0PgbAkobAAFiSBsgAWJIkSZIkSRofA2BJQ2AALEkDZAAsSZIkSZIkjY8BsKQhMACWpAEyAJYkSZIkSZLGxwBY0hAYAEvSABkAS5IkSZIkSeNjACxpCAyAJWmADIAlSZIkSZKk8TEAljQEBsCSNEAGwJIkSZIkSdL4GABLGgIDYEkaIANgSZIkSZIkaXwMgCUNgQGwJA2QAbAkSZIkSZI0PgbAkobAAFiSBsgAWJIkSZIkSRofA2BJQ2AALEkDZAAsSZIkSZIkjY8BsKQhMACWpAFa6wEwB8oWi8VisVgsFovFYrFYLBaLxWKxrKayUgyAJWmA7AEsSZIkSZIkjc9KBjyS1MQAWJIGyABYkiRJkiRJGh8DYElDYAAsSQNkACxJkiRJkiSNjwGwpCEwAJakATIAliRJkiRJksbHAFjSEBgAS9IAGQBLkiRJkiRJ42MALGkIDIAlaYAMgCVJkiRJkqTxMQCWNAQGwJI0QAbAkiRJkiRJ0vgYAEsaAgNgSRogA2BJkiRJkiRpfAyAJQ2BAbAkDZABsCRJkiRJkjQ+aykAfvjhh6vjDz5UHTv6QHX0yAPVkSPHqsP3Hz1Z+JvXeZ/hGP50s85aKwyAJWmADIAlSZIkSZKk8VkLATAhYx5C9i18js+vNOustcYAWJIGyABYkiRJkiRJGp/VHADXgeTh6QLJvDCelQgorbNB8FplACxJA2QALEmSJEmSJI3PagyAuaXwtD1RuwrjXY5bFlvnpWW56qzhMgCWpAEyAJYkSZIkSZLGZ7UFwA8/9HAxUJx3YTrzYp2byzzrrGEzAJakATIAliRJkiRJksZnNQXAxx88XgwRl6swvVlZ5+4yjzpr+AyAJWmADIAlSZIkSZKk8VktAfBK9UjNyyw9VK1z/zJLnTUOBsCSNEAGwJIkSZIkSdL4rIYAmGfFlkLDlSrTPKvWOk9epqmzxsMAWJIGyABYkiRJkiRJGp/VEAAfOXKsGBiuVGH6k7LOk5dp6qzxMACWpAEyAJYkSZIkSZLGZ+wB8Eo/j7apTPKcWus8fZmkzhoXA2BJGiADYEmSJEmSJGl8xh4AHzk8/16p9x06XG3btqNad+OGav36DdXOXbuLw6WFevQ1bZ137dpTrVu3vvr1DetOlg0bNlUH9h8sDt9VVqLOXeW2PbdXO3d2z98ok9R5FtxueuvWbdUVv7yy2rdv/+KrWk4GwJI0QAbAkiRJkiRJ0viMOQBejl6p99x9qNq46ebq+l/fUG3YuKlav2Fjdd31v642b9laHD4tfXqnTlvnu++6t7px/YZq44ZNdThNIaC8Yd2N1ebNtxY/06csZ537lO3bd9bzeuu27cX3S6VPnWdB+PuNb327esQjH1X91iMeWT36sY+vLv/FFYvvarkYAEvSABkAS5IkSZIkSeMz5gB43s+krcPfjTfVge+GhX8PHrynfn3r1u11b9u9e+845TNp6fOM2mnrfNdCXW68cUN1yy1bWl+btCxnnfsWwl9CYELt0vt56VPnWdx1193Vs/76b+rwN8prX//G6ujRo4tDaDkYAEvSABkAS5IkSZIkSeMz1gCYXpqlcHDaEuEvQe8tm7dU625cX/euvW3vHdX+/XfWr2/fsbP42bRQryaT1JnevRs33fSbsli3G9atb39tsezefVtxvKUyrzpPU5jv+xbm7+Ytt04UArfVeVYGwKeHAbAkDZAB8LA99NBD9YHL4cOHF1/RvPEskB/9+CfVRz72ierzX/hSffD94IMPLr5bVceOHauuvuba6rLLr2gtB+68s7r30KHql1deVXw/Cu8z3HJbLcsO9ed78H10QrrMfuWrZy2cGO5pPHliWWaZZtlmeD7n82+k32DbsnnLlnpdYh3hVmH5OjXJtv2mm28pvp8WhtHqcuyBB+p9VXr8II0ZDaTves/7qh+d9+PFV6ThmORYmNd5/9wfnlcPz79tw+fHBT85/4Lq3nvvXXz3VGz3uaUrw3/qM59d2M//onX4SRw5cqQ+D+U4nsL/ea0J71151dV1PfrUfRKT1sVzkJU11gB4nrclTsPfPXv21q/ddfDe+nbLrKPcppj3di2s//ln89J2e+JJ6kwAzLQJRalHHvCWysnhF74Lz9YtjbdU5lXnvuX2vfuqTTfdUteV3tZpYT7zfulzaWmr86zYxnsL6JVnACxJA2QAPL3//Oa36ivKaPAr4X0ONjgJK+E5JE988lMXDph+vfjKCZx0/vyyy6vnPPf5Jw9WKI/7r0+qPvnpf6/uPHhwccjZUK8Yd1P5h9f8Ux3AMc2/eNZf19+pCSfKf/HMZ9f/Bob/w//xtGrLllsXXzkVwzDuWb9X0/d50lP+qPrwRz9eHTx41+KQJ3BSetbZ51S/+3uPref1hz7yseo1r3tDfWD4kr9/RbX/wIF6OH7fV/7Da+vvVipPf8ZfVb/9O4+up79t+/bqb1/44uJwlKc9/RnVk//wj5fMo3mjQeONb35rXaeYB0z3kp9duiREpQ4sf03LJ3gv/W1YFlgm0vlLYR7TSLhj5856uMBvmw/L/H3Z/3tVffDdFOru37+//s1Y5uNzrAvPe8Hf1SFL6XOl3595wGcuvPiSJY3ypXrl5d8+8KHFoScX8yldX9rqR0MUFxp04STmB+f+qPovj//9JcvsYx73hOoDH/rIKY0wO3fuqv7meS+o5+Nb/+Ud9Xf68794Zv0bMJ6mhi+tHZOsC9NsM2Lf8fFPfroxGOuzf+mjafsU6xnbnHyZZ7/AleCsE6xLrFOsW4981GOqMz7/hZN1nmTb/tkzziwOE4X1cZbti+aHZW6WY5T777+/OvOLX67HkS5zbGfP/+kFxe16LO+l9WjPbbdVf/03z6v3f3y2tC/J3XHHvnqf+v4PfrgOoTWbWZeJ1aTP8iettEmPhdmPsz/nPOKpf/Jn9X6Yf/k73c+H++67v/rXd73nlOOCJzzxydWFF118ynEE54ucN3KswTlh7Oc5Xrrq6msWh5rOrbdurcdHXZ7xl8+qC//nNd7L3bJ5c/XHf/rn9Tbsne9+38m6M69mPe6ftC6eg6y8sQbAx44+cEooOE0phb9Rbt97R/06wSQB67333Lfk/VKhXk0mrfPOXbvrXsj0QC69nxd6KK9bt746eOddxfebyqx13rVrTzHMpdx88+aT823fvgPVhsVnKlPPrdt21N+N97mNNePYvatfz+W2Os8D2xpCeC7A5Thby88AWJIGyAB4egS4nGDxb46Guze86Z/rhkCuwC2hQeWv/vf/qXuOBnoPvf6Nb6lPluqrmffsqU9ECSEJvl70kpfN5YQSNBTSeBXly1/5avXyV766PjCK19ipcdDE/7sa6Gn45iQwDTcZnnnwT298c92QVDKvhjQaUzmx5AAv6s9J+c8u/Xn17Oc8t25UpaE0XHTxz+oT4kt/ftmSk1CGYdh3v/ffGgOLFAe+jP/22+9YfKUZvShe8ap/rH/TNunV24QTL3zxy6qPfvyTdZ3bruLmZPvPnvGX1Zv++W11YHH8+PF6+frCl75SB91cARnfdZYAmGUl5jFl08KJ1D+/7V/rBpWbb9lcDwt+23yZYplm2aYhJa0P+D9XzbP8v/Tlr6yu/dV19bLP/OJzBCu8R8NMPg9Lvz+f+d4Pzq3+4Kl/Ul95Hr8n3yOGoTA+Svraofvuq4edRqnRtFQ/ljUaQfL6NWEc/Gb5Mss8Z1uUTo/lhHlI41Xa45zPMd//25OeUv9uWtsmWRdmCYBp8Gv6XAyTLr/TaNo+bd+xow7U8m0g69s73vXeenufNwgQFrN/YP/RR99tO9uz57/oJb3Hq+XFMjftMQrbTxra2f/ze7KvJRBmu85yxnY9vZgsxPKerw9x7MEFXLEclfYlOY4L+A7sA1jWNZtZlonVps/yJ620SY6FwfY5P9/jX/7O9/McF3DBWn5cEMfO+UW8DM/5Yj487QAcdxCS9jk/LGE/8PeveNUpx/H8n9d4Lz3mYF9D4BoXEIX4ruyv0rpPYtK6eA5yeow1AD46h+fSEjwS7JbCXwoBMAHsho2bqoMH7z7l/VKhXk0mrfOe3XtP1G3h39L7eSFE5ZnAPBu49H5TmbXOTJd5RJibljsPHDw5zM6du+vvQvDLbbWXfH7zifC3Tw/rKG111jgZAEvSABkAT48N/vNe8KJiwwhBHI1DnBDRAJiHSYSvhHRcqRwno5ysveVtby82RgdONP/ja18/JWibB74HDT2lBq9osGxrBOKkshQAczU0oeS3v/O9xVeXYph5NKTlwUOK+Uk9ov4x/+lRHfM/xS2q2np3hzjxbxpPKk6eCfya0HhM6MuJMVdu07D7q+uur78bt/B6+zveVQegDFO65Ravc8Kdh8TUjVAkbYiYJsxpawyMMIX5Gr2QGK5pmeK70RjBuhII02mMOecb32rsHczw/DZ5YNr2+3MbJRpt8t72gavS59kjrzSfZqkfYpltujCB356e6ixDYFx/+j//VzEQiG3Xd777/cVXpBPa1oVpthn8y98vfunL62UuD8MQw5S2K5No2z7FNjC96IptCfsFLjTJxfpGQ2qXPtv2QEMz86Fr36KVwbIyzTEK21X2X3lDe4re5a/6x9fWF3GlDeOxvKfrUdOwbcs04mJDelfRy2vWdUgre9ya45bLTcc+bJPaLkzren8aXcuftNImPRaObWTpPI2/eT09b+G4gG176SKtOHY++5xvLL5yYl/AsXbpOIL9PIEs55TTYJxNx/Ex3fS8gfOqpsCZecX+ivkzjUnr4jnI6THWAPjIhGFqXrrCX0LKScNfCvVqMmmdCVF5FnHf5/kSxNKbufReW5m1zl3T3bZ9x8L6fcPCcL/pDRzl1i3b6vd27ti95PWu0lbneWEbzza5tN/Q/BkAS9IAGQBPjxNHAtz0xDFwEsbJDb2IOAHKr7ilAZqGaIYL/J8QqOvZgBy4ELQ1BWvTooGnaZx9GuibAmDG+dMLLqwb00q31JtXQ1pbwBaNWBFs8HsRrKbhY4rfrU+dOLFluD5XMXPyTHDZdCU4gf4zn/2c+uQ8Gi5KuD0yjcRpLyHQcMjrTeFNfuA77wAYnMynw7ctU/SEZXmP6cfV4qxTXQfnEZjyO4W2359GUS7EaKp3W+g1jdJ8aqsfvwvLRlP9EMOk24wUn03Hz0UPPJurFE6wfNFA1jY9rU1t68IsATC3YWf7VLoVdAwz6/LYtX2ibtQ/9lGEbryW9k4J7N/f+28f6LVd6Nq2h2iI5iIuDQPLCsvMJMcocQxGYJvug0vyi88Qy3usR4yDdYPx5Y+q6Fqmo+GdZZBjh7wXliY3zTIR2LfmtwTnzh/fP/eHp+yL0+WA3nncRj7Gmf7uNBgTIsX4uECQYJrlkO0UDd5N7+cIl3nEDL3W0+G5SwwXFcZ3j2O2ruVPWmmTHgvvvf32ehvM8XAJr/M+w5X+TsX6kB4XUA/qQ71KCF3f/s53d57XlHzxy1+p9w2c3+XinI9hAvuAUptE4JwpDccnMWldPAc5PcYaAJdCwb6lb/jLs3d5FnD+fldpUhq2rRw4cHBhf37jwnHbzuL7eSGE5dm6pfe6SpPSsHlpC4C5pXMd/m7eUnz/jjv2L6z7/Z9XnJblxLaPDhQc8zTdsl7zZQAsSQNkADwbTvzy2zhHMMyJGDsFguD86l+ujOUEMwLIOKnse9vhtttPTytv+ElFQ1XbyVpbAEy4R4/N0i318pP1aeXBQ6orAEwx//n9+vwWNOTToF86wU0xnraewoS/XLXN7Y9L7+do4KWxOP8+NDT0bQBejgCY5TwdPn7/0jLFsv9HT3v6yenzb99bgjE/aVBJG1Vm+f3bQq9plOZTW/1iO9FUvz7okdC3YYeLTNj+ePs15drWhVkCYF5nO0egkn8+hpll+UfX9qm0v25CmMvdOEq9gFJd2/YU6xvfs9QjRqcHy8qkxyisB1yA1LVsBBrF0zvBpOsE+2puuc6ylj6iInQt0xyDsO9gH8LyxT51nseFa9E0ywTiFt6EqzQ28l76mAcCkvTYLJaDd73nfXWIf9bZ55wMTOJ3f/Nb/6X6u5f+fT0+LlQhZGLaNGR+5rNnVFf88sp6mun73EGFO6l87vNnLtkmsa3iAhxuhc+/PCKDOnAxHo/weN0b3lQHwUw3vm/X8icNTX4szPawdCF24HXOv/rcVSuCy7QHMNv3dJ3Jse5ME7rGeU7buQnvcaFarOf83RY2s8/hu5buxNJmmrq08Rxk+ay1AHi5w19Kk9KwbYVbOXNL5y23biu+nxaeZbx+w4Y6jC2931WalIbNS1MAXNd//Ybez0/esWPXRGHwcok2lrjojdK3vVXTMwCWpAEyAJ5N3EIyve0RDTAcaHCixYlQfnsp5CeMXGlMw3jTFc05djazBkY5xtV0EhsNVW3T4yS6KQBmnNGgzrMSUwyTN6RNg/ldGg+NaTxzlh4SpQZWfiPmJ5+jFw2NfTyjsTRsKn7nPo3AbT2FORFnevQACTQU0IuERgsa+jhQpbHua18/u9q6bXs9DHXlc+lV53ELZU7E89tA5/id5hkAcyBNr6g0EG9bpljWaayOMCRvJO+Sh81Nvz84YSFcbvquzK+2ho1JleZTV/0IFPhNp8H8brrFHdj2MF2WoXP+85v1fKeHUJ+GGq0tbevCNNsM/uVvXmd5I5x43gv+bsl2K4YpbVcm0bZ9YrtJMJM+AzjF9os6sd1n20JQXOqtnOt7Fwimyfppo8OwpPuovsco7Ls4Xiv1ECvh+JDHdsSxUSzvhHYEjE3hL9qWacJELviKHuXx97S3+NQJ0ywT7IN5hEse8gZ6w9FLkNA2tj+xHJR+//jdudCzFExRnyc88cn1MWDpghLqx34+vcsNyxuf4d8cPYPZNhNUx3dH2/InDU3pWLjt2BuxHrYd1wTWtbjjQug6f+iafpM+6166rQJ3YWo7j+JilPQuKH1NU5eU5yArZy0FwCsR/lKalIZtK4fuvb/asHFjr1A3wmIu0Cq931WalIbNS1MAvHXr9npe37533ynv5aW+3fW69b2fd0xZLrGNTwPgpm2V5scAWJIGyAB4NnFSlN72iMY+GnSilxEnf+ntpEq3SuJkjAbCNEhuE9OdZ2jVdvIWB09tJ398h7YAGISc3A4vbbBimGlOjnPM59/+nUfX85p6RCFAfdvb37lwMLp/ccilYl7GQeEHP/zRemfeZZJnObb1FOY9gtMIBWgIJKymRwYH/vxNrwye70cowWugjtwyOe3tw8n0VVdfU99K8BGPfFT9GQKPfftO/e78TtMGwDxLk9eiRA8SGhfT8fHbvvyVr64bP2NYvs9Xz/p6PSyNNPG9WZbbbl2WYzppQ0ZeV9CoSbhKw2upF0/oasCZVMyndH2hfiz7zKuYF4T/PNuZRtc3veWtjfXrwnpFgNwUQjHtWL5pvGIZseFFJW3rwjTbDP7l7/gM4Qh3LygFIW37lz5ivXvSU/5oyT6A7SFBCsFd0/M147uxjrBtOu8n51fHjx9ffLdZ37tAECSxHZr2Ig8tj2mOUfibfX+f4wTk600s74TI7NPbbkVX2pcEjhfz7T4N/Bw/9DkuUdk0y0TclYfG0Sb8NumFA23bvfjdm3rzxUWjTT3u4v1Y5jiu4viKY+GmC1DiMRzpd29b/qShKR0L58ckuVgPY11pwnrD3aHyuyx1nT+k049pxfF4XtLx9Fn38m0V2yjC1dKFbpx7cTeBuBgpxl+qB2XS7UBelxTzIMbrOcjyWivPAO4Kf3mN9wgy6U2bv9+3tD2bdtI6U6hP0+2V00KASv373i46LbPWuRQA1z2S12+obr5585LXm8qkAXBbnWfFtpt2ttgG0T7GBShaXgbAkjRABsCzI8hNn4vD32mjDQ0xhJJxcsnfnACmYS8nY2shAI4TaHpKRIM5w8TJ8SyYvzTA0XB/2eVXnCzcVo8TYnrUNjV8gQYyTp65jTINZ20NeTH/o+dNG8JXLggo9RSmkZYGt2isiF4k9ApK68r/6TmWPmcq6lBqtCDkoOcHyyK93jjYJXQhhAh5o3QJ76W/TUwzDqKjPPqxj69e/ZrXVTt27qyHC/y2+bDUhUbvS3526ZIwhmV51gA4nxaFunU9V7mrAWdSMZ/S9aWpfjSGfPPb3+kMkJrQqMPyRSjf1qDCeyw7LIcMz3rIM/+kVNu6MM02I/Yd6We4/d8f/+mf13csQJ/9Sx+x3hGKpPsAgl8uAGG573ruEz1nCGnZLrNfz5/Jmmrbtuf4bj6fdXj4XVhmWHbQ5xiFv+cRAHNcwjHTNAEw23MuoErrjggA2tZRtZtmmaDnXdtzQMFyQDgVzyItbRtD0+8euh5rkW9TqRf1o55tOFZKv3tXPaShaDoWzo9Jcm3rYYqe85xjclFpquv8IZ0+5zysi/y/VNKeu33WPd5L11e+N8HG//eYx1Xve/+Hql9c8cvqV9ddX58Hc67B+v+3L3xxvS1iWPZhpXpQeC/m4zR1yTEuz0GW31gD4KMThKkrFf5SqFeTSeocpQ5XN2wqvpeWffsOVOtunKwHbZRZ61wKgKM3dd/6TBoAt9V5HtjWsB3kgl3aCdvaAzUfBsCSNEAGwLMjtOXkjmA3TpLSWzlzkEEgHLfl42SQhpj0OYRxtX76uTbsbMZ2C+iQ31KPYdpOzvtqO8mnYYBeMX2u+OMktXSb0hQBASfTaY+QJm09cmgIJGiIk36WJZaNNKgNzKf0QoNY1roaLcDtT6kD04pbQ+eN0iX5PI1pti0HqdLv34SwetZbQKc9bJm33Pa5zzrV1YAzqdJ8als+pxUNXjxDcpJgqem2llLbujDNNoN/+Tv9TL6NjWH6bleatG2fmCa9Ythv9nn+Xamncq5vb0veZziG17CU9lFdxyjsU9KenF3Yr5duAX3hxZdUb3zzW+tpcZeMkqZlmuNHLqTKl6no6emtxqc3zTJR+kwu3xbmf6fatmXoej/GHe+3TSuVf4+u6UhD0HYszLkAF5ylt0NPlR7llCP85diH7W1+PMBFw20Xr3KuMskFQyHuFtZ2S3/ey6dN/QipCTrY71B4lvgtmzfX+6D/+7cv7L3vCtPWpYnnIMtnrAHwsaMPFIPBvET4e/2vb6h27tp9yvvzDH8p1KtJ3zqnZfPmW+tbO3OL59L7UQhOCVwJXkvvt5VZ61wKgHfu2F1vV+48cHDJ601l0gC4rc4aJwNgSRogA+DZ0RBHaEfDCoEgDb35iSYngBFucZKU39YtGln6NtrF7ebS2//OKm/4SbFz6wqcqQuhaFcADBpQn/GXz6obPRkmbUibFvO/bTxnn/ON6pX/8NrWnqCBEJFxlZ69xu/D79Tnt6IhIn1GX446pWELfzfd8o/3aGgI/CYEun2XAYajASMaOVhGu3oK8Tul83TSxsC2ZSpHPQhsu56lCeYP8ymdV/nvTyMI4Q2NDKVbYKfGGACz7vDdCBCm6VXIstR0+0itXW3rwjTbDP7l7/wzcbtReuuwD2WYvtuVJl3bJ4Jf9julZ2CW0FumaZ/RtW1P0eOFi6NKF/bo9GraR7Udo3CMQ0/OPj2/kV/clK4TLEc0rLMtJ8TINS3TTJvn/fM8xbS3O+Vjn/jURAG1lppmmeDvrpAnlpt59ADuej/GHe/H3109gFlW0+/eNR3pdOs6Fma9Y70tnc+B11k34vE6KY6Pua00jxJqemYt60bbuSXnbunFu5PgWKzpOJ3XeC89L+zC+d+LXvKy1u1Uk3nXxXOQ5THWAPj4g8eLwWBeCBQJf6Ps2L7r5Hu7d9821/CXQr2a9K1zWril87obb6wOdASpBK4EwASppffbyqx1bnoG8CRl0gC4rc4aJwNgSRogA+DZRRhFsEvQW3oeICegNABzYMqJIsPlaFyicYjbY7ZhejzLotRANQtOYpvGGb1KuGVT08laNI6lvauaxhnfgcItWdKGtGl1BWzUJW7RR8NoelvuXNsV4YT8BN19nuXY1VOYE+q0Ya0pfGF5YrlKlxuWKU7koyc5vxG3EuaZsiU0kvAszPjOHLB0hfo0BqYNG5M2Bjb9/iURCLGMRajbhKtQWVfSIKf0+xO48Ju39eJD03yfVmk+dS2fk6gbrBa2J+99/wcbb6GWN+TmJrlaX2tH27owzTYjgofStpb1mG1SHZAuDNN3u9Kka/sUdYkQhH0WvSjTu3Gk2nru9L0LRGy7uV2vDZ3D07SPajtGiffoId518Q37XY4l0mUyXyfuPXSoes3r3lCHxHnv9NIyzfQ55nzms59TPy4iL9z6M3qraXLTLBMcK3JM0nYB208vuLC+gCYuEG3bNnZty/pu6+L9OIZvewZwXNSSfveu6UinU59j4ThuKZ13g+1kaT/P7Zq/+/0f1NtS1t2m/TfrPtv4/MJvxP6/redsm7ZjkLizSPq92N9w/NUUdrMeN11k3GXSungOcnqMNQBm/SoFg3nZvGVr3YP24MG7q1s2b6kfJUNYejL8XdgH00u49NlpSpu+dU4LvZb7BLsnguLunsKl0qZPnU9HALzceNQK26jf/p1H18dwbY/30XwYAEvSABkAzwcnPa941T9Wr3vDm4oNJdGwQiMwByClRmNOFHnGGFcycxJXwkkbPY64pVPTCd60qHfbyRonydxGq3SVNN+PxtC8V2zbOPmOBMY0YqYNadNqC9iYPs+AjPrFvOaq7FIDLsEAJ/SlHjTM/z7PcmQ6XT2FCVrS5YUT4tIFBASdPMs2Ggo5gKfnXBoq8C/hKctX6ZakXMWeBhYMz+c5oS8dCEd4mvZwm7QxsGuZynEiV/dq+sa3ljwfOEUjC/WioTudr02/P7cYo2dx/tyu1FgCYH6zCy+6uP4+NEA3LVdgXtJwVertGGE7DTRSqm1dmGabEUFEKeRgfGzHCIEf//v/vfd2pUnX9umqq69ZEtLExTzcGpq6pFi3aCQoNZbyd9e2PTAtvl+fOxto5bXto9qOUVh2OB6iF1O+vw6sIxwX5ccZpXWC3r/cEp0gmEA4lJZppk2Q2NQDmWWZY4HSsYS6TbNMxO/UdEwZt6j9+Cc/fXKb0bZt7NqWdb0f407fj17jpWMClhm2gxxnpt+9azrS6cDy2vdYmGE5bkkfgRPiWPhznz9z8ZUTCJPZhrLvJlRqE+Fn/uxhcN7B3boIfKYR23rOSXNxnrpr1+7FV34TOJcuemUbRD373rkiN2ldPAc5PcYaAONIx/Np6dW7fsOG6uabN598bdNNt9TrKL2B5x3+Up8uXXXOy8lbOxeeXZyWvreKzss86rzSAXCfOs+CYzLa7X7rEY88WdL2My0PA2BJGiAD4PmIW7txMtp0S15OdDjoSBtXcjT8vf6Nb6nHQyM6jU2c2HLrQHocccLECRUN2fPW1ugFDqBo3OJqa07o2OFRX05wqVfpFoZd4ySce8QjH3VK4+o0aERLnwEbhfrRqMpJeBqa839e4wpkPsNVyHwngu4nPPHJxVAgTvT79KyJcKGtpzDLRHrLrDhhPu8n59e/O4UTa+bhi1/68voqdBAmPP9FLznlQgG+B43Sr37N66pt27fXISrznoYSxps3CkSjJD2JmU/8nswDft9nP+e5pzRmTtoY2PX756jbZZf/op7/L3/lq+t5x7LPfOC7fuWrZ9W3Yis956spYI06cwFAUz3GEADTsPPZM86sG3C54IRei+lyHiWupmeeEZLH8sSyy3ssIywfpfVV6loXJt1msEw2hRxguST4Yt/Yd7vSJNY7GmLTdYI6M27WhfTCEbY3bOdZp7561ter/fv31+/dtndv9Z73vb/xQqs+23YwfhoZDOKGq2sf1XaMwn6Y/W00qrMsHz9+vF6OOEb4g6f+SbFXb9M6EetWug6V9iWMmxCy7ZbiLJtdPVJVNu0ywTM2WR44HmbbyP6WcbBt5Lg5XxaalgOUfvdU1/sx7vT9OCbgGIrtHccQLK9s7wimuVjhjM9/Ycl375qOtNImPRYG5w8ElKybbBt5n385jsmPhdmusq5yPMP2Mx8vhW19epEq52m/+3uPrc/nOD5gfGyn82OOSXEMwfEM6yznP7v37KkLr/H9S+epnEcyPBcUUw/qy/aI79p0gUofk9bFc5DTY8wBcNftie+4fV8dnu7avaf+e98dB+q75rHMzzv8pfS5LXGfWyqnpQ5Gb1xf91guvR9l2hB2HnVe6QC4T51nwTaQ46E0AG47xtN8GABL0gAZAM8HIRUnjJR4zluO20Rxgth1xSsnlT+/7PLqOc99ft3IFAcrnHTRmMyBzHLoavQCV0V/4UtfqQPqqBc9Bt757vfVjZ65rnFyIk9P3LwhbRo0okWd0sJ840puGrly1Jm68x1ieK745sS9dMLOST4NeW0Nr4gT5a6ewtSZBolYZvjcuT88r64zdeFWNTQoELLQiMh8J5TgxJnb2ZRQN+Ypn+3zneil9KGPfGzJPGD6hMX5M60mbQzss0yV8LvwvWM+UFgXCIp+eeVVxd7BzMum5YjGD+Zd6cp1jCEA5iITGlJifjSVtDGZ+XTJzy6tL4yI91kueFba7oUTaCnXZ12YZJsRJ97pcpmj8YZx9d2uNIn1LuoUhW0H+9MLL77klG0g21x6D7Btif0t/7Jd3rDx1Iu5+m7bEb0Fp+1xo+U36zEKy/uZX/xyfTFZusyxzT3/pxcUg/+2dSLucBEXOeX7kvi7q/cCDRL01E9746ufWZaJ0jElxx4sI5NsG/PfPdf1fow7f5/tH8eCHBNG/agrYRH1y79713SklTbNsTA45uWC31g3+Ze/82NhlvV8XHnJ1322xZyjpeft7BM4X266NXVfsc6mx/H8v+mcDgRM6TFN0/HZpCati+cgK2/MATCOHC6HhBQuHuB4ndCXIJhzB/7mttDzDn+pR19tdc7L/n0H67pzi+fS+1EIYOndXHqvqcyrzgTAGzZuqkPcaQs9nNkOdQXAk9R5WnEcE9sgSukuCZovA2BJGiAD4GHjhIqrZqMxpgkHMeyAOCHtKulV0bMgtGSa8z6AOh3f5XTht6Unbx5MMg+Yv3nQyfLQ9+ptPsv4my5IyMV87zv8SqE++dX2K4llrLTs5WU51gVpyJZzm+F6p7HhOI19VVOjvNaOSY+/TofTfWwlSZqvsQfAbb1TCUUJfQlQt9y6rQ5TS8PNo0zSK7WrR21aTtzGemP9PbrKrVu2FcfRVOZVZ8LpUn0mLfQA3rfvQHEaUSap8yy44IQ7yz3mcU+onxk/7Z0Q1J8BsCQNkAHw6lC6uq2ptPXEGoLV9F364Dtwq0hufWyQMTz8PqVlLy9prxlJs3G9kyRJkvoZewCMpmfU8jzcSZ+JO02Z5pm0TXUuFXorE16Xes5GufPAZOH2ctd5Oco0ddZ4GABL0gAZAEun39XXXFvfLozbjhIE85y46OHGM6i45Wj+HEFJkiRJkrS2rYYAmIvhS4HhSpVpWOfJi1Y3A2BJGiADYGkYeE4Ut4Lm2ZJPf8Zf1c9s4vmRr339G+tnCc76HClJkiRJkrS6rIYAGA8/dHrCSaY7Levcv8xSZ42DAbAkDZABsCRJkiRJkjQ+qyUAxiTP1p1HmcfzaK1zd5lHnTV8BsCSNEAGwJIkSZIkSdL4rKYAGCvVQ3WePVKtc3OZZ501bAbAkjRABsCSJEmSJEnS+Ky2ABg8q/bIkWPFQHHWwniXg3VeWparzhouA2BJGiADYEmSJEmSJGl8VmMAHLh18JHD5YBx0sJ4VuJWxNbZWz6vVQbAkjRABsCSJEmSJEnS+KzmADjUAeWUPVX53OkIJK2z1hoDYEkaIANgSZIkSZIkaXzWQgAcuGUxIeOxow9UR48cOyWs5G9e532GY/jTzTprrTAAlqQBMgCWJEmSJEmSxmctBcCShssAWJIGyABYkiRJkiRJGh8DYElDYAAsSQNkACxJkiRJkiSNjwGwpCEwAJakATIAliRJkiRJksbHAFjSEBgAS9IAGQBLkiRJkiRJ42MALGkIDIAlaYAMgCVJkiRJkqTxMQCWNAQGwJI0QAbAkiRJkiRJ0vgYAEsaAgNgSRogA2BJkiRJkiRpfAyAJQ2BAbAkDZABsCRJkiRJkjQ+BsCShsAAWJIGyABYkiRJkiRJGh8DYElDYAAsSQNkACxJkiRJkiSNjwGwpCEwAJakATIAliRJkiRJksbHAFjSEBgAS9IAGQBLkiRJkiRJ42MALGkIDIAlaYDWegDMgbLFYrFYLBaLxWKxWCwWi8VisVgsq6msFANgSRogewBLkiRJkiRJ47OSAY8kNTEAlqQBMgCWJEmSJEmSxscAWNIQGABL0gAZAEuSJEmSJEnjYwAsaQgMgCVpgAyAJUmSJEmSpPExAJY0BAbAkjRABsCSJEmSJEnS+BgASxoCA2BJGiADYEmSJEmSJGl8DIAlDYEBsCQNkAGwJEmSJEmSND4GwJKGwABYkgbIAFiSJEmSJEkaHwNgSUNgACxJA2QALEmSJEmSJI3PWgqAH3744er4gw9Vx44+UB098kB15Mix6vD9R08W/uZ13mc4hj/drLPWCgNgSRogA2BJkiRJkiRpfNZCAEzImIeQfQuf4/MrzTprrTEAlqQBMgCWJEmSJEmSxmc1B8B1IHl4ukAyL4xnJQJK62wQvFYZAEvSABkAS5IkSZIkSeOzGgNgbik8bU/UrsJ4l+OWxdZ5aVmuOmu4DIAlaYAMgCVJkiRJkqTxWW0B8MMPPVwMFOddmM68WOfmMs86a9gMgCVpgAyAJUmSJEmSpPFZTQHw8QePF0PE5SpMb1bWubvMo84aPgNgSRogA2BJkiRJkiRpfFZLALxSPVLzMksPVevcv8xSZ42DAbAkDZABsCRJkiRJkjQ+qyEA5lmxpdBwpco0z6q1zpOXaeqs8TAAlqQBMgCWJEmSJEmSxmc1BMBHjhwrBoYrVZj+pKzz5GWaOms8DIAlaYAMgCVJkiRJkqTxGXsAvNLPo20qkzyn1jpPXyaps8bFAFiSBsgAWJIkSZIkSRqfsQfARw7Pv1fqfYcOV9u27ajW3bihWr9+Q7Vz1+7icGmhHn1NW+ddu/ZU69atr359w7qTZcOGTdWB/QeLw3eVlahzV7ltz+3Vzp3d8zfKJHWeBbeb3rp1W3XFL6+s9u3bv/iqlpMBsCQNkAGwJEmSJEmSND5jDoCXo1fqPXcfqjZuurm6/tc3VBs2bqrWb9hYXXf9r6vNW7YWh09Ln96p09b57rvurW5cv6HauGFTHU5TCChvWHdjtXnzrcXP9CnLWec+Zfv2nfW83rpte/H9UulT51kQ/n7jW9+uHvHIR1W/9YhHVo9+7OOry39xxeK7Wi4GwJI0QAbAkiRJkiRJ0viMOQCe9zNp6/B340114Lth4d+DB++pX9+6dXvd23bv3jtO+Uxa+jyjdto637VQlxtv3FDdcsuW1tcmLctZ576F8JcQmFC79H5e+tR5FnfddXf1rL/+mzr8jfLa17+xOnr06OIQWg4GwJI0QAbAkiRJkiRJ0viMNQCml2YpHJy2RPhL0HvL5i3VuhvX171rb9t7R7V//53169t37Cx+Ni3Uq8kkdaZ378ZNN/2mLNbthnXr219bLLt331Ycb6nMq87TFOb7voX5u3nLrROFwG11npUB8OlhACxJA2QAPGwPPfRQfeBy+PDhxVc0bzwL5Ec//kn1kY99ovr8F75UH3w/+OCDi+9W1bFjx6qrr7m2uuzyK1rLgTvvrO49dKj65ZVXFd+PwvsMt9xWy7JD/fkefB+dkC6zX/nqWQsnhnuWnDzlyyzLpqQyti2bt2yp1yXWKW4Vlq9Tk2zbb7r5luL7aWEYDRP7/3nsO2M8xx54YPGVfg7dd9/U+zymxWfTYxgNQxzL+NtI89F1LJzidd4/94fn1cPzb9vw+XHBT86/oLr33nsX3z0V6zW3dGX4T33mswv7+V+0Dj+JI0eO1Mf0nKNS+D+vNUnr8olPfaa64MKL5vbcy0nrAuYD84/5yLyhR6bbweUx1gB4nrclTsPfPXv21q/ddfDe+nbLrBfcppj3di2s//ln89J2e+JJ6kwAzLQJRalHHvCWysnhF74Lz9YtjbdU5lXnvuX2vfuqTTfdUteVdTstzGfeL30uLW11nhXbeG8BvfIMgCVpgAyAp/ef3/xWfUUZDTolvM/BxpVXXb34ylI8h+SJT37qwgHTrxdfOYGTzp9fdnn1nOc+/+TBCuVx//VJ1Sc//e/VnQcPLg45G+oV424q//Caf6obrZjmXzzrr+vv1IQT5b945rPrfwPD/+H/eFq1Zcuti6+cimEY96zfq+n7POkpf1R9+KMfrw4evGtxyBM4+Tzr7HOq3/29x9bz+kMf+Vj1mte9oT4wfMnfv6Laf+BAPRy/7yv/4bX1dyuVpz/jr6rf/p1H19Pftn179bcvfHFxOMrTnv6M6sl/+MdL5tG80aDxxje/ta5TzAOme8nPLl3SoEwdWP6alk/wXvrbsCywTKTzl8I8ftd73lft2LmzHi7w2+bDMn9f9v9eVR98NzVw79+/v/7NWObjc6wLz3vB39UhS+lzpd+fecBnLrz4kiWNDaV65eXfPvChxaEnF/MpXV/a6kdDFKFtF05ifnDuj6r/8vjfX7LMPuZxT6g+8KGPnGyEifU1ptP2G2ttm2RdmGabEcvixz/56cYGvxgmXV+m0bR9ivWMbU7e2Mt+gSvB2S6xLrFOsW498lGPqc74/BdO1nmSbftnzzizOEwUtmuzbF80f23HXeyL2CflYrnN14cNGzdWL335K5eM52+e94K6IawpbGja51Ef6tW0r8T9999fnfnFL9fHWvFZyp//xTOr8396Qa99i37jR+f9uD5GueOOfYuvtGO7xbaBbUSu7bf5/rk/LP42+TZU0lJ9j4UD+3H252xTn/onf1bvh/mXv9P9fLjvvvurf33Xe045LnjCE59cXXjRxadsxzlf5LyRYw3OCWM/z/HSVVdfszjUdG69dWs9PuryjL98Vl34P6/xXo79zB//6Z/X52Vv/Zd3LDmm4dhklv3BpHUBx13Mt/idOPbheCk9z9b8jDUAPnb0gVNCwWlKKfyNcvveO+rXCSYJWO+9574l75cK9WoyaZ137tpd90KmB3Lp/bzQQ3nduvXVwTvvKr7fVGat865de4phLuXmmzefnG/79h2oNiw+U5l6bt22o/5uvM9trBnH7l39ei631Xke2GYTwnMB7p7bxnub9DExAJakATIAnh4BLo06/JvjBOsNb/rnuqGHq11LaDT6q//9f5b0zqP30Ovf+Jb6xLG+mnnPnvpElBCS4OtFL3nZXE4oQU8RGpiifPkrX61e/spX1wdG8Ro7NQ6a+H9XAz0N35wEpuFmhAv/9MY3143zJQwzj8YuGs1oVOMAL+rPyeXPLv159eznPLf667953pIGvYsu/lndeHDpzy9bcjLPMAz77vf+W2NgkeLAl/Hffvsdi680o2HxFa/6x/o3bUPjBd+HZYdw4oUvfln10Y9/sq5z2xXlO3fuqv7sGX9Zvemf31Y3Rh4/frxevr7wpa/UQTdXQMZ3nSUAZlmJeUzZtHAi9c9v+9e6QeXmWzbXw4LfNl+mWKZZtmkQSOsD/s9V8yz/NKBf+6vr6mWf+cXnaLzgPRpm8nlY+v35zPd+cG71B0/9k/rK8/g9+R4xDIXxUdLX6IU1raYAOK8fyxqNWHn9mjAOfrN8mWWesy3K10+mUQoopDDJujBLAEwjYdPnYph8+Z1U0/Zp+44ddbiWbwNZ397xrvfW2/u8QYBGS/YP7D/66LttZ3v2/Be9pPd4tfziuIvtMMsHYSz7To5/4riL/U7eYyCW23S55oI+9m1szzkmYDy37d1bved976+Xp3wcsc/jMxwn0eOD5Zjjs3Sfx0VdpWWLfS+N/RyDsEyxvyd0ZN/Cd+E72dA+GbZDHLeyb+7C+ky4z3YxPfZF/DYsPyxHbEfZ5tATL34bLkzJg+Z8GyppKdaRSY6F2Tbm53v8y9/5fp51lAvW8uMChme9zS/iZXjOF/PhaQfguIOQtM/5YQnb/L9/xavqEDq9cxT/5zXeS/cLbFuoB9PNg162R6V509ekdQHHXrQL/PSCC5f8TgzHuS317Drv0WTGGgAfncNzaQkeCXZL4S+FAJgAdsPGTdXBg3ef8n6pUK8mk9Z5z+69J+q28G/p/bwQovJMYJ4NXHq/qcxaZ6bLPCLMTcudBw6eHGbnzt31dyH45bbaSz6/+UT426eHdZS2OmucDIAlaYAMgKfHBv95L3hR8WSKII4GHE6IaHzLwyQa9wjpuFI5Too4WXvL295ebIwOnCj9x9e+fkrQNg98DxrPaXzMRUNn24kjJ8SlAJiroQklv/2d7y2+uhTDzKOxq63RjPlJPaL+Mf/pUZ2elAZuKdbWuzvEiX/TeFJx8tzWqEjDLaHvf3vSU6p3vvt9deD7q+uur78bt896+zveVTcGM0zpllu8TnCah8TUjVAkbYiYJswpBZuBeUGYwnxl/oLhmpYpvhuNo6wrgTCdxphzvvGtxh5PDM9vkwembb8/jeo02uS97QNXpM+zR15pPs1SP8Qy23RhAr89PdVZhgLTYpptv7GUalsXptlmxDL44pe+vN5floKoGKa0XZlE2/YptoHpRVdsS9gvcKFJLtY3Gii79Nm2BxqamQ9d+xatDJYZgte2kDQa8ln201t359vXWGbYD+bb6Ng/5o3kfJbxsuw0HUNEwz3Hi+l4aVxnH1pq7A/0cH/VP762bmzPG+dVxvaDAJhgt2s95cIPehHyG6bHvtz1huP0Uu/CwHEpx/v8PvkykW5DJf3GpMfCbBu5ILt0nsbfvJ6et3BcwHa1dJFWnPeffc43Fl85sR3+0//5v4rHEXGBCOeU02CcjJtp5GK66XkD51Wcb++9/fbFV5b64pe/csp5Ql+T1gX8Fk2/E+NjO9dUV01nrAHwkQnD1Lx0hb+ElJOGvxTq1WTSOhOi8izivs/zJYilN3PpvbYya527prtt+4464L3llt/0Bo5y65Zt9Xs7d+xe8npXaavzvLCNZ5vcdEym+TIAlqQBMgCeHieONMilJ46BkzBOEuntwUlR2jAEGqBpiGa4wP8JgbqeDciBCw2JTcHatNrCuj4N9HzHUgDMOLn6l5PS0q2gGWYejV1tjWYRDESwwe9FsJqGjyl+tz514qSX4Wig7cLJLsFl05XgBPrPfPZz6hPmtpNzeifRmJv3CDp69Gj9elN4kx/4ThPmtAUs+M53v79k+LZlip6wLO8xfUJrwuu8kbskAtO0N1Xb788FGDTwN9W7LfSaRmk+tdWP34Vlo6l+iGHSbUaKz+bj5/+81vYbS6m2dWGabUYsg9yGne1T6VbQMUzb8t9H1/aJuqVBDeEYr6W9WQL79/f+2wd6bRe6tu0hGqK5iEvDEMdd6XFLSeyf+P0ibM23r13bcZZPhomLm2KcfXpBUU960bOsIY4D8/CwJL8ATu2YTxyLMc9KIVBgvhPov+LVr1myXYnfpunYJ8WxzON//78vuXgk34Y24ViQW6qyXBBYE0SzPHEL8nzZDHGrc3qM8xkKFxxylxguKuS796m3dLpMeixMwMi6zLNqS3id9yOIzP9OxTFGelxAPagP9Sph+/72d767cxtfQmDLcRPnd7k452OYwDlY6aLzwLyhbYIG60lNWhfqwPYo3wYF5gfzbJr5omZjDYBLoWDf0jf85dm7PAs4f7+rNCkN21YOHDhYrbvxxopbO5fezwshLM/WLb3XVZqUhs1LWwDMLZ3r8HfzluL7d9yxf+GYs//zitOynGgvogMFxzxtt6zX/BgAS9IAGQDPhhO//DbOEQwT5LFT4GQrv/qXq2Q5wYwAMk4qm66UzbXdfnpabQ0/fRroafxqCoBp6KTHZulW0PnJ+rTaGs26AsAU85/fr89vQUN+2iDchPEwvqaewoS/9M7lVpCl93M0PNLwm38fGhryHkZN+J3mHQCznKfDx+9fWqZY9v/oaU8/OX3+pSGyT5jO/KRBJW1UmeX3bwu9plGaT231i+1EU/36oEeCPYA1q7Z1YZptRroMsp3jQqD88zHMLMs/urZPpf11E8Jceue1BUDo2ran2LbxPUs9aLTyYnlhf99nv5vLt6/RCN73OI7P9QmfS/gMn+1aPgMN823BgH6D7QfLxZe+8h+Nxy+ICz8IXdIAOH6bfDvXF59Lt6Elt2zefPLW3zRsMiw92LlTDBedfvf7P1iybIJlkgtwuBU+/3KLcT7HxXg8wuN1b3hTHQS3fWdp6PJjYc6TSxdiB17n/KvPXbUYJ+NOewCzbW1bZ9ieTNPrNs5z2s5NeI8L1WL/1XaMwfg4R+y7f0pNUxfO8TiGYvvChSf8fe4Pz6sfAcSFL5PWQf2stQB4ucNfSpPSsG2FWzlzS+ctt24rvp8WnmW8fsOGOowtvd9VmpSGzUtTAFzXf2Hd7fv85B07dk0UBi+XaGOJi94o02wHNRkDYEkaIAPg2XBCQ5Cb3vaIK1o50KDhhROh/PZSyE8YudKYhvGmK5pz7GxmDYxy0ehVOont00DPSXRTAMw4o0GdW+alGKarsauPpkYzwllOOLkNV/6sNfAbMT/5HA16hNQ8o7E0bCp+5z4NsG09hWm0Y3o8iyrQUHDmF79cN1pwxSIHqjTWfe3rZ1dbt22vh6GufC696jxuocyJeH4b6By/0zwDYA6k6fWSBuJtyxTLOgFwNFRM2kCdh81Nvz84YSFcbvquzK+2ho1JleZTV/1oMI7eXZOKnoV5CMW0mGbbbyyl2taFabYZ6TLIssnt3XnuZbrdimFK25VJtG2f2G4SlqTPAE6x/aJObPfZthAUl3or5/reBSKOBWx0GI64CKnvcVeutH3l+IaA7atnfb3uUdmGiwSnDWWpc9utPnMco3JL4vT4TGVx3MI2g4C3tF+OfS4XAfL7pwEw249Jfptcvg3NxXaOiw1KF/vR4/vvXvr39XKYLpsExTxrOr1zSiCgYdtMb+KmYzZp6ErHwl3rU2k73oT9Pedl6Tah6/yha/pN2o5nQmyrYn3l2ILjFtZ/tl8xD9gXsU9iu8TFI5Oapi5sD1/44pfVwforXvWP1ZOe8kf1+7zGeS0XsExTF7VbSwHwSoS/lCalYdvKoXvvr+/Q0SfUjbCYCyhK73eVJqVh89IUAG/dur2e17fv3XfKe3mpb3e9bn3v5x1Tlkts49MAON1WaXkYAEvSABkAzyZOitLbHtHQRtAZvYw4+UtvJ1W6VRInSjTO5c/PaRLTnWdolZ+8peLgqe3kj+/QFgCDkPPP/+KZS65OZphpTo5zzOff/p1H1/OaekThRPNtb3/nwsHo/sUhl4p5GQeFH/zwR+udeReCXwLgNMho0tZTmPcITiMUIIAgrKZHBgf+/E2vjOc89/l1KMFroI7cXivtBc7J/lVXX1M97enPqG8HyGcIPPbtO/W78ztNGwDzLE1eixI9SGhcTMfHb/vyV766bpCMYfk+NEQwLI008b1Zlku3U2/CdNJG17yuoFGTcJVG3FLv89DVgDOpmE/p+kL9WPaZVzEvosfOHzz1T6o3veWtjfXrwnpFgJyHUEyDeZL+JlKbtnVhmm1GvgzG3Qs+89kzTjZOxjBt+5c+Yr2joTHdB7A95I4ZhGZx+91cfDf2AWybzvvJ+dXx48cX323W9y4QXADVFCbp9OA3n+S4K1favrJ8cTtfLjjieISAl2186YKsSfd5KdYVjj/6HKugz7qrE5i3bEe4EK/poo20px3zND0WmfS3yeXb0BzLK9OjIbYJ2zqOAeP3ZhljWeNYuOkClLglOd992mMR6XQqHQt3rU+l7XgJ6w13i8jvstR1/pBOP6YV55t5ScdTOo/IxbYqXV85bmEf9MhHPWbJuAmF03PBGH86TFrS8U5TF7aHnINyvMc+MD32YttKb2HOdZueva/prJVnAHeFv7zGewSZ9KbN3+9bZn2ebl6oT9PtldNCgEr9+94uOi2z1rkUANc9ktdvqG6+efOS15vKpAFwW51nxbabdrbYtnFs9O3vfG/xXS0XA2BJGiAD4NkR5KbPxeHv9Na0BL+EknFyyd+cAKaNjpM2RMbJWNtJ56RKJ5IhTlrbTv74DjS2RyMY8nHGCfRb3vb2kw3mDBMnx7Ng/tLIT8P9ZZdfcbKcdfY5dS8fetQ2NXyBBjIa87hFFldJtzWuxfyn8b8LJ9xNtxIlPKbBLRormCfMG26XndaV/9MImT5nKupQarTgRJveTSyL9HrjYJeT8PQZlfxOk4Y5Mc20kYBCr5FXv+Z11Y6dO+vhAr9tPix1Ici+5GeXLmkQmLQxnLqlja78nU+LQt26nqvc1YAzqZhP6frSVD96E3zz29/pDJCaEKizfBHKR6AWYr1t+42lVNu6MM02o7QM8px7en9wxwLEMG37lz5ivaNhMd0HEIZwAQjrSddzn+iNSUjLdpn9Os8JbtK2bc/x3frenl8rg+V53gFwYJ+96aabq0//++fqCxAIg9mHp8+bnnSfl2J5MgBeHsxbtiNsT0o9/Plt01upMk/TY5FJf5tcvg3Nccvp9FiwJHq3x+/NsHyGz7bhWCm+uzQmTcfCXetT23Y8Rc95zjG5qDTVdf6QTp9zHtZF/l8q6d0gSucRuXRbBXr6co7NxabciYB5wnjZx3GRLvui6HXLPGIbldchCu/FfJymLrHPKZ2bgPNRbr1NPTU/Yw2Aj04Qpq5U+EuhXk0mqXOUOlzdsKn4Xlr27TtQrbtxsh60UWatcykAjt7UfeszaQDcVud5YNtIeyAX7NJOmLaxaXkYAEvSABkAz44TK07uCHbjJCm9pSAHGQTCNKyAk0EaYtLnEPLZ1X4L6JDfCpph2k7O+2o7yeckmCuN+1zxx4lq6TalKQICgru0J3MTrsRm2qVxXX3NtXXQECf9LEssG2lQG5hP6YUGsax1NVqAW4FRB6YVPZH6NAjn8zSm2bYcpEq/fxPC6llvAZ32sGXe0gurzzrV1YAzqdJ8als+pxUNXv/6rvcUgyWmxTT7LCMS2taFabYZpWUw38bGMH23K03atk9Mk7shsN/s0+Ok1FM517ZtT/E+wzG8hmPS465c3+0ryw8XO3DRQ3q3j0n3eSnqPMlthjm28BbQ/aTHLfxWBL3pLWXzUJjfPw2AJ/1tcvk2NNfnuCpfNvsuq33GLQ1N27Ew5wJse7kooqT0KKcc4S/rOPvw/HiAi0HaLuThXGWaC0LibmHRdlDCe+m0Oa9mPpTOIal317ltk2nqwvaQ8+T0LlWpaBuZ57mXxhsAHzv6QDEYzEuEv9f/+oZq567dp7w/z/CXQr2a9K1zWjZvvrW+tTO3eC69H4XglMCV4LX0fluZtc6lAHjnjt31xS93Hji45PWmMmkA3FZnjZMBsCQNkAHw7AhyCe1oWKFhiIbe/ESTE8Bo6OMkKe0hjGi4Lt1qroQTKq5EbjqxmkZbww87t67Ambpwspc2MDaNkwYyrvzl1sAM09bY1VdXo9nZ53yjeuU/vLa1J2ggRGRcPLsoFw2CfX4rGiLo9dXUU5g6pSe//J0vG4H3aGgI/CYEun2XAYajASMaOfIeIiX8Tuk8jeW0bTlItS1TOepBYJv2tGnC/GE+pfMq//1p7CC8oTGkdAvsVFvoNY3SfOpaPifFusN3e+Ob39rYq5BpMc2231hKta0L02wzmpbBuN0ovUPYhzJM3+1Kk67tE8Ev+53SMzBL6C3XtM/o2ran6CHMxVGlRlmdPrG80GMqb9TvY9LtK+sG608cH/I5blc6TSjLZ/hsn97nmCVsXmvy4xbCe+6kEutvftt3fsc0AI7fpu9ykeNz6TY0R/26egDHxQ1Rh1hWu3oAs5z0PWaThqDrWJj1kf1+6XwOvM66EY/XSbFf4LbSPEqIC4hL+wnWx7ZzS87d0ot3J8GxGHc0KU2X13gvzgsjpGUdbsJ3JAxvC7ubTFIXsM352xe+uHG+o+14U9MZawB8/MHjxWAwLwSKhL9RdmzfdfK93btvm2v4S6FeTfrWOS3c0nndjTdWBzqCVAJXAmCC1NL7bWXWOjc9A3iSMmkA3FZnjZMBsCQNkAHw7CKMItgl6C09D5ATUBqAOTDlRLF0yyMaB2k04vaYbZgevUjm3UiTN3qluKKXK3vbGkoj1E17VzWNM74DhVuytDV29TVJoxmNY+ltuXNtV4QT8hN093mWY1dPYU58qVdoOhlmeWK5SpcblqkXveRlJ3uS8xtxK2GetVRCIwm3/4rvzAFLV6hPQ0LasMHvyO/Z9plU0+9fEoEQy1iEuk24CpV1JQ1ySr8/Dbb85m29+DDvRojSfOpaPidRN1gtbE/e+/4P1rc1asK0mGbTci7l2taFabYZbcsg6zHbpDogXRim73alSdf2KeoSIQj7LG5Hn96NI9XWc6fvXSBi2532INRw9D3uiv1TenyXL9uEqzyvnx5nJdzOj+U9gsJJ9nnUk8cZxHFHHEPRS73pAqDAvp/jmVnXr7WC+ZQet8Q6TPDLxWRsE/JjjzQAnuS3YRv4+N//70vuDtB1rMBxKdPjfKIJ29RJnwEcF7X0PWaTTrc+x8Jx3FI67wbrXmk/z+2av/v9H9Tr2k8vuLBx/836yPY1v/Abse1o6znbpu0YJO4sEt8rjn8InJvkF4ZMYpK6ILY57LtKor5tgbUmN9YAmPWrFAzmZfOWrXUP2oMH765u2bylvkCLsPRk+LvpprqXcOmz05Q2feucFnot9wl2TwTF3T2FS6VNnzqfjgB4ufH4H7ZRPI6F47O2x/toPgyAJWmADIDng5OeV7zqH6vXveFNxUa2aFihEZgDkFKjMSeKPP+VK5lpsCuh4YZGKG7l13ZV7TTyRq8cJ8lcOVy6SprvR2NX3iu2bZx8RwLjZz77Oa2NXX21NZoxfZ4BGfWLec3V0qUGOk5YOaEv3cKP+d/nWY5Mp6unMEFLurzQSJA2MAcaG2n8jZN2DuDpOZeGCvxLQzLLV6lnCFexp4EFw/N5TuhLB8IRnqY93OKEvbSMl3QtUzlO5P7L43+/vk1Z+nzgFI0s1Ct/TnLT788t0ehZnD+3KzWWAJjf7MKLLq6/DxdONC1XgWkxzWkae7Q2ta0L02wz2pZBxsd2jFCMEKTvdqVJ1/bpqquvqcO+uMtAXMzDraGpS4p1i0aC0h0Z+Ltr2x6YFt+vz50NtPLi2KDtuIv9MT2buOtKetyVL9ux/JX24Sxf7Nfy/TOf7drnseww7Xyfx/LLMRl1y6cXWE85Nms61tGpSsctBKps9wgr8uM/fsM0AMaWLbfWv1nbb8PyxnKX/zaMr+1YgWGpQ9Nvyu1wqWsaAIPvwLJWugMCyyfbQY4zJzlmk04Hlte+x8IMy3ELF9vEI3BCXITzuc+fufjKCfEsXfbdbRdaIMLP0rNuOe9gO0DgMw228dw1ohSixnnqrl2767+ZNnUu7X8Cn2m7HXabSeoSOP9i/t5996nnpHEhb5+LqdXfWANgHOl4Pi29etdv2FDdfPPmk69tuumWeh2lN/C8w1/q06Wrznk5eWvnwrOL09L3VtF5mUedVzoA7lPnWcQx02894pEnS9p+puVhACxJA2QAPB80/HAiw8lo0y15aTjioKOtceXeQ4eq17/xLfV4aESngYgTW3qWcJLEiRQNTTRkz1tXWMcBFA1OXG1NAxI7POrLSRz1oiGLhqdU1zg5OaSRatZgDDR0pc+AjUL9XvO6N5zSeMv/eY0rlPkMVyvznQi6n/DEJxdDgTjRT3trNIlwoe3klmUivWUWASi/73k/Ob/+3SmcWDMPX/zSl9dXoYMG4ee/6CWnNFjH7b1e/ZrXVdu2b68blJn3NJQw3rwnbDw3i57EzCd+T+YBvy+3PMwbGBkXdekb1HT9/jnqdtnlv6jn/8tf+ep63rHsMx/4rl/56ln1rdhKz/lqajSNOtPI31SPMQTANOh89owz6wZcLjih12K6nEdhOQ78nQYUUpeudWHSbUbXMsg2lWfSsW/su11pEusdDbHpOkGdGTfbwDREY3vDdp516qtnfb3av39//d5te/dW73nf+xsvtOqzbQfjp5GhrUFWp19+3LV7z576dposm7+88qp6WS8dd5WWbf7P/ovlhwsiWAZYPwh46233wjFPqrTPY3h60FMPtvlN+zxwLMA+n+MSAj7qfPz48XpZ5jjlD576J/Wtn/s891onlI5bmK8ccz3yUY855fiP35zlIw2Akf82LC8sV2yP2O40/TaMr3QsSx3iIoE4fuXYm+0w+33qy3aY8JdegPmyybaN7R/LE9s7jiFYVtjeffyTn64vFDjj81+Y6JhNWmnTHAtz/kBAyfrCNpb3+Zdte37uynab9ZLjGdbhfLyUdF0E52m/+3uPrc/nOD5gfGwn8mOOSbF/4HiGdZbzH/YJFF7j++fnqVx4wnHLJz71mSW3pGaYeA496/o09Zm0Loh2A47x2Jcy79jecY4767xR2ZgD4K7bE99x+746PN21e0/99747DtR3b2HZnnf4S+lzW+I+t1ROSx2M3ri+7rFcej/KtCHsPOq80gFwnzrPgu0Ox0NpAOxxzvIzAJakATIAng9CKk4Y256xxm2iOEHsut0RJ5U/v+zy6jnPfX4djsbBCiddNCZzILMc+oR1XBXNLQ5pKI160WPgne9+X93gmOsaJyfy9MTlwGzW70VDV9QpLcw3roqmkStHnak73yGG54pvTtxLJ6Wc5Pd5lmOcKHf1FKbONEjEMsPnzv3heXWdqQu3qqFBgQZqGvaY75zc02DB7WxKqBvzlM/2+U70EPrQRz62ZB4wfcLi/JlW/I78nn2Dmj7LVAm/C9875gOFdSEaEUo9pZiXTcsRDaTMu9KV6xhDAEzjMg0mMT+aStrgGyc96WtSmz7rwiTbjD7LII03jKvvdqVJrHfp+kBh28H+9MKLLzllG8g2l94DbFtif8u/bJc3bDz1Yq6+23bQ6MxdLgh/NGxtx13si0rHN03LNo3wLD/peAgT2IfnDeShaZ9HfahXaZ8XWOfO/OKX60AwPkshRDz/pxd48cGEmo5bOIbi2IvbQKf4/UsBMNp+m++f+8Pib8P40mGj5McPu3fvqZ97mh7rETazPSMUKy2bbP/4HhwTxmfY9nL3Geo67TGbtFKmORYG6wsX/MZxC//yN6+nWAfyceUlXxfZrrN9T/cfrPOcL7c9pqWPWGfZZsT0+X/TOR0Xh7C/YbtA6M0565Oe8kf192VbNMv+YNK6oLQNZPvTtP3TbMYcAOPI4XJISOGiKPZvhL4EwZw78De3hZ53+Es9+mqrc1727ztY151bPJfej0IAS+/m0ntNZV51JgDesHHTwnHpnVMXejgTdHcFwJPUeVqlc8OuR4NpdgbAkjRABsDDxgkVVxp3NcZwEMMOiBPSrpJeFT0LQkumOe8DqNPxXU6X6FWSB5PMA+Zv3ujL8tAVOgQ+y/ibLkjIxXzvO/xKoT751fYriWWstOzlZTnWBWnIlnOb4Xqn0yX2nbMeX/Q9fssx/LTLNZ9lmk2N8Tp9WJ6W41hm2uWsdGxlACyNH/sOLga+4pdXVpddfkUdOI39fFn9jD0AbuudSihK6MvyvOXWbXWYWhpuHmWSXqldPWrTcuI21hvr79FVbt2yrTiOpjKvOhNOl+ozaaEH8L59B4rTiDJJnWfBhT7cZecxj3tC/cz4vm1pmp4BsCQNkAHw6kBjTannU6nkV0UPzWr6Ln3wHbgVILeBNMgYHn6f0rKXFxtNpflxvZOk+eGOBFdfc21jrzuOP7lbDr0iDYskaXzGHgCj6Rm1PA930mfiTlOmeSZtU51Lhd7KhNelnrNR7jwwWbi93HVejjJNnTUeBsCSNEAGwNLpR6NcPM+NIJhnJEUPN55BxS1HfYafJEmSJhXPLr/055ctvrJUPCeV27lKksZnNQTAXIxUCgxXqkzDOk9etLoZAEvSABkAS8PAc6K4FTTPlqQRjmcB8vzI177+jfVz/GZ9jpQkSZLWHhp7P/f5M6snPPHJ1U/Ov+DkbcJ5feu27dWLXvKy+njTWyNK0jithgAYDz90esJJpjst69y/zFJnjYMBsCQNkAGwJEmSJK1ehL7f/s73qv/2pKdUj3jko6qnPf0Z9cWG/P9f/vWd1cGDdy0OKUkam9USAGOSZ+vOo8zjebTWubvMo84aPgNgSRogA2BJkiRJWv0Igrnl8xW/vLK6Yd2NPkddklaB1RQAY6V6qM6zR6p1bi7zrLOGzQBYkgbIAFiSJEmSJEkan9UWAIPHFBw5cqwYKM5aGO9ysM5Ly3LVWcNlACxJA2QALEmSJEmSJI3PagyAA7cOPnK4HDBOWhjPStyK2Dp7y+e1ygBYkgbIAFiSJEmSJEkan9UcAIc6oJyypyqfOx2BpHXWWmMALEkDZAAsSZIkSZIkjc9aCIADtywmZDx29IHq6JFjp4SV/M3rvM9wDH+6WWetFQbAkjRABsCSJEmSJEnS+KylAFjScBkAS9IAGQBLkiRJkiRJ42MALGkIDIAlaYAMgCVJkiRJkqTxMQCWNAQGwJI0QAbAkiRJkiRJ0vgYAEsaAgNgSRogA2BJkiRJkiRpfAyAlXrggQeqyy+/vC78X1opBsCSNEAGwJIkSZIkSdJwHDp0qLr00kvrwv+bLEcATHB4zTXXdE577Hbu3FlddNFF1caNGxdfKdu/f3893HXXXVcdP3588dVTMR6GY7w4HfPRAFiniwGwJA2QAbAkSZIkSZI0HBEmdgWU0wbA999/f7Vp06aTYWXqdAfAbXWbpwh2u8LS+C3ahiMYJiBmOMaL0zEfmaYBsE4HA2BJGiADYEmSJEmSJGkYIsS78sor6/CwLcybNgCO3q/LHbJOY6XqFvO5LaCNYahPGu7m+HzXb7USor6nux5aewyAJWmADIAlSZIkSZKkYYieqQSg0fu0KXg0AJ5NftvmXAS71157bT1cU2/s+M26bhO93AyAdboYAEvSABkAS5IkSZIkScNAyBi9UiNYbAoeDYBnE9Nqmr/xPu2U/CZNAW9XkLxSDIB1uhgAS9IAGQBLkiRJkiRJp1/0OI2gMQK9CIRzeQDMMNdff30dRkbh7/hsBJWlEiFoKUTsE3CWwmq+A6/ndeLZuHmv5j51C4yXunCb7BiG/99xxx2LQ/QT87sUmDINfgfeJ/SJ/+e/Qzpc+l5pPiJ/nWcep/OnNG9STI/vWfruTdNMlX6P+DzjTkUAXvrd43vzfqm+vMZ7+fKQ1535xjOfm+qrcTAAlqQBMgCWJEmSJEmSTr9S4NYWvqYB8M0333wyVCNg47bFEbTFZxmG1wndeJ1/+ZvCeyiFiBHmRTBdEvVMw8D4PhSmsW7dupPTzoftUzekwSPDEGYyTIwzHbZLW4gZ8yG+c+n7oSlELs1HpK/v3bu3/mx8V/6N75FPB2l9KXxmw4YNJz+3ZcuW4jTBZwla47MsG3w2DWPz35c6lF5HfG/eLy2b+fxK687n+N0o/J+SB+saFwNgSRogA2BJkiRJkiTp9IqALA/DImgrhXARAEfQSvBHj9IUf+dhYgxfCu5KwWVT3ULUMQ8emW4pyIzpl75TW90QwSJth+ln+Z5Mn/dK02zSFLAzjvT1+JvhU02vl+Yj4nU+Q8l7LUd9SvMmfS//nRkPvwHv59NE22f5m9d5P/0eTd8B8b1jnGldY3lJPxe/K+PPv9fBgwdPqZPGxQBYkgZorQfAHChbLBaLxWKxWCwWi8VisVgsp7NsvGVr9eOf/LT62c8vq7Zs333ydf7Pa7zHMOlnKPG5pvdL5drrbqh+dN6P63/z927ZurM6/6cX1oX/x+ttn2l7r1RiGqU6t41r3Yab6vcuv+KqU97r836pxGfy+c44eJ33+Tvmcz5f8uGiNM3HeJ3PlL5j07xpmn5aYt7lw/T5bNN0m74frzP8pT//RWNd09+haTyW5S0rxQBYkgbIHsCSJEmSJEnS6RU9NEs9X9PekykCnqb32sRnStNq6vXZ1BM5ens29Q4uaftMW91iHjX18I2653VsU/q+Ub/Sa2md275HabyI15vmV4wz/55t8yUwPsabT7PPZ1EartTDOb4Dr8X7aV3jtXQ8MW4+0/e30XgYAEvSABkAS5IkSZIkSadPVyjYFOwRAHeFoiWloC9EXfJpNYWdUTfeawr2uMUv0+IZtOmzbkvft6luaTDaVfK6tykFrk3fKa9b23dvmo9Nr6dKv2mf37lp3H2XEd5nOIYPpe8Yw/FvvJ9+hv/nv23Ujc/xHvMwn2caLwNgSRogA2BJkiRJkiTp9IlArU9JQ7yVDIBR+ly8Vpr+7t2767CP96MQAG/YsKF+PQ8J0VS3NKi98sor6/E0leuvv/6UureJaUaI2VSH+J1iuPzvVNN8bJu/If9N47uX5leqNO6+n0Xp+5Q+z3yJacT7FP6f/53iOb9cBMA0ovC3z/8dPwNgSRogA2BJkiRJkiTp9InAj5CtFGhSeC8P51Y6AM7fi7CvNGyEidQ7r1t8rhRKNtWt7TOzYnyMN0JL5mlpOvn3b5v3+bCh6fVUabx9fuemcfddRnif4Rg+Fb8J78fvkA7D+zG/Yl7m40gxjvgM4y3Na42LAbAkDZABsCRJkiRJknR69AkEEcFaOlz6DOA8MG3T9pmu+qRhYlvYlw6XmyYARoxzku/aR1ofblfd9P3T4QiC+H/TfGqaj02vp0rzrs93Ly0jaJunqabh0t85/p8OE8Ex/6b/78L8jO/FvxovA2BJGiADYEmSJEmSJOn0iNCtKwCL8DEN6AiAm0K/Nk1BH7oCygj4qG+MJw/72gJeRJ1L77fVLabNuJnGPEUQSZsk9Wr6PaJ+cRvrpro0zceu+YuoSzpf+3z3+Fw+7j7LSNSr9JvEe0w75k86TLzP9Clt08mly5PGywBYkgbIAFiSJEmSJElaeWmom4eoJXkISACMCP54PX+eKn/n424LEyPMawrx4v1rrrmmLqVxIOqUB3vUh8/zXilsbKtbOr8Yb+l92hT7ho+pmG6UfJ6FCFNjuFJQjab52PR6KuZdWof4HK/n3z2+d9SpNO4YZ9MyEvO16fvweb43z1/Ofxv+z2uxTDBsivf37t275DOhLfDXeBgAS9IAGQBLkiRJkiRJK69Pz8xUhIARnEYAHAFcBICEdOvWrav/LYVraZjIuOjNevPNNy95r61OESaWxh3SoDSmEfXZtGlTXd/4Hqm2uiEPYHk+cjrutnq3yaeb1yukw1GaguIYLq9P0+upmL/5uPPvfv3119eF//N6n9tXx2eZX+l8ozCfSyEt0oC89JtHkFt6P50204t6x3chNG6aFxoHA2BJGiADYEmSJEmSJGnlRWiW95hsE+Egn40AGIRsd9xxx5JAj4CNsDXv8QnCRIK3GDba4voElBFEUpqCUjDdCCijPtQxAsGmz5fq9vDDD1fHH3yoOnb0geqeuw9VGzZsrC6+6JLqggsurMsll1xS3Xjj+uruu+6ph2P4SaQhJf82BaGI36BtHvH6ZZddVpf7Dt1fHT3yQHXkyLG67pf+bGHeLZR7772vfp3vlNa5KQAG85TfNOYNJX7jPr8d40x/Ewp/x7TS+Rx1Pnz/0ZP1Zj7feeCuU+rctUyUpsuyynLcNq81DgbAkjRABsCSJEmSJEnS+KQB8GpFyBgh5KSFz/H5lWadtdYYAEvSABkAS5IkSZIkSeOzmgPgOpA8PF0gmRfGsxIBpXU2CF6rDIAlaYAMgCVJkiRJkqTxWY0BMLcUnrYnaldhvJPeGroP67y0LFedNVwGwJI0QAbAkiRJkiRJ0vistgD44YceLgaK8y5MZ16sc3OZZ501bAbAkjRABsCSJEmSJEnS+KymAPj4g8eLIeJyFaY3K+vcXeZRZw2fAbAkDZABsCRJkiRJkjQ+qyUAXqkeqXmZpYeqde5fZqmzxsEAWJIGyABYkiRJkiRJGp/VEADzrNhSaLhSZZpn1Vrnycs0ddZ4GABL0gAZAEuSJEmSJEnjsxoC4CNHjhUDw5UqTH9S1nnyMk2dNR4GwJI0QAbAkiRJkiRJ0viMPQBe6efRNpVJnlNrnacvk9RZ42IALEkDtGvPbdXu2/ZWe/beXpfbbr+jLnvv2Ffdvm9/Xe7Yf6Au+w7cebLsv/PgyXLg4F2nlDvvuttisVgsFovFYrFYLBaLxWKxWCwWi2VVFANgSaNxN1eu3Htvde+hQ3U5dN99dbnv/vur+w8frsvhI0fqcuTo0ZPl6LFjJ8uxBx44pTzw4IMWi8VisVgsFovFYrFYLBaLxWKxWCyrohgASxqN+++/vzp8+HB1hIB3oRwl3F0ox44dqx4gyF0oDy5s2CjHjx8/WR566KGThYf450WSJEmSJEmSJGm1MACWNBoGwJIkSZIkSZIkSe0MgCWNhgGwJEmSJEmSJEnTox398ssvr3bu3Ln4ilYjA2BJo2EALEmSJEmSJJ1+BEcXXXTRKWX//v2LQwwbbYbXXXfdKfVfzkAspknh/5reWOblxo0b66CVduvcoUOHqksvvbS4zEVAy+eX47saAK8NBsCSRsMAWJIkSZIkSTp9IjgqhVqEvwRW8xLTmneozPhKYS+vTxqINdWx9PpyBHnzslzzeh5Wel7Oc14wDpa10rhY1niv9B0iHOZzy/Fd4zsaAK9uBsCSRsMAWJIkSZIkSTo9IjSaZ8jbJg3B5iXCtHl9h6Y6Lkfdl9OQ67vSdZvn9NqCVpbBa6+9tn6f4VIMTx2oy3Joq5dWDwNgSaNhACxJkiRJkiSdHoRFpbBquSxH8BfBlwHwUkOu70rXbd7TY1nLe+/Gcrht27bitEqfmaeYvgHw6mYALGk0DIAlSZIkSZKklTdLcMpn4hm7lD4hcv4ZSj7tacYLPkfoRtDXJcLAmEYayjXVsen1+Ew+Dv6+5557lkynFMzFbxDDMPzBgweLQV5eh5h+ST5safh8mL7zmu/J90s/W6pL03BtdePfmJfp/1Mx3nivaTqhbXpoWx6a8NvkyxuBL/OQNm7GkU4jfuf0N82/X/zdZ7nJv3PbcoN8HuS/dV4XxHxJxxfTTb9bPu70Pc2fAbCk0TAAliRJkiRJklZeBDyT9IqMICsPiwh98kCspGmas443Pk8AlY8jlYdaDJcHWk11bHqdz6bT5O+8HnyG19LPxvjSaaffI69jOj6G27JlS/3/Jk31nXVeM740FIzxpa81fbeoc595WZpnyD87SX2axpXP67TeJaXxpXVP/4+u4ePveS436PtbM/70bzCevD4xPobnNd7L3+9aLjUbA2BJo2EALEmSJEmSJK28UiiFCJ2ipAFPHloF/ub1NJQqaZrmrOMNEVrl9UbTuPLwq6mOfevO3+n4UJp2/rkQ04kgLw3dJtG3vqFp/vSRj7NpGqFP3Zrqw3xpGzfy6Zem1zR+hsl/v1z+2fg7frN8HLzOb8hvGfI68nc+3VId88+F+I5RBzQNm483lrH8s9zO+pe//OXJevO94ntMu1xqNgbAkkbDAFiSJEmSJElaeaVQLJcGSBH4pCFRqhRy5UrTnMd4c3yGEDgN1Jq+b/563+FCHrI1hW5952X+HsPzufS79FGq77zmddQpwvY0cI9p5PMp1Xde5vVpqn9bfVCaXlMdml7PUdeoG5/h//yLdB5E3Rg+lX/X/O+Qvt70/ZG/1zYs8nnLdKKOvEbwG7eVjnnBZ6Iu8b2YV/G9tfwMgCWNhgGwJEmSJEmStPK6AiL0DZ9ASJQGSiWlcG0e4y2J8Ub9Y9ppSJiWqFOpjmh6PQ/u8r9D33nZ9B6fj7ry/y7LNa+jHuk40u/WNJ9SfedlPlypfl31QWl68VrM07y01R+8z+cZD9NO68V0mT71aPs90zrmf4f09bbfL3+vbVjk8zL9m//HNJk+44jvVPoeMc/4v5aXAbCk0TAAliRJkiRJkk6PptAp9A2fwOtpoFRSCuLmMd4m6WdL0y5pGq7p9XweNs3TvvOya35EPdp+NyzHvO4zD5qGSfWdl0hf4/+U0Hc8peH61LNNOi/zeiHm5d69e+vpML1UXsf875C+PslyM+lvnc4Pphmf42+mf88999TD598jxOdL30HzYwAsaTQMgCVJkiRJkqTTI0KbppCob0jF37zO+23SkCk163ib8LkIuWatY9+6N32X9PWoS2k4xk9vyqbfBAxDXahTk+WY16Vx5t9l2vGgVLf4rgSpeQDZpz5oG66tnl347K9//eu6Xvl3YZq8vmHDhlO+E/LvWvruSF+POpeGY/r5ctM0zhgP74d4bcuWLfXtn2M+x/fgecClcaXit4rPav4MgCWNhgGwJEmSJEmSdPpEcJSGQYhAKA19IkjLgyA+G0FrG95nuDzcnGW8vHf11VefMkwpEIvX+DfwufXr15+cblMdm17PQ7b875C/XprvMR/SejNdQrlU0zRSTfWddV4zTFpn/k99u75b+j2a6lb6Xvyf16699tpT3utbn6bp9Vke2jA+Pl8KPWOa+XwI+XctfXfkr/ddbjDpb81nr7zyyuqGG244OTz/8vl83Hy2bbmMz+XT1mwMgCWNhgGwJEmSJEmSdHpFWEPIk5ZSsFUadpKQJwIsShpiTTveNGhLS6nuSKcfJQ0A0VTH0utp6FX6O5ReT4M7Cu/TRpqGlaXv12e+YN7zGnmdqWfpu5Xqnc7nPvMyMI3886FvfZrmRfp6lNJ0SmLaTfOO6TSNL69j03cvvd5nuQl8jvdj2Bi+VN8Ybz6O0vzvWi5juk3T0nQMgCWNhgGwJEmSJEmSJJ0QwVrfEFLS2mEALGk0DIAlSZIkSZIk6QSCX3ph0htTklIGwJJGwwBYkiRJkiRJ0lrDbXXzW+0S/nIr3fx1SYIBsKTRMACWJEmSJEmStNbkz3Gl2PNXUhsDYEmjYQAsSZIkSZIkSZLUzgBY0mgYAEuSJEmSJEmSJLUzAJY0GgbAkiRJkiRJkiRJ7QyAJY2GAbAkSZIkSZIkSVI7A2BJo2EALEmSJEmSJEmS1M4AWNJoGABLkiRJkiRJkiS1MwCWNBoGwJIkSZIkSZIkSe0MgCWNhgGwJEmSJEmSJElSOwNgSaMxpgD4wQePV+s23VJ960fnV1//3g+rX/7q19XhI0cX3z3VvgN3Vj+/8tp62PMu/nm1eduOur6pAwfvqq687oa6XHfjxurowvfO3XPoUHXZ1b+qx9NnuqvZXXffU33yS1+rbth40+IrmoXzs9mxhW3PF87+dvWhz36x2n/nwcVX+9m99/bqfZ/6fHXWd39YPbiwvZIkSZIkSZKkWRkASxqN5QqAiYA33Ly5+vf/OLv63Nf+s/rad86tvvrtH1Sf/vLX6wD3zrvuPlGBngiAPnbmf1Tv+Minq8+f9c3qK9/8Xh3wvOcTn6tD4RTTvuDnV1Rv//Cnqnd97N+rf/v0ieH+5YOfqAOl++4/fGLABdfesL5628LrFIbL63XV9evqaTItphnTfefHPlP9at2GxaHWDuYP84n5ptkNaX6m60JTYf09vLCdWAkGwJIkSZIkSZKGxABY0mgsRwB86L7768D38qt/VffazRHmfPkb36173fbpK0zgRJBM+HTvofsWXz3RI5jpfODfv1D39g03bdlavfOjn6l+eOHP6voFXn/3xz9bfe/8ixZf+Q3CrzwAvnX7znr4fDz8n9c++O9fXDLdtcAAeL6GND8JXKlPlO/++MLq41/4arXn9n0nX7vn3kO91llJkiRJkiRJWm0MgCWNxrwD4AceeLD65g9/Ut2ydXs9fm6ffP6lv6iDWm6fTK9ZPkN4e/b3z6uu6RF8cXtcevIS4OZ27tlbvecTn6176oJw6uzv/aj67FfPKd7OmZ7BH/rcl6q77z20+MoJpQD4O+ddUAdgaY/hQChNIH3RL65cfGVtYP6spQCYZbW0HM3LkOfnjy66dNl7/DLuQwvbIEmSJEmSJEkaOgNgSaMx7wCYXr0XXv7Letw8c/e9nzyj+vI3vlddce311cW/uKr6wGe+UIezhKqEw4TC/NvmJz+7rL79Mz2LcxGgEVaBYRiWz5Rs3bGret+nzqg23rJl8ZUT8gCY3pDcuvqc759X/11y7gWX1D2Zm3pE8jq9KPnOt+87cOLFRfxNz+WLLr+yfr4wAffNt25bfPcE5tGnvnRW9Z8/+HG1+/Z9db3peZxOj//z2oc/96U6IO8aZuee2+r58x/f+n4dwqf4jbht7o7dty2+cqo0sDx49931bb251Ta3B+YW24ybW3/H9Ln97pf+8zuNQTqoN9//+vWbFl8pY5yMm3ExLabJtPmddix8r5JJPxOh5+69d1RfOOfb9Wdi2QLLO8+A/uBnv7hkfF9cGLbpNsW8zgUQ3Eo8nU8bb7m1MQCe5ruW6sY0mfakt1BGWwDcFVzHBRLpvIvPcNEHyxq3ZaeOFHrs//iSy05ZJkt1KC13bFO47XMoTT8w/xg+5lH6ebZZ1JF/JUmSJEmSJCllACxpNOYZAD+wMMw53/9Rddsd+6q77r6n+sgZX67Ou/jnJ8NARKgZt2G+5BdX9eoF3IRgi9AyegDv3be/Dp2bgqkIoWL4kAfAESDRC7gJ4dInv/S16v7DzT0kmQ8Er4RwEW4RivJs0jPO+kbdu5TC/z/zlbOXhKQEYsxDxgHCYm5JHb2rwW2q+b6/3nBT/XefYfiXZxgT1gfmIz2j+XybmH/06mZ4vgdhKa8TrvM9/vUjn657WsfvTrDL9PLQPbAstAXEYFwsS2//0CeXTJPwOKaZfh9M8xl+U34vAlpuO85tzOllDn4/xvOOj366+v5PL65u33+gHt+Ghe/FspLPd9y6ME+YX1wEwDLH8Mzrn11x9cJv8rl6PvJ+urxOU2/qFiFzWjfmPd+lVLcupfA1MO683qm2AJhneNcXCizMN35zXmc46s73TZ/Zm9eBf/ldPvr5r9QhLZ9lufvUl89a8qzg0vQRz/SO6fN55hXzjO3IBZddUdfRAFiSJEmSJElSzgBY0mjMMwAmTPnGuT+pg2BCXQLCg4vhZYpA7cabNtdBD0FLHtJMgoCLIG377j313109+JqCoTwABr0Mzzz7W0sCqUBIx62m88+UROAaQTd/E8gSzAZ63fI9CH3jb8adhuMRFBOA8T3i7zQ06zMMdadXcQRm8Xd8pg3flXrRezMPIcHy8IOfXlIHjvH9CPkIeJlfTCvF8kE9CIzblELrENOkTmnv5Wk+w3JBj9D8wgUQHtJTmduY5yKATYPsWNbyYD/wbF3WEaaXBqnT1LsU/AeWga9883t1sB0XE/SRh6+pWA6mCYB5djaha47vwO3cY11GXgduB1/6nlz4QYAbt2QvTZ/nddPrPr0YI0XATv0YvwGwJEmSJEmSpJwBsKTRmGcATCD1jXN/XP+f4IXb1XIr5TaEQtwmeRqEavQm5hbDEW7OMwAmXKa3ZymII4BieAKl9DMl1I0A9sQtmPfWIWEEvSleIwSm1yi3H857Q4JQlYCKsIxbRxMgRq/H0GcY/iZ4Jfhdf/Pm+rukgXSTCPGoXylEQ4S6ae9pAl4COoK6FAE348tfTzEPCOI///Vv9p7mNJ8By8X7P31mdeDgXYuvnBC3BE+XtRzBJb8fISX4lyD3xptuqf8u4fdJA+Bp6h23Pf/Wj84/JbQO1I1lgh7NfeXhayqWg2kCYG6dXsIyyTKS1jGvA73Imaf57cL53vfce+jkcKXpEw4UWSPxAAAKJklEQVQTnO+5/Y7FV5ZiHGyLGL8BsCRJkiRJkqScAbCk0RhrAExYQy9NAiN6UoZ5BsAEcISwhMA8C/i6GzfWhf8z3Z9e+ovqw2d8eclnmtTP/P3MF+oejoTWpR6hEWjTy5SAL39uMPjePM+X2wAzHM9SzfUZBrzOdyPwyp8b3CRCvK4gkR6n9Hw9cvRY/Xf00Ex7+hJ2EqiWeganCDyZd03PdQ7pNKf5DPLAMcT4oodpScybWLaYNp/hs024IIBlIoLUaerNLZAJd1k2m8RyT6/2vprmBeK7ThMAN32GW6lzS/X0M3kd+Jee6izX3Ea7tB6hNH2+e/pbl0QPYwNgSZIkSZIkSTkDYEmjMcZbQEf4W7odL2EYvfyiF2bu7nsP1fXKg7xSAAy+Hz2A6bXL9Bj3f3zr+/VzjvkMPS/pgdkHz3v9lw99csltnXO/unFDPcyPL/n54iunOnj33fVtdE8EY0cXX12qzzDcGpgwjcAx7/HapCvEC98//6IlwR2/GUFveotkeqUyLm6926bvNNOwcJrPlP4OMb63ffATnSWW56ZxpfJ6TlPvroseAqExpa+2+nfVk8/w2ZgXmOYzpTqw3P7057+oLyig9/QHP/vFuvd8GgaXxtXn+/edl5IkSZIkSZLWHgNgSaMxzwCY4Pec7/+oDkd51uhHzvjyKc9SjV6u3zv/ovrvS35xVWsgmmN69Fal5yrPZM1FyFR6D9xmlvfz3pKEUrzO5/siRO7Tyxn1LZc/96XqXz/8qcYewIRWBLL03CWULfUABmEX46E09e7tMwzznfn49g99ctl7AIOglwA9Al96A6eBcJOYZlvvW6TTnOYzaAo9+37vFOPq6gFMz2ieB50HwJPUm7CSXqtNFz0gAtEh9wAufaatDmDeMq+Yz+//zJnV7r2316+XxlVaJnPcYprbeBsAS5IkSZIkScoZAEsajXkGwBR6y154+S/rcROiEPhxm19CSG6ZTAD0hbO/XYd+9xw6VH39ez+s/+2Dnn/0MG4Lu+JZrdymuYRnh77vU2fUvZBTpQB40+Zb61vS3r6/fCtmegKnz49twrA8a/eMs75RzxMCpjwYB8/sJTSnZyzPC/7ad85dmO9LnwPLbbap5/UbNtXjpJdvXr8+w0RAzzQpzFOea9wlQry2Z+ESyuXP1gW/32e/ek7dE5he04S/6S2hm/R5/i7Pf/3o579y8nef5jNoChxjfG23q6Z3OaE6va/R5xnAv7jm+iXPAJ6m3tGrPS6qKOG5t6yLXcFyqi18jWl2Pc83DWCXIwAObEPojR/zpDQuvjvzoOkZwGAe+gxgSZIkSZIkSSUGwJJGY94B8AMPPFh984c/ORkmEvTyrE7CTMIZQjE+Q7B59sLffXv/EqrRe49gMQ9vc4SKhLzps4HBNL9wzrerz3/9m3XQlioFwHWQye2iLz81NOP7MXzX7Yvx6w031b08b92+s/47Atf4GxHaxvzgMwRR6fwhQCVE5rnEhIOEuATF8XffYSKQprcxQVl8Jv5uEyEePYcJ+3OMO27PXQrRCDz5fPTapAdsH/To7ppmPk+n+Uxb4Mj4GP7mW7ctvvIbjI9nWbN8Ro9fln1CbpbbUi9nQnmWrzQAxrT15rVSiM9yz/pH3Qhm+2qbFyxLhNSErqULOFjG+V5pADuPALgpxI3gPHo4l8YVz6EuXVgB5h3jblp2JUmSJEmSJK1tBsCSRmPeATCF3p2ELNwutxS0EEJ9+RvfrQMuAq0uEbZy62SCUoKkvNArMsYVvQEJGAkcmR5BLQFRU0hWCoBBkEUYR5DEeHifgI5hm4KkVNSFcDDqRzhF2EroSvgawTQlxkfARmhLeEuIi8sW5icBVhpsExATFBMYo88wG27ZUgdd/BsIE5k3pbA7xffnu9NTklvufv+nF9fPDz6+sBxw62/mCc8wLvVwRvQOJmRr602bY74wP/gtStPkttkE/+n4pvlMHjimYnzMJy5qINTls4yXnuxMh2UjxbLG8CwDzG+CSsbNcNGDNg9Fp6k3daF3NfOVurE+MJ6tO3fXyz2/f/687C5t8wLx3Rj/tl27620B0+V24qx7lDSAjWVnlgCYdZDl5xNf/NrJafKMa6aZLuOlcYFtDvOPdY95wzyizsyz93/6zPrW6dQxAmCeKc7FG+f/7PL6b0mSJEmSJElrlwGwpNFYjgCYwusETvR+/Pf/OKcOrngGJ0HYN394/ilBaxs+97YPfqK15EEVPYaZ5js+8un6fXoj0htz4y23Lg6xVFMATMjG7asJVWNahF4EnIS3bfgswW8a4gZ6kRLWEbgS2nJbaMLtFM8AJkSjt+7u2/fVdcgDWgIsbkXNNAi5u4bZuee2+jdgnGmAyP8J0QiG83qk0hCP560SOjJvY95QX56vnI47R3hMuNmn93SKZeoX11y35Ldg2nW4evPm4jQn/UxX6BnjYz6l42PZ2rEwb0tK84kQc92mW+pwtxSKTvNdWR6jd3D6GabdVLc2XfMChMB8l6XTOxEI5wHsPAJgEAJzsUQ6P/k9WE9jvpTGFdgGMB/j8/wbvx/BbxoA33jT5urtH/5UfVcDSZIkSZIkSWubAbCk0ViuAFhrBwEzPXvbgsLAkkHPX0LJrgC9DdNimky7r2k+02bS8U0yn1LT1PvQwnrNRQesnyuBOhLw5rdWX058N74j33Ua1HWl6yxJkiRJkiRpvAyAJY0G4W8eABP+GgBrOcRzWLmFsSRJkiRJkiRJY2EALGk0DIC1kgh+CYAJgiVJkiRJkiRJGgsDYEmjYQCslXLf/YfrZ61yC2iXEEmSJEmSJEnSmBgASxoNA2CtlI23bKne84nPVjdt2br4iiRJkiRJkiRJ42AALGk00gCY8NcAWMvl8MIydtfd99TLjCRJkiRJkiRJY2IALGk0DIAlSZIkSZIkSZLaGQBLGo389s/zCIAlSZIkSZIkSZJWEwNgSaNhACxJkiRJkiRJktTOAFjSaBgAS5IkSZIkSZIktTMAljQa0wTAafhrACxJkiRJkiRJklY7A2BJo9EUAEf4awAsSZIkSZIkSZLWOgNgSaMRAXBX79+mADgPfw2AJUmSJEmSJEnSamMALGk0Jr39swGwJEmSJEmSJElaawyAJY2GAbAkSZIkSZIkSVI7A2BJo2EALEmSJEmSJEmS1M4AWNJotIW/BsCSJEmSJEmSJEkGwJJGpE/v3zQANvyVJEmSJEmSJElrjQGwpNGI8LctALb3ryRJkiRJkiRJWssMgCWNRlP4awAsSZIkSZIkSZJ0ggGwpNHo6v2bBsBp+GsALEmSJEmSJEmS1goDYEmjMW3vXwNgSZIkSZIkSZK0VhgASxqNCH+7ev/mAXAp/KVIkiRJkiRJkiStNgbAkkbD3r+SJEmSJEmSJEntDIAljcY0vX8NgCVJkiRJkiRJ0lpiACxpNPr0/s0D4FL4S5EkSZIkSZIkSVp9qur/B3jbZQDXQLbFAAAAAElFTkSuQmCC" vertex="1" parent="1">
          <mxGeometry x="300" y="200" width="1920" height="897" as="geometry" />
        </mxCell>
        <mxCell id="48J_HxQhAaGGOyNuxUYL-4" value="" style="rounded=0;whiteSpace=wrap;html=1;strokeWidth=2;fillColor=none;dashed=1;" parent="1" vertex="1">
          <mxGeometry x="664" y="825" width="1468" height="60" as="geometry" />
        </mxCell>
        <mxCell id="48J_HxQhAaGGOyNuxUYL-2" value="" style="ellipse;whiteSpace=wrap;html=1;aspect=fixed;fillColor=none;strokeWidth=2;dashed=1;" parent="1" vertex="1">
          <mxGeometry x="2007" y="832.5" width="40" height="40" as="geometry" />
        </mxCell>
        <mxCell id="48J_HxQhAaGGOyNuxUYL-3" value="" style="rounded=1;whiteSpace=wrap;html=1;strokeWidth=2;fillColor=none;dashed=1;" parent="1" vertex="1">
          <mxGeometry x="1894" y="553" width="125" height="50" as="geometry" />
        </mxCell>
        <mxCell id="48J_HxQhAaGGOyNuxUYL-5" value="&lt;font color=&quot;#ff0000&quot; size=&quot;1&quot; face=&quot;Old Standard TT&quot;&gt;&lt;b style=&quot;font-size: 20px&quot;&gt;(3)&lt;/b&gt;&lt;/font&gt;" style="text;html=1;align=center;verticalAlign=middle;whiteSpace=wrap;rounded=1;shadow=0;glass=0;sketch=0;strokeWidth=3;" parent="1" vertex="1">
          <mxGeometry x="627" y="837" width="30" height="27" as="geometry" />
        </mxCell>
        <mxCell id="48J_HxQhAaGGOyNuxUYL-6" value="&lt;font color=&quot;#ff0000&quot; size=&quot;1&quot; face=&quot;Old Standard TT&quot;&gt;&lt;b style=&quot;font-size: 20px&quot;&gt;(1)&lt;/b&gt;&lt;/font&gt;" style="text;html=1;align=center;verticalAlign=middle;whiteSpace=wrap;rounded=1;shadow=0;glass=0;sketch=0;strokeWidth=3;" parent="1" vertex="1">
          <mxGeometry x="1860" y="566.5" width="30" height="27" as="geometry" />
        </mxCell>
        <mxCell id="48J_HxQhAaGGOyNuxUYL-7" value="&lt;font color=&quot;#ff0000&quot; size=&quot;1&quot; face=&quot;Old Standard TT&quot;&gt;&lt;b style=&quot;font-size: 20px&quot;&gt;(4)&lt;/b&gt;&lt;/font&gt;" style="text;html=1;align=center;verticalAlign=middle;whiteSpace=wrap;rounded=1;shadow=0;glass=0;sketch=0;strokeWidth=3;fillColor=#ffffff;" parent="1" vertex="1">
          <mxGeometry x="2053" y="839" width="30" height="27" as="geometry" />
        </mxCell>
        <mxCell id="M3BjKk8lu1IJlSjOZzsM-2" value="&lt;font color=&quot;#ff0000&quot; size=&quot;1&quot; face=&quot;Old Standard TT&quot;&gt;&lt;b style=&quot;font-size: 20px&quot;&gt;(2)&lt;/b&gt;&lt;/font&gt;" style="text;html=1;align=center;verticalAlign=middle;whiteSpace=wrap;rounded=1;shadow=0;glass=0;sketch=0;strokeWidth=3;" vertex="1" parent="1">
          <mxGeometry x="2000" y="343" width="30" height="27" as="geometry" />
        </mxCell>
        <mxCell id="M3BjKk8lu1IJlSjOZzsM-3" value="" style="rounded=0;whiteSpace=wrap;html=1;strokeWidth=2;fillColor=none;dashed=1;" vertex="1" parent="1">
          <mxGeometry x="1830" y="210" width="374" height="130" as="geometry" />
        </mxCell>
      </root>
    </mxGraphModel>
  </diagram>
</mxfile>
